G04 #@! TF.GenerationSoftware,KiCad,Pcbnew,5.1.5+dfsg1-2build2*
G04 #@! TF.CreationDate,2021-02-17T11:04:07+00:00*
G04 #@! TF.ProjectId,HILTOP_Motherboard,48494c54-4f50-45f4-9d6f-74686572626f,Rev C*
G04 #@! TF.SameCoordinates,Original*
G04 #@! TF.FileFunction,Other,Comment*
%FSLAX46Y46*%
G04 Gerber Fmt 4.6, Leading zero omitted, Abs format (unit mm)*
G04 Created by KiCad (PCBNEW 5.1.5+dfsg1-2build2) date 2021-02-17 11:04:07*
%MOMM*%
%LPD*%
G04 APERTURE LIST*
%ADD10C,0.150000*%
%ADD11C,0.060000*%
G04 APERTURE END LIST*
D10*
X60650000Y-60160000D02*
G75*
G03X60650000Y-60160000I-4300000J0D01*
G01*
X76300000Y-56000000D02*
G75*
G03X76300000Y-56000000I-4300000J0D01*
G01*
X218300000Y-56000000D02*
G75*
G03X218300000Y-56000000I-4300000J0D01*
G01*
X218130000Y-83020000D02*
G75*
G03X218130000Y-83020000I-4300000J0D01*
G01*
X218130000Y-215100000D02*
G75*
G03X218130000Y-215100000I-4300000J0D01*
G01*
X60650000Y-215100000D02*
G75*
G03X60650000Y-215100000I-4300000J0D01*
G01*
D11*
X162942857Y-87007142D02*
X163142857Y-87007142D01*
X163228571Y-87321428D02*
X162942857Y-87321428D01*
X162942857Y-86721428D01*
X163228571Y-86721428D01*
X163485714Y-87321428D02*
X163485714Y-86721428D01*
X163828571Y-87321428D01*
X163828571Y-86721428D01*
X164028571Y-86721428D02*
X164371428Y-86721428D01*
X164200000Y-87321428D02*
X164200000Y-86721428D01*
X164914285Y-87321428D02*
X164714285Y-87035714D01*
X164571428Y-87321428D02*
X164571428Y-86721428D01*
X164800000Y-86721428D01*
X164857142Y-86750000D01*
X164885714Y-86778571D01*
X164914285Y-86835714D01*
X164914285Y-86921428D01*
X164885714Y-86978571D01*
X164857142Y-87007142D01*
X164800000Y-87035714D01*
X164571428Y-87035714D01*
X165285714Y-87035714D02*
X165285714Y-87321428D01*
X165085714Y-86721428D02*
X165285714Y-87035714D01*
X165485714Y-86721428D01*
X166114285Y-87292857D02*
X166200000Y-87321428D01*
X166342857Y-87321428D01*
X166400000Y-87292857D01*
X166428571Y-87264285D01*
X166457142Y-87207142D01*
X166457142Y-87150000D01*
X166428571Y-87092857D01*
X166400000Y-87064285D01*
X166342857Y-87035714D01*
X166228571Y-87007142D01*
X166171428Y-86978571D01*
X166142857Y-86950000D01*
X166114285Y-86892857D01*
X166114285Y-86835714D01*
X166142857Y-86778571D01*
X166171428Y-86750000D01*
X166228571Y-86721428D01*
X166371428Y-86721428D01*
X166457142Y-86750000D01*
X166714285Y-87321428D02*
X166714285Y-86721428D01*
X167000000Y-87321428D02*
X167000000Y-86721428D01*
X167142857Y-86721428D01*
X167228571Y-86750000D01*
X167285714Y-86807142D01*
X167314285Y-86864285D01*
X167342857Y-86978571D01*
X167342857Y-87064285D01*
X167314285Y-87178571D01*
X167285714Y-87235714D01*
X167228571Y-87292857D01*
X167142857Y-87321428D01*
X167000000Y-87321428D01*
X167600000Y-87007142D02*
X167800000Y-87007142D01*
X167885714Y-87321428D02*
X167600000Y-87321428D01*
X167600000Y-86721428D01*
X167885714Y-86721428D01*
M02*
