G04 #@! TF.GenerationSoftware,KiCad,Pcbnew,5.1.5+dfsg1-2build2*
G04 #@! TF.CreationDate,2021-02-17T11:04:07+00:00*
G04 #@! TF.ProjectId,HILTOP_Motherboard,48494c54-4f50-45f4-9d6f-74686572626f,Rev C*
G04 #@! TF.SameCoordinates,Original*
G04 #@! TF.FileFunction,OtherDrawing,Comment*
%FSLAX46Y46*%
G04 Gerber Fmt 4.6, Leading zero omitted, Abs format (unit mm)*
G04 Created by KiCad (PCBNEW 5.1.5+dfsg1-2build2) date 2021-02-17 11:04:07*
%MOMM*%
%LPD*%
G04 APERTURE LIST*
%ADD10C,0.300000*%
%ADD11C,0.200000*%
%ADD12C,0.127000*%
G04 APERTURE END LIST*
D10*
X230866428Y-195578571D02*
X230152142Y-195578571D01*
X230152142Y-194078571D01*
X231295000Y-195150000D02*
X232009285Y-195150000D01*
X231152142Y-195578571D02*
X231652142Y-194078571D01*
X232152142Y-195578571D01*
X232937857Y-194864285D02*
X232937857Y-195578571D01*
X232437857Y-194078571D02*
X232937857Y-194864285D01*
X233437857Y-194078571D01*
X233937857Y-194792857D02*
X234437857Y-194792857D01*
X234652142Y-195578571D02*
X233937857Y-195578571D01*
X233937857Y-194078571D01*
X234652142Y-194078571D01*
X236152142Y-195578571D02*
X235652142Y-194864285D01*
X235295000Y-195578571D02*
X235295000Y-194078571D01*
X235866428Y-194078571D01*
X236009285Y-194150000D01*
X236080714Y-194221428D01*
X236152142Y-194364285D01*
X236152142Y-194578571D01*
X236080714Y-194721428D01*
X236009285Y-194792857D01*
X235866428Y-194864285D01*
X235295000Y-194864285D01*
X237866428Y-195507142D02*
X238080714Y-195578571D01*
X238437857Y-195578571D01*
X238580714Y-195507142D01*
X238652142Y-195435714D01*
X238723571Y-195292857D01*
X238723571Y-195150000D01*
X238652142Y-195007142D01*
X238580714Y-194935714D01*
X238437857Y-194864285D01*
X238152142Y-194792857D01*
X238009285Y-194721428D01*
X237937857Y-194650000D01*
X237866428Y-194507142D01*
X237866428Y-194364285D01*
X237937857Y-194221428D01*
X238009285Y-194150000D01*
X238152142Y-194078571D01*
X238509285Y-194078571D01*
X238723571Y-194150000D01*
X239152142Y-194078571D02*
X240009285Y-194078571D01*
X239580714Y-195578571D02*
X239580714Y-194078571D01*
X240437857Y-195150000D02*
X241152142Y-195150000D01*
X240295000Y-195578571D02*
X240795000Y-194078571D01*
X241295000Y-195578571D01*
X242652142Y-195435714D02*
X242580714Y-195507142D01*
X242366428Y-195578571D01*
X242223571Y-195578571D01*
X242009285Y-195507142D01*
X241866428Y-195364285D01*
X241795000Y-195221428D01*
X241723571Y-194935714D01*
X241723571Y-194721428D01*
X241795000Y-194435714D01*
X241866428Y-194292857D01*
X242009285Y-194150000D01*
X242223571Y-194078571D01*
X242366428Y-194078571D01*
X242580714Y-194150000D01*
X242652142Y-194221428D01*
X243295000Y-195578571D02*
X243295000Y-194078571D01*
X244152142Y-195578571D02*
X243509285Y-194721428D01*
X244152142Y-194078571D02*
X243295000Y-194935714D01*
X245937857Y-194078571D02*
X245937857Y-195292857D01*
X246009285Y-195435714D01*
X246080714Y-195507142D01*
X246223571Y-195578571D01*
X246509285Y-195578571D01*
X246652142Y-195507142D01*
X246723571Y-195435714D01*
X246795000Y-195292857D01*
X246795000Y-194078571D01*
X247509285Y-195578571D02*
X247509285Y-194078571D01*
X248080714Y-194078571D01*
X248223571Y-194150000D01*
X248295000Y-194221428D01*
X248366428Y-194364285D01*
X248366428Y-194578571D01*
X248295000Y-194721428D01*
X248223571Y-194792857D01*
X248080714Y-194864285D01*
X247509285Y-194864285D01*
X249009285Y-195435714D02*
X249080714Y-195507142D01*
X249009285Y-195578571D01*
X248937857Y-195507142D01*
X249009285Y-195435714D01*
X249009285Y-195578571D01*
X249009285Y-194650000D02*
X249080714Y-194721428D01*
X249009285Y-194792857D01*
X248937857Y-194721428D01*
X249009285Y-194650000D01*
X249009285Y-194792857D01*
X230866428Y-198128571D02*
X230152142Y-198128571D01*
X230152142Y-196628571D01*
X232009285Y-198128571D02*
X232009285Y-197342857D01*
X231937857Y-197200000D01*
X231795000Y-197128571D01*
X231509285Y-197128571D01*
X231366428Y-197200000D01*
X232009285Y-198057142D02*
X231866428Y-198128571D01*
X231509285Y-198128571D01*
X231366428Y-198057142D01*
X231295000Y-197914285D01*
X231295000Y-197771428D01*
X231366428Y-197628571D01*
X231509285Y-197557142D01*
X231866428Y-197557142D01*
X232009285Y-197485714D01*
X232580714Y-197128571D02*
X232937857Y-198128571D01*
X233295000Y-197128571D02*
X232937857Y-198128571D01*
X232795000Y-198485714D01*
X232723571Y-198557142D01*
X232580714Y-198628571D01*
X234437857Y-198057142D02*
X234295000Y-198128571D01*
X234009285Y-198128571D01*
X233866428Y-198057142D01*
X233795000Y-197914285D01*
X233795000Y-197342857D01*
X233866428Y-197200000D01*
X234009285Y-197128571D01*
X234295000Y-197128571D01*
X234437857Y-197200000D01*
X234509285Y-197342857D01*
X234509285Y-197485714D01*
X233795000Y-197628571D01*
X235152142Y-198128571D02*
X235152142Y-197128571D01*
X235152142Y-197414285D02*
X235223571Y-197271428D01*
X235295000Y-197200000D01*
X235437857Y-197128571D01*
X235580714Y-197128571D01*
X238009285Y-198128571D02*
X237152142Y-198128571D01*
X237580714Y-198128571D02*
X237580714Y-196628571D01*
X237437857Y-196842857D01*
X237295000Y-196985714D01*
X237152142Y-197057142D01*
X239795000Y-197557142D02*
X240937857Y-197557142D01*
X242723571Y-198057142D02*
X242937857Y-198128571D01*
X243295000Y-198128571D01*
X243437857Y-198057142D01*
X243509285Y-197985714D01*
X243580714Y-197842857D01*
X243580714Y-197700000D01*
X243509285Y-197557142D01*
X243437857Y-197485714D01*
X243295000Y-197414285D01*
X243009285Y-197342857D01*
X242866428Y-197271428D01*
X242795000Y-197200000D01*
X242723571Y-197057142D01*
X242723571Y-196914285D01*
X242795000Y-196771428D01*
X242866428Y-196700000D01*
X243009285Y-196628571D01*
X243366428Y-196628571D01*
X243580714Y-196700000D01*
X244223571Y-198128571D02*
X244223571Y-197128571D01*
X244223571Y-196628571D02*
X244152142Y-196700000D01*
X244223571Y-196771428D01*
X244295000Y-196700000D01*
X244223571Y-196628571D01*
X244223571Y-196771428D01*
X245580714Y-197128571D02*
X245580714Y-198342857D01*
X245509285Y-198485714D01*
X245437857Y-198557142D01*
X245295000Y-198628571D01*
X245080714Y-198628571D01*
X244937857Y-198557142D01*
X245580714Y-198057142D02*
X245437857Y-198128571D01*
X245152142Y-198128571D01*
X245009285Y-198057142D01*
X244937857Y-197985714D01*
X244866428Y-197842857D01*
X244866428Y-197414285D01*
X244937857Y-197271428D01*
X245009285Y-197200000D01*
X245152142Y-197128571D01*
X245437857Y-197128571D01*
X245580714Y-197200000D01*
X246295000Y-197128571D02*
X246295000Y-198128571D01*
X246295000Y-197271428D02*
X246366428Y-197200000D01*
X246509285Y-197128571D01*
X246723571Y-197128571D01*
X246866428Y-197200000D01*
X246937857Y-197342857D01*
X246937857Y-198128571D01*
X248295000Y-198128571D02*
X248295000Y-197342857D01*
X248223571Y-197200000D01*
X248080714Y-197128571D01*
X247795000Y-197128571D01*
X247652142Y-197200000D01*
X248295000Y-198057142D02*
X248152142Y-198128571D01*
X247795000Y-198128571D01*
X247652142Y-198057142D01*
X247580714Y-197914285D01*
X247580714Y-197771428D01*
X247652142Y-197628571D01*
X247795000Y-197557142D01*
X248152142Y-197557142D01*
X248295000Y-197485714D01*
X249223571Y-198128571D02*
X249080714Y-198057142D01*
X249009285Y-197914285D01*
X249009285Y-196628571D01*
X250937857Y-197557142D02*
X252080714Y-197557142D01*
X254437857Y-197342857D02*
X253937857Y-197342857D01*
X253937857Y-198128571D02*
X253937857Y-196628571D01*
X254652142Y-196628571D01*
X255223571Y-197985714D02*
X255295000Y-198057142D01*
X255223571Y-198128571D01*
X255152142Y-198057142D01*
X255223571Y-197985714D01*
X255223571Y-198128571D01*
X256795000Y-197985714D02*
X256723571Y-198057142D01*
X256509285Y-198128571D01*
X256366428Y-198128571D01*
X256152142Y-198057142D01*
X256009285Y-197914285D01*
X255937857Y-197771428D01*
X255866428Y-197485714D01*
X255866428Y-197271428D01*
X255937857Y-196985714D01*
X256009285Y-196842857D01*
X256152142Y-196700000D01*
X256366428Y-196628571D01*
X256509285Y-196628571D01*
X256723571Y-196700000D01*
X256795000Y-196771428D01*
X258080714Y-197128571D02*
X258080714Y-198128571D01*
X257437857Y-197128571D02*
X257437857Y-197914285D01*
X257509285Y-198057142D01*
X257652142Y-198128571D01*
X257866428Y-198128571D01*
X258009285Y-198057142D01*
X258080714Y-197985714D01*
X230866428Y-200678571D02*
X230152142Y-200678571D01*
X230152142Y-199178571D01*
X232009285Y-200678571D02*
X232009285Y-199892857D01*
X231937857Y-199750000D01*
X231795000Y-199678571D01*
X231509285Y-199678571D01*
X231366428Y-199750000D01*
X232009285Y-200607142D02*
X231866428Y-200678571D01*
X231509285Y-200678571D01*
X231366428Y-200607142D01*
X231295000Y-200464285D01*
X231295000Y-200321428D01*
X231366428Y-200178571D01*
X231509285Y-200107142D01*
X231866428Y-200107142D01*
X232009285Y-200035714D01*
X232580714Y-199678571D02*
X232937857Y-200678571D01*
X233295000Y-199678571D02*
X232937857Y-200678571D01*
X232795000Y-201035714D01*
X232723571Y-201107142D01*
X232580714Y-201178571D01*
X234437857Y-200607142D02*
X234295000Y-200678571D01*
X234009285Y-200678571D01*
X233866428Y-200607142D01*
X233795000Y-200464285D01*
X233795000Y-199892857D01*
X233866428Y-199750000D01*
X234009285Y-199678571D01*
X234295000Y-199678571D01*
X234437857Y-199750000D01*
X234509285Y-199892857D01*
X234509285Y-200035714D01*
X233795000Y-200178571D01*
X235152142Y-200678571D02*
X235152142Y-199678571D01*
X235152142Y-199964285D02*
X235223571Y-199821428D01*
X235295000Y-199750000D01*
X235437857Y-199678571D01*
X235580714Y-199678571D01*
X237152142Y-199321428D02*
X237223571Y-199250000D01*
X237366428Y-199178571D01*
X237723571Y-199178571D01*
X237866428Y-199250000D01*
X237937857Y-199321428D01*
X238009285Y-199464285D01*
X238009285Y-199607142D01*
X237937857Y-199821428D01*
X237080714Y-200678571D01*
X238009285Y-200678571D01*
X239795000Y-200107142D02*
X240937857Y-200107142D01*
X243580714Y-199250000D02*
X243437857Y-199178571D01*
X243223571Y-199178571D01*
X243009285Y-199250000D01*
X242866428Y-199392857D01*
X242795000Y-199535714D01*
X242723571Y-199821428D01*
X242723571Y-200035714D01*
X242795000Y-200321428D01*
X242866428Y-200464285D01*
X243009285Y-200607142D01*
X243223571Y-200678571D01*
X243366428Y-200678571D01*
X243580714Y-200607142D01*
X243652142Y-200535714D01*
X243652142Y-200035714D01*
X243366428Y-200035714D01*
X244295000Y-200678571D02*
X244295000Y-199678571D01*
X244295000Y-199964285D02*
X244366428Y-199821428D01*
X244437857Y-199750000D01*
X244580714Y-199678571D01*
X244723571Y-199678571D01*
X245437857Y-200678571D02*
X245295000Y-200607142D01*
X245223571Y-200535714D01*
X245152142Y-200392857D01*
X245152142Y-199964285D01*
X245223571Y-199821428D01*
X245295000Y-199750000D01*
X245437857Y-199678571D01*
X245652142Y-199678571D01*
X245795000Y-199750000D01*
X245866428Y-199821428D01*
X245937857Y-199964285D01*
X245937857Y-200392857D01*
X245866428Y-200535714D01*
X245795000Y-200607142D01*
X245652142Y-200678571D01*
X245437857Y-200678571D01*
X247223571Y-199678571D02*
X247223571Y-200678571D01*
X246580714Y-199678571D02*
X246580714Y-200464285D01*
X246652142Y-200607142D01*
X246795000Y-200678571D01*
X247009285Y-200678571D01*
X247152142Y-200607142D01*
X247223571Y-200535714D01*
X247937857Y-199678571D02*
X247937857Y-200678571D01*
X247937857Y-199821428D02*
X248009285Y-199750000D01*
X248152142Y-199678571D01*
X248366428Y-199678571D01*
X248509285Y-199750000D01*
X248580714Y-199892857D01*
X248580714Y-200678571D01*
X249937857Y-200678571D02*
X249937857Y-199178571D01*
X249937857Y-200607142D02*
X249795000Y-200678571D01*
X249509285Y-200678571D01*
X249366428Y-200607142D01*
X249295000Y-200535714D01*
X249223571Y-200392857D01*
X249223571Y-199964285D01*
X249295000Y-199821428D01*
X249366428Y-199750000D01*
X249509285Y-199678571D01*
X249795000Y-199678571D01*
X249937857Y-199750000D01*
X251795000Y-200107142D02*
X252937857Y-200107142D01*
X254795000Y-200678571D02*
X254795000Y-199178571D01*
X255509285Y-199678571D02*
X255509285Y-200678571D01*
X255509285Y-199821428D02*
X255580714Y-199750000D01*
X255723571Y-199678571D01*
X255937857Y-199678571D01*
X256080714Y-199750000D01*
X256152142Y-199892857D01*
X256152142Y-200678571D01*
X257652142Y-200678571D02*
X256795000Y-200678571D01*
X257223571Y-200678571D02*
X257223571Y-199178571D01*
X257080714Y-199392857D01*
X256937857Y-199535714D01*
X256795000Y-199607142D01*
X258295000Y-200535714D02*
X258366428Y-200607142D01*
X258295000Y-200678571D01*
X258223571Y-200607142D01*
X258295000Y-200535714D01*
X258295000Y-200678571D01*
X259866428Y-200535714D02*
X259795000Y-200607142D01*
X259580714Y-200678571D01*
X259437857Y-200678571D01*
X259223571Y-200607142D01*
X259080714Y-200464285D01*
X259009285Y-200321428D01*
X258937857Y-200035714D01*
X258937857Y-199821428D01*
X259009285Y-199535714D01*
X259080714Y-199392857D01*
X259223571Y-199250000D01*
X259437857Y-199178571D01*
X259580714Y-199178571D01*
X259795000Y-199250000D01*
X259866428Y-199321428D01*
X261152142Y-199678571D02*
X261152142Y-200678571D01*
X260509285Y-199678571D02*
X260509285Y-200464285D01*
X260580714Y-200607142D01*
X260723571Y-200678571D01*
X260937857Y-200678571D01*
X261080714Y-200607142D01*
X261152142Y-200535714D01*
X230866428Y-203228571D02*
X230152142Y-203228571D01*
X230152142Y-201728571D01*
X232009285Y-203228571D02*
X232009285Y-202442857D01*
X231937857Y-202300000D01*
X231795000Y-202228571D01*
X231509285Y-202228571D01*
X231366428Y-202300000D01*
X232009285Y-203157142D02*
X231866428Y-203228571D01*
X231509285Y-203228571D01*
X231366428Y-203157142D01*
X231295000Y-203014285D01*
X231295000Y-202871428D01*
X231366428Y-202728571D01*
X231509285Y-202657142D01*
X231866428Y-202657142D01*
X232009285Y-202585714D01*
X232580714Y-202228571D02*
X232937857Y-203228571D01*
X233295000Y-202228571D02*
X232937857Y-203228571D01*
X232795000Y-203585714D01*
X232723571Y-203657142D01*
X232580714Y-203728571D01*
X234437857Y-203157142D02*
X234295000Y-203228571D01*
X234009285Y-203228571D01*
X233866428Y-203157142D01*
X233795000Y-203014285D01*
X233795000Y-202442857D01*
X233866428Y-202300000D01*
X234009285Y-202228571D01*
X234295000Y-202228571D01*
X234437857Y-202300000D01*
X234509285Y-202442857D01*
X234509285Y-202585714D01*
X233795000Y-202728571D01*
X235152142Y-203228571D02*
X235152142Y-202228571D01*
X235152142Y-202514285D02*
X235223571Y-202371428D01*
X235295000Y-202300000D01*
X235437857Y-202228571D01*
X235580714Y-202228571D01*
X237080714Y-201728571D02*
X238009285Y-201728571D01*
X237509285Y-202300000D01*
X237723571Y-202300000D01*
X237866428Y-202371428D01*
X237937857Y-202442857D01*
X238009285Y-202585714D01*
X238009285Y-202942857D01*
X237937857Y-203085714D01*
X237866428Y-203157142D01*
X237723571Y-203228571D01*
X237295000Y-203228571D01*
X237152142Y-203157142D01*
X237080714Y-203085714D01*
X239795000Y-202657142D02*
X240937857Y-202657142D01*
X242723571Y-203157142D02*
X242937857Y-203228571D01*
X243295000Y-203228571D01*
X243437857Y-203157142D01*
X243509285Y-203085714D01*
X243580714Y-202942857D01*
X243580714Y-202800000D01*
X243509285Y-202657142D01*
X243437857Y-202585714D01*
X243295000Y-202514285D01*
X243009285Y-202442857D01*
X242866428Y-202371428D01*
X242795000Y-202300000D01*
X242723571Y-202157142D01*
X242723571Y-202014285D01*
X242795000Y-201871428D01*
X242866428Y-201800000D01*
X243009285Y-201728571D01*
X243366428Y-201728571D01*
X243580714Y-201800000D01*
X244223571Y-203228571D02*
X244223571Y-202228571D01*
X244223571Y-201728571D02*
X244152142Y-201800000D01*
X244223571Y-201871428D01*
X244295000Y-201800000D01*
X244223571Y-201728571D01*
X244223571Y-201871428D01*
X245580714Y-202228571D02*
X245580714Y-203442857D01*
X245509285Y-203585714D01*
X245437857Y-203657142D01*
X245295000Y-203728571D01*
X245080714Y-203728571D01*
X244937857Y-203657142D01*
X245580714Y-203157142D02*
X245437857Y-203228571D01*
X245152142Y-203228571D01*
X245009285Y-203157142D01*
X244937857Y-203085714D01*
X244866428Y-202942857D01*
X244866428Y-202514285D01*
X244937857Y-202371428D01*
X245009285Y-202300000D01*
X245152142Y-202228571D01*
X245437857Y-202228571D01*
X245580714Y-202300000D01*
X246295000Y-202228571D02*
X246295000Y-203228571D01*
X246295000Y-202371428D02*
X246366428Y-202300000D01*
X246509285Y-202228571D01*
X246723571Y-202228571D01*
X246866428Y-202300000D01*
X246937857Y-202442857D01*
X246937857Y-203228571D01*
X248295000Y-203228571D02*
X248295000Y-202442857D01*
X248223571Y-202300000D01*
X248080714Y-202228571D01*
X247795000Y-202228571D01*
X247652142Y-202300000D01*
X248295000Y-203157142D02*
X248152142Y-203228571D01*
X247795000Y-203228571D01*
X247652142Y-203157142D01*
X247580714Y-203014285D01*
X247580714Y-202871428D01*
X247652142Y-202728571D01*
X247795000Y-202657142D01*
X248152142Y-202657142D01*
X248295000Y-202585714D01*
X249223571Y-203228571D02*
X249080714Y-203157142D01*
X249009285Y-203014285D01*
X249009285Y-201728571D01*
X250937857Y-202657142D02*
X252080714Y-202657142D01*
X253937857Y-203228571D02*
X253937857Y-201728571D01*
X254652142Y-202228571D02*
X254652142Y-203228571D01*
X254652142Y-202371428D02*
X254723571Y-202300000D01*
X254866428Y-202228571D01*
X255080714Y-202228571D01*
X255223571Y-202300000D01*
X255295000Y-202442857D01*
X255295000Y-203228571D01*
X255937857Y-201871428D02*
X256009285Y-201800000D01*
X256152142Y-201728571D01*
X256509285Y-201728571D01*
X256652142Y-201800000D01*
X256723571Y-201871428D01*
X256795000Y-202014285D01*
X256795000Y-202157142D01*
X256723571Y-202371428D01*
X255866428Y-203228571D01*
X256795000Y-203228571D01*
X257437857Y-203085714D02*
X257509285Y-203157142D01*
X257437857Y-203228571D01*
X257366428Y-203157142D01*
X257437857Y-203085714D01*
X257437857Y-203228571D01*
X259009285Y-203085714D02*
X258937857Y-203157142D01*
X258723571Y-203228571D01*
X258580714Y-203228571D01*
X258366428Y-203157142D01*
X258223571Y-203014285D01*
X258152142Y-202871428D01*
X258080714Y-202585714D01*
X258080714Y-202371428D01*
X258152142Y-202085714D01*
X258223571Y-201942857D01*
X258366428Y-201800000D01*
X258580714Y-201728571D01*
X258723571Y-201728571D01*
X258937857Y-201800000D01*
X259009285Y-201871428D01*
X260295000Y-202228571D02*
X260295000Y-203228571D01*
X259652142Y-202228571D02*
X259652142Y-203014285D01*
X259723571Y-203157142D01*
X259866428Y-203228571D01*
X260080714Y-203228571D01*
X260223571Y-203157142D01*
X260295000Y-203085714D01*
X230866428Y-205778571D02*
X230152142Y-205778571D01*
X230152142Y-204278571D01*
X232009285Y-205778571D02*
X232009285Y-204992857D01*
X231937857Y-204850000D01*
X231795000Y-204778571D01*
X231509285Y-204778571D01*
X231366428Y-204850000D01*
X232009285Y-205707142D02*
X231866428Y-205778571D01*
X231509285Y-205778571D01*
X231366428Y-205707142D01*
X231295000Y-205564285D01*
X231295000Y-205421428D01*
X231366428Y-205278571D01*
X231509285Y-205207142D01*
X231866428Y-205207142D01*
X232009285Y-205135714D01*
X232580714Y-204778571D02*
X232937857Y-205778571D01*
X233295000Y-204778571D02*
X232937857Y-205778571D01*
X232795000Y-206135714D01*
X232723571Y-206207142D01*
X232580714Y-206278571D01*
X234437857Y-205707142D02*
X234295000Y-205778571D01*
X234009285Y-205778571D01*
X233866428Y-205707142D01*
X233795000Y-205564285D01*
X233795000Y-204992857D01*
X233866428Y-204850000D01*
X234009285Y-204778571D01*
X234295000Y-204778571D01*
X234437857Y-204850000D01*
X234509285Y-204992857D01*
X234509285Y-205135714D01*
X233795000Y-205278571D01*
X235152142Y-205778571D02*
X235152142Y-204778571D01*
X235152142Y-205064285D02*
X235223571Y-204921428D01*
X235295000Y-204850000D01*
X235437857Y-204778571D01*
X235580714Y-204778571D01*
X237866428Y-204778571D02*
X237866428Y-205778571D01*
X237509285Y-204207142D02*
X237152142Y-205278571D01*
X238080714Y-205278571D01*
X239795000Y-205207142D02*
X240937857Y-205207142D01*
X242795000Y-205778571D02*
X242795000Y-204278571D01*
X243366428Y-204278571D01*
X243509285Y-204350000D01*
X243580714Y-204421428D01*
X243652142Y-204564285D01*
X243652142Y-204778571D01*
X243580714Y-204921428D01*
X243509285Y-204992857D01*
X243366428Y-205064285D01*
X242795000Y-205064285D01*
X244509285Y-205778571D02*
X244366428Y-205707142D01*
X244295000Y-205635714D01*
X244223571Y-205492857D01*
X244223571Y-205064285D01*
X244295000Y-204921428D01*
X244366428Y-204850000D01*
X244509285Y-204778571D01*
X244723571Y-204778571D01*
X244866428Y-204850000D01*
X244937857Y-204921428D01*
X245009285Y-205064285D01*
X245009285Y-205492857D01*
X244937857Y-205635714D01*
X244866428Y-205707142D01*
X244723571Y-205778571D01*
X244509285Y-205778571D01*
X245509285Y-204778571D02*
X245795000Y-205778571D01*
X246080714Y-205064285D01*
X246366428Y-205778571D01*
X246652142Y-204778571D01*
X247795000Y-205707142D02*
X247652142Y-205778571D01*
X247366428Y-205778571D01*
X247223571Y-205707142D01*
X247152142Y-205564285D01*
X247152142Y-204992857D01*
X247223571Y-204850000D01*
X247366428Y-204778571D01*
X247652142Y-204778571D01*
X247795000Y-204850000D01*
X247866428Y-204992857D01*
X247866428Y-205135714D01*
X247152142Y-205278571D01*
X248509285Y-205778571D02*
X248509285Y-204778571D01*
X248509285Y-205064285D02*
X248580714Y-204921428D01*
X248652142Y-204850000D01*
X248795000Y-204778571D01*
X248937857Y-204778571D01*
X250580714Y-205207142D02*
X251723571Y-205207142D01*
X253580714Y-205778571D02*
X253580714Y-204278571D01*
X254295000Y-204778571D02*
X254295000Y-205778571D01*
X254295000Y-204921428D02*
X254366428Y-204850000D01*
X254509285Y-204778571D01*
X254723571Y-204778571D01*
X254866428Y-204850000D01*
X254937857Y-204992857D01*
X254937857Y-205778571D01*
X255509285Y-204278571D02*
X256437857Y-204278571D01*
X255937857Y-204850000D01*
X256152142Y-204850000D01*
X256295000Y-204921428D01*
X256366428Y-204992857D01*
X256437857Y-205135714D01*
X256437857Y-205492857D01*
X256366428Y-205635714D01*
X256295000Y-205707142D01*
X256152142Y-205778571D01*
X255723571Y-205778571D01*
X255580714Y-205707142D01*
X255509285Y-205635714D01*
X257080714Y-205635714D02*
X257152142Y-205707142D01*
X257080714Y-205778571D01*
X257009285Y-205707142D01*
X257080714Y-205635714D01*
X257080714Y-205778571D01*
X258652142Y-205635714D02*
X258580714Y-205707142D01*
X258366428Y-205778571D01*
X258223571Y-205778571D01*
X258009285Y-205707142D01*
X257866428Y-205564285D01*
X257795000Y-205421428D01*
X257723571Y-205135714D01*
X257723571Y-204921428D01*
X257795000Y-204635714D01*
X257866428Y-204492857D01*
X258009285Y-204350000D01*
X258223571Y-204278571D01*
X258366428Y-204278571D01*
X258580714Y-204350000D01*
X258652142Y-204421428D01*
X259937857Y-204778571D02*
X259937857Y-205778571D01*
X259295000Y-204778571D02*
X259295000Y-205564285D01*
X259366428Y-205707142D01*
X259509285Y-205778571D01*
X259723571Y-205778571D01*
X259866428Y-205707142D01*
X259937857Y-205635714D01*
X230866428Y-208328571D02*
X230152142Y-208328571D01*
X230152142Y-206828571D01*
X232009285Y-208328571D02*
X232009285Y-207542857D01*
X231937857Y-207400000D01*
X231795000Y-207328571D01*
X231509285Y-207328571D01*
X231366428Y-207400000D01*
X232009285Y-208257142D02*
X231866428Y-208328571D01*
X231509285Y-208328571D01*
X231366428Y-208257142D01*
X231295000Y-208114285D01*
X231295000Y-207971428D01*
X231366428Y-207828571D01*
X231509285Y-207757142D01*
X231866428Y-207757142D01*
X232009285Y-207685714D01*
X232580714Y-207328571D02*
X232937857Y-208328571D01*
X233295000Y-207328571D02*
X232937857Y-208328571D01*
X232795000Y-208685714D01*
X232723571Y-208757142D01*
X232580714Y-208828571D01*
X234437857Y-208257142D02*
X234295000Y-208328571D01*
X234009285Y-208328571D01*
X233866428Y-208257142D01*
X233795000Y-208114285D01*
X233795000Y-207542857D01*
X233866428Y-207400000D01*
X234009285Y-207328571D01*
X234295000Y-207328571D01*
X234437857Y-207400000D01*
X234509285Y-207542857D01*
X234509285Y-207685714D01*
X233795000Y-207828571D01*
X235152142Y-208328571D02*
X235152142Y-207328571D01*
X235152142Y-207614285D02*
X235223571Y-207471428D01*
X235295000Y-207400000D01*
X235437857Y-207328571D01*
X235580714Y-207328571D01*
X237937857Y-206828571D02*
X237223571Y-206828571D01*
X237152142Y-207542857D01*
X237223571Y-207471428D01*
X237366428Y-207400000D01*
X237723571Y-207400000D01*
X237866428Y-207471428D01*
X237937857Y-207542857D01*
X238009285Y-207685714D01*
X238009285Y-208042857D01*
X237937857Y-208185714D01*
X237866428Y-208257142D01*
X237723571Y-208328571D01*
X237366428Y-208328571D01*
X237223571Y-208257142D01*
X237152142Y-208185714D01*
X239795000Y-207757142D02*
X240937857Y-207757142D01*
X243580714Y-206900000D02*
X243437857Y-206828571D01*
X243223571Y-206828571D01*
X243009285Y-206900000D01*
X242866428Y-207042857D01*
X242795000Y-207185714D01*
X242723571Y-207471428D01*
X242723571Y-207685714D01*
X242795000Y-207971428D01*
X242866428Y-208114285D01*
X243009285Y-208257142D01*
X243223571Y-208328571D01*
X243366428Y-208328571D01*
X243580714Y-208257142D01*
X243652142Y-208185714D01*
X243652142Y-207685714D01*
X243366428Y-207685714D01*
X244295000Y-208328571D02*
X244295000Y-207328571D01*
X244295000Y-207614285D02*
X244366428Y-207471428D01*
X244437857Y-207400000D01*
X244580714Y-207328571D01*
X244723571Y-207328571D01*
X245437857Y-208328571D02*
X245295000Y-208257142D01*
X245223571Y-208185714D01*
X245152142Y-208042857D01*
X245152142Y-207614285D01*
X245223571Y-207471428D01*
X245295000Y-207400000D01*
X245437857Y-207328571D01*
X245652142Y-207328571D01*
X245795000Y-207400000D01*
X245866428Y-207471428D01*
X245937857Y-207614285D01*
X245937857Y-208042857D01*
X245866428Y-208185714D01*
X245795000Y-208257142D01*
X245652142Y-208328571D01*
X245437857Y-208328571D01*
X247223571Y-207328571D02*
X247223571Y-208328571D01*
X246580714Y-207328571D02*
X246580714Y-208114285D01*
X246652142Y-208257142D01*
X246795000Y-208328571D01*
X247009285Y-208328571D01*
X247152142Y-208257142D01*
X247223571Y-208185714D01*
X247937857Y-207328571D02*
X247937857Y-208328571D01*
X247937857Y-207471428D02*
X248009285Y-207400000D01*
X248152142Y-207328571D01*
X248366428Y-207328571D01*
X248509285Y-207400000D01*
X248580714Y-207542857D01*
X248580714Y-208328571D01*
X249937857Y-208328571D02*
X249937857Y-206828571D01*
X249937857Y-208257142D02*
X249795000Y-208328571D01*
X249509285Y-208328571D01*
X249366428Y-208257142D01*
X249295000Y-208185714D01*
X249223571Y-208042857D01*
X249223571Y-207614285D01*
X249295000Y-207471428D01*
X249366428Y-207400000D01*
X249509285Y-207328571D01*
X249795000Y-207328571D01*
X249937857Y-207400000D01*
X251795000Y-207757142D02*
X252937857Y-207757142D01*
X254795000Y-208328571D02*
X254795000Y-206828571D01*
X255509285Y-207328571D02*
X255509285Y-208328571D01*
X255509285Y-207471428D02*
X255580714Y-207400000D01*
X255723571Y-207328571D01*
X255937857Y-207328571D01*
X256080714Y-207400000D01*
X256152142Y-207542857D01*
X256152142Y-208328571D01*
X257509285Y-207328571D02*
X257509285Y-208328571D01*
X257152142Y-206757142D02*
X256795000Y-207828571D01*
X257723571Y-207828571D01*
X258295000Y-208185714D02*
X258366428Y-208257142D01*
X258295000Y-208328571D01*
X258223571Y-208257142D01*
X258295000Y-208185714D01*
X258295000Y-208328571D01*
X259866428Y-208185714D02*
X259795000Y-208257142D01*
X259580714Y-208328571D01*
X259437857Y-208328571D01*
X259223571Y-208257142D01*
X259080714Y-208114285D01*
X259009285Y-207971428D01*
X258937857Y-207685714D01*
X258937857Y-207471428D01*
X259009285Y-207185714D01*
X259080714Y-207042857D01*
X259223571Y-206900000D01*
X259437857Y-206828571D01*
X259580714Y-206828571D01*
X259795000Y-206900000D01*
X259866428Y-206971428D01*
X261152142Y-207328571D02*
X261152142Y-208328571D01*
X260509285Y-207328571D02*
X260509285Y-208114285D01*
X260580714Y-208257142D01*
X260723571Y-208328571D01*
X260937857Y-208328571D01*
X261080714Y-208257142D01*
X261152142Y-208185714D01*
X230866428Y-210878571D02*
X230152142Y-210878571D01*
X230152142Y-209378571D01*
X232009285Y-210878571D02*
X232009285Y-210092857D01*
X231937857Y-209950000D01*
X231795000Y-209878571D01*
X231509285Y-209878571D01*
X231366428Y-209950000D01*
X232009285Y-210807142D02*
X231866428Y-210878571D01*
X231509285Y-210878571D01*
X231366428Y-210807142D01*
X231295000Y-210664285D01*
X231295000Y-210521428D01*
X231366428Y-210378571D01*
X231509285Y-210307142D01*
X231866428Y-210307142D01*
X232009285Y-210235714D01*
X232580714Y-209878571D02*
X232937857Y-210878571D01*
X233295000Y-209878571D02*
X232937857Y-210878571D01*
X232795000Y-211235714D01*
X232723571Y-211307142D01*
X232580714Y-211378571D01*
X234437857Y-210807142D02*
X234295000Y-210878571D01*
X234009285Y-210878571D01*
X233866428Y-210807142D01*
X233795000Y-210664285D01*
X233795000Y-210092857D01*
X233866428Y-209950000D01*
X234009285Y-209878571D01*
X234295000Y-209878571D01*
X234437857Y-209950000D01*
X234509285Y-210092857D01*
X234509285Y-210235714D01*
X233795000Y-210378571D01*
X235152142Y-210878571D02*
X235152142Y-209878571D01*
X235152142Y-210164285D02*
X235223571Y-210021428D01*
X235295000Y-209950000D01*
X235437857Y-209878571D01*
X235580714Y-209878571D01*
X237866428Y-209378571D02*
X237580714Y-209378571D01*
X237437857Y-209450000D01*
X237366428Y-209521428D01*
X237223571Y-209735714D01*
X237152142Y-210021428D01*
X237152142Y-210592857D01*
X237223571Y-210735714D01*
X237295000Y-210807142D01*
X237437857Y-210878571D01*
X237723571Y-210878571D01*
X237866428Y-210807142D01*
X237937857Y-210735714D01*
X238009285Y-210592857D01*
X238009285Y-210235714D01*
X237937857Y-210092857D01*
X237866428Y-210021428D01*
X237723571Y-209950000D01*
X237437857Y-209950000D01*
X237295000Y-210021428D01*
X237223571Y-210092857D01*
X237152142Y-210235714D01*
X239795000Y-210307142D02*
X240937857Y-210307142D01*
X242723571Y-210807142D02*
X242937857Y-210878571D01*
X243295000Y-210878571D01*
X243437857Y-210807142D01*
X243509285Y-210735714D01*
X243580714Y-210592857D01*
X243580714Y-210450000D01*
X243509285Y-210307142D01*
X243437857Y-210235714D01*
X243295000Y-210164285D01*
X243009285Y-210092857D01*
X242866428Y-210021428D01*
X242795000Y-209950000D01*
X242723571Y-209807142D01*
X242723571Y-209664285D01*
X242795000Y-209521428D01*
X242866428Y-209450000D01*
X243009285Y-209378571D01*
X243366428Y-209378571D01*
X243580714Y-209450000D01*
X244223571Y-210878571D02*
X244223571Y-209878571D01*
X244223571Y-209378571D02*
X244152142Y-209450000D01*
X244223571Y-209521428D01*
X244295000Y-209450000D01*
X244223571Y-209378571D01*
X244223571Y-209521428D01*
X245580714Y-209878571D02*
X245580714Y-211092857D01*
X245509285Y-211235714D01*
X245437857Y-211307142D01*
X245295000Y-211378571D01*
X245080714Y-211378571D01*
X244937857Y-211307142D01*
X245580714Y-210807142D02*
X245437857Y-210878571D01*
X245152142Y-210878571D01*
X245009285Y-210807142D01*
X244937857Y-210735714D01*
X244866428Y-210592857D01*
X244866428Y-210164285D01*
X244937857Y-210021428D01*
X245009285Y-209950000D01*
X245152142Y-209878571D01*
X245437857Y-209878571D01*
X245580714Y-209950000D01*
X246295000Y-209878571D02*
X246295000Y-210878571D01*
X246295000Y-210021428D02*
X246366428Y-209950000D01*
X246509285Y-209878571D01*
X246723571Y-209878571D01*
X246866428Y-209950000D01*
X246937857Y-210092857D01*
X246937857Y-210878571D01*
X248295000Y-210878571D02*
X248295000Y-210092857D01*
X248223571Y-209950000D01*
X248080714Y-209878571D01*
X247795000Y-209878571D01*
X247652142Y-209950000D01*
X248295000Y-210807142D02*
X248152142Y-210878571D01*
X247795000Y-210878571D01*
X247652142Y-210807142D01*
X247580714Y-210664285D01*
X247580714Y-210521428D01*
X247652142Y-210378571D01*
X247795000Y-210307142D01*
X248152142Y-210307142D01*
X248295000Y-210235714D01*
X249223571Y-210878571D02*
X249080714Y-210807142D01*
X249009285Y-210664285D01*
X249009285Y-209378571D01*
X250937857Y-210307142D02*
X252080714Y-210307142D01*
X254437857Y-210092857D02*
X254652142Y-210164285D01*
X254723571Y-210235714D01*
X254795000Y-210378571D01*
X254795000Y-210592857D01*
X254723571Y-210735714D01*
X254652142Y-210807142D01*
X254509285Y-210878571D01*
X253937857Y-210878571D01*
X253937857Y-209378571D01*
X254437857Y-209378571D01*
X254580714Y-209450000D01*
X254652142Y-209521428D01*
X254723571Y-209664285D01*
X254723571Y-209807142D01*
X254652142Y-209950000D01*
X254580714Y-210021428D01*
X254437857Y-210092857D01*
X253937857Y-210092857D01*
X255437857Y-210735714D02*
X255509285Y-210807142D01*
X255437857Y-210878571D01*
X255366428Y-210807142D01*
X255437857Y-210735714D01*
X255437857Y-210878571D01*
X257009285Y-210735714D02*
X256937857Y-210807142D01*
X256723571Y-210878571D01*
X256580714Y-210878571D01*
X256366428Y-210807142D01*
X256223571Y-210664285D01*
X256152142Y-210521428D01*
X256080714Y-210235714D01*
X256080714Y-210021428D01*
X256152142Y-209735714D01*
X256223571Y-209592857D01*
X256366428Y-209450000D01*
X256580714Y-209378571D01*
X256723571Y-209378571D01*
X256937857Y-209450000D01*
X257009285Y-209521428D01*
X258295000Y-209878571D02*
X258295000Y-210878571D01*
X257652142Y-209878571D02*
X257652142Y-210664285D01*
X257723571Y-210807142D01*
X257866428Y-210878571D01*
X258080714Y-210878571D01*
X258223571Y-210807142D01*
X258295000Y-210735714D01*
X207261495Y-123842021D02*
X206404372Y-123836190D01*
X206832933Y-123839106D02*
X206843137Y-122339140D01*
X206698825Y-122552449D01*
X206555000Y-122694331D01*
X206411660Y-122764786D01*
X208553982Y-122850790D02*
X208547179Y-123850767D01*
X208200734Y-122276945D02*
X207836311Y-123345920D01*
X208764861Y-123352236D01*
X209333847Y-123713258D02*
X209404788Y-123785171D01*
X209332875Y-123856112D01*
X209261934Y-123784199D01*
X209333847Y-123713258D01*
X209332875Y-123856112D01*
X209914494Y-122360034D02*
X210914471Y-122366836D01*
X210261425Y-123862429D01*
X211771594Y-122372667D02*
X211914448Y-122373639D01*
X212056816Y-122446038D01*
X212127757Y-122517950D01*
X212198212Y-122661290D01*
X212267696Y-122947484D01*
X212265266Y-123304618D01*
X212191896Y-123589840D01*
X212119497Y-123732208D01*
X212047584Y-123803149D01*
X211904244Y-123873604D01*
X211761390Y-123872632D01*
X211619023Y-123800234D01*
X211548081Y-123728321D01*
X211477626Y-123584981D01*
X211408143Y-123298788D01*
X211410573Y-122941653D01*
X211483943Y-122656431D01*
X211556342Y-122514063D01*
X211628255Y-122443122D01*
X211771594Y-122372667D01*
X213200133Y-122382385D02*
X213342987Y-122383357D01*
X213485354Y-122455756D01*
X213556295Y-122527668D01*
X213626751Y-122671008D01*
X213696234Y-122957202D01*
X213693804Y-123314336D01*
X213620434Y-123599558D01*
X213548035Y-123741926D01*
X213476122Y-123812867D01*
X213332783Y-123883322D01*
X213189929Y-123882350D01*
X213047561Y-123809952D01*
X212976620Y-123738039D01*
X212906165Y-123594699D01*
X212836681Y-123308506D01*
X212839111Y-122951371D01*
X212912481Y-122666149D01*
X212984880Y-122523781D01*
X213056793Y-122452840D01*
X213200133Y-122382385D01*
X215475590Y-123897899D02*
X215482393Y-122897922D01*
X215481421Y-123040776D02*
X215553334Y-122969835D01*
X215696674Y-122899380D01*
X215910954Y-122900838D01*
X216053322Y-122973236D01*
X216123777Y-123116576D01*
X216118432Y-123902272D01*
X216123777Y-123116576D02*
X216196176Y-122974208D01*
X216339516Y-122903753D01*
X216553797Y-122905211D01*
X216696165Y-122977609D01*
X216766620Y-123120949D01*
X216761275Y-123906645D01*
X217475544Y-123911504D02*
X217482347Y-122911527D01*
X217481375Y-123054381D02*
X217553288Y-122983440D01*
X217696627Y-122912985D01*
X217910908Y-122914443D01*
X218053276Y-122986841D01*
X218123731Y-123130181D01*
X218118386Y-123915877D01*
X218123731Y-123130181D02*
X218196130Y-122987813D01*
X218339470Y-122917358D01*
X218553750Y-122918816D01*
X218696118Y-122991215D01*
X218766573Y-123134554D01*
X218761228Y-123920250D01*
X219987415Y-121149957D02*
X205287415Y-121049957D01*
X220000000Y-119300000D02*
X219983426Y-121736364D01*
X205300000Y-119200000D02*
X205283426Y-121636364D01*
X205287415Y-121049957D02*
X206417882Y-120471213D01*
X205287415Y-121049957D02*
X206409904Y-121644027D01*
X219987415Y-121149957D02*
X218864926Y-120555887D01*
X219987415Y-121149957D02*
X218856948Y-121728701D01*
X207717857Y-116478571D02*
X206860714Y-116478571D01*
X207289285Y-116478571D02*
X207289285Y-114978571D01*
X207146428Y-115192857D01*
X207003571Y-115335714D01*
X206860714Y-115407142D01*
X208217857Y-114978571D02*
X209146428Y-114978571D01*
X208646428Y-115550000D01*
X208860714Y-115550000D01*
X209003571Y-115621428D01*
X209075000Y-115692857D01*
X209146428Y-115835714D01*
X209146428Y-116192857D01*
X209075000Y-116335714D01*
X209003571Y-116407142D01*
X208860714Y-116478571D01*
X208432142Y-116478571D01*
X208289285Y-116407142D01*
X208217857Y-116335714D01*
X209789285Y-116335714D02*
X209860714Y-116407142D01*
X209789285Y-116478571D01*
X209717857Y-116407142D01*
X209789285Y-116335714D01*
X209789285Y-116478571D01*
X210717857Y-115621428D02*
X210575000Y-115550000D01*
X210503571Y-115478571D01*
X210432142Y-115335714D01*
X210432142Y-115264285D01*
X210503571Y-115121428D01*
X210575000Y-115050000D01*
X210717857Y-114978571D01*
X211003571Y-114978571D01*
X211146428Y-115050000D01*
X211217857Y-115121428D01*
X211289285Y-115264285D01*
X211289285Y-115335714D01*
X211217857Y-115478571D01*
X211146428Y-115550000D01*
X211003571Y-115621428D01*
X210717857Y-115621428D01*
X210575000Y-115692857D01*
X210503571Y-115764285D01*
X210432142Y-115907142D01*
X210432142Y-116192857D01*
X210503571Y-116335714D01*
X210575000Y-116407142D01*
X210717857Y-116478571D01*
X211003571Y-116478571D01*
X211146428Y-116407142D01*
X211217857Y-116335714D01*
X211289285Y-116192857D01*
X211289285Y-115907142D01*
X211217857Y-115764285D01*
X211146428Y-115692857D01*
X211003571Y-115621428D01*
X212646428Y-114978571D02*
X211932142Y-114978571D01*
X211860714Y-115692857D01*
X211932142Y-115621428D01*
X212075000Y-115550000D01*
X212432142Y-115550000D01*
X212575000Y-115621428D01*
X212646428Y-115692857D01*
X212717857Y-115835714D01*
X212717857Y-116192857D01*
X212646428Y-116335714D01*
X212575000Y-116407142D01*
X212432142Y-116478571D01*
X212075000Y-116478571D01*
X211932142Y-116407142D01*
X211860714Y-116335714D01*
X213646428Y-114978571D02*
X213789285Y-114978571D01*
X213932142Y-115050000D01*
X214003571Y-115121428D01*
X214075000Y-115264285D01*
X214146428Y-115550000D01*
X214146428Y-115907142D01*
X214075000Y-116192857D01*
X214003571Y-116335714D01*
X213932142Y-116407142D01*
X213789285Y-116478571D01*
X213646428Y-116478571D01*
X213503571Y-116407142D01*
X213432142Y-116335714D01*
X213360714Y-116192857D01*
X213289285Y-115907142D01*
X213289285Y-115550000D01*
X213360714Y-115264285D01*
X213432142Y-115121428D01*
X213503571Y-115050000D01*
X213646428Y-114978571D01*
X215932142Y-116478571D02*
X215932142Y-115478571D01*
X215932142Y-115621428D02*
X216003571Y-115550000D01*
X216146428Y-115478571D01*
X216360714Y-115478571D01*
X216503571Y-115550000D01*
X216575000Y-115692857D01*
X216575000Y-116478571D01*
X216575000Y-115692857D02*
X216646428Y-115550000D01*
X216789285Y-115478571D01*
X217003571Y-115478571D01*
X217146428Y-115550000D01*
X217217857Y-115692857D01*
X217217857Y-116478571D01*
X217932142Y-116478571D02*
X217932142Y-115478571D01*
X217932142Y-115621428D02*
X218003571Y-115550000D01*
X218146428Y-115478571D01*
X218360714Y-115478571D01*
X218503571Y-115550000D01*
X218575000Y-115692857D01*
X218575000Y-116478571D01*
X218575000Y-115692857D02*
X218646428Y-115550000D01*
X218789285Y-115478571D01*
X219003571Y-115478571D01*
X219146428Y-115550000D01*
X219217857Y-115692857D01*
X219217857Y-116478571D01*
X220000000Y-117900000D02*
X206150000Y-117900000D01*
X220000000Y-117900000D02*
X220000000Y-117313579D01*
X206150000Y-117900000D02*
X206150000Y-117313579D01*
X206150000Y-117900000D02*
X207276504Y-117313579D01*
X206150000Y-117900000D02*
X207276504Y-118486421D01*
X220000000Y-117900000D02*
X218873496Y-117313579D01*
X220000000Y-117900000D02*
X218873496Y-118486421D01*
X225721428Y-78450000D02*
X225721428Y-78164285D01*
X225650000Y-78021428D01*
X225578571Y-77950000D01*
X225364285Y-77807142D01*
X225078571Y-77735714D01*
X224507142Y-77735714D01*
X224364285Y-77807142D01*
X224292857Y-77878571D01*
X224221428Y-78021428D01*
X224221428Y-78307142D01*
X224292857Y-78450000D01*
X224364285Y-78521428D01*
X224507142Y-78592857D01*
X224864285Y-78592857D01*
X225007142Y-78521428D01*
X225078571Y-78450000D01*
X225150000Y-78307142D01*
X225150000Y-78021428D01*
X225078571Y-77878571D01*
X225007142Y-77807142D01*
X224864285Y-77735714D01*
X225721428Y-79092857D02*
X225721428Y-80092857D01*
X224221428Y-79450000D01*
X224364285Y-80664285D02*
X224292857Y-80735714D01*
X224221428Y-80664285D01*
X224292857Y-80592857D01*
X224364285Y-80664285D01*
X224221428Y-80664285D01*
X224221428Y-81450000D02*
X224221428Y-81735714D01*
X224292857Y-81878571D01*
X224364285Y-81950000D01*
X224578571Y-82092857D01*
X224864285Y-82164285D01*
X225435714Y-82164285D01*
X225578571Y-82092857D01*
X225650000Y-82021428D01*
X225721428Y-81878571D01*
X225721428Y-81592857D01*
X225650000Y-81450000D01*
X225578571Y-81378571D01*
X225435714Y-81307142D01*
X225078571Y-81307142D01*
X224935714Y-81378571D01*
X224864285Y-81450000D01*
X224792857Y-81592857D01*
X224792857Y-81878571D01*
X224864285Y-82021428D01*
X224935714Y-82092857D01*
X225078571Y-82164285D01*
X225721428Y-83092857D02*
X225721428Y-83235714D01*
X225650000Y-83378571D01*
X225578571Y-83450000D01*
X225435714Y-83521428D01*
X225150000Y-83592857D01*
X224792857Y-83592857D01*
X224507142Y-83521428D01*
X224364285Y-83450000D01*
X224292857Y-83378571D01*
X224221428Y-83235714D01*
X224221428Y-83092857D01*
X224292857Y-82950000D01*
X224364285Y-82878571D01*
X224507142Y-82807142D01*
X224792857Y-82735714D01*
X225150000Y-82735714D01*
X225435714Y-82807142D01*
X225578571Y-82878571D01*
X225650000Y-82950000D01*
X225721428Y-83092857D01*
X225721428Y-84521428D02*
X225721428Y-84664285D01*
X225650000Y-84807142D01*
X225578571Y-84878571D01*
X225435714Y-84950000D01*
X225150000Y-85021428D01*
X224792857Y-85021428D01*
X224507142Y-84950000D01*
X224364285Y-84878571D01*
X224292857Y-84807142D01*
X224221428Y-84664285D01*
X224221428Y-84521428D01*
X224292857Y-84378571D01*
X224364285Y-84307142D01*
X224507142Y-84235714D01*
X224792857Y-84164285D01*
X225150000Y-84164285D01*
X225435714Y-84235714D01*
X225578571Y-84307142D01*
X225650000Y-84378571D01*
X225721428Y-84521428D01*
X224221428Y-86807142D02*
X225221428Y-86807142D01*
X225078571Y-86807142D02*
X225150000Y-86878571D01*
X225221428Y-87021428D01*
X225221428Y-87235714D01*
X225150000Y-87378571D01*
X225007142Y-87450000D01*
X224221428Y-87450000D01*
X225007142Y-87450000D02*
X225150000Y-87521428D01*
X225221428Y-87664285D01*
X225221428Y-87878571D01*
X225150000Y-88021428D01*
X225007142Y-88092857D01*
X224221428Y-88092857D01*
X224221428Y-88807142D02*
X225221428Y-88807142D01*
X225078571Y-88807142D02*
X225150000Y-88878571D01*
X225221428Y-89021428D01*
X225221428Y-89235714D01*
X225150000Y-89378571D01*
X225007142Y-89450000D01*
X224221428Y-89450000D01*
X225007142Y-89450000D02*
X225150000Y-89521428D01*
X225221428Y-89664285D01*
X225221428Y-89878571D01*
X225150000Y-90021428D01*
X225007142Y-90092857D01*
X224221428Y-90092857D01*
X222800000Y-50000000D02*
X222800000Y-117900000D01*
X220000000Y-50000000D02*
X223386421Y-50000000D01*
X220000000Y-117900000D02*
X223386421Y-117900000D01*
X222800000Y-117900000D02*
X222213579Y-116773496D01*
X222800000Y-117900000D02*
X223386421Y-116773496D01*
X222800000Y-50000000D02*
X222213579Y-51126504D01*
X222800000Y-50000000D02*
X223386421Y-51126504D01*
D11*
X150000000Y-115000000D02*
X150000000Y-120000000D01*
X220000000Y-117100000D02*
X145000000Y-117100000D01*
X220000000Y-117900000D02*
X145000000Y-117900000D01*
X220000000Y-118700000D02*
X145000000Y-118700000D01*
D10*
X139928571Y-47078571D02*
X139071428Y-47078571D01*
X139500000Y-47078571D02*
X139500000Y-45578571D01*
X139357142Y-45792857D01*
X139214285Y-45935714D01*
X139071428Y-46007142D01*
X141214285Y-46078571D02*
X141214285Y-47078571D01*
X140857142Y-45507142D02*
X140500000Y-46578571D01*
X141428571Y-46578571D01*
X142214285Y-46221428D02*
X142071428Y-46150000D01*
X142000000Y-46078571D01*
X141928571Y-45935714D01*
X141928571Y-45864285D01*
X142000000Y-45721428D01*
X142071428Y-45650000D01*
X142214285Y-45578571D01*
X142500000Y-45578571D01*
X142642857Y-45650000D01*
X142714285Y-45721428D01*
X142785714Y-45864285D01*
X142785714Y-45935714D01*
X142714285Y-46078571D01*
X142642857Y-46150000D01*
X142500000Y-46221428D01*
X142214285Y-46221428D01*
X142071428Y-46292857D01*
X142000000Y-46364285D01*
X141928571Y-46507142D01*
X141928571Y-46792857D01*
X142000000Y-46935714D01*
X142071428Y-47007142D01*
X142214285Y-47078571D01*
X142500000Y-47078571D01*
X142642857Y-47007142D01*
X142714285Y-46935714D01*
X142785714Y-46792857D01*
X142785714Y-46507142D01*
X142714285Y-46364285D01*
X142642857Y-46292857D01*
X142500000Y-46221428D01*
X143428571Y-46935714D02*
X143500000Y-47007142D01*
X143428571Y-47078571D01*
X143357142Y-47007142D01*
X143428571Y-46935714D01*
X143428571Y-47078571D01*
X144428571Y-45578571D02*
X144571428Y-45578571D01*
X144714285Y-45650000D01*
X144785714Y-45721428D01*
X144857142Y-45864285D01*
X144928571Y-46150000D01*
X144928571Y-46507142D01*
X144857142Y-46792857D01*
X144785714Y-46935714D01*
X144714285Y-47007142D01*
X144571428Y-47078571D01*
X144428571Y-47078571D01*
X144285714Y-47007142D01*
X144214285Y-46935714D01*
X144142857Y-46792857D01*
X144071428Y-46507142D01*
X144071428Y-46150000D01*
X144142857Y-45864285D01*
X144214285Y-45721428D01*
X144285714Y-45650000D01*
X144428571Y-45578571D01*
X145857142Y-45578571D02*
X146000000Y-45578571D01*
X146142857Y-45650000D01*
X146214285Y-45721428D01*
X146285714Y-45864285D01*
X146357142Y-46150000D01*
X146357142Y-46507142D01*
X146285714Y-46792857D01*
X146214285Y-46935714D01*
X146142857Y-47007142D01*
X146000000Y-47078571D01*
X145857142Y-47078571D01*
X145714285Y-47007142D01*
X145642857Y-46935714D01*
X145571428Y-46792857D01*
X145500000Y-46507142D01*
X145500000Y-46150000D01*
X145571428Y-45864285D01*
X145642857Y-45721428D01*
X145714285Y-45650000D01*
X145857142Y-45578571D01*
X147285714Y-45578571D02*
X147428571Y-45578571D01*
X147571428Y-45650000D01*
X147642857Y-45721428D01*
X147714285Y-45864285D01*
X147785714Y-46150000D01*
X147785714Y-46507142D01*
X147714285Y-46792857D01*
X147642857Y-46935714D01*
X147571428Y-47007142D01*
X147428571Y-47078571D01*
X147285714Y-47078571D01*
X147142857Y-47007142D01*
X147071428Y-46935714D01*
X147000000Y-46792857D01*
X146928571Y-46507142D01*
X146928571Y-46150000D01*
X147000000Y-45864285D01*
X147071428Y-45721428D01*
X147142857Y-45650000D01*
X147285714Y-45578571D01*
X149571428Y-47078571D02*
X149571428Y-46078571D01*
X149571428Y-46221428D02*
X149642857Y-46150000D01*
X149785714Y-46078571D01*
X150000000Y-46078571D01*
X150142857Y-46150000D01*
X150214285Y-46292857D01*
X150214285Y-47078571D01*
X150214285Y-46292857D02*
X150285714Y-46150000D01*
X150428571Y-46078571D01*
X150642857Y-46078571D01*
X150785714Y-46150000D01*
X150857142Y-46292857D01*
X150857142Y-47078571D01*
X151571428Y-47078571D02*
X151571428Y-46078571D01*
X151571428Y-46221428D02*
X151642857Y-46150000D01*
X151785714Y-46078571D01*
X152000000Y-46078571D01*
X152142857Y-46150000D01*
X152214285Y-46292857D01*
X152214285Y-47078571D01*
X152214285Y-46292857D02*
X152285714Y-46150000D01*
X152428571Y-46078571D01*
X152642857Y-46078571D01*
X152785714Y-46150000D01*
X152857142Y-46292857D01*
X152857142Y-47078571D01*
X220000000Y-47750000D02*
X72000000Y-47750000D01*
X220000000Y-56000000D02*
X220000000Y-45050000D01*
X72000000Y-56000000D02*
X72000000Y-45050000D01*
X72000000Y-47750000D02*
X73126504Y-47163579D01*
X72000000Y-47750000D02*
X73126504Y-48336421D01*
X220000000Y-47750000D02*
X218873496Y-47163579D01*
X220000000Y-47750000D02*
X218873496Y-48336421D01*
X54785714Y-45721428D02*
X54857142Y-45650000D01*
X55000000Y-45578571D01*
X55357142Y-45578571D01*
X55500000Y-45650000D01*
X55571428Y-45721428D01*
X55642857Y-45864285D01*
X55642857Y-46007142D01*
X55571428Y-46221428D01*
X54714285Y-47078571D01*
X55642857Y-47078571D01*
X56214285Y-45721428D02*
X56285714Y-45650000D01*
X56428571Y-45578571D01*
X56785714Y-45578571D01*
X56928571Y-45650000D01*
X57000000Y-45721428D01*
X57071428Y-45864285D01*
X57071428Y-46007142D01*
X57000000Y-46221428D01*
X56142857Y-47078571D01*
X57071428Y-47078571D01*
X57714285Y-46935714D02*
X57785714Y-47007142D01*
X57714285Y-47078571D01*
X57642857Y-47007142D01*
X57714285Y-46935714D01*
X57714285Y-47078571D01*
X58714285Y-45578571D02*
X58857142Y-45578571D01*
X59000000Y-45650000D01*
X59071428Y-45721428D01*
X59142857Y-45864285D01*
X59214285Y-46150000D01*
X59214285Y-46507142D01*
X59142857Y-46792857D01*
X59071428Y-46935714D01*
X59000000Y-47007142D01*
X58857142Y-47078571D01*
X58714285Y-47078571D01*
X58571428Y-47007142D01*
X58500000Y-46935714D01*
X58428571Y-46792857D01*
X58357142Y-46507142D01*
X58357142Y-46150000D01*
X58428571Y-45864285D01*
X58500000Y-45721428D01*
X58571428Y-45650000D01*
X58714285Y-45578571D01*
X60142857Y-45578571D02*
X60285714Y-45578571D01*
X60428571Y-45650000D01*
X60500000Y-45721428D01*
X60571428Y-45864285D01*
X60642857Y-46150000D01*
X60642857Y-46507142D01*
X60571428Y-46792857D01*
X60500000Y-46935714D01*
X60428571Y-47007142D01*
X60285714Y-47078571D01*
X60142857Y-47078571D01*
X60000000Y-47007142D01*
X59928571Y-46935714D01*
X59857142Y-46792857D01*
X59785714Y-46507142D01*
X59785714Y-46150000D01*
X59857142Y-45864285D01*
X59928571Y-45721428D01*
X60000000Y-45650000D01*
X60142857Y-45578571D01*
X61571428Y-45578571D02*
X61714285Y-45578571D01*
X61857142Y-45650000D01*
X61928571Y-45721428D01*
X62000000Y-45864285D01*
X62071428Y-46150000D01*
X62071428Y-46507142D01*
X62000000Y-46792857D01*
X61928571Y-46935714D01*
X61857142Y-47007142D01*
X61714285Y-47078571D01*
X61571428Y-47078571D01*
X61428571Y-47007142D01*
X61357142Y-46935714D01*
X61285714Y-46792857D01*
X61214285Y-46507142D01*
X61214285Y-46150000D01*
X61285714Y-45864285D01*
X61357142Y-45721428D01*
X61428571Y-45650000D01*
X61571428Y-45578571D01*
X63857142Y-47078571D02*
X63857142Y-46078571D01*
X63857142Y-46221428D02*
X63928571Y-46150000D01*
X64071428Y-46078571D01*
X64285714Y-46078571D01*
X64428571Y-46150000D01*
X64500000Y-46292857D01*
X64500000Y-47078571D01*
X64500000Y-46292857D02*
X64571428Y-46150000D01*
X64714285Y-46078571D01*
X64928571Y-46078571D01*
X65071428Y-46150000D01*
X65142857Y-46292857D01*
X65142857Y-47078571D01*
X65857142Y-47078571D02*
X65857142Y-46078571D01*
X65857142Y-46221428D02*
X65928571Y-46150000D01*
X66071428Y-46078571D01*
X66285714Y-46078571D01*
X66428571Y-46150000D01*
X66500000Y-46292857D01*
X66500000Y-47078571D01*
X66500000Y-46292857D02*
X66571428Y-46150000D01*
X66714285Y-46078571D01*
X66928571Y-46078571D01*
X67071428Y-46150000D01*
X67142857Y-46292857D01*
X67142857Y-47078571D01*
X72000000Y-47750000D02*
X50000000Y-47750000D01*
X72000000Y-56000000D02*
X72000000Y-45050000D01*
X50000000Y-56000000D02*
X50000000Y-45050000D01*
X50000000Y-47750000D02*
X51126504Y-47163579D01*
X50000000Y-47750000D02*
X51126504Y-48336421D01*
X72000000Y-47750000D02*
X70873496Y-47163579D01*
X72000000Y-47750000D02*
X70873496Y-48336421D01*
X41828571Y-57785714D02*
X41828571Y-58071428D01*
X41900000Y-58214285D01*
X41971428Y-58285714D01*
X42185714Y-58428571D01*
X42471428Y-58500000D01*
X43042857Y-58500000D01*
X43185714Y-58428571D01*
X43257142Y-58357142D01*
X43328571Y-58214285D01*
X43328571Y-57928571D01*
X43257142Y-57785714D01*
X43185714Y-57714285D01*
X43042857Y-57642857D01*
X42685714Y-57642857D01*
X42542857Y-57714285D01*
X42471428Y-57785714D01*
X42400000Y-57928571D01*
X42400000Y-58214285D01*
X42471428Y-58357142D01*
X42542857Y-58428571D01*
X42685714Y-58500000D01*
X43185714Y-57000000D02*
X43257142Y-56928571D01*
X43328571Y-57000000D01*
X43257142Y-57071428D01*
X43185714Y-57000000D01*
X43328571Y-57000000D01*
X41828571Y-56000000D02*
X41828571Y-55857142D01*
X41900000Y-55714285D01*
X41971428Y-55642857D01*
X42114285Y-55571428D01*
X42400000Y-55500000D01*
X42757142Y-55500000D01*
X43042857Y-55571428D01*
X43185714Y-55642857D01*
X43257142Y-55714285D01*
X43328571Y-55857142D01*
X43328571Y-56000000D01*
X43257142Y-56142857D01*
X43185714Y-56214285D01*
X43042857Y-56285714D01*
X42757142Y-56357142D01*
X42400000Y-56357142D01*
X42114285Y-56285714D01*
X41971428Y-56214285D01*
X41900000Y-56142857D01*
X41828571Y-56000000D01*
X41828571Y-54571428D02*
X41828571Y-54428571D01*
X41900000Y-54285714D01*
X41971428Y-54214285D01*
X42114285Y-54142857D01*
X42400000Y-54071428D01*
X42757142Y-54071428D01*
X43042857Y-54142857D01*
X43185714Y-54214285D01*
X43257142Y-54285714D01*
X43328571Y-54428571D01*
X43328571Y-54571428D01*
X43257142Y-54714285D01*
X43185714Y-54785714D01*
X43042857Y-54857142D01*
X42757142Y-54928571D01*
X42400000Y-54928571D01*
X42114285Y-54857142D01*
X41971428Y-54785714D01*
X41900000Y-54714285D01*
X41828571Y-54571428D01*
X41828571Y-53142857D02*
X41828571Y-53000000D01*
X41900000Y-52857142D01*
X41971428Y-52785714D01*
X42114285Y-52714285D01*
X42400000Y-52642857D01*
X42757142Y-52642857D01*
X43042857Y-52714285D01*
X43185714Y-52785714D01*
X43257142Y-52857142D01*
X43328571Y-53000000D01*
X43328571Y-53142857D01*
X43257142Y-53285714D01*
X43185714Y-53357142D01*
X43042857Y-53428571D01*
X42757142Y-53500000D01*
X42400000Y-53500000D01*
X42114285Y-53428571D01*
X41971428Y-53357142D01*
X41900000Y-53285714D01*
X41828571Y-53142857D01*
X43328571Y-50857142D02*
X42328571Y-50857142D01*
X42471428Y-50857142D02*
X42400000Y-50785714D01*
X42328571Y-50642857D01*
X42328571Y-50428571D01*
X42400000Y-50285714D01*
X42542857Y-50214285D01*
X43328571Y-50214285D01*
X42542857Y-50214285D02*
X42400000Y-50142857D01*
X42328571Y-50000000D01*
X42328571Y-49785714D01*
X42400000Y-49642857D01*
X42542857Y-49571428D01*
X43328571Y-49571428D01*
X43328571Y-48857142D02*
X42328571Y-48857142D01*
X42471428Y-48857142D02*
X42400000Y-48785714D01*
X42328571Y-48642857D01*
X42328571Y-48428571D01*
X42400000Y-48285714D01*
X42542857Y-48214285D01*
X43328571Y-48214285D01*
X42542857Y-48214285D02*
X42400000Y-48142857D01*
X42328571Y-48000000D01*
X42328571Y-47785714D01*
X42400000Y-47642857D01*
X42542857Y-47571428D01*
X43328571Y-47571428D01*
X44000000Y-56000000D02*
X44000000Y-50000000D01*
X72000000Y-56000000D02*
X41300000Y-56000000D01*
X72000000Y-50000000D02*
X41300000Y-50000000D01*
X44000000Y-50000000D02*
X44586421Y-51126504D01*
X44000000Y-50000000D02*
X43413579Y-51126504D01*
X44000000Y-56000000D02*
X44586421Y-54873496D01*
X44000000Y-56000000D02*
X43413579Y-54873496D01*
X224778571Y-57785714D02*
X224778571Y-58071428D01*
X224850000Y-58214285D01*
X224921428Y-58285714D01*
X225135714Y-58428571D01*
X225421428Y-58500000D01*
X225992857Y-58500000D01*
X226135714Y-58428571D01*
X226207142Y-58357142D01*
X226278571Y-58214285D01*
X226278571Y-57928571D01*
X226207142Y-57785714D01*
X226135714Y-57714285D01*
X225992857Y-57642857D01*
X225635714Y-57642857D01*
X225492857Y-57714285D01*
X225421428Y-57785714D01*
X225350000Y-57928571D01*
X225350000Y-58214285D01*
X225421428Y-58357142D01*
X225492857Y-58428571D01*
X225635714Y-58500000D01*
X226135714Y-57000000D02*
X226207142Y-56928571D01*
X226278571Y-57000000D01*
X226207142Y-57071428D01*
X226135714Y-57000000D01*
X226278571Y-57000000D01*
X224778571Y-56000000D02*
X224778571Y-55857142D01*
X224850000Y-55714285D01*
X224921428Y-55642857D01*
X225064285Y-55571428D01*
X225350000Y-55500000D01*
X225707142Y-55500000D01*
X225992857Y-55571428D01*
X226135714Y-55642857D01*
X226207142Y-55714285D01*
X226278571Y-55857142D01*
X226278571Y-56000000D01*
X226207142Y-56142857D01*
X226135714Y-56214285D01*
X225992857Y-56285714D01*
X225707142Y-56357142D01*
X225350000Y-56357142D01*
X225064285Y-56285714D01*
X224921428Y-56214285D01*
X224850000Y-56142857D01*
X224778571Y-56000000D01*
X224778571Y-54571428D02*
X224778571Y-54428571D01*
X224850000Y-54285714D01*
X224921428Y-54214285D01*
X225064285Y-54142857D01*
X225350000Y-54071428D01*
X225707142Y-54071428D01*
X225992857Y-54142857D01*
X226135714Y-54214285D01*
X226207142Y-54285714D01*
X226278571Y-54428571D01*
X226278571Y-54571428D01*
X226207142Y-54714285D01*
X226135714Y-54785714D01*
X225992857Y-54857142D01*
X225707142Y-54928571D01*
X225350000Y-54928571D01*
X225064285Y-54857142D01*
X224921428Y-54785714D01*
X224850000Y-54714285D01*
X224778571Y-54571428D01*
X224778571Y-53142857D02*
X224778571Y-53000000D01*
X224850000Y-52857142D01*
X224921428Y-52785714D01*
X225064285Y-52714285D01*
X225350000Y-52642857D01*
X225707142Y-52642857D01*
X225992857Y-52714285D01*
X226135714Y-52785714D01*
X226207142Y-52857142D01*
X226278571Y-53000000D01*
X226278571Y-53142857D01*
X226207142Y-53285714D01*
X226135714Y-53357142D01*
X225992857Y-53428571D01*
X225707142Y-53500000D01*
X225350000Y-53500000D01*
X225064285Y-53428571D01*
X224921428Y-53357142D01*
X224850000Y-53285714D01*
X224778571Y-53142857D01*
X226278571Y-50857142D02*
X225278571Y-50857142D01*
X225421428Y-50857142D02*
X225350000Y-50785714D01*
X225278571Y-50642857D01*
X225278571Y-50428571D01*
X225350000Y-50285714D01*
X225492857Y-50214285D01*
X226278571Y-50214285D01*
X225492857Y-50214285D02*
X225350000Y-50142857D01*
X225278571Y-50000000D01*
X225278571Y-49785714D01*
X225350000Y-49642857D01*
X225492857Y-49571428D01*
X226278571Y-49571428D01*
X226278571Y-48857142D02*
X225278571Y-48857142D01*
X225421428Y-48857142D02*
X225350000Y-48785714D01*
X225278571Y-48642857D01*
X225278571Y-48428571D01*
X225350000Y-48285714D01*
X225492857Y-48214285D01*
X226278571Y-48214285D01*
X225492857Y-48214285D02*
X225350000Y-48142857D01*
X225278571Y-48000000D01*
X225278571Y-47785714D01*
X225350000Y-47642857D01*
X225492857Y-47571428D01*
X226278571Y-47571428D01*
X224250000Y-56000000D02*
X224250000Y-50000000D01*
X214000000Y-56000000D02*
X226950000Y-56000000D01*
X214000000Y-50000000D02*
X226950000Y-50000000D01*
X224250000Y-50000000D02*
X224836421Y-51126504D01*
X224250000Y-50000000D02*
X223663579Y-51126504D01*
X224250000Y-56000000D02*
X224836421Y-54873496D01*
X224250000Y-56000000D02*
X223663579Y-54873496D01*
X212108742Y-37258571D02*
X211823028Y-37258571D01*
X211680171Y-37330000D01*
X211608742Y-37401428D01*
X211465885Y-37615714D01*
X211394457Y-37901428D01*
X211394457Y-38472857D01*
X211465885Y-38615714D01*
X211537314Y-38687142D01*
X211680171Y-38758571D01*
X211965885Y-38758571D01*
X212108742Y-38687142D01*
X212180171Y-38615714D01*
X212251599Y-38472857D01*
X212251599Y-38115714D01*
X212180171Y-37972857D01*
X212108742Y-37901428D01*
X211965885Y-37830000D01*
X211680171Y-37830000D01*
X211537314Y-37901428D01*
X211465885Y-37972857D01*
X211394457Y-38115714D01*
X212894457Y-38615714D02*
X212965885Y-38687142D01*
X212894457Y-38758571D01*
X212823028Y-38687142D01*
X212894457Y-38615714D01*
X212894457Y-38758571D01*
X213894457Y-37258571D02*
X214037314Y-37258571D01*
X214180171Y-37330000D01*
X214251599Y-37401428D01*
X214323028Y-37544285D01*
X214394457Y-37830000D01*
X214394457Y-38187142D01*
X214323028Y-38472857D01*
X214251599Y-38615714D01*
X214180171Y-38687142D01*
X214037314Y-38758571D01*
X213894457Y-38758571D01*
X213751599Y-38687142D01*
X213680171Y-38615714D01*
X213608742Y-38472857D01*
X213537314Y-38187142D01*
X213537314Y-37830000D01*
X213608742Y-37544285D01*
X213680171Y-37401428D01*
X213751599Y-37330000D01*
X213894457Y-37258571D01*
X215323028Y-37258571D02*
X215465885Y-37258571D01*
X215608742Y-37330000D01*
X215680171Y-37401428D01*
X215751599Y-37544285D01*
X215823028Y-37830000D01*
X215823028Y-38187142D01*
X215751599Y-38472857D01*
X215680171Y-38615714D01*
X215608742Y-38687142D01*
X215465885Y-38758571D01*
X215323028Y-38758571D01*
X215180171Y-38687142D01*
X215108742Y-38615714D01*
X215037314Y-38472857D01*
X214965885Y-38187142D01*
X214965885Y-37830000D01*
X215037314Y-37544285D01*
X215108742Y-37401428D01*
X215180171Y-37330000D01*
X215323028Y-37258571D01*
X216751599Y-37258571D02*
X216894457Y-37258571D01*
X217037314Y-37330000D01*
X217108742Y-37401428D01*
X217180171Y-37544285D01*
X217251599Y-37830000D01*
X217251599Y-38187142D01*
X217180171Y-38472857D01*
X217108742Y-38615714D01*
X217037314Y-38687142D01*
X216894457Y-38758571D01*
X216751599Y-38758571D01*
X216608742Y-38687142D01*
X216537314Y-38615714D01*
X216465885Y-38472857D01*
X216394457Y-38187142D01*
X216394457Y-37830000D01*
X216465885Y-37544285D01*
X216537314Y-37401428D01*
X216608742Y-37330000D01*
X216751599Y-37258571D01*
X219037314Y-38758571D02*
X219037314Y-37758571D01*
X219037314Y-37901428D02*
X219108742Y-37830000D01*
X219251599Y-37758571D01*
X219465885Y-37758571D01*
X219608742Y-37830000D01*
X219680171Y-37972857D01*
X219680171Y-38758571D01*
X219680171Y-37972857D02*
X219751599Y-37830000D01*
X219894457Y-37758571D01*
X220108742Y-37758571D01*
X220251599Y-37830000D01*
X220323028Y-37972857D01*
X220323028Y-38758571D01*
X221037314Y-38758571D02*
X221037314Y-37758571D01*
X221037314Y-37901428D02*
X221108742Y-37830000D01*
X221251599Y-37758571D01*
X221465885Y-37758571D01*
X221608742Y-37830000D01*
X221680171Y-37972857D01*
X221680171Y-38758571D01*
X221680171Y-37972857D02*
X221751599Y-37830000D01*
X221894457Y-37758571D01*
X222108742Y-37758571D01*
X222251599Y-37830000D01*
X222323028Y-37972857D01*
X222323028Y-38758571D01*
X213894457Y-40180000D02*
X219894457Y-40180000D01*
X213894457Y-49582005D02*
X213894457Y-39593579D01*
X219894457Y-49582005D02*
X219894457Y-39593579D01*
X219894457Y-40180000D02*
X218767953Y-40766421D01*
X219894457Y-40180000D02*
X218767953Y-39593579D01*
X213894457Y-40180000D02*
X215020961Y-40766421D01*
X213894457Y-40180000D02*
X215020961Y-39593579D01*
X128928571Y-43328571D02*
X128071428Y-43328571D01*
X128500000Y-43328571D02*
X128500000Y-41828571D01*
X128357142Y-42042857D01*
X128214285Y-42185714D01*
X128071428Y-42257142D01*
X129428571Y-41828571D02*
X130428571Y-41828571D01*
X129785714Y-43328571D01*
X131285714Y-41828571D02*
X131428571Y-41828571D01*
X131571428Y-41900000D01*
X131642857Y-41971428D01*
X131714285Y-42114285D01*
X131785714Y-42400000D01*
X131785714Y-42757142D01*
X131714285Y-43042857D01*
X131642857Y-43185714D01*
X131571428Y-43257142D01*
X131428571Y-43328571D01*
X131285714Y-43328571D01*
X131142857Y-43257142D01*
X131071428Y-43185714D01*
X131000000Y-43042857D01*
X130928571Y-42757142D01*
X130928571Y-42400000D01*
X131000000Y-42114285D01*
X131071428Y-41971428D01*
X131142857Y-41900000D01*
X131285714Y-41828571D01*
X132428571Y-43185714D02*
X132500000Y-43257142D01*
X132428571Y-43328571D01*
X132357142Y-43257142D01*
X132428571Y-43185714D01*
X132428571Y-43328571D01*
X133428571Y-41828571D02*
X133571428Y-41828571D01*
X133714285Y-41900000D01*
X133785714Y-41971428D01*
X133857142Y-42114285D01*
X133928571Y-42400000D01*
X133928571Y-42757142D01*
X133857142Y-43042857D01*
X133785714Y-43185714D01*
X133714285Y-43257142D01*
X133571428Y-43328571D01*
X133428571Y-43328571D01*
X133285714Y-43257142D01*
X133214285Y-43185714D01*
X133142857Y-43042857D01*
X133071428Y-42757142D01*
X133071428Y-42400000D01*
X133142857Y-42114285D01*
X133214285Y-41971428D01*
X133285714Y-41900000D01*
X133428571Y-41828571D01*
X134857142Y-41828571D02*
X135000000Y-41828571D01*
X135142857Y-41900000D01*
X135214285Y-41971428D01*
X135285714Y-42114285D01*
X135357142Y-42400000D01*
X135357142Y-42757142D01*
X135285714Y-43042857D01*
X135214285Y-43185714D01*
X135142857Y-43257142D01*
X135000000Y-43328571D01*
X134857142Y-43328571D01*
X134714285Y-43257142D01*
X134642857Y-43185714D01*
X134571428Y-43042857D01*
X134500000Y-42757142D01*
X134500000Y-42400000D01*
X134571428Y-42114285D01*
X134642857Y-41971428D01*
X134714285Y-41900000D01*
X134857142Y-41828571D01*
X136285714Y-41828571D02*
X136428571Y-41828571D01*
X136571428Y-41900000D01*
X136642857Y-41971428D01*
X136714285Y-42114285D01*
X136785714Y-42400000D01*
X136785714Y-42757142D01*
X136714285Y-43042857D01*
X136642857Y-43185714D01*
X136571428Y-43257142D01*
X136428571Y-43328571D01*
X136285714Y-43328571D01*
X136142857Y-43257142D01*
X136071428Y-43185714D01*
X136000000Y-43042857D01*
X135928571Y-42757142D01*
X135928571Y-42400000D01*
X136000000Y-42114285D01*
X136071428Y-41971428D01*
X136142857Y-41900000D01*
X136285714Y-41828571D01*
X138571428Y-43328571D02*
X138571428Y-42328571D01*
X138571428Y-42471428D02*
X138642857Y-42400000D01*
X138785714Y-42328571D01*
X139000000Y-42328571D01*
X139142857Y-42400000D01*
X139214285Y-42542857D01*
X139214285Y-43328571D01*
X139214285Y-42542857D02*
X139285714Y-42400000D01*
X139428571Y-42328571D01*
X139642857Y-42328571D01*
X139785714Y-42400000D01*
X139857142Y-42542857D01*
X139857142Y-43328571D01*
X140571428Y-43328571D02*
X140571428Y-42328571D01*
X140571428Y-42471428D02*
X140642857Y-42400000D01*
X140785714Y-42328571D01*
X141000000Y-42328571D01*
X141142857Y-42400000D01*
X141214285Y-42542857D01*
X141214285Y-43328571D01*
X141214285Y-42542857D02*
X141285714Y-42400000D01*
X141428571Y-42328571D01*
X141642857Y-42328571D01*
X141785714Y-42400000D01*
X141857142Y-42542857D01*
X141857142Y-43328571D01*
X220000000Y-44000000D02*
X50000000Y-44000000D01*
X220000000Y-50000000D02*
X220000000Y-41300000D01*
X50000000Y-50000000D02*
X50000000Y-41300000D01*
X50000000Y-44000000D02*
X51126504Y-43413579D01*
X50000000Y-44000000D02*
X51126504Y-44586421D01*
X220000000Y-44000000D02*
X218873496Y-43413579D01*
X220000000Y-44000000D02*
X218873496Y-44586421D01*
D12*
X207300000Y-122785000D02*
X168300000Y-122785000D01*
X168300000Y-122785000D02*
X168300000Y-114185000D01*
X168300000Y-114185000D02*
X207300000Y-114185000D01*
X207300000Y-114185000D02*
X207300000Y-122785000D01*
M02*
