M48
; DRILL file {KiCad 5.1.5+dfsg1-2build2} date Wed 17 Feb 2021 11:04:15 GMT
; FORMAT={-:-/ absolute / inch / decimal}
; #@! TF.CreationDate,2021-02-17T11:04:15+00:00
; #@! TF.GenerationSoftware,Kicad,Pcbnew,5.1.5+dfsg1-2build2
; #@! TF.FileFunction,Plated,1,6,PTH
FMAT,2
INCH
T1C0.0079
T2C0.0118
T3C0.0157
T4C0.0197
T5C0.0276
T6C0.0280
T7C0.0291
T8C0.0299
T9C0.0315
T10C0.0319
T11C0.0374
T12C0.0394
T13C0.0400
T14C0.0402
T15C0.0472
T16C0.0512
T17C0.0531
T18C0.0551
T19C0.0701
T20C0.0906
T21C0.1299
T22C0.1693
%
G90
G05
T1
X4.8697Y-4.8138
X4.8697Y-4.8335
X5.4336Y-4.7304
X5.4475Y-4.7444
X7.1654Y-2.663
X7.1654Y-2.7043
X7.1654Y-2.7457
X7.2067Y-2.663
X7.2067Y-2.7043
X7.2067Y-2.7457
X7.248Y-2.663
X7.248Y-2.7043
X7.248Y-2.7457
T2
X2.0266Y-2.9941
X2.0795Y-3.448
X2.0803Y-3.3567
X2.0803Y-3.5425
X2.0807Y-3.6413
X2.0925Y-2.9941
X2.1467Y-3.0364
X2.1949Y-7.3228
X2.2343Y-5.8465
X2.2648Y-7.7283
X2.3008Y-7.7959
X2.31Y-7.9449
X2.3327Y-5.7303
X2.3433Y-4.6339
X2.3602Y-3.2925
X2.374Y-7.9734
X2.4213Y-5.7116
X2.4268Y-3.4232
X2.4272Y-3.5024
X2.435Y-7.7185
X2.4368Y-3.3399
X2.4398Y-3.5594
X2.4459Y-5.7303
X2.4606Y-7.1457
X2.4622Y-3.2213
X2.478Y-3.3276
X2.4852Y-7.7628
X2.5118Y-3.4094
X2.5118Y-3.4862
X2.5216Y-3.6674
X2.5246Y-3.3322
X2.5717Y-3.3256
X2.5846Y-3.4094
X2.5846Y-3.4843
X2.6016Y-3.8827
X2.6047Y-3.3256
X2.6343Y-3.3232
X2.6457Y-4.5344
X2.6535Y-3.1614
X2.6563Y-3.563
X2.6657Y-3.5244
X2.6673Y-3.8927
X2.7043Y-3.7252
X2.707Y-3.2593
X2.7339Y-3.2925
X2.7445Y-3.8858
X2.765Y-3.5638
X2.7835Y-3.4122
X2.7843Y-3.3713
X2.7858Y-3.4465
X2.7885Y-3.8613
X2.7905Y-4.5425
X2.8236Y-3.0685
X2.9185Y-3.3024
X2.935Y-3.3866
X3.0291Y-3.5209
X3.0291Y-3.5484
X3.0915Y-5.1043
X3.0974Y-4.6073
X3.1969Y-4.6566
X3.2232Y-3.2134
X3.2438Y-3.3958
X3.2633Y-3.4153
X3.2756Y-5.2677
X3.2835Y-3.0197
X3.2894Y-5.8484
X3.2995Y-4.5799
X3.3661Y-3.4882
X3.3854Y-3.2123
X3.3866Y-3.2528
X3.3868Y-5.7323
X3.3898Y-3.3071
X3.3957Y-3.1575
X3.4003Y-4.5664
X3.4055Y-3.0925
X3.4315Y-3.0512
X3.4409Y-3.4213
X3.4803Y-5.7087
X3.4897Y-3.4289
X3.4961Y-3.7283
X3.501Y-5.7333
X3.5039Y-3.0433
X3.5157Y-3.6358
X3.5547Y-7.1362
X3.564Y-6.94
X3.566Y-4.6183
X3.5703Y-3.0426
X3.5717Y-3.4276
X3.5906Y-3.0079
X3.6142Y-3.4291
X3.6166Y-3.043
X3.6732Y-3.7323
X3.6742Y-3.4681
X3.6811Y-7.1654
X3.6905Y-3.0377
X3.7564Y-3.5415
X3.7758Y-3.3268
X3.7795Y-3.1929
X3.7795Y-3.2283
X3.7795Y-3.3622
X3.7795Y-3.4016
X3.7848Y-3.439
X3.811Y-3.3071
X3.8543Y-3.0512
X3.9102Y-3.6055
X3.9378Y-3.6055
X3.9445Y-3.7059
X3.972Y-3.7059
X4.0008Y-3.4508
X4.0197Y-3.0433
X4.022Y-3.7795
X4.0228Y-3.6811
X4.0236Y-2.874
X4.0276Y-3.1102
X4.0406Y-3.9492
X4.0474Y-4.0467
X4.0531Y-3.0207
X4.1071Y-3.8646
X4.1614Y-2.9291
X4.1744Y-8.0524
X4.2343Y-3.9016
X4.2451Y-5.5148
X4.2476Y-3.9539
X4.2522Y-3.7915
X4.2545Y-3.8209
X4.2568Y-3.8504
X4.2591Y-3.9267
X4.2598Y-3.5783
X4.2607Y-3.8796
X4.2638Y-3.9807
X4.27Y-4.07
X4.2883Y-5.5118
X4.2933Y-5.4656
X4.2952Y-4.133
X4.2952Y-4.1606
X4.3071Y-4.4154
X4.3076Y-4.0724
X4.3126Y-3.5724
X4.4183Y-4.0177
X4.4232Y-4.8898
X4.4232Y-4.3061
X4.4291Y-3.822
X4.4315Y-3.9248
X4.4508Y-4.2667
X4.4537Y-4.0157
X4.4546Y-3.662
X4.4577Y-4.4498
X4.4693Y-4.135
X4.4843Y-3.878
X4.4945Y-4.2667
X4.5049Y-4.3366
X4.5146Y-3.4342
X4.5193Y-3.3382
X4.5276Y-7.4409
X4.5339Y-3.4146
X4.5398Y-3.8228
X4.5453Y-4.1358
X4.5472Y-7.6772
X4.5472Y-7.7756
X4.5472Y-7.9921
X4.5531Y-3.6598
X4.5547Y-4.2667
X4.565Y-4.1073
X4.5669Y-5.3583
X4.5669Y-7.8543
X4.5866Y-7.6772
X4.5921Y-4.0122
X4.5931Y-4.2667
X4.6063Y-7.7756
X4.6063Y-7.9921
X4.6147Y-3.9232
X4.6147Y-3.9508
X4.626Y-7.4803
X4.6299Y-2.8898
X4.6299Y-5.3583
X4.6409Y-2.9177
X4.6417Y-4.2667
X4.6772Y-5.3583
X4.6799Y-3.7039
X4.6831Y-6.3441
X4.7047Y-3.7677
X4.7075Y-3.8701
X4.7234Y-6.1417
X4.7283Y-3.637
X4.75Y-3.6999
X4.7567Y-4.4224
X4.7854Y-5.0453
X4.7972Y-2.9413
X4.8016Y-3.526
X4.8118Y-2.9961
X4.8228Y-7.9528
X4.8327Y-5.0561
X4.8446Y-4.5513
X4.8571Y-2.8933
X4.8641Y-4.5708
X4.8701Y-2.9176
X4.8725Y-4.6788
X4.892Y-4.6983
X4.8953Y-3.2709
X4.9028Y-3.6713
X4.9154Y-4.2839
X4.9161Y-4.1858
X4.9168Y-6.3442
X4.9173Y-4.0898
X4.936Y-5.0079
X4.9465Y-3.2701
X4.9937Y-3.2693
X5.0091Y-3.3224
X5.0094Y-3.735
X5.0417Y-6.4524
X5.1051Y-3.2043
X5.1346Y-5.4087
X5.1742Y-5.0915
X5.185Y-5.3898
X5.2165Y-8.1398
X5.2323Y-5.3543
X5.2382Y-6.4531
X5.2657Y-8.1398
X5.314Y-3.3524
X5.315Y-8.1398
X5.326Y-3.0305
X5.3366Y-4.9299
X5.3378Y-6.324
X5.3621Y-4.9481
X5.3642Y-6.124
X5.3642Y-8.1398
X5.3741Y-4.5194
X5.3898Y-3.2047
X5.3936Y-4.5389
X5.3957Y-3.0335
X5.4017Y-4.6032
X5.4075Y-3.3524
X5.4134Y-8.1398
X5.4183Y-2.9055
X5.4212Y-4.6227
X5.4626Y-8.1398
X5.4793Y-3.3533
X5.4902Y-2.8219
X5.4961Y-3.0404
X5.5443Y-5.0488
X5.5477Y-2.9093
X5.56Y-5.083
X5.5673Y-6.322
X5.589Y-2.9086
X5.6016Y-2.8745
X5.6181Y-3.2352
X5.6185Y-5.0602
X5.6211Y-2.9016
X5.6309Y-3.5
X5.685Y-3.2323
X5.6957Y-6.3988
X5.6984Y-6.1504
X5.7047Y-2.9134
X5.7244Y-3.0531
X5.752Y-3.0531
X5.7717Y-2.9134
X5.7886Y-3.0534
X5.8201Y-3.0543
X5.8366Y-7.6083
X5.8386Y-3.3583
X5.8429Y-2.8984
X5.865Y-3.0811
X5.8848Y-4.2697
X5.8925Y-3.0811
X5.9065Y-3.3583
X5.9177Y-2.4244
X5.9201Y-2.8902
X5.9685Y-2.9094
X5.9764Y-3.3583
X6.0472Y-3.3622
X6.0591Y-2.9134
X6.0748Y-2.6732
X6.1102Y-2.7323
X6.1173Y-2.2136
X6.126Y-2.9055
X6.1602Y-2.7295
X6.1732Y-3.3622
X6.1764Y-2.2146
X6.1886Y-4.339
X6.1969Y-2.9094
X6.2094Y-3.3803
X6.2126Y-2.7441
X6.2205Y-4.2642
X6.2234Y-4.8396
X6.2323Y-2.4028
X6.2354Y-2.2156
X6.237Y-3.3803
X6.248Y-2.7283
X6.2531Y-3.9512
X6.2589Y-4.0206
X6.2598Y-3.2323
X6.2717Y-2.9094
X6.2783Y-6.2425
X6.2945Y-2.2165
X6.3268Y-3.2323
X6.3346Y-4.8671
X6.3396Y-5.7303
X6.3425Y-2.9094
X6.3624Y-2.4079
X6.374Y-2.878
X6.4026Y-4.8465
X6.4055Y-3.2362
X6.4094Y-5.7283
X6.4126Y-2.2205
X6.4139Y-3.3985
X6.4213Y-2.8976
X6.4224Y-4.0236
X6.4296Y-3.1795
X6.4334Y-3.418
X6.4356Y-3.6179
X6.4409Y-5.9213
X6.445Y-4.1743
X6.4567Y-2.3425
X6.4685Y-3.2362
X6.4882Y-2.5669
X6.4882Y-2.8701
X6.4903Y-4.1844
X6.4929Y-3.4028
X6.5021Y-4.1573
X6.5087Y-3.2323
X6.5205Y-3.4028
X6.5232Y-5.3157
X6.5276Y-2.4488
X6.5339Y-5.7435
X6.535Y-5.8165
X6.5378Y-2.9134
X6.547Y-3.3585
X6.5473Y-5.9804
X6.5474Y-5.8839
X6.5492Y-3.9114
X6.5514Y-3.0325
X6.5531Y-4.2146
X6.5543Y-3.226
X6.5669Y-2.622
X6.5672Y-2.7933
X6.5719Y-4.1547
X6.574Y-2.915
X6.5806Y-3.955
X6.5827Y-2.7461
X6.5913Y-5.4921
X6.5961Y-5.078
X6.5984Y-2.8701
X6.6003Y-4.1626
X6.601Y-3.2315
X6.602Y-2.8994
X6.6024Y-2.7165
X6.6043Y-5.5941
X6.6055Y-4.1
X6.611Y-3.9622
X6.6169Y-3.5343
X6.6177Y-3.1972
X6.6245Y-2.9185
X6.6319Y-4.5746
X6.6337Y-3.6256
X6.6358Y-3.3831
X6.6382Y-4.1437
X6.6417Y-2.437
X6.6431Y-3.5191
X6.644Y-4.8711
X6.6447Y-4.9562
X6.646Y-2.8984
X6.6506Y-5.0226
X6.6566Y-3.607
X6.6693Y-3.7953
X6.6703Y-4.7313
X6.6721Y-3.2374
X6.6772Y-2.6024
X6.6874Y-2.885
X6.6916Y-5.2711
X6.6949Y-2.9167
X6.6952Y-3.3608
X6.7009Y-3.2311
X6.7073Y-3.52
X6.7089Y-5.7448
X6.7115Y-3.64
X6.7205Y-2.8969
X6.7234Y-3.667
X6.7236Y-3.3691
X6.7264Y-4.4201
X6.7295Y-3.2235
X6.7344Y-4.1489
X6.7362Y-3.9567
X6.7389Y-3.4424
X6.7459Y-3.9009
X6.749Y-4.3772
X6.7495Y-2.9022
X6.7504Y-3.2445
X6.7514Y-3.3592
X6.7589Y-3.0556
X6.7661Y-4.452
X6.7747Y-2.9175
X6.7748Y-4.2037
X6.7792Y-3.369
X6.7795Y-2.8701
X6.7866Y-2.565
X6.7937Y-2.6472
X6.7945Y-3.9555
X6.7949Y-3.1971
X6.8043Y-3.3875
X6.8126Y-3.0301
X6.8129Y-3.4578
X6.8189Y-4.1436
X6.82Y-3.2289
X6.8248Y-3.6311
X6.829Y-4.4112
X6.8356Y-2.9134
X6.8385Y-3.4161
X6.843Y-3.032
X6.8465Y-5.7559
X6.8506Y-3.3852
X6.8622Y-2.4921
X6.8622Y-2.7126
X6.8622Y-2.7638
X6.8717Y-3.0391
X6.8743Y-4.4031
X6.875Y-2.6801
X6.8839Y-3.4606
X6.8912Y-3.0676
X6.8955Y-4.3779
X6.8968Y-3.2361
X6.9008Y-3.9528
X6.902Y-4.189
X6.9065Y-2.9144
X6.9098Y-3.6563
X6.9165Y-2.7579
X6.9272Y-4.4101
X6.9274Y-3.3997
X6.9291Y-3.7913
X6.9307Y-3.8331
X6.9329Y-3.2079
X6.939Y-2.6713
X6.9525Y-5.0195
X6.9547Y-3.0335
X6.9602Y-3.9559
X6.9637Y-4.1807
X6.9646Y-3.2362
X6.9685Y-2.9134
X6.9752Y-5.7295
X6.9781Y-5.6936
X6.9878Y-3.6535
X6.9995Y-3.9633
X7.0094Y-4.1874
X7.0322Y-3.9552
X7.0354Y-3.2362
X7.0472Y-3.9232
X7.0573Y-3.2107
X7.0591Y-2.9055
X7.0602Y-3.0441
X7.0626Y-3.4551
X7.063Y-3.7362
X7.0654Y-3.6551
X7.0664Y-5.0195
X7.0965Y-4.1972
X7.1014Y-3.9848
X7.1016Y-3.0417
X7.1095Y-3.2363
X7.1176Y-3.6637
X7.122Y-2.6201
X7.1252Y-3.9674
X7.126Y-2.9134
X7.1285Y-3.8148
X7.1315Y-3.5083
X7.1329Y-4.3474
X7.133Y-4.9431
X7.1457Y-3.0394
X7.1463Y-3.21
X7.1484Y-2.8585
X7.1539Y-3.8867
X7.1794Y-3.9115
X7.2Y-3.9772
X7.2014Y-3.936
X7.2079Y-3.8144
X7.2122Y-3.6154
X7.2162Y-3.2049
X7.2166Y-4.0764
X7.2311Y-3.9543
X7.2768Y-3.9666
X7.2827Y-3.702
X7.2847Y-3.4848
X7.2854Y-3.4469
X7.2864Y-3.4139
X7.2902Y-3.8154
X7.3008Y-3.6518
X7.3035Y-3.2401
X7.314Y-3.0719
X7.3216Y-3.3615
X7.3268Y-2.9134
X7.328Y-3.9646
X7.3358Y-2.7091
X7.3443Y-3.3932
X7.3473Y-2.7363
X7.3543Y-3.0486
X7.3543Y-3.5705
X7.36Y-3.2033
X7.3669Y-3.3574
X7.3796Y-3.8177
X7.3807Y-3.0354
X7.3823Y-3.9661
X7.3976Y-2.9134
X7.4169Y-3.6528
X7.4208Y-3.4521
X7.4213Y-5.9331
X7.4252Y-6.1496
X7.4268Y-3.0402
X7.4276Y-3.6894
X7.4284Y-3.2322
X7.4378Y-3.9673
X7.4409Y-2.6575
X7.4465Y-2.8673
X7.4488Y-3.4528
X7.4512Y-3.8193
X7.4521Y-3.0554
X7.4572Y-3.1051
X7.4685Y-4.8673
X7.4724Y-2.9094
X7.4894Y-3.2182
X7.4905Y-3.9729
X7.4965Y-4.3898
X7.4971Y-3.0697
X7.5039Y-2.7047
X7.5106Y-3.1976
X7.5173Y-3.4843
X7.5193Y-3.3996
X7.5237Y-3.0309
X7.5256Y-3.8201
X7.5289Y-3.3637
X7.5362Y-3.6555
X7.5394Y-3.9173
X7.5469Y-3.9705
X7.5472Y-4.1654
X7.5497Y-4.1359
X7.5606Y-3.4803
X7.5622Y-3.0354
X7.5699Y-2.7037
X7.5791Y-3.772
X7.5807Y-4.8497
X7.5821Y-4.4215
X7.5865Y-2.9096
X7.5917Y-3.0347
X7.598Y-5.4028
X7.6079Y-3.6575
X7.6114Y-3.1181
X7.6368Y-2.7047
X7.6378Y-3.3622
X7.6435Y-4.4462
X7.6486Y-3.0807
X7.6606Y-3.1213
X7.6732Y-3.811
X7.686Y-2.9094
X7.6949Y-3.363
X7.7037Y-2.7028
X7.7154Y-3.8614
X7.7169Y-5.322
X7.7213Y-4.3693
X7.7312Y-3.0486
X7.7368Y-2.8586
X7.7424Y-5.0028
X7.7457Y-3.2402
X7.7519Y-2.9107
X7.752Y-2.1135
X7.7547Y-4.3372
X7.7589Y-2.6614
X7.7663Y-2.8278
X7.769Y-4.9527
X7.7791Y-2.0399
X7.7991Y-3.1974
X7.8024Y-2.8339
X7.8083Y-2.8701
X7.8141Y-2.706
X7.8189Y-2.9666
X7.8205Y-2.6417
X7.8304Y-2.6752
X7.8394Y-2.9419
X7.8709Y-2.9278
X7.8758Y-2.7177
X7.8839Y-2.7461
X7.8839Y-2.6724
X7.8984Y-2.9496
X7.9006Y-2.9055
X7.93Y-2.11
X7.9311Y-2.6407
X7.937Y-4.9675
X7.948Y-4.0157
X7.9705Y-2.9091
X7.99Y-3.02
X8.0177Y-2.6452
X8.0602Y-6.0657
X8.061Y-2.6512
X8.07Y-2.32
X8.09Y-2.97
X8.0905Y-2.2652
X8.1102Y-2.6539
X8.1417Y-6.0551
X8.1594Y-2.6413
X8.163Y-3.6685
X8.189Y-7.5787
X8.2087Y-2.6417
X8.252Y-7.5906
X8.2579Y-2.6417
X8.3128Y-5.95
X8.5039Y-5.6063
X7.8819Y-7.1417
X7.8819Y-7.1929
X7.8819Y-7.2441
X7.8819Y-7.2953
X7.8819Y-7.3465
X7.9331Y-7.1417
X7.9331Y-7.1929
X7.9331Y-7.2441
X7.9331Y-7.2953
X7.9331Y-7.3465
X7.9843Y-7.1417
X7.9843Y-7.1929
X7.9843Y-7.2441
X7.9843Y-7.2953
X7.9843Y-7.3465
T3
X2.0079Y-2.9272
X2.0594Y-3.8449
X2.0799Y-3.7484
X2.0945Y-5.1998
X2.0945Y-6.2165
X2.102Y-4.3819
X2.1079Y-4.0657
X2.1122Y-6.4301
X2.1171Y-5.7047
X2.1236Y-5.3697
X2.126Y-5.4921
X2.1368Y-5.6654
X2.1673Y-5.7028
X2.2224Y-5.4183
X2.2248Y-7.5228
X2.2315Y-3.7228
X2.2913Y-6.2874
X2.3209Y-6.4478
X2.3303Y-5.1083
X2.3476Y-3.6626
X2.3819Y-5.3937
X2.3945Y-5.1083
X2.4051Y-7.5504
X2.4311Y-6.0925
X2.4331Y-7.8504
X2.4394Y-2.6295
X2.4449Y-3.926
X2.4528Y-3.0354
X2.4571Y-5.3902
X2.4577Y-5.1083
X2.4606Y-8.1024
X2.4715Y-5.7028
X2.5173Y-4.2758
X2.5207Y-5.1083
X2.5232Y-3.7307
X2.5394Y-8.2205
X2.5581Y-5.6506
X2.563Y-5.8839
X2.5669Y-7.7913
X2.5843Y-2.6256
X2.5878Y-5.3921
X2.5906Y-7.9063
X2.6181Y-6.0236
X2.623Y-6.4596
X2.7283Y-6.6614
X2.7303Y-2.5295
X2.7953Y-7.9016
X2.7992Y-7.7559
X2.8051Y-6.1024
X2.8307Y-7.9724
X2.8724Y-5.0484
X2.8917Y-2.5295
X2.9016Y-2.8346
X2.9098Y-5.3417
X2.9173Y-2.6791
X2.9547Y-3.4902
X2.998Y-3.4528
X3.0Y-3.628
X3.0248Y-3.3846
X3.0487Y-5.378
X3.0611Y-5.3248
X3.0632Y-5.4567
X3.065Y-3.1909
X3.0807Y-2.7776
X3.12Y-4.2758
X3.1206Y-5.2293
X3.126Y-5.5433
X3.1339Y-2.0827
X3.1437Y-3.5177
X3.1624Y-6.499
X3.1673Y-5.7096
X3.1713Y-3.378
X3.1929Y-5.6701
X3.2047Y-3.3287
X3.2047Y-6.2244
X3.2106Y-2.9685
X3.2156Y-5.7047
X3.2276Y-7.8409
X3.2503Y-3.252
X3.252Y-3.3031
X3.2677Y-7.2244
X3.2677Y-7.3819
X3.2677Y-7.5295
X3.2756Y-3.0866
X3.2795Y-3.4685
X3.2972Y-7.1161
X3.3228Y-3.4311
X3.3268Y-7.4409
X3.3425Y-2.7913
X3.3465Y-7.8543
X3.3742Y-6.4252
X3.3858Y-5.1122
X3.3936Y-2.94
X3.4154Y-7.1555
X3.4154Y-3.5964
X3.4173Y-2.7913
X3.4173Y-6.2835
X3.4252Y-3.5551
X3.4252Y-5.4035
X3.4469Y-6.8071
X3.4478Y-5.1122
X3.4665Y-6.4409
X3.4803Y-2.7913
X3.4882Y-3.5591
X3.4882Y-6.0945
X3.5039Y-7.9035
X3.5059Y-5.3996
X3.5128Y-5.1122
X3.5138Y-6.939
X3.5226Y-5.7037
X3.5276Y-3.2323
X3.5276Y-3.2913
X3.5591Y-3.563
X3.5728Y-5.1122
X3.5827Y-3.1772
X3.5827Y-3.2953
X3.5904Y-2.9409
X3.6024Y-2.7913
X3.6122Y-5.6496
X3.6142Y-3.563
X3.6171Y-5.8917
X3.6417Y-2.7913
X3.6417Y-3.1772
X3.6417Y-3.2323
X3.6772Y-6.0197
X3.6811Y-7.2638
X3.7205Y-2.7913
X3.7244Y-7.1145
X3.7441Y-7.8543
X3.7461Y-2.937
X3.7677Y-7.7559
X3.7992Y-7.6378
X3.8031Y-2.7815
X3.8031Y-7.5394
X3.811Y-7.437
X3.815Y-3.1654
X3.8277Y-7.2185
X3.8504Y-6.0984
X3.8537Y-7.3689
X3.8583Y-3.6181
X3.8583Y-7.1417
X3.8661Y-2.7874
X3.8661Y-7.4882
X3.8761Y-3.719
X3.8819Y-3.1339
X3.9252Y-3.2283
X3.9252Y-3.3465
X3.968Y-3.7611
X3.9756Y-5.0972
X3.9961Y-2.7874
X4.0197Y-3.7303
X4.037Y-5.2142
X4.063Y-2.7913
X4.1Y-5.1256
X4.126Y-2.7913
X4.126Y-3.6191
X4.1732Y-2.1378
X4.215Y-3.1484
X4.2807Y-7.465
X4.2815Y-7.2205
X4.2915Y-7.3665
X4.3028Y-5.2253
X4.34Y-2.68
X4.4144Y-7.7136
X4.4264Y-7.465
X4.442Y-5.5876
X4.4492Y-5.8961
X4.4528Y-4.6575
X4.4567Y-7.9803
X4.4685Y-7.8543
X4.4801Y-5.3553
X4.4921Y-6.1929
X4.4921Y-6.2402
X4.5118Y-5.9921
X4.55Y-2.69
X4.5728Y-4.3524
X4.5799Y-2.7949
X4.6142Y-5.5827
X4.6161Y-7.5591
X4.6437Y-5.0807
X4.6617Y-5.7268
X4.6778Y-3.5278
X4.6853Y-2.9886
X4.6969Y-7.9882
X4.698Y-5.2148
X4.7Y-2.8406
X4.7175Y-3.9685
X4.7244Y-2.7232
X4.7343Y-7.4902
X4.7362Y-7.622
X4.7411Y-7.7136
X4.7894Y-4.6457
X4.813Y-2.798
X4.8268Y-5.5315
X4.8524Y-4.4949
X4.8661Y-5.2165
X4.8996Y-5.0876
X4.9165Y-4.5744
X4.9224Y-6.9205
X4.9232Y-7.1457
X4.9232Y-7.2244
X4.9343Y-2.8413
X4.935Y-2.726
X4.9661Y-7.0559
X4.9748Y-3.3362
X4.9764Y-5.3317
X4.9803Y-5.2913
X4.9941Y-4.8268
X5.0236Y-5.5787
X5.0315Y-5.9094
X5.0453Y-2.7496
X5.1087Y-3.4575
X5.122Y-5.9843
X5.1457Y-6.1772
X5.1457Y-6.2244
X5.187Y-4.4803
X5.2035Y-3.8165
X5.2165Y-5.5787
X5.2598Y-5.7362
X5.2756Y-7.1654
X5.2756Y-7.2835
X5.278Y-3.0382
X5.3012Y-3.1484
X5.315Y-6.9291
X5.315Y-7.0276
X5.322Y-2.9094
X5.3409Y-3.2261
X5.3602Y-4.4685
X5.3819Y-5.5394
X5.4075Y-4.0472
X5.4382Y-3.2268
X5.4429Y-4.5295
X5.4597Y-3.0422
X5.4902Y-4.6102
X5.4902Y-4.752
X5.4937Y-3.4764
X5.4945Y-5.0425
X5.4965Y-5.1126
X5.5354Y-5.3386
X5.5866Y-5.5787
X5.6398Y-5.231
X5.6591Y-6.6587
X5.6673Y-3.0516
X5.7102Y-5.9409
X5.7705Y-3.1118
X5.8087Y-5.628
X5.8248Y-4.5
X5.8327Y-4.2126
X5.8374Y-3.1122
X5.8445Y-2.4209
X5.8622Y-4.5003
X5.8988Y-3.9665
X5.9067Y-6.0197
X5.9272Y-3.1122
X5.9508Y-3.0669
X5.9646Y-7.0394
X5.9724Y-4.3484
X5.9734Y-4.3927
X5.9799Y-5.463
X5.997Y-3.935
X5.998Y-3.7963
X5.998Y-3.8652
X6.0059Y-5.7445
X6.0315Y-8.2008
X6.0508Y-6.8319
X6.0768Y-2.4768
X6.11Y-3.72
X6.1142Y-4.3091
X6.1299Y-7.1929
X6.1437Y-3.4083
X6.1756Y-6.7248
X6.2303Y-5.0374
X6.2933Y-3.3843
X6.3031Y-7.0079
X6.312Y-4.1644
X6.3346Y-5.1083
X6.3494Y-4.1646
X6.3887Y-2.3871
X6.3957Y-4.4232
X6.439Y-4.8573
X6.4685Y-2.6339
X6.4882Y-4.5177
X6.5142Y-3.524
X6.5504Y-2.3862
X6.7953Y-5.5433
X6.8602Y-6.2409
X6.8701Y-6.3228
X6.9409Y-5.9213
X6.9591Y-2.5543
X6.9657Y-6.1476
X7.0118Y-5.3976
X7.0323Y-6.2425
X7.1016Y-6.1484
X7.1063Y-6.4656
X7.1102Y-2.7953
X7.1189Y-6.8894
X7.1189Y-6.9681
X7.1189Y-7.0469
X7.1189Y-7.1256
X7.1189Y-7.2043
X7.1189Y-7.2831
X7.1189Y-7.3618
X7.1189Y-7.4406
X7.1189Y-7.5193
X7.1299Y-5.9291
X7.1575Y-5.5591
X7.1654Y-5.748
X7.1663Y-8.2795
X7.1984Y-6.2232
X7.237Y-6.8894
X7.237Y-6.9681
X7.237Y-7.0469
X7.237Y-7.1256
X7.237Y-7.2043
X7.237Y-7.2831
X7.237Y-7.3618
X7.237Y-7.4406
X7.237Y-7.5193
X7.2441Y-5.4764
X7.2805Y-7.8287
X7.3081Y-8.2785
X7.3346Y-2.4409
X7.3346Y-2.6693
X7.3551Y-6.8894
X7.3551Y-6.9681
X7.3551Y-7.0469
X7.3551Y-7.1256
X7.3551Y-7.2043
X7.3551Y-7.2831
X7.3551Y-7.3618
X7.3551Y-7.4406
X7.3551Y-7.5193
X7.4421Y-6.5953
X7.4421Y-6.674
X7.4421Y-6.7528
X7.4732Y-6.9681
X7.4732Y-7.0469
X7.4732Y-7.1256
X7.4732Y-7.2043
X7.4732Y-7.2831
X7.4732Y-7.3618
X7.4732Y-7.4406
X7.4732Y-7.5193
X7.5602Y-6.5953
X7.5602Y-6.674
X7.5602Y-6.7528
X7.5896Y-7.1171
X7.678Y-6.139
X7.6783Y-6.5953
X7.6783Y-6.674
X7.6783Y-6.7528
X7.7165Y-7.3573
X7.7461Y-7.3888
X7.751Y-7.2067
X7.7705Y-7.8929
X7.7705Y-7.9717
X7.7705Y-8.0504
X7.8886Y-7.8929
X7.8886Y-7.9717
X7.8886Y-8.0504
X7.9045Y-6.6821
X7.9134Y-6.8307
X7.9147Y-6.542
X7.9173Y-6.6467
X7.92Y-2.8
X7.9882Y-4.185
X8.0067Y-7.8929
X8.0067Y-7.9717
X8.0067Y-8.0504
X8.0075Y-3.5839
X8.0831Y-3.5898
X8.0974Y-6.937
X8.1134Y-6.1449
X8.1181Y-6.6417
X8.1339Y-6.689
X8.1957Y-7.8787
X8.1957Y-7.9575
X8.1957Y-8.0362
X8.1957Y-8.115
X8.2205Y-4.1142
X8.2244Y-3.6299
X8.2244Y-3.748
X8.2244Y-7.4173
X8.248Y-6.6339
X8.25Y-3.03
X8.3138Y-7.8787
X8.3138Y-7.9575
X8.3138Y-8.0362
X8.3138Y-8.115
X8.3413Y-6.2047
X8.3484Y-5.6083
X8.4173Y-5.6969
X8.4173Y-6.0669
X8.4319Y-7.8787
X8.4319Y-7.9575
X8.4319Y-8.0362
X8.4319Y-8.115
X8.4449Y-5.8425
X8.4449Y-5.9409
X8.4449Y-6.6339
X8.4646Y-6.4567
X8.5433Y-4.9823
X8.5433Y-6.8583
X8.55Y-7.8787
X8.55Y-7.9575
X8.55Y-8.0362
X8.55Y-8.115
X8.563Y-6.126
X8.576Y-6.2785
X8.5827Y-7.1457
X8.6024Y-6.6339
X8.6024Y-6.8307
X8.626Y-4.1181
X8.6299Y-3.7638
T4
X2.061Y-2.0394
X2.061Y-2.1181
X2.0945Y-3.9213
X2.1791Y-2.0394
X2.1791Y-2.1181
X2.1894Y-3.0965
X2.2972Y-2.0394
X2.2972Y-2.1181
X2.3219Y-7.0758
X2.4154Y-2.0394
X2.4154Y-2.1181
X2.4528Y-7.0728
X2.5335Y-2.0394
X2.5335Y-2.1181
X2.5856Y-7.0748
X2.6024Y-6.2008
X2.685Y-7.1171
X2.7392Y-7.0522
X2.7874Y-7.1181
X2.8337Y-7.0482
X2.8888Y-7.1191
X2.9165Y-3.2354
X2.9429Y-7.0482
X3.05Y-3.82
X3.1118Y-8.063
X3.1211Y-6.7392
X3.1299Y-2.6575
X3.2929Y-3.5283
X3.377Y-3.6289
X3.5827Y-2.0394
X3.5827Y-2.1181
X3.5827Y-2.1969
X3.5827Y-2.2756
X3.6224Y-7.4012
X3.6657Y-6.2012
X3.7008Y-2.0394
X3.7008Y-2.1181
X3.7008Y-2.1969
X3.7008Y-2.2756
X3.85Y-3.79
X3.8583Y-6.2016
X3.9017Y-3.4163
X4.0283Y-7.5661
X4.0992Y-7.5906
X4.1102Y-7.1398
X4.1555Y-5.5787
X4.1839Y-7.5906
X4.2465Y-5.202
X4.2489Y-2.8131
X4.252Y-2.7559
X4.2815Y-7.1161
X4.2894Y-2.0394
X4.2894Y-2.1181
X4.3232Y-5.6201
X4.3272Y-5.6925
X4.3272Y-5.8831
X4.3681Y-5.0896
X4.4075Y-2.0394
X4.4075Y-2.1181
X4.4724Y-2.6457
X4.5217Y-6.7114
X4.5256Y-2.0394
X4.5256Y-2.1181
X4.5256Y-2.1969
X4.572Y-6.7618
X4.5827Y-3.0079
X4.6437Y-2.0394
X4.6437Y-2.1181
X4.6437Y-2.1969
X4.689Y-7.8583
X4.7618Y-2.0394
X4.7618Y-2.1181
X4.7618Y-2.1969
X4.8047Y-3.1642
X4.8091Y-3.3307
X4.8799Y-2.0394
X4.8799Y-2.1181
X4.8819Y-8.1579
X4.8931Y-6.9898
X4.9288Y-3.0581
X4.9681Y-2.4315
X4.9811Y-2.6524
X4.9811Y-2.8272
X4.9937Y-3.0614
X4.998Y-2.0394
X4.998Y-2.1181
X5.028Y-8.1594
X5.0394Y-8.0551
X5.063Y-2.8354
X5.0866Y-8.0079
X5.1122Y-8.5783
X5.1161Y-2.0394
X5.1161Y-2.1181
X5.1169Y-3.1161
X5.157Y-2.8832
X5.1819Y-2.3102
X5.1843Y-2.6173
X5.1972Y-2.7232
X5.2343Y-2.0394
X5.2343Y-2.1181
X5.2603Y-3.2286
X5.3524Y-2.0394
X5.3524Y-2.1181
X5.3915Y-2.8139
X5.446Y-2.8052
X5.4598Y-6.7759
X5.4705Y-2.0394
X5.4705Y-2.1181
X5.4803Y-5.1949
X5.5079Y-7.6181
X5.5118Y-6.9409
X5.5659Y-3.063
X5.5768Y-8.4843
X5.5827Y-5.1949
X5.5886Y-2.0394
X5.5886Y-2.1181
X5.6027Y-5.0213
X5.6693Y-8.2283
X5.7067Y-2.0394
X5.7067Y-2.1181
X5.7614Y-8.4843
X5.7744Y-6.7087
X5.7866Y-2.6063
X5.8248Y-2.0394
X5.8248Y-2.1181
X5.8445Y-8.4843
X5.8673Y-5.3157
X5.9071Y-7.4197
X5.9547Y-8.0709
X5.9606Y-7.3661
X6.0157Y-5.1378
X6.063Y-8.3071
X6.1024Y-2.0394
X6.1024Y-2.1181
X6.2087Y-5.1339
X6.2205Y-2.0394
X6.2205Y-2.1181
X6.2707Y-5.3652
X6.2938Y-7.9877
X6.313Y-2.7693
X6.3386Y-2.0394
X6.3386Y-2.1181
X6.4567Y-2.0394
X6.4567Y-2.1181
X6.7815Y-2.0394
X6.7815Y-2.1181
X6.7815Y-2.1969
X6.8996Y-2.0394
X6.8996Y-2.1181
X6.8996Y-2.1969
X7.0177Y-2.0394
X7.0177Y-2.1181
X7.0177Y-2.1969
X7.1358Y-2.0394
X7.1358Y-2.1181
X7.1358Y-2.1969
X7.2539Y-2.0394
X7.2539Y-2.1181
X7.2539Y-2.1969
X7.2744Y-2.572
X7.372Y-2.0394
X7.372Y-2.1181
X7.372Y-2.1969
X7.6142Y-2.374
X7.8204Y-3.4138
X7.8578Y-3.4729
X7.8898Y-6.9567
X7.8937Y-7.4567
X7.9272Y-2.252
X7.937Y-7.0197
X7.937Y-7.5157
X7.9409Y-2.748
X7.9685Y-6.9567
X7.9685Y-7.4567
X7.9921Y-2.0433
X8.189Y-2.3701
X8.2352Y-5.6821
X8.2795Y-2.0217
X7.1929Y-5.8819
X7.6217Y-5.3437
X3.4394Y-4.1606
X5.0669Y-5.2067
X7.1024Y-4.3937
X6.6748Y-5.6669
X2.5827Y-6.6457
X4.9583Y-6.5106
X2.3453Y-4.161
X6.6646Y-5.089
X7.3504Y-4.3976
X2.9961Y-5.1624
X2.1929Y-6.9331
X7.8071Y-5.0354
X3.6388Y-5.0758
X7.9075Y-4.8949
X8.4173Y-3.752
X8.2957Y-2.8665
X2.7449Y-4.1591
X6.4677Y-4.3287
X3.0285Y-5.5541
X7.3728Y-4.2224
X2.4931Y-7.6142
X3.563Y-7.4016
X2.0591Y-7.0827
X3.4429Y-5.06
X4.502Y-5.2067
X5.9154Y-8.4843
X3.0423Y-6.6496
X4.7307Y-6.5079
X8.4173Y-4.1181
X3.5398Y-4.1598
X7.0118Y-4.3937
X6.724Y-5.1465
X5.6102Y-5.5197
X5.7933Y-6.5709
X7.815Y-5.2205
X3.648Y-4.1606
X6.3839Y-4.352
X6.6299Y-7.7047
X5.3382Y-5.2102
X7.1228Y-4.2508
X5.1181Y-6.9488
X6.5661Y-4.4031
X7.887Y-5.4173
X7.7736Y-7.0167
X7.0787Y-5.7717
X6.587Y-4.6654
X2.6465Y-4.1579
X3.2372Y-5.1476
X3.3415Y-5.061
X6.4134Y-3.6535
X7.502Y-2.3465
X3.1309Y-6.6506
X5.6232Y-6.4953
X3.4813Y-6.8661
X6.6181Y-6.7992
X4.065Y-7.185
X6.5876Y-5.1289
X7.1811Y-4.3937
X6.8969Y-2.8354
X2.3445Y-6.6191
X5.6102Y-5.4134
X6.689Y-2.3543
X5.4937Y-6.7098
X7.815Y-5.311
X2.4362Y-5.0291
X2.31Y-6.69
X6.6307Y-4.4559
X6.3787Y-4.2563
X4.7933Y-5.2037
X6.6232Y-4.2571
X6.4807Y-4.4228
X6.7795Y-5.9961
X8.3031Y-7.3031
X2.639Y-5.0311
X2.2077Y-5.1102
X6.3268Y-3.674
X8.3612Y-5.5128
X2.6673Y-6.6457
X5.3913Y-6.4937
X3.1752Y-5.0571
X6.7744Y-5.0634
X7.2677Y-4.3976
X7.0512Y-2.7665
X2.5049Y-4.1535
X7.815Y-5.126
X5.6142Y-5.3031
X6.298Y-8.2681
X6.063Y-7.0669
X8.0Y-3.374
X3.8472Y-4.1602
X3.0118Y-7.126
X3.0236Y-5.4685
X7.2476Y-4.2256
X3.4803Y-6.747
X6.9638Y-4.2606
T5
X6.7441Y-4.5929
X6.7441Y-4.6906
X6.7835Y-4.5142
X6.7835Y-4.7693
X6.8228Y-4.5929
X6.8228Y-4.6906
X6.8622Y-4.5142
X6.8622Y-4.7693
X6.9016Y-4.5929
X6.9016Y-4.6906
X6.9409Y-4.5142
X6.9409Y-4.7693
X6.9803Y-4.5929
X6.9803Y-4.6906
X7.0197Y-4.5142
X7.0197Y-4.7693
X7.0591Y-4.5929
X7.0591Y-4.6906
X7.0984Y-4.5142
X7.0984Y-4.7693
X7.1378Y-4.5929
X7.1378Y-4.6906
X7.2559Y-4.5142
X7.2559Y-4.7693
X7.2953Y-4.5929
X7.2953Y-4.6906
X7.3346Y-4.5142
X7.3346Y-4.7693
X7.374Y-4.5929
X7.374Y-4.6906
X7.4134Y-4.5142
X7.4134Y-4.7693
X7.4528Y-4.5929
X7.4528Y-4.6906
X7.4921Y-4.5142
X7.4921Y-4.7693
X7.5315Y-4.5929
X7.5315Y-4.6906
X7.5709Y-4.5142
X7.5709Y-4.7693
X7.6102Y-4.5929
X7.6102Y-4.6906
X7.6496Y-4.5142
X7.6496Y-4.7693
X7.689Y-4.5929
X7.689Y-4.6906
X7.7283Y-4.5142
X7.7283Y-4.7693
X7.7677Y-4.5929
X7.7677Y-4.6906
X7.8071Y-4.5142
X7.8071Y-4.7693
X7.8465Y-4.5929
X7.8465Y-4.6906
X7.8858Y-4.5142
X7.8858Y-4.7693
X7.9252Y-4.5929
X7.9252Y-4.6906
X7.9646Y-4.5142
X7.9646Y-4.7693
X8.0039Y-4.5929
X8.0039Y-4.6906
X8.0433Y-4.5142
X8.0433Y-4.7693
T6
X8.499Y-5.4705
X8.5463Y-5.2697
T7
X2.2244Y-2.8835
X2.2744Y-2.8441
X2.3244Y-2.8441
X2.3744Y-2.8835
X2.4244Y-2.8441
X2.4744Y-2.8441
X2.5244Y-2.8835
T8
X7.5252Y-5.5543
X7.5252Y-5.8543
T9
X4.4183Y-2.9321
X4.4183Y-3.0321
X4.4183Y-3.1321
X4.4183Y-3.2321
X4.5183Y-2.9821
X4.5183Y-3.0821
X4.5183Y-3.1821
X4.5183Y-3.2821
X4.8496Y-6.7646
X4.8996Y-6.6646
X4.9496Y-6.7646
X4.9996Y-6.6646
X5.0496Y-6.7646
X5.0996Y-6.6646
X5.1496Y-6.7646
X5.1996Y-6.6646
X5.2496Y-6.7646
X5.2996Y-6.6646
X2.478Y-6.9091
X2.528Y-6.8091
X2.578Y-6.9091
X2.628Y-6.8091
X2.678Y-6.9091
X2.728Y-6.8091
X2.778Y-6.9091
X2.828Y-6.8091
X2.878Y-6.9091
X2.928Y-6.8091
X2.978Y-6.9091
X3.028Y-6.8091
X3.078Y-6.9091
X3.128Y-6.8091
X3.178Y-6.9091
X3.228Y-6.8091
T10
X7.0472Y-2.4134
X7.0472Y-2.4921
X7.1472Y-2.4134
X7.1472Y-2.4921
T11
X4.4783Y-2.4016
X4.4783Y-2.5138
X4.5768Y-2.4016
X4.5768Y-2.5138
X4.6555Y-2.4016
X4.6555Y-2.5138
X4.7539Y-2.4016
X4.7539Y-2.5138
X3.3422Y-3.92
X3.4406Y-3.92
X3.5194Y-3.92
X3.6178Y-3.92
T12
X2.1654Y-7.7524
X2.1654Y-7.8524
X5.3996Y-5.6882
X5.3996Y-5.7882
X5.3996Y-5.8882
X5.3996Y-5.9882
X4.7933Y-5.6872
X4.7933Y-5.7872
X4.7933Y-5.8872
X4.7933Y-5.9872
X3.7795Y-5.8691
X3.8795Y-5.8691
X3.9795Y-5.8691
X4.0795Y-5.8691
X6.2992Y-7.213
X6.2992Y-7.313
X2.0681Y-3.2122
X2.1681Y-3.2122
X2.2681Y-3.2122
X2.7244Y-5.8661
X2.8244Y-5.8661
X2.9244Y-5.8661
X3.0244Y-5.8661
T13
X2.2457Y-4.7559
X2.2457Y-4.8559
X2.3457Y-4.7559
X2.3457Y-4.8559
X2.4457Y-4.7559
X2.4457Y-4.8559
X2.5457Y-4.7559
X2.5457Y-4.8559
X2.6457Y-4.7559
X2.6457Y-4.8559
X2.7457Y-4.7559
X2.7457Y-4.8559
X2.8457Y-4.7559
X2.8457Y-4.8559
X2.9457Y-4.7559
X2.9457Y-4.8559
X3.0457Y-4.7559
X3.0457Y-4.8559
X3.1457Y-4.7559
X3.1457Y-4.8559
X3.2457Y-4.7559
X3.2457Y-4.8559
X3.3457Y-4.7559
X3.3457Y-4.8559
X3.4457Y-4.7559
X3.4457Y-4.8559
X3.5457Y-4.7559
X3.5457Y-4.8559
X3.6457Y-4.7559
X3.6457Y-4.8559
X3.7457Y-4.7559
X3.7457Y-4.8559
X3.8457Y-4.7559
X3.8457Y-4.8559
X3.9457Y-4.7559
X3.9457Y-4.8559
X4.0457Y-4.7559
X4.0457Y-4.8559
X4.1457Y-4.7559
X4.1457Y-4.8559
X2.2457Y-4.3346
X2.2457Y-4.4346
X2.3457Y-4.3346
X2.3457Y-4.4346
X2.4457Y-4.3346
X2.4457Y-4.4346
X2.5457Y-4.3346
X2.5457Y-4.4346
X2.6457Y-4.3346
X2.6457Y-4.4346
X2.7457Y-4.3346
X2.7457Y-4.4346
X2.8457Y-4.3346
X2.8457Y-4.4346
X2.9457Y-4.3346
X2.9457Y-4.4346
X3.0457Y-4.3346
X3.0457Y-4.4346
X3.1457Y-4.3346
X3.1457Y-4.4346
X3.2457Y-4.3346
X3.2457Y-4.4346
X3.3457Y-4.3346
X3.3457Y-4.4346
X3.4457Y-4.3346
X3.4457Y-4.4346
X3.5457Y-4.3346
X3.5457Y-4.4346
X3.6457Y-4.3346
X3.6457Y-4.4346
X3.7457Y-4.3346
X3.7457Y-4.4346
X3.8457Y-4.3346
X3.8457Y-4.4346
X3.9457Y-4.3346
X3.9457Y-4.4346
X4.0457Y-4.3346
X4.0457Y-4.4346
X4.1457Y-4.3346
X4.1457Y-4.4346
X7.0185Y-5.063
X7.0185Y-5.163
X7.1185Y-5.063
X7.1185Y-5.163
X7.2185Y-5.063
X7.2185Y-5.163
X7.3185Y-5.063
X7.3185Y-5.163
X7.4185Y-5.063
X7.4185Y-5.163
X7.5185Y-5.063
X7.5185Y-5.163
T14
X3.3929Y-2.1378
X3.4291Y-2.5476
X3.4791Y-2.6476
X3.4929Y-2.1378
X3.5291Y-2.5476
X3.5791Y-2.6476
X3.6291Y-2.5476
X3.6791Y-2.6476
X3.7291Y-2.5476
X3.7791Y-2.6476
X3.815Y-2.1378
X3.8291Y-2.5476
X3.8791Y-2.6476
X3.915Y-2.1378
T15
X8.2185Y-4.2933
X8.3185Y-4.2933
X8.4185Y-4.2933
X8.5185Y-4.2933
X8.2185Y-3.9409
X8.3185Y-3.9409
X8.4185Y-3.9409
X8.5185Y-3.9409
X8.49Y-2.72
X8.49Y-2.82
X8.49Y-2.92
X5.7067Y-4.8543
X5.8067Y-4.8543
X5.9067Y-4.8543
X6.0067Y-4.8543
X6.1067Y-4.8543
T16
X7.9252Y-5.8543
X8.2252Y-5.8543
X5.9756Y-2.0449
X5.9992Y-2.2398
X6.5701Y-2.2398
X6.5937Y-2.0449
T17
X2.1193Y-2.8638
X2.6295Y-2.8638
T18
X8.3199Y-5.1132
X8.3199Y-5.3297
X3.8681Y-6.3947
X3.8681Y-6.56
X3.8681Y-6.7254
X3.8681Y-6.8907
X4.0846Y-6.3947
X4.0846Y-6.56
X4.0846Y-6.7254
X4.0846Y-6.8907
X8.0472Y-5.1132
X8.0472Y-5.3297
X4.4449Y-7.0512
X4.4449Y-7.2165
X4.6614Y-7.0512
X4.6614Y-7.2165
X2.7874Y-8.2244
X2.7874Y-8.4409
X2.9528Y-8.2244
X2.9528Y-8.4409
X3.1181Y-8.2244
X3.1181Y-8.4409
X3.2835Y-8.2244
X3.2835Y-8.4409
X3.4488Y-8.2244
X3.4488Y-8.4409
X3.6142Y-8.2244
X3.6142Y-8.4409
X3.7795Y-8.2244
X3.7795Y-8.4409
X3.9449Y-8.2244
X3.9449Y-8.4409
X4.1102Y-8.2244
X4.1102Y-8.4409
X4.2756Y-8.2244
X4.2756Y-8.4409
X4.4409Y-8.2244
X4.4409Y-8.4409
X4.6063Y-8.2244
X4.6063Y-8.4409
T19
X3.3488Y-2.4177
X3.9591Y-2.4177
T20
X4.3583Y-2.2894
X4.3583Y-2.5138
X4.874Y-2.2894
X4.874Y-2.5138
X6.861Y-2.3071
X7.3335Y-2.3071
X3.2221Y-4.0263
X3.7379Y-4.0263
T21
X3.4287Y-2.2976
X3.8791Y-2.2976
T22
X8.4252Y-2.2047
X8.4185Y-3.2685
X2.8346Y-2.2047
X8.4185Y-8.4685
X2.2185Y-2.3685
X2.2185Y-8.4685
T0
M30
