G04 #@! TF.GenerationSoftware,KiCad,Pcbnew,5.1.5+dfsg1-2build2*
G04 #@! TF.CreationDate,2021-02-17T11:04:07+00:00*
G04 #@! TF.ProjectId,HILTOP_Motherboard,48494c54-4f50-45f4-9d6f-74686572626f,Rev C*
G04 #@! TF.SameCoordinates,Original*
G04 #@! TF.FileFunction,Other,User*
%FSLAX46Y46*%
G04 Gerber Fmt 4.6, Leading zero omitted, Abs format (unit mm)*
G04 Created by KiCad (PCBNEW 5.1.5+dfsg1-2build2) date 2021-02-17 11:04:07*
%MOMM*%
%LPD*%
G04 APERTURE LIST*
%ADD10C,0.050000*%
%ADD11C,0.120000*%
G04 APERTURE END LIST*
D10*
X123020000Y-90460000D02*
X125980000Y-90460000D01*
X123020000Y-91920000D02*
X123020000Y-90460000D01*
X125980000Y-91920000D02*
X123020000Y-91920000D01*
X125980000Y-90460000D02*
X125980000Y-91920000D01*
X201400000Y-74050000D02*
X129400000Y-74050000D01*
X201400000Y-74050000D02*
X201400000Y-85450000D01*
X129400000Y-74050000D02*
X129400000Y-85650000D01*
X129400000Y-85650000D02*
X128600000Y-86450000D01*
X128600000Y-86450000D02*
X128600000Y-97850000D01*
X128600000Y-97850000D02*
X127000000Y-103450000D01*
X127000000Y-103450000D02*
X127000000Y-110650000D01*
X127000000Y-110650000D02*
X203800000Y-110650000D01*
X203800000Y-110650000D02*
X203800000Y-103450000D01*
X203800000Y-103450000D02*
X202200000Y-97850000D01*
X202200000Y-97850000D02*
X202200000Y-86450000D01*
X202200000Y-86450000D02*
X201400000Y-85450000D01*
X60900000Y-60160000D02*
G75*
G03X60900000Y-60160000I-4550000J0D01*
G01*
X76550000Y-56000000D02*
G75*
G03X76550000Y-56000000I-4550000J0D01*
G01*
X218550000Y-56000000D02*
G75*
G03X218550000Y-56000000I-4550000J0D01*
G01*
X218380000Y-83020000D02*
G75*
G03X218380000Y-83020000I-4550000J0D01*
G01*
X218380000Y-215100000D02*
G75*
G03X218380000Y-215100000I-4550000J0D01*
G01*
X60900000Y-215100000D02*
G75*
G03X60900000Y-215100000I-4550000J0D01*
G01*
X64200000Y-158670000D02*
X58800000Y-158670000D01*
X64200000Y-166130000D02*
X58800000Y-166130000D01*
X64200000Y-158670000D02*
X64200000Y-166130000D01*
X58800000Y-158670000D02*
X58800000Y-166130000D01*
X59640000Y-92640000D02*
X69840000Y-92640000D01*
X59640000Y-82440000D02*
X69840000Y-82440000D01*
X69840000Y-82440000D02*
X69840000Y-92640000D01*
X59640000Y-82440000D02*
X59640000Y-92640000D01*
X85900000Y-158645000D02*
X80500000Y-158645000D01*
X85900000Y-166105000D02*
X80500000Y-166105000D01*
X85900000Y-158645000D02*
X85900000Y-166105000D01*
X80500000Y-158645000D02*
X80500000Y-166105000D01*
X154585000Y-68760000D02*
X162985000Y-68760000D01*
X154585000Y-61460000D02*
X162985000Y-61460000D01*
X154585000Y-68760000D02*
X154585000Y-61460000D01*
X162985000Y-68760000D02*
X162985000Y-61460000D01*
X162650000Y-72560000D02*
X161150000Y-72560000D01*
X161150000Y-72560000D02*
X161150000Y-69640000D01*
X161150000Y-69640000D02*
X162650000Y-69640000D01*
X162650000Y-69640000D02*
X162650000Y-72560000D01*
X183950000Y-148700000D02*
X183950000Y-141400000D01*
X183950000Y-141400000D02*
X188450000Y-141400000D01*
X188450000Y-141400000D02*
X188450000Y-148700000D01*
X188450000Y-148700000D02*
X183950000Y-148700000D01*
X67600000Y-206150000D02*
X67600000Y-218200000D01*
X67600000Y-218200000D02*
X120200000Y-218200000D01*
X120200000Y-218200000D02*
X120200000Y-206150000D01*
X120200000Y-206150000D02*
X67600000Y-206150000D01*
X207600000Y-138125000D02*
X207600000Y-126075000D01*
X207600000Y-126075000D02*
X201200000Y-126075000D01*
X201200000Y-126075000D02*
X201200000Y-138125000D01*
X201200000Y-138125000D02*
X207600000Y-138125000D01*
X214525000Y-138125000D02*
X214525000Y-126075000D01*
X214525000Y-126075000D02*
X208125000Y-126075000D01*
X208125000Y-126075000D02*
X208125000Y-138125000D01*
X208125000Y-138125000D02*
X214525000Y-138125000D01*
X56800000Y-201250000D02*
X56800000Y-195100000D01*
X56800000Y-195100000D02*
X53200000Y-195100000D01*
X53200000Y-195100000D02*
X53200000Y-201250000D01*
X53200000Y-201250000D02*
X56800000Y-201250000D01*
X161800000Y-187550000D02*
X161800000Y-181400000D01*
X161800000Y-181400000D02*
X158200000Y-181400000D01*
X158200000Y-181400000D02*
X158200000Y-187550000D01*
X158200000Y-187550000D02*
X161800000Y-187550000D01*
X84850000Y-190750000D02*
X92150000Y-190750000D01*
X92150000Y-190750000D02*
X92150000Y-195250000D01*
X92150000Y-195250000D02*
X84850000Y-195250000D01*
X84850000Y-195250000D02*
X84850000Y-190750000D01*
X117200000Y-86700000D02*
X117200000Y-77300000D01*
X117200000Y-86700000D02*
X124000000Y-86700000D01*
X124000000Y-77300000D02*
X117200000Y-77300000D01*
X124000000Y-77300000D02*
X124000000Y-86700000D01*
X73300000Y-193600000D02*
X82700000Y-193600000D01*
X73300000Y-193600000D02*
X73300000Y-200400000D01*
X82700000Y-200400000D02*
X82700000Y-193600000D01*
X82700000Y-200400000D02*
X73300000Y-200400000D01*
X149550000Y-199100000D02*
X158950000Y-199100000D01*
X149550000Y-199100000D02*
X149550000Y-205900000D01*
X158950000Y-205900000D02*
X158950000Y-199100000D01*
X158950000Y-205900000D02*
X149550000Y-205900000D01*
X126440000Y-64000000D02*
X126440000Y-62500000D01*
X126440000Y-62500000D02*
X129360000Y-62500000D01*
X129360000Y-62500000D02*
X129360000Y-64000000D01*
X129360000Y-64000000D02*
X126440000Y-64000000D01*
X64950000Y-188790000D02*
X57050000Y-188790000D01*
X64950000Y-188790000D02*
X64950000Y-183260000D01*
X57050000Y-183260000D02*
X57050000Y-188790000D01*
X57050000Y-183260000D02*
X64950000Y-183260000D01*
X122380000Y-214020000D02*
X122380000Y-204620000D01*
X122380000Y-214020000D02*
X129180000Y-214020000D01*
X129180000Y-204620000D02*
X122380000Y-204620000D01*
X129180000Y-204620000D02*
X129180000Y-214020000D01*
X149550000Y-181710000D02*
X157450000Y-181710000D01*
X149550000Y-181710000D02*
X149550000Y-187240000D01*
X157450000Y-187240000D02*
X157450000Y-181710000D01*
X157450000Y-187240000D02*
X149550000Y-187240000D01*
X66060000Y-180650000D02*
X66060000Y-182150000D01*
X66060000Y-182150000D02*
X63140000Y-182150000D01*
X63140000Y-182150000D02*
X63140000Y-180650000D01*
X63140000Y-180650000D02*
X66060000Y-180650000D01*
X149540000Y-180750000D02*
X149540000Y-179250000D01*
X149540000Y-179250000D02*
X152460000Y-179250000D01*
X152460000Y-179250000D02*
X152460000Y-180750000D01*
X152460000Y-180750000D02*
X149540000Y-180750000D01*
X141210000Y-217950000D02*
X141210000Y-210050000D01*
X141210000Y-217950000D02*
X146740000Y-217950000D01*
X146740000Y-210050000D02*
X141210000Y-210050000D01*
X146740000Y-210050000D02*
X146740000Y-217950000D01*
X154750000Y-214460000D02*
X153250000Y-214460000D01*
X153250000Y-214460000D02*
X153250000Y-211540000D01*
X153250000Y-211540000D02*
X154750000Y-211540000D01*
X154750000Y-211540000D02*
X154750000Y-214460000D01*
X91290000Y-181500000D02*
X91290000Y-180000000D01*
X91290000Y-180000000D02*
X94210000Y-180000000D01*
X94210000Y-180000000D02*
X94210000Y-181500000D01*
X94210000Y-181500000D02*
X91290000Y-181500000D01*
X141450000Y-123040000D02*
X142950000Y-123040000D01*
X142950000Y-123040000D02*
X142950000Y-125960000D01*
X142950000Y-125960000D02*
X141450000Y-125960000D01*
X141450000Y-125960000D02*
X141450000Y-123040000D01*
X135645000Y-130550000D02*
X135645000Y-129050000D01*
X135645000Y-129050000D02*
X138565000Y-129050000D01*
X138565000Y-129050000D02*
X138565000Y-130550000D01*
X138565000Y-130550000D02*
X135645000Y-130550000D01*
X203650000Y-210790000D02*
X201350000Y-210790000D01*
X201350000Y-210790000D02*
X201350000Y-206210000D01*
X201350000Y-206210000D02*
X203650000Y-206210000D01*
X203650000Y-206210000D02*
X203650000Y-210790000D01*
X204350000Y-188090000D02*
X205850000Y-188090000D01*
X205850000Y-188090000D02*
X205850000Y-191010000D01*
X205850000Y-191010000D02*
X204350000Y-191010000D01*
X204350000Y-191010000D02*
X204350000Y-188090000D01*
X199650000Y-210790000D02*
X197350000Y-210790000D01*
X197350000Y-210790000D02*
X197350000Y-206210000D01*
X197350000Y-206210000D02*
X199650000Y-206210000D01*
X199650000Y-206210000D02*
X199650000Y-210790000D01*
X207210000Y-178390000D02*
X208710000Y-178390000D01*
X208710000Y-178390000D02*
X208710000Y-181310000D01*
X208710000Y-181310000D02*
X207210000Y-181310000D01*
X207210000Y-181310000D02*
X207210000Y-178390000D01*
X208765000Y-176250000D02*
X208765000Y-174750000D01*
X208765000Y-174750000D02*
X211685000Y-174750000D01*
X211685000Y-174750000D02*
X211685000Y-176250000D01*
X211685000Y-176250000D02*
X208765000Y-176250000D01*
X195910000Y-177950000D02*
X195910000Y-179450000D01*
X195910000Y-179450000D02*
X192990000Y-179450000D01*
X192990000Y-179450000D02*
X192990000Y-177950000D01*
X192990000Y-177950000D02*
X195910000Y-177950000D01*
X196065000Y-181450000D02*
X196065000Y-183450000D01*
X196065000Y-183450000D02*
X192685000Y-183450000D01*
X192685000Y-183450000D02*
X192685000Y-181450000D01*
X192685000Y-181450000D02*
X196065000Y-181450000D01*
X215000000Y-160990000D02*
X213000000Y-160990000D01*
X213000000Y-160990000D02*
X213000000Y-157610000D01*
X213000000Y-157610000D02*
X215000000Y-157610000D01*
X215000000Y-157610000D02*
X215000000Y-160990000D01*
X92950000Y-76910000D02*
X91450000Y-76910000D01*
X91450000Y-76910000D02*
X91450000Y-73990000D01*
X91450000Y-73990000D02*
X92950000Y-73990000D01*
X92950000Y-73990000D02*
X92950000Y-76910000D01*
X88850000Y-87240000D02*
X90350000Y-87240000D01*
X90350000Y-87240000D02*
X90350000Y-90160000D01*
X90350000Y-90160000D02*
X88850000Y-90160000D01*
X88850000Y-90160000D02*
X88850000Y-87240000D01*
X85860000Y-81150000D02*
X85860000Y-82650000D01*
X85860000Y-82650000D02*
X82940000Y-82650000D01*
X82940000Y-82650000D02*
X82940000Y-81150000D01*
X82940000Y-81150000D02*
X85860000Y-81150000D01*
X96340000Y-82250000D02*
X96340000Y-80750000D01*
X96340000Y-80750000D02*
X99260000Y-80750000D01*
X99260000Y-80750000D02*
X99260000Y-82250000D01*
X99260000Y-82250000D02*
X96340000Y-82250000D01*
X91950000Y-87240000D02*
X93450000Y-87240000D01*
X93450000Y-87240000D02*
X93450000Y-90160000D01*
X93450000Y-90160000D02*
X91950000Y-90160000D01*
X91950000Y-90160000D02*
X91950000Y-87240000D01*
X150685000Y-63980000D02*
X150685000Y-62480000D01*
X150685000Y-62480000D02*
X153605000Y-62480000D01*
X153605000Y-62480000D02*
X153605000Y-63980000D01*
X153605000Y-63980000D02*
X150685000Y-63980000D01*
X65260000Y-198650000D02*
X65260000Y-200150000D01*
X65260000Y-200150000D02*
X62340000Y-200150000D01*
X62340000Y-200150000D02*
X62340000Y-198650000D01*
X62340000Y-198650000D02*
X65260000Y-198650000D01*
X213810000Y-182250000D02*
X213810000Y-180250000D01*
X213810000Y-180250000D02*
X217190000Y-180250000D01*
X217190000Y-180250000D02*
X217190000Y-182250000D01*
X217190000Y-182250000D02*
X213810000Y-182250000D01*
X211750000Y-174210000D02*
X210250000Y-174210000D01*
X210250000Y-174210000D02*
X210250000Y-171290000D01*
X210250000Y-171290000D02*
X211750000Y-171290000D01*
X211750000Y-171290000D02*
X211750000Y-174210000D01*
X216690000Y-154600000D02*
X216690000Y-156600000D01*
X216690000Y-156600000D02*
X213310000Y-156600000D01*
X213310000Y-156600000D02*
X213310000Y-154600000D01*
X213310000Y-154600000D02*
X216690000Y-154600000D01*
X208950000Y-189490000D02*
X210450000Y-189490000D01*
X210450000Y-189490000D02*
X210450000Y-192410000D01*
X210450000Y-192410000D02*
X208950000Y-192410000D01*
X208950000Y-192410000D02*
X208950000Y-189490000D01*
X211810000Y-181450000D02*
X211810000Y-182950000D01*
X211810000Y-182950000D02*
X208890000Y-182950000D01*
X208890000Y-182950000D02*
X208890000Y-181450000D01*
X208890000Y-181450000D02*
X211810000Y-181450000D01*
X137800000Y-188100000D02*
X147200000Y-188100000D01*
X137800000Y-188100000D02*
X137800000Y-194900000D01*
X147200000Y-194900000D02*
X147200000Y-188100000D01*
X147200000Y-194900000D02*
X137800000Y-194900000D01*
X138300000Y-171680000D02*
X146200000Y-171680000D01*
X138300000Y-171680000D02*
X138300000Y-177210000D01*
X146200000Y-177210000D02*
X146200000Y-171680000D01*
X146200000Y-177210000D02*
X138300000Y-177210000D01*
X143080000Y-171180000D02*
X143080000Y-169680000D01*
X143080000Y-169680000D02*
X146000000Y-169680000D01*
X146000000Y-169680000D02*
X146000000Y-171180000D01*
X146000000Y-171180000D02*
X143080000Y-171180000D01*
X103950000Y-74410000D02*
X102450000Y-74410000D01*
X102450000Y-74410000D02*
X102450000Y-71490000D01*
X102450000Y-71490000D02*
X103950000Y-71490000D01*
X103950000Y-71490000D02*
X103950000Y-74410000D01*
X103710000Y-187900000D02*
X103710000Y-185600000D01*
X103710000Y-185600000D02*
X108290000Y-185600000D01*
X108290000Y-185600000D02*
X108290000Y-187900000D01*
X108290000Y-187900000D02*
X103710000Y-187900000D01*
X129790000Y-180350000D02*
X129790000Y-182650000D01*
X129790000Y-182650000D02*
X125210000Y-182650000D01*
X125210000Y-182650000D02*
X125210000Y-180350000D01*
X125210000Y-180350000D02*
X129790000Y-180350000D01*
X101710000Y-189500000D02*
X101710000Y-191000000D01*
X101710000Y-191000000D02*
X98790000Y-191000000D01*
X98790000Y-191000000D02*
X98790000Y-189500000D01*
X98790000Y-189500000D02*
X101710000Y-189500000D01*
X130540000Y-185250000D02*
X130540000Y-183750000D01*
X130540000Y-183750000D02*
X133460000Y-183750000D01*
X133460000Y-183750000D02*
X133460000Y-185250000D01*
X133460000Y-185250000D02*
X130540000Y-185250000D01*
X101460000Y-186500000D02*
X101460000Y-188000000D01*
X101460000Y-188000000D02*
X98540000Y-188000000D01*
X98540000Y-188000000D02*
X98540000Y-186500000D01*
X98540000Y-186500000D02*
X101460000Y-186500000D01*
X130540000Y-182250000D02*
X130540000Y-180750000D01*
X130540000Y-180750000D02*
X133460000Y-180750000D01*
X133460000Y-180750000D02*
X133460000Y-182250000D01*
X133460000Y-182250000D02*
X130540000Y-182250000D01*
X93040000Y-194750000D02*
X93040000Y-193250000D01*
X93040000Y-193250000D02*
X95960000Y-193250000D01*
X95960000Y-193250000D02*
X95960000Y-194750000D01*
X95960000Y-194750000D02*
X93040000Y-194750000D01*
X101460000Y-183500000D02*
X101460000Y-185000000D01*
X101460000Y-185000000D02*
X98540000Y-185000000D01*
X98540000Y-185000000D02*
X98540000Y-183500000D01*
X98540000Y-183500000D02*
X101460000Y-183500000D01*
X131540000Y-179250000D02*
X131540000Y-177750000D01*
X131540000Y-177750000D02*
X134460000Y-177750000D01*
X134460000Y-177750000D02*
X134460000Y-179250000D01*
X134460000Y-179250000D02*
X131540000Y-179250000D01*
X93040000Y-192250000D02*
X93040000Y-190750000D01*
X93040000Y-190750000D02*
X95960000Y-190750000D01*
X95960000Y-190750000D02*
X95960000Y-192250000D01*
X95960000Y-192250000D02*
X93040000Y-192250000D01*
X105290000Y-184250000D02*
X105290000Y-182750000D01*
X105290000Y-182750000D02*
X108210000Y-182750000D01*
X108210000Y-182750000D02*
X108210000Y-184250000D01*
X108210000Y-184250000D02*
X105290000Y-184250000D01*
X128460000Y-177250000D02*
X128460000Y-178750000D01*
X128460000Y-178750000D02*
X125540000Y-178750000D01*
X125540000Y-178750000D02*
X125540000Y-177250000D01*
X125540000Y-177250000D02*
X128460000Y-177250000D01*
X93040000Y-189500000D02*
X93040000Y-188000000D01*
X93040000Y-188000000D02*
X95960000Y-188000000D01*
X95960000Y-188000000D02*
X95960000Y-189500000D01*
X95960000Y-189500000D02*
X93040000Y-189500000D01*
X101460000Y-180750000D02*
X101460000Y-182250000D01*
X101460000Y-182250000D02*
X98540000Y-182250000D01*
X98540000Y-182250000D02*
X98540000Y-180750000D01*
X98540000Y-180750000D02*
X101460000Y-180750000D01*
X128460000Y-175250000D02*
X128460000Y-176750000D01*
X128460000Y-176750000D02*
X125540000Y-176750000D01*
X125540000Y-176750000D02*
X125540000Y-175250000D01*
X125540000Y-175250000D02*
X128460000Y-175250000D01*
X87960000Y-188250000D02*
X87960000Y-189750000D01*
X87960000Y-189750000D02*
X85040000Y-189750000D01*
X85040000Y-189750000D02*
X85040000Y-188250000D01*
X85040000Y-188250000D02*
X87960000Y-188250000D01*
X105290000Y-181500000D02*
X105290000Y-180000000D01*
X105290000Y-180000000D02*
X108210000Y-180000000D01*
X108210000Y-180000000D02*
X108210000Y-181500000D01*
X108210000Y-181500000D02*
X105290000Y-181500000D01*
X131540000Y-176750000D02*
X131540000Y-175250000D01*
X131540000Y-175250000D02*
X134460000Y-175250000D01*
X134460000Y-175250000D02*
X134460000Y-176750000D01*
X134460000Y-176750000D02*
X131540000Y-176750000D01*
X105550000Y-74410000D02*
X104050000Y-74410000D01*
X104050000Y-74410000D02*
X104050000Y-71490000D01*
X104050000Y-71490000D02*
X105550000Y-71490000D01*
X105550000Y-71490000D02*
X105550000Y-74410000D01*
X123710000Y-195000000D02*
X123710000Y-196500000D01*
X123710000Y-196500000D02*
X120790000Y-196500000D01*
X120790000Y-196500000D02*
X120790000Y-195000000D01*
X120790000Y-195000000D02*
X123710000Y-195000000D01*
X130040000Y-183100000D02*
X130040000Y-185400000D01*
X130040000Y-185400000D02*
X125460000Y-185400000D01*
X125460000Y-185400000D02*
X125460000Y-183100000D01*
X125460000Y-183100000D02*
X130040000Y-183100000D01*
X122000000Y-199710000D02*
X120500000Y-199710000D01*
X120500000Y-199710000D02*
X120500000Y-196790000D01*
X120500000Y-196790000D02*
X122000000Y-196790000D01*
X122000000Y-196790000D02*
X122000000Y-199710000D01*
X119940000Y-200250000D02*
X119940000Y-202250000D01*
X119940000Y-202250000D02*
X116560000Y-202250000D01*
X116560000Y-202250000D02*
X116560000Y-200250000D01*
X116560000Y-200250000D02*
X119940000Y-200250000D01*
X112810000Y-193000000D02*
X112810000Y-191000000D01*
X112810000Y-191000000D02*
X116190000Y-191000000D01*
X116190000Y-191000000D02*
X116190000Y-193000000D01*
X116190000Y-193000000D02*
X112810000Y-193000000D01*
X115940000Y-200250000D02*
X115940000Y-202250000D01*
X115940000Y-202250000D02*
X112560000Y-202250000D01*
X112560000Y-202250000D02*
X112560000Y-200250000D01*
X112560000Y-200250000D02*
X115940000Y-200250000D01*
X111750000Y-200460000D02*
X110250000Y-200460000D01*
X110250000Y-200460000D02*
X110250000Y-197540000D01*
X110250000Y-197540000D02*
X111750000Y-197540000D01*
X111750000Y-197540000D02*
X111750000Y-200460000D01*
X102960000Y-191400000D02*
X102960000Y-189100000D01*
X102960000Y-189100000D02*
X107540000Y-189100000D01*
X107540000Y-189100000D02*
X107540000Y-191400000D01*
X107540000Y-191400000D02*
X102960000Y-191400000D01*
X84250000Y-196040000D02*
X85750000Y-196040000D01*
X85750000Y-196040000D02*
X85750000Y-198960000D01*
X85750000Y-198960000D02*
X84250000Y-198960000D01*
X84250000Y-198960000D02*
X84250000Y-196040000D01*
X108790000Y-197250000D02*
X108790000Y-195750000D01*
X108790000Y-195750000D02*
X111710000Y-195750000D01*
X111710000Y-195750000D02*
X111710000Y-197250000D01*
X111710000Y-197250000D02*
X108790000Y-197250000D01*
X91540000Y-200250000D02*
X91540000Y-198750000D01*
X91540000Y-198750000D02*
X94460000Y-198750000D01*
X94460000Y-198750000D02*
X94460000Y-200250000D01*
X94460000Y-200250000D02*
X91540000Y-200250000D01*
X91810000Y-198000000D02*
X91810000Y-196000000D01*
X91810000Y-196000000D02*
X95190000Y-196000000D01*
X95190000Y-196000000D02*
X95190000Y-198000000D01*
X95190000Y-198000000D02*
X91810000Y-198000000D01*
X195650000Y-210790000D02*
X193350000Y-210790000D01*
X193350000Y-210790000D02*
X193350000Y-206210000D01*
X193350000Y-206210000D02*
X195650000Y-206210000D01*
X195650000Y-206210000D02*
X195650000Y-210790000D01*
X211910000Y-179450000D02*
X211910000Y-180950000D01*
X211910000Y-180950000D02*
X208990000Y-180950000D01*
X208990000Y-180950000D02*
X208990000Y-179450000D01*
X208990000Y-179450000D02*
X211910000Y-179450000D01*
X215590000Y-158050000D02*
X215590000Y-156550000D01*
X215590000Y-156550000D02*
X218510000Y-156550000D01*
X218510000Y-156550000D02*
X218510000Y-158050000D01*
X218510000Y-158050000D02*
X215590000Y-158050000D01*
X175310000Y-138450000D02*
X175310000Y-139950000D01*
X175310000Y-139950000D02*
X172390000Y-139950000D01*
X172390000Y-139950000D02*
X172390000Y-138450000D01*
X172390000Y-138450000D02*
X175310000Y-138450000D01*
X175940000Y-136550000D02*
X175940000Y-135050000D01*
X175940000Y-135050000D02*
X178860000Y-135050000D01*
X178860000Y-135050000D02*
X178860000Y-136550000D01*
X178860000Y-136550000D02*
X175940000Y-136550000D01*
X208750000Y-170210000D02*
X207250000Y-170210000D01*
X207250000Y-170210000D02*
X207250000Y-167290000D01*
X207250000Y-167290000D02*
X208750000Y-167290000D01*
X208750000Y-167290000D02*
X208750000Y-170210000D01*
X185190000Y-151450000D02*
X185190000Y-149950000D01*
X185190000Y-149950000D02*
X188110000Y-149950000D01*
X188110000Y-149950000D02*
X188110000Y-151450000D01*
X188110000Y-151450000D02*
X185190000Y-151450000D01*
X185190000Y-156850000D02*
X185190000Y-155350000D01*
X185190000Y-155350000D02*
X188110000Y-155350000D01*
X188110000Y-155350000D02*
X188110000Y-156850000D01*
X188110000Y-156850000D02*
X185190000Y-156850000D01*
X179320000Y-210150000D02*
X179320000Y-198850000D01*
X179320000Y-198850000D02*
X162680000Y-198850000D01*
X162680000Y-198850000D02*
X162680000Y-210150000D01*
X162680000Y-210150000D02*
X179320000Y-210150000D01*
X170500000Y-158100000D02*
X170500000Y-157200000D01*
X163500000Y-158100000D02*
X163500000Y-157200000D01*
X163500000Y-168900000D02*
X170500000Y-168900000D01*
X170500000Y-168900000D02*
X170500000Y-158100000D01*
X170500000Y-157200000D02*
X163500000Y-157200000D01*
X163500000Y-158100000D02*
X163500000Y-168900000D01*
X182600000Y-145350000D02*
X179200000Y-145350000D01*
X179200000Y-145350000D02*
X179200000Y-141850000D01*
X179200000Y-141850000D02*
X182600000Y-141850000D01*
X182600000Y-141850000D02*
X182600000Y-145350000D01*
X166440000Y-145020000D02*
X169840000Y-145020000D01*
X169840000Y-145020000D02*
X169840000Y-148520000D01*
X169840000Y-148520000D02*
X166440000Y-148520000D01*
X166440000Y-148520000D02*
X166440000Y-145020000D01*
X177000000Y-151300000D02*
X177000000Y-147900000D01*
X177000000Y-147900000D02*
X180500000Y-147900000D01*
X180500000Y-147900000D02*
X180500000Y-151300000D01*
X180500000Y-151300000D02*
X177000000Y-151300000D01*
X166700000Y-149100000D02*
X170100000Y-149100000D01*
X170100000Y-149100000D02*
X170100000Y-152600000D01*
X170100000Y-152600000D02*
X166700000Y-152600000D01*
X166700000Y-152600000D02*
X166700000Y-149100000D01*
X218700000Y-163700000D02*
X215300000Y-163700000D01*
X215300000Y-163700000D02*
X215300000Y-160200000D01*
X215300000Y-160200000D02*
X218700000Y-160200000D01*
X218700000Y-160200000D02*
X218700000Y-163700000D01*
X84900000Y-88790000D02*
X86400000Y-88790000D01*
X86400000Y-88790000D02*
X86400000Y-91710000D01*
X86400000Y-91710000D02*
X84900000Y-91710000D01*
X84900000Y-91710000D02*
X84900000Y-88790000D01*
X105310000Y-74650000D02*
X105310000Y-76150000D01*
X105310000Y-76150000D02*
X102390000Y-76150000D01*
X102390000Y-76150000D02*
X102390000Y-74650000D01*
X102390000Y-74650000D02*
X105310000Y-74650000D01*
X124960000Y-158850000D02*
X121260000Y-158850000D01*
X121260000Y-158850000D02*
X121260000Y-163350000D01*
X121260000Y-163350000D02*
X124960000Y-163350000D01*
X124960000Y-163350000D02*
X124960000Y-158850000D01*
X141670000Y-158320000D02*
X137970000Y-158320000D01*
X137970000Y-158320000D02*
X137970000Y-162820000D01*
X137970000Y-162820000D02*
X141670000Y-162820000D01*
X141670000Y-162820000D02*
X141670000Y-158320000D01*
X108250000Y-49500000D02*
X126250000Y-49500000D01*
X126250000Y-65500000D02*
X108250000Y-65500000D01*
X108250000Y-49500000D02*
X108250000Y-65500000D01*
X126250000Y-49500000D02*
X126250000Y-65500000D01*
X109295000Y-71215000D02*
X109295000Y-86615000D01*
X109295000Y-86615000D02*
X116245000Y-86615000D01*
X116245000Y-86615000D02*
X116245000Y-71215000D01*
X116245000Y-71215000D02*
X109295000Y-71215000D01*
X137870000Y-166350000D02*
X119930000Y-166350000D01*
X119930000Y-166350000D02*
X119930000Y-173300000D01*
X119930000Y-173300000D02*
X137870000Y-173300000D01*
X137870000Y-173300000D02*
X137870000Y-166350000D01*
X85252198Y-170020000D02*
X59692198Y-170020000D01*
X59692198Y-170020000D02*
X59692198Y-176970000D01*
X59692198Y-176970000D02*
X85252198Y-176970000D01*
X85252198Y-176970000D02*
X85252198Y-170020000D01*
X219066000Y-67318000D02*
X212266000Y-67318000D01*
X212266000Y-67318000D02*
X212266000Y-75938000D01*
X212266000Y-75938000D02*
X219066000Y-75938000D01*
X219066000Y-75938000D02*
X219066000Y-67318000D01*
X102080000Y-68840000D02*
X83540000Y-68840000D01*
X102080000Y-68840000D02*
X102080000Y-49390000D01*
X83540000Y-49390000D02*
X83540000Y-68840000D01*
X83540000Y-49390000D02*
X102080000Y-49390000D01*
X167430000Y-59290000D02*
X151830000Y-59290000D01*
X151830000Y-59290000D02*
X151830000Y-48040000D01*
X151830000Y-48040000D02*
X167430000Y-48040000D01*
X167430000Y-48040000D02*
X167430000Y-59290000D01*
X143180000Y-119880000D02*
X143180000Y-126680000D01*
X143180000Y-126680000D02*
X156880000Y-126680000D01*
X156880000Y-126680000D02*
X156880000Y-119880000D01*
X156880000Y-119880000D02*
X143180000Y-119880000D01*
X172670000Y-64310000D02*
X172670000Y-48000000D01*
X172670000Y-64310000D02*
X187870000Y-64310000D01*
X187870000Y-48000000D02*
X172670000Y-48000000D01*
X187870000Y-48000000D02*
X187870000Y-64310000D01*
X206980000Y-105630000D02*
X206980000Y-112430000D01*
X206980000Y-112430000D02*
X218140000Y-112430000D01*
X218140000Y-112430000D02*
X218140000Y-105630000D01*
X218140000Y-105630000D02*
X206980000Y-105630000D01*
X66401000Y-192764000D02*
X66401000Y-183366000D01*
X66401000Y-183366000D02*
X75799000Y-183366000D01*
X75799000Y-183366000D02*
X75799000Y-192764000D01*
X75799000Y-192764000D02*
X66401000Y-192764000D01*
X149301000Y-198064000D02*
X149301000Y-188666000D01*
X149301000Y-188666000D02*
X158699000Y-188666000D01*
X158699000Y-188666000D02*
X158699000Y-198064000D01*
X158699000Y-198064000D02*
X149301000Y-198064000D01*
X130936000Y-209301000D02*
X140334000Y-209301000D01*
X140334000Y-209301000D02*
X140334000Y-218699000D01*
X140334000Y-218699000D02*
X130936000Y-218699000D01*
X130936000Y-218699000D02*
X130936000Y-209301000D01*
X192300000Y-169850000D02*
X172450000Y-169850000D01*
X172450000Y-169850000D02*
X172450000Y-175250000D01*
X172450000Y-175250000D02*
X163250000Y-175250000D01*
X163250000Y-175250000D02*
X163250000Y-192750000D01*
X163250000Y-192750000D02*
X172500000Y-192750000D01*
X172500000Y-192750000D02*
X172500000Y-198150000D01*
X172500000Y-198150000D02*
X192300000Y-198150000D01*
X192300000Y-198150000D02*
X192300000Y-169850000D01*
X137801000Y-187064000D02*
X137801000Y-177666000D01*
X137801000Y-177666000D02*
X147199000Y-177666000D01*
X147199000Y-177666000D02*
X147199000Y-187064000D01*
X147199000Y-187064000D02*
X137801000Y-187064000D01*
X134449000Y-186186000D02*
X134449000Y-195584000D01*
X134449000Y-195584000D02*
X125051000Y-195584000D01*
X125051000Y-195584000D02*
X125051000Y-186186000D01*
X125051000Y-186186000D02*
X134449000Y-186186000D01*
X98551000Y-202064000D02*
X98551000Y-192666000D01*
X98551000Y-192666000D02*
X107949000Y-192666000D01*
X107949000Y-192666000D02*
X107949000Y-202064000D01*
X107949000Y-202064000D02*
X98551000Y-202064000D01*
X181000000Y-210750000D02*
X181000000Y-218250000D01*
X187000000Y-210750000D02*
X181000000Y-210750000D01*
X187000000Y-218250000D02*
X187000000Y-210750000D01*
X181000000Y-218250000D02*
X187000000Y-218250000D01*
X179750000Y-163000000D02*
X172250000Y-163000000D01*
X179750000Y-169000000D02*
X179750000Y-163000000D01*
X172250000Y-169000000D02*
X179750000Y-169000000D01*
X172250000Y-163000000D02*
X172250000Y-169000000D01*
X66950000Y-201400000D02*
X66950000Y-198000000D01*
X66950000Y-198000000D02*
X70450000Y-198000000D01*
X70450000Y-198000000D02*
X70450000Y-201400000D01*
X70450000Y-201400000D02*
X66950000Y-201400000D01*
X184500000Y-136400000D02*
X187900000Y-136400000D01*
X187900000Y-136400000D02*
X187900000Y-139900000D01*
X187900000Y-139900000D02*
X184500000Y-139900000D01*
X184500000Y-139900000D02*
X184500000Y-136400000D01*
X102720000Y-205270000D02*
X102720000Y-203770000D01*
X102720000Y-203770000D02*
X105640000Y-203770000D01*
X105640000Y-203770000D02*
X105640000Y-205270000D01*
X105640000Y-205270000D02*
X102720000Y-205270000D01*
X77710000Y-184650000D02*
X77710000Y-182350000D01*
X77710000Y-182350000D02*
X82290000Y-182350000D01*
X82290000Y-182350000D02*
X82290000Y-184650000D01*
X82290000Y-184650000D02*
X77710000Y-184650000D01*
X160850000Y-181310000D02*
X159350000Y-181310000D01*
X159350000Y-181310000D02*
X159350000Y-178390000D01*
X159350000Y-178390000D02*
X160850000Y-178390000D01*
X160850000Y-178390000D02*
X160850000Y-181310000D01*
X77610000Y-192450000D02*
X77610000Y-190150000D01*
X77610000Y-190150000D02*
X82190000Y-190150000D01*
X82190000Y-190150000D02*
X82190000Y-192450000D01*
X82190000Y-192450000D02*
X77610000Y-192450000D01*
X93000000Y-179710000D02*
X91500000Y-179710000D01*
X91500000Y-179710000D02*
X91500000Y-176790000D01*
X91500000Y-176790000D02*
X93000000Y-176790000D01*
X93000000Y-176790000D02*
X93000000Y-179710000D01*
X194950000Y-69215000D02*
X196450000Y-69215000D01*
X196450000Y-69215000D02*
X196450000Y-72135000D01*
X196450000Y-72135000D02*
X194950000Y-72135000D01*
X194950000Y-72135000D02*
X194950000Y-69215000D01*
X142915000Y-130275000D02*
X142915000Y-128775000D01*
X142915000Y-128775000D02*
X145835000Y-128775000D01*
X145835000Y-128775000D02*
X145835000Y-130275000D01*
X145835000Y-130275000D02*
X142915000Y-130275000D01*
X193250000Y-69240000D02*
X194750000Y-69240000D01*
X194750000Y-69240000D02*
X194750000Y-72160000D01*
X194750000Y-72160000D02*
X193250000Y-72160000D01*
X193250000Y-72160000D02*
X193250000Y-69240000D01*
X142940000Y-128375000D02*
X142940000Y-126875000D01*
X142940000Y-126875000D02*
X145860000Y-126875000D01*
X145860000Y-126875000D02*
X145860000Y-128375000D01*
X145860000Y-128375000D02*
X142940000Y-128375000D01*
X135645000Y-128800000D02*
X135645000Y-127300000D01*
X135645000Y-127300000D02*
X138565000Y-127300000D01*
X138565000Y-127300000D02*
X138565000Y-128800000D01*
X138565000Y-128800000D02*
X135645000Y-128800000D01*
X98460000Y-78650000D02*
X98460000Y-80150000D01*
X98460000Y-80150000D02*
X95540000Y-80150000D01*
X95540000Y-80150000D02*
X95540000Y-78650000D01*
X95540000Y-78650000D02*
X98460000Y-78650000D01*
X77710000Y-188650000D02*
X77710000Y-186350000D01*
X77710000Y-186350000D02*
X82290000Y-186350000D01*
X82290000Y-186350000D02*
X82290000Y-188650000D01*
X82290000Y-188650000D02*
X77710000Y-188650000D01*
X212150000Y-192210000D02*
X210650000Y-192210000D01*
X210650000Y-192210000D02*
X210650000Y-189290000D01*
X210650000Y-189290000D02*
X212150000Y-189290000D01*
X212150000Y-189290000D02*
X212150000Y-192210000D01*
X207250000Y-189290000D02*
X208750000Y-189290000D01*
X208750000Y-189290000D02*
X208750000Y-192210000D01*
X208750000Y-192210000D02*
X207250000Y-192210000D01*
X207250000Y-192210000D02*
X207250000Y-189290000D01*
X213110000Y-182950000D02*
X213110000Y-184450000D01*
X213110000Y-184450000D02*
X210190000Y-184450000D01*
X210190000Y-184450000D02*
X210190000Y-182950000D01*
X210190000Y-182950000D02*
X213110000Y-182950000D01*
X209650000Y-188060000D02*
X208150000Y-188060000D01*
X208150000Y-188060000D02*
X208150000Y-185140000D01*
X208150000Y-185140000D02*
X209650000Y-185140000D01*
X209650000Y-185140000D02*
X209650000Y-188060000D01*
X208790000Y-179450000D02*
X208790000Y-177950000D01*
X208790000Y-177950000D02*
X211710000Y-177950000D01*
X211710000Y-177950000D02*
X211710000Y-179450000D01*
X211710000Y-179450000D02*
X208790000Y-179450000D01*
X212140000Y-179975000D02*
X212140000Y-178475000D01*
X212140000Y-178475000D02*
X215060000Y-178475000D01*
X215060000Y-178475000D02*
X215060000Y-179975000D01*
X215060000Y-179975000D02*
X212140000Y-179975000D01*
X207050000Y-196340000D02*
X204750000Y-196340000D01*
X204750000Y-196340000D02*
X204750000Y-191760000D01*
X204750000Y-191760000D02*
X207050000Y-191760000D01*
X207050000Y-191760000D02*
X207050000Y-196340000D01*
X215025000Y-177190000D02*
X216525000Y-177190000D01*
X216525000Y-177190000D02*
X216525000Y-180110000D01*
X216525000Y-180110000D02*
X215025000Y-180110000D01*
X215025000Y-180110000D02*
X215025000Y-177190000D01*
X184050000Y-199450000D02*
X187950000Y-199450000D01*
X187950000Y-199450000D02*
X187950000Y-207550000D01*
X187950000Y-207550000D02*
X184050000Y-207550000D01*
X184050000Y-207550000D02*
X184050000Y-199450000D01*
X83340000Y-79650000D02*
X83340000Y-78150000D01*
X83340000Y-78150000D02*
X86260000Y-78150000D01*
X86260000Y-78150000D02*
X86260000Y-79650000D01*
X86260000Y-79650000D02*
X83340000Y-79650000D01*
X150670000Y-62340000D02*
X150670000Y-60840000D01*
X150670000Y-60840000D02*
X153590000Y-60840000D01*
X153590000Y-60840000D02*
X153590000Y-62340000D01*
X153590000Y-62340000D02*
X150670000Y-62340000D01*
X218300000Y-144385000D02*
X216800000Y-144385000D01*
X216800000Y-144385000D02*
X216800000Y-141465000D01*
X216800000Y-141465000D02*
X218300000Y-141465000D01*
X218300000Y-141465000D02*
X218300000Y-144385000D01*
X215360000Y-141700000D02*
X215360000Y-143200000D01*
X215360000Y-143200000D02*
X212440000Y-143200000D01*
X212440000Y-143200000D02*
X212440000Y-141700000D01*
X212440000Y-141700000D02*
X215360000Y-141700000D01*
X185090000Y-153250000D02*
X185090000Y-151750000D01*
X185090000Y-151750000D02*
X188010000Y-151750000D01*
X188010000Y-151750000D02*
X188010000Y-153250000D01*
X188010000Y-153250000D02*
X185090000Y-153250000D01*
X147850000Y-60460000D02*
X147850000Y-58960000D01*
X147850000Y-58960000D02*
X150770000Y-58960000D01*
X150770000Y-58960000D02*
X150770000Y-60460000D01*
X150770000Y-60460000D02*
X147850000Y-60460000D01*
X163350000Y-67600000D02*
X164850000Y-67600000D01*
X164850000Y-67600000D02*
X164850000Y-70520000D01*
X164850000Y-70520000D02*
X163350000Y-70520000D01*
X163350000Y-70520000D02*
X163350000Y-67600000D01*
X85085000Y-144125000D02*
X85085000Y-145625000D01*
X85085000Y-145625000D02*
X82165000Y-145625000D01*
X82165000Y-145625000D02*
X82165000Y-144125000D01*
X82165000Y-144125000D02*
X85085000Y-144125000D01*
X105660000Y-53550000D02*
X105660000Y-55050000D01*
X105660000Y-55050000D02*
X102740000Y-55050000D01*
X102740000Y-55050000D02*
X102740000Y-53550000D01*
X102740000Y-53550000D02*
X105660000Y-53550000D01*
X80140000Y-53650000D02*
X80140000Y-52150000D01*
X80140000Y-52150000D02*
X83060000Y-52150000D01*
X83060000Y-52150000D02*
X83060000Y-53650000D01*
X83060000Y-53650000D02*
X80140000Y-53650000D01*
X142300000Y-85690000D02*
X143800000Y-85690000D01*
X143800000Y-85690000D02*
X143800000Y-88610000D01*
X143800000Y-88610000D02*
X142300000Y-88610000D01*
X142300000Y-88610000D02*
X142300000Y-85690000D01*
X211750000Y-171290000D02*
X213250000Y-171290000D01*
X213250000Y-171290000D02*
X213250000Y-174210000D01*
X213250000Y-174210000D02*
X211750000Y-174210000D01*
X211750000Y-174210000D02*
X211750000Y-171290000D01*
X59240000Y-206550000D02*
X59240000Y-205050000D01*
X59240000Y-205050000D02*
X62160000Y-205050000D01*
X62160000Y-205050000D02*
X62160000Y-206550000D01*
X62160000Y-206550000D02*
X59240000Y-206550000D01*
X63840000Y-208150000D02*
X63840000Y-206650000D01*
X63840000Y-206650000D02*
X66760000Y-206650000D01*
X66760000Y-206650000D02*
X66760000Y-208150000D01*
X66760000Y-208150000D02*
X63840000Y-208150000D01*
X68460000Y-201750000D02*
X68460000Y-203250000D01*
X68460000Y-203250000D02*
X65540000Y-203250000D01*
X65540000Y-203250000D02*
X65540000Y-201750000D01*
X65540000Y-201750000D02*
X68460000Y-201750000D01*
X54940000Y-206550000D02*
X54940000Y-205050000D01*
X54940000Y-205050000D02*
X57860000Y-205050000D01*
X57860000Y-205050000D02*
X57860000Y-206550000D01*
X57860000Y-206550000D02*
X54940000Y-206550000D01*
X71560000Y-201750000D02*
X71560000Y-203250000D01*
X71560000Y-203250000D02*
X68640000Y-203250000D01*
X68640000Y-203250000D02*
X68640000Y-201750000D01*
X68640000Y-201750000D02*
X71560000Y-201750000D01*
X64440000Y-197350000D02*
X64440000Y-195850000D01*
X64440000Y-195850000D02*
X67360000Y-195850000D01*
X67360000Y-195850000D02*
X67360000Y-197350000D01*
X67360000Y-197350000D02*
X64440000Y-197350000D01*
X215750000Y-167210000D02*
X214250000Y-167210000D01*
X214250000Y-167210000D02*
X214250000Y-164290000D01*
X214250000Y-164290000D02*
X215750000Y-164290000D01*
X215750000Y-164290000D02*
X215750000Y-167210000D01*
X216000000Y-165290000D02*
X217500000Y-165290000D01*
X217500000Y-165290000D02*
X217500000Y-168210000D01*
X217500000Y-168210000D02*
X216000000Y-168210000D01*
X216000000Y-168210000D02*
X216000000Y-165290000D01*
X189405000Y-136890000D02*
X189405000Y-135390000D01*
X189405000Y-135390000D02*
X192325000Y-135390000D01*
X192325000Y-135390000D02*
X192325000Y-136890000D01*
X192325000Y-136890000D02*
X189405000Y-136890000D01*
X219250000Y-167960000D02*
X217750000Y-167960000D01*
X217750000Y-167960000D02*
X217750000Y-165040000D01*
X217750000Y-165040000D02*
X219250000Y-165040000D01*
X219250000Y-165040000D02*
X219250000Y-167960000D01*
X189385000Y-138580000D02*
X189385000Y-137080000D01*
X189385000Y-137080000D02*
X192305000Y-137080000D01*
X192305000Y-137080000D02*
X192305000Y-138580000D01*
X192305000Y-138580000D02*
X189385000Y-138580000D01*
X206290000Y-172250000D02*
X206290000Y-170750000D01*
X206290000Y-170750000D02*
X209210000Y-170750000D01*
X209210000Y-170750000D02*
X209210000Y-172250000D01*
X209210000Y-172250000D02*
X206290000Y-172250000D01*
X200000000Y-170290000D02*
X201500000Y-170290000D01*
X201500000Y-170290000D02*
X201500000Y-173210000D01*
X201500000Y-173210000D02*
X200000000Y-173210000D01*
X200000000Y-173210000D02*
X200000000Y-170290000D01*
X166290000Y-135750000D02*
X166290000Y-134250000D01*
X166290000Y-134250000D02*
X169210000Y-134250000D01*
X169210000Y-134250000D02*
X169210000Y-135750000D01*
X169210000Y-135750000D02*
X166290000Y-135750000D01*
X171250000Y-136710000D02*
X169750000Y-136710000D01*
X169750000Y-136710000D02*
X169750000Y-133790000D01*
X169750000Y-133790000D02*
X171250000Y-133790000D01*
X171250000Y-133790000D02*
X171250000Y-136710000D01*
X167660000Y-138450000D02*
X167660000Y-136950000D01*
X167660000Y-136950000D02*
X170580000Y-136950000D01*
X170580000Y-136950000D02*
X170580000Y-138450000D01*
X170580000Y-138450000D02*
X167660000Y-138450000D01*
X170630000Y-138750000D02*
X170630000Y-140250000D01*
X170630000Y-140250000D02*
X167710000Y-140250000D01*
X167710000Y-140250000D02*
X167710000Y-138750000D01*
X167710000Y-138750000D02*
X170630000Y-138750000D01*
X170860000Y-141340000D02*
X170860000Y-142840000D01*
X170860000Y-142840000D02*
X167940000Y-142840000D01*
X167940000Y-142840000D02*
X167940000Y-141340000D01*
X167940000Y-141340000D02*
X170860000Y-141340000D01*
X90250000Y-185210000D02*
X88750000Y-185210000D01*
X88750000Y-185210000D02*
X88750000Y-182290000D01*
X88750000Y-182290000D02*
X90250000Y-182290000D01*
X90250000Y-182290000D02*
X90250000Y-185210000D01*
X90750000Y-182290000D02*
X92250000Y-182290000D01*
X92250000Y-182290000D02*
X92250000Y-185210000D01*
X92250000Y-185210000D02*
X90750000Y-185210000D01*
X90750000Y-185210000D02*
X90750000Y-182290000D01*
X98840000Y-79450000D02*
X98840000Y-77950000D01*
X98840000Y-77950000D02*
X101760000Y-77950000D01*
X101760000Y-77950000D02*
X101760000Y-79450000D01*
X101760000Y-79450000D02*
X98840000Y-79450000D01*
X104740000Y-82250000D02*
X104740000Y-80750000D01*
X104740000Y-80750000D02*
X107660000Y-80750000D01*
X107660000Y-80750000D02*
X107660000Y-82250000D01*
X107660000Y-82250000D02*
X104740000Y-82250000D01*
X104740000Y-84050000D02*
X104740000Y-82550000D01*
X104740000Y-82550000D02*
X107660000Y-82550000D01*
X107660000Y-82550000D02*
X107660000Y-84050000D01*
X107660000Y-84050000D02*
X104740000Y-84050000D01*
X104740000Y-85950000D02*
X104740000Y-84450000D01*
X104740000Y-84450000D02*
X107660000Y-84450000D01*
X107660000Y-84450000D02*
X107660000Y-85950000D01*
X107660000Y-85950000D02*
X104740000Y-85950000D01*
X98840000Y-77950000D02*
X98840000Y-76450000D01*
X98840000Y-76450000D02*
X101760000Y-76450000D01*
X101760000Y-76450000D02*
X101760000Y-77950000D01*
X101760000Y-77950000D02*
X98840000Y-77950000D01*
X210290000Y-171250000D02*
X210290000Y-169750000D01*
X210290000Y-169750000D02*
X213210000Y-169750000D01*
X213210000Y-169750000D02*
X213210000Y-171250000D01*
X213210000Y-171250000D02*
X210290000Y-171250000D01*
X175410000Y-135050000D02*
X175410000Y-136550000D01*
X175410000Y-136550000D02*
X172490000Y-136550000D01*
X172490000Y-136550000D02*
X172490000Y-135050000D01*
X172490000Y-135050000D02*
X175410000Y-135050000D01*
X88550000Y-90060000D02*
X87050000Y-90060000D01*
X87050000Y-90060000D02*
X87050000Y-87140000D01*
X87050000Y-87140000D02*
X88550000Y-87140000D01*
X88550000Y-87140000D02*
X88550000Y-90060000D01*
X99760000Y-74070000D02*
X98260000Y-74070000D01*
X98260000Y-74070000D02*
X98260000Y-71150000D01*
X98260000Y-71150000D02*
X99760000Y-71150000D01*
X99760000Y-71150000D02*
X99760000Y-74070000D01*
X84750000Y-85640000D02*
X86250000Y-85640000D01*
X86250000Y-85640000D02*
X86250000Y-88560000D01*
X86250000Y-88560000D02*
X84750000Y-88560000D01*
X84750000Y-88560000D02*
X84750000Y-85640000D01*
X101740000Y-74060000D02*
X100240000Y-74060000D01*
X100240000Y-74060000D02*
X100240000Y-71140000D01*
X100240000Y-71140000D02*
X101740000Y-71140000D01*
X101740000Y-71140000D02*
X101740000Y-74060000D01*
X93270000Y-74050000D02*
X91770000Y-74050000D01*
X91770000Y-74050000D02*
X91770000Y-71130000D01*
X91770000Y-71130000D02*
X93270000Y-71130000D01*
X93270000Y-71130000D02*
X93270000Y-74050000D01*
X95250000Y-74060000D02*
X93750000Y-74060000D01*
X93750000Y-74060000D02*
X93750000Y-71140000D01*
X93750000Y-71140000D02*
X95250000Y-71140000D01*
X95250000Y-71140000D02*
X95250000Y-74060000D01*
X209490000Y-153050000D02*
X209490000Y-151550000D01*
X209490000Y-151550000D02*
X212410000Y-151550000D01*
X212410000Y-151550000D02*
X212410000Y-153050000D01*
X212410000Y-153050000D02*
X209490000Y-153050000D01*
X207250000Y-151590000D02*
X208750000Y-151590000D01*
X208750000Y-151590000D02*
X208750000Y-154510000D01*
X208750000Y-154510000D02*
X207250000Y-154510000D01*
X207250000Y-154510000D02*
X207250000Y-151590000D01*
X89750000Y-74060000D02*
X88250000Y-74060000D01*
X88250000Y-74060000D02*
X88250000Y-71140000D01*
X88250000Y-71140000D02*
X89750000Y-71140000D01*
X89750000Y-71140000D02*
X89750000Y-74060000D01*
X91750000Y-74060000D02*
X90250000Y-74060000D01*
X90250000Y-74060000D02*
X90250000Y-71140000D01*
X90250000Y-71140000D02*
X91750000Y-71140000D01*
X91750000Y-71140000D02*
X91750000Y-74060000D01*
X85660000Y-74060000D02*
X84160000Y-74060000D01*
X84160000Y-74060000D02*
X84160000Y-71140000D01*
X84160000Y-71140000D02*
X85660000Y-71140000D01*
X85660000Y-71140000D02*
X85660000Y-74060000D01*
X87550000Y-74060000D02*
X86050000Y-74060000D01*
X86050000Y-74060000D02*
X86050000Y-71140000D01*
X86050000Y-71140000D02*
X87550000Y-71140000D01*
X87550000Y-71140000D02*
X87550000Y-74060000D01*
X123710000Y-193000000D02*
X123710000Y-194500000D01*
X123710000Y-194500000D02*
X120790000Y-194500000D01*
X120790000Y-194500000D02*
X120790000Y-193000000D01*
X120790000Y-193000000D02*
X123710000Y-193000000D01*
X122500000Y-192460000D02*
X121000000Y-192460000D01*
X121000000Y-192460000D02*
X121000000Y-189540000D01*
X121000000Y-189540000D02*
X122500000Y-189540000D01*
X122500000Y-189540000D02*
X122500000Y-192460000D01*
X70660000Y-195850000D02*
X70660000Y-197350000D01*
X70660000Y-197350000D02*
X67740000Y-197350000D01*
X67740000Y-197350000D02*
X67740000Y-195850000D01*
X67740000Y-195850000D02*
X70660000Y-195850000D01*
X108790000Y-194500000D02*
X108790000Y-193000000D01*
X108790000Y-193000000D02*
X111710000Y-193000000D01*
X111710000Y-193000000D02*
X111710000Y-194500000D01*
X111710000Y-194500000D02*
X108790000Y-194500000D01*
X111250000Y-191460000D02*
X109750000Y-191460000D01*
X109750000Y-191460000D02*
X109750000Y-188540000D01*
X109750000Y-188540000D02*
X111250000Y-188540000D01*
X111250000Y-188540000D02*
X111250000Y-191460000D01*
X175410000Y-136750000D02*
X175410000Y-138250000D01*
X175410000Y-138250000D02*
X172490000Y-138250000D01*
X172490000Y-138250000D02*
X172490000Y-136750000D01*
X172490000Y-136750000D02*
X175410000Y-136750000D01*
X185090000Y-155050000D02*
X185090000Y-153550000D01*
X185090000Y-153550000D02*
X188010000Y-153550000D01*
X188010000Y-153550000D02*
X188010000Y-155050000D01*
X188010000Y-155050000D02*
X185090000Y-155050000D01*
X189190000Y-139150000D02*
X210840000Y-139150000D01*
X210840000Y-139150000D02*
X210840000Y-150650000D01*
X210840000Y-150650000D02*
X189190000Y-150650000D01*
X189190000Y-150650000D02*
X189190000Y-139150000D01*
X86450000Y-77700000D02*
X86450000Y-86800000D01*
X95550000Y-77700000D02*
X95550000Y-86800000D01*
X86450000Y-77700000D02*
X95550000Y-77700000D01*
X86450000Y-86800000D02*
X95550000Y-86800000D01*
X205450000Y-187550000D02*
X205450000Y-180450000D01*
X197550000Y-187550000D02*
X197550000Y-180450000D01*
X205450000Y-187550000D02*
X197550000Y-187550000D01*
X205450000Y-180450000D02*
X197550000Y-180450000D01*
X218400000Y-145550000D02*
X212700000Y-145550000D01*
X218400000Y-153450000D02*
X212700000Y-153450000D01*
X218400000Y-145550000D02*
X218400000Y-153450000D01*
X212700000Y-145550000D02*
X212700000Y-153450000D01*
X219300000Y-169370000D02*
X213900000Y-169370000D01*
X219300000Y-176830000D02*
X213900000Y-176830000D01*
X219300000Y-169370000D02*
X219300000Y-176830000D01*
X213900000Y-169370000D02*
X213900000Y-176830000D01*
X170750000Y-144300000D02*
X170750000Y-147900000D01*
X176650000Y-144300000D02*
X176650000Y-147900000D01*
X170750000Y-144300000D02*
X176650000Y-144300000D01*
X170750000Y-147900000D02*
X176650000Y-147900000D01*
X201850000Y-171800000D02*
X205650000Y-171800000D01*
X201850000Y-168200000D02*
X201850000Y-171800000D01*
X205650000Y-168200000D02*
X201850000Y-168200000D01*
X205650000Y-171800000D02*
X205650000Y-168200000D01*
X93650000Y-151275000D02*
X93650000Y-153675000D01*
X94250000Y-153675000D02*
X93650000Y-153675000D01*
X105450000Y-151275000D02*
X105450000Y-153675000D01*
X104850000Y-147675000D02*
X105450000Y-147675000D01*
X94250000Y-153675000D02*
X105450000Y-153675000D01*
X105450000Y-151275000D02*
X105450000Y-147675000D01*
X104850000Y-147675000D02*
X93650000Y-147675000D01*
X93650000Y-147675000D02*
X93650000Y-151275000D01*
X90900000Y-146025000D02*
X79900000Y-146025000D01*
X90900000Y-157325000D02*
X79900000Y-157325000D01*
X90900000Y-146025000D02*
X90900000Y-157325000D01*
X79900000Y-146025000D02*
X79900000Y-157325000D01*
X64100000Y-145950000D02*
X53100000Y-145950000D01*
X64100000Y-157250000D02*
X53100000Y-157250000D01*
X64100000Y-145950000D02*
X64100000Y-157250000D01*
X53100000Y-145950000D02*
X53100000Y-157250000D01*
X66850000Y-151200000D02*
X66850000Y-153600000D01*
X67450000Y-153600000D02*
X66850000Y-153600000D01*
X78650000Y-151200000D02*
X78650000Y-153600000D01*
X78050000Y-147600000D02*
X78650000Y-147600000D01*
X67450000Y-153600000D02*
X78650000Y-153600000D01*
X78650000Y-151200000D02*
X78650000Y-147600000D01*
X78050000Y-147600000D02*
X66850000Y-147600000D01*
X66850000Y-147600000D02*
X66850000Y-151200000D01*
X92700000Y-158545000D02*
X87300000Y-158545000D01*
X92700000Y-166005000D02*
X87300000Y-166005000D01*
X92700000Y-158545000D02*
X92700000Y-166005000D01*
X87300000Y-158545000D02*
X87300000Y-166005000D01*
X57300000Y-158670000D02*
X51900000Y-158670000D01*
X57300000Y-166130000D02*
X51900000Y-166130000D01*
X57300000Y-158670000D02*
X57300000Y-166130000D01*
X51900000Y-158670000D02*
X51900000Y-166130000D01*
X60830000Y-200800000D02*
X65170000Y-200800000D01*
X60830000Y-200800000D02*
X60830000Y-204200000D01*
X65170000Y-204200000D02*
X65170000Y-200800000D01*
X65170000Y-204200000D02*
X60830000Y-204200000D01*
X90950000Y-176830000D02*
X90950000Y-181170000D01*
X90950000Y-176830000D02*
X87550000Y-176830000D01*
X87550000Y-181170000D02*
X90950000Y-181170000D01*
X87550000Y-181170000D02*
X87550000Y-176830000D01*
X119750000Y-199150000D02*
X119750000Y-193450000D01*
X112750000Y-199150000D02*
X112750000Y-193450000D01*
X119750000Y-199150000D02*
X112750000Y-199150000D01*
X119750000Y-193450000D02*
X112750000Y-193450000D01*
X87100000Y-196700000D02*
X90900000Y-196700000D01*
X90900000Y-196700000D02*
X90900000Y-200300000D01*
X90900000Y-200300000D02*
X87100000Y-200300000D01*
X87100000Y-200300000D02*
X87100000Y-196700000D01*
X139350000Y-154450000D02*
X141750000Y-154450000D01*
X141750000Y-153850000D02*
X141750000Y-154450000D01*
X139350000Y-142650000D02*
X141750000Y-142650000D01*
X135750000Y-143250000D02*
X135750000Y-142650000D01*
X141750000Y-153850000D02*
X141750000Y-142650000D01*
X139350000Y-142650000D02*
X135750000Y-142650000D01*
X135750000Y-143250000D02*
X135750000Y-154450000D01*
X135750000Y-154450000D02*
X139350000Y-154450000D01*
X113000000Y-140950000D02*
X122300000Y-140950000D01*
X113000000Y-133550000D02*
X122300000Y-133550000D01*
X113000000Y-140950000D02*
X113000000Y-133550000D01*
X122300000Y-140950000D02*
X122300000Y-133550000D01*
X127050000Y-140950000D02*
X136350000Y-140950000D01*
X127050000Y-133550000D02*
X136350000Y-133550000D01*
X127050000Y-140950000D02*
X127050000Y-133550000D01*
X136350000Y-140950000D02*
X136350000Y-133550000D01*
X123950000Y-154425000D02*
X126350000Y-154425000D01*
X126350000Y-153825000D02*
X126350000Y-154425000D01*
X123950000Y-142625000D02*
X126350000Y-142625000D01*
X120350000Y-143225000D02*
X120350000Y-142625000D01*
X126350000Y-153825000D02*
X126350000Y-142625000D01*
X123950000Y-142625000D02*
X120350000Y-142625000D01*
X120350000Y-143225000D02*
X120350000Y-154425000D01*
X120350000Y-154425000D02*
X123950000Y-154425000D01*
X117150000Y-142245000D02*
X111750000Y-142245000D01*
X117150000Y-149705000D02*
X111750000Y-149705000D01*
X117150000Y-142245000D02*
X117150000Y-149705000D01*
X111750000Y-142245000D02*
X111750000Y-149705000D01*
X132450000Y-142170000D02*
X127050000Y-142170000D01*
X132450000Y-149630000D02*
X127050000Y-149630000D01*
X132450000Y-142170000D02*
X132450000Y-149630000D01*
X127050000Y-142170000D02*
X127050000Y-149630000D01*
X111595000Y-155225000D02*
X111595000Y-160625000D01*
X119055000Y-155225000D02*
X119055000Y-160625000D01*
X111595000Y-155225000D02*
X119055000Y-155225000D01*
X111595000Y-160625000D02*
X119055000Y-160625000D01*
X128245000Y-154750000D02*
X128245000Y-160150000D01*
X135705000Y-154750000D02*
X135705000Y-160150000D01*
X128245000Y-154750000D02*
X135705000Y-154750000D01*
X128245000Y-160150000D02*
X135705000Y-160150000D01*
X81650000Y-76100000D02*
X78050000Y-76100000D01*
X78050000Y-76100000D02*
X78050000Y-80500000D01*
X78050000Y-80500000D02*
X81650000Y-80500000D01*
X81650000Y-80500000D02*
X81650000Y-76100000D01*
X192392000Y-50383000D02*
X192392000Y-66766000D01*
X192392000Y-66766000D02*
X207505000Y-66766000D01*
X207505000Y-66766000D02*
X207505000Y-50383000D01*
X207505000Y-50383000D02*
X192392000Y-50383000D01*
X209465000Y-105250000D02*
X209465000Y-103750000D01*
X209465000Y-103750000D02*
X212385000Y-103750000D01*
X212385000Y-103750000D02*
X212385000Y-105250000D01*
X212385000Y-105250000D02*
X209465000Y-105250000D01*
X209590000Y-95950000D02*
X209590000Y-94450000D01*
X209590000Y-94450000D02*
X212510000Y-94450000D01*
X212510000Y-94450000D02*
X212510000Y-95950000D01*
X212510000Y-95950000D02*
X209590000Y-95950000D01*
X51610000Y-69260000D02*
X69010000Y-69260000D01*
X51610000Y-69260000D02*
X51610000Y-76220000D01*
X69010000Y-76220000D02*
X69010000Y-69260000D01*
X69010000Y-76220000D02*
X51610000Y-76220000D01*
X119050000Y-93350000D02*
X108750000Y-93350000D01*
X119050000Y-93350000D02*
X119050000Y-103650000D01*
X108750000Y-93350000D02*
X108750000Y-103650000D01*
X119050000Y-103650000D02*
X108750000Y-103650000D01*
X125980000Y-201730000D02*
X123020000Y-201730000D01*
X125980000Y-200270000D02*
X125980000Y-201730000D01*
X123020000Y-200270000D02*
X125980000Y-200270000D01*
X123020000Y-201730000D02*
X123020000Y-200270000D01*
X126180000Y-204200000D02*
X122820000Y-204200000D01*
X126180000Y-202300000D02*
X126180000Y-204200000D01*
X122820000Y-202300000D02*
X126180000Y-202300000D01*
X122820000Y-204200000D02*
X122820000Y-202300000D01*
X147520000Y-193770000D02*
X148980000Y-193770000D01*
X148980000Y-193770000D02*
X148980000Y-196730000D01*
X148980000Y-196730000D02*
X147520000Y-196730000D01*
X147520000Y-196730000D02*
X147520000Y-193770000D01*
X162155000Y-105105000D02*
X159195000Y-105105000D01*
X162155000Y-103645000D02*
X162155000Y-105105000D01*
X159195000Y-103645000D02*
X162155000Y-103645000D01*
X159195000Y-105105000D02*
X159195000Y-103645000D01*
X54680000Y-143105000D02*
X53220000Y-143105000D01*
X53220000Y-143105000D02*
X53220000Y-140145000D01*
X53220000Y-140145000D02*
X54680000Y-140145000D01*
X54680000Y-140145000D02*
X54680000Y-143105000D01*
X90970000Y-140095000D02*
X92430000Y-140095000D01*
X92430000Y-140095000D02*
X92430000Y-143055000D01*
X92430000Y-143055000D02*
X90970000Y-143055000D01*
X90970000Y-143055000D02*
X90970000Y-140095000D01*
X64270000Y-142980000D02*
X64270000Y-140020000D01*
X65730000Y-142980000D02*
X64270000Y-142980000D01*
X65730000Y-140020000D02*
X65730000Y-142980000D01*
X64270000Y-140020000D02*
X65730000Y-140020000D01*
X97730000Y-91592500D02*
X96270000Y-91592500D01*
X96270000Y-91592500D02*
X96270000Y-88632500D01*
X96270000Y-88632500D02*
X97730000Y-88632500D01*
X97730000Y-88632500D02*
X97730000Y-91592500D01*
X168000000Y-65650000D02*
X168000000Y-62150000D01*
X171400000Y-65650000D02*
X168000000Y-65650000D01*
X171400000Y-62150000D02*
X171400000Y-65650000D01*
X168000000Y-62150000D02*
X171400000Y-62150000D01*
X168000000Y-66050000D02*
X171400000Y-66050000D01*
X171400000Y-66050000D02*
X171400000Y-69550000D01*
X171400000Y-69550000D02*
X168000000Y-69550000D01*
X168000000Y-69550000D02*
X168000000Y-66050000D01*
X168000000Y-69750000D02*
X171400000Y-69750000D01*
X171400000Y-69750000D02*
X171400000Y-73250000D01*
X171400000Y-73250000D02*
X168000000Y-73250000D01*
X168000000Y-73250000D02*
X168000000Y-69750000D01*
X192050000Y-92200000D02*
X188550000Y-92200000D01*
X192050000Y-88800000D02*
X192050000Y-92200000D01*
X188550000Y-88800000D02*
X192050000Y-88800000D01*
X188550000Y-92200000D02*
X188550000Y-88800000D01*
X184350000Y-91900000D02*
X180850000Y-91900000D01*
X184350000Y-88500000D02*
X184350000Y-91900000D01*
X180850000Y-88500000D02*
X184350000Y-88500000D01*
X180850000Y-91900000D02*
X180850000Y-88500000D01*
X176750000Y-91900000D02*
X176750000Y-88500000D01*
X176750000Y-88500000D02*
X180250000Y-88500000D01*
X180250000Y-88500000D02*
X180250000Y-91900000D01*
X180250000Y-91900000D02*
X176750000Y-91900000D01*
X176150000Y-91900000D02*
X172650000Y-91900000D01*
X176150000Y-88500000D02*
X176150000Y-91900000D01*
X172650000Y-88500000D02*
X176150000Y-88500000D01*
X172650000Y-91900000D02*
X172650000Y-88500000D01*
X206120000Y-94820000D02*
X206120000Y-99380000D01*
X203880000Y-94820000D02*
X206120000Y-94820000D01*
X203880000Y-99380000D02*
X203880000Y-94820000D01*
X206120000Y-99380000D02*
X203880000Y-99380000D01*
X206020000Y-108980000D02*
X203780000Y-108980000D01*
X203780000Y-108980000D02*
X203780000Y-104420000D01*
X203780000Y-104420000D02*
X206020000Y-104420000D01*
X206020000Y-104420000D02*
X206020000Y-108980000D01*
X95500000Y-178225000D02*
X107500000Y-178225000D01*
X107500000Y-178225000D02*
X107500000Y-159225000D01*
X107500000Y-159225000D02*
X95500000Y-159225000D01*
X95500000Y-159225000D02*
X95500000Y-178225000D01*
X110150000Y-186500000D02*
X122150000Y-186500000D01*
X122150000Y-186500000D02*
X122150000Y-175900000D01*
X122150000Y-175900000D02*
X110150000Y-175900000D01*
X110150000Y-175900000D02*
X110150000Y-186500000D01*
X206980000Y-96680000D02*
X206980000Y-103480000D01*
X206980000Y-103480000D02*
X218140000Y-103480000D01*
X218140000Y-103480000D02*
X218140000Y-96680000D01*
X218140000Y-96680000D02*
X206980000Y-96680000D01*
X59410000Y-79790000D02*
X50760000Y-79790000D01*
X50760000Y-79790000D02*
X50760000Y-83390000D01*
X50760000Y-83390000D02*
X59410000Y-83390000D01*
X59410000Y-83390000D02*
X59410000Y-79790000D01*
X126032500Y-131030000D02*
X126032500Y-129570000D01*
X126032500Y-129570000D02*
X128992500Y-129570000D01*
X128992500Y-129570000D02*
X128992500Y-131030000D01*
X128992500Y-131030000D02*
X126032500Y-131030000D01*
X114192500Y-131030000D02*
X111232500Y-131030000D01*
X114192500Y-129570000D02*
X114192500Y-131030000D01*
X111232500Y-129570000D02*
X114192500Y-129570000D01*
X111232500Y-131030000D02*
X111232500Y-129570000D01*
X177890000Y-68060000D02*
X177890000Y-69520000D01*
X177890000Y-69520000D02*
X174930000Y-69520000D01*
X174930000Y-69520000D02*
X174930000Y-68060000D01*
X174930000Y-68060000D02*
X177890000Y-68060000D01*
X172845000Y-65930000D02*
X172845000Y-64470000D01*
X172845000Y-64470000D02*
X175805000Y-64470000D01*
X175805000Y-64470000D02*
X175805000Y-65930000D01*
X175805000Y-65930000D02*
X172845000Y-65930000D01*
X183482500Y-71920000D02*
X186442500Y-71920000D01*
X183482500Y-73380000D02*
X183482500Y-71920000D01*
X186442500Y-73380000D02*
X183482500Y-73380000D01*
X186442500Y-71920000D02*
X186442500Y-73380000D01*
X189480000Y-70270000D02*
X189480000Y-71730000D01*
X189480000Y-71730000D02*
X186520000Y-71730000D01*
X186520000Y-71730000D02*
X186520000Y-70270000D01*
X186520000Y-70270000D02*
X189480000Y-70270000D01*
X181110000Y-72930000D02*
X178150000Y-72930000D01*
X181110000Y-71470000D02*
X181110000Y-72930000D01*
X178150000Y-71470000D02*
X181110000Y-71470000D01*
X178150000Y-72930000D02*
X178150000Y-71470000D01*
X177800000Y-72812500D02*
X176340000Y-72812500D01*
X176340000Y-72812500D02*
X176340000Y-69852500D01*
X176340000Y-69852500D02*
X177800000Y-69852500D01*
X177800000Y-69852500D02*
X177800000Y-72812500D01*
X218680000Y-94870000D02*
X218680000Y-96330000D01*
X218680000Y-96330000D02*
X215720000Y-96330000D01*
X215720000Y-96330000D02*
X215720000Y-94870000D01*
X215720000Y-94870000D02*
X218680000Y-94870000D01*
X215632500Y-103870000D02*
X218592500Y-103870000D01*
X215632500Y-105330000D02*
X215632500Y-103870000D01*
X218592500Y-105330000D02*
X215632500Y-105330000D01*
X218592500Y-103870000D02*
X218592500Y-105330000D01*
X80457500Y-133305000D02*
X80457500Y-131845000D01*
X80457500Y-131845000D02*
X83417500Y-131845000D01*
X83417500Y-131845000D02*
X83417500Y-133305000D01*
X83417500Y-133305000D02*
X80457500Y-133305000D01*
X56805000Y-132780000D02*
X53845000Y-132780000D01*
X56805000Y-131320000D02*
X56805000Y-132780000D01*
X53845000Y-131320000D02*
X56805000Y-131320000D01*
X53845000Y-132780000D02*
X53845000Y-131320000D01*
X78320000Y-136645000D02*
X81280000Y-136645000D01*
X78320000Y-138105000D02*
X78320000Y-136645000D01*
X81280000Y-138105000D02*
X78320000Y-138105000D01*
X81280000Y-136645000D02*
X81280000Y-138105000D01*
X66770000Y-98180000D02*
X65310000Y-98180000D01*
X65310000Y-98180000D02*
X65310000Y-95220000D01*
X65310000Y-95220000D02*
X66770000Y-95220000D01*
X66770000Y-95220000D02*
X66770000Y-98180000D01*
X68586666Y-98180000D02*
X67126666Y-98180000D01*
X67126666Y-98180000D02*
X67126666Y-95220000D01*
X67126666Y-95220000D02*
X68586666Y-95220000D01*
X68586666Y-95220000D02*
X68586666Y-98180000D01*
X70403332Y-95220000D02*
X70403332Y-98180000D01*
X68943332Y-95220000D02*
X70403332Y-95220000D01*
X68943332Y-98180000D02*
X68943332Y-95220000D01*
X70403332Y-98180000D02*
X68943332Y-98180000D01*
X72220000Y-95220000D02*
X72220000Y-98180000D01*
X70760000Y-95220000D02*
X72220000Y-95220000D01*
X70760000Y-98180000D02*
X70760000Y-95220000D01*
X72220000Y-98180000D02*
X70760000Y-98180000D01*
X71690000Y-86947500D02*
X73150000Y-86947500D01*
X73150000Y-86947500D02*
X73150000Y-89907500D01*
X73150000Y-89907500D02*
X71690000Y-89907500D01*
X71690000Y-89907500D02*
X71690000Y-86947500D01*
X64530000Y-94860000D02*
X64530000Y-93400000D01*
X64530000Y-93400000D02*
X67490000Y-93400000D01*
X67490000Y-93400000D02*
X67490000Y-94860000D01*
X67490000Y-94860000D02*
X64530000Y-94860000D01*
X57150000Y-95450000D02*
X57150000Y-98410000D01*
X55690000Y-95450000D02*
X57150000Y-95450000D01*
X55690000Y-98410000D02*
X55690000Y-95450000D01*
X57150000Y-98410000D02*
X55690000Y-98410000D01*
X56900000Y-98880000D02*
X56900000Y-100340000D01*
X56900000Y-100340000D02*
X53940000Y-100340000D01*
X53940000Y-100340000D02*
X53940000Y-98880000D01*
X53940000Y-98880000D02*
X56900000Y-98880000D01*
X64700000Y-97070000D02*
X64700000Y-100030000D01*
X63240000Y-97070000D02*
X64700000Y-97070000D01*
X63240000Y-100030000D02*
X63240000Y-97070000D01*
X64700000Y-100030000D02*
X63240000Y-100030000D01*
X73577500Y-83160000D02*
X73577500Y-84620000D01*
X73577500Y-84620000D02*
X70617500Y-84620000D01*
X70617500Y-84620000D02*
X70617500Y-83160000D01*
X70617500Y-83160000D02*
X73577500Y-83160000D01*
X70627500Y-81480000D02*
X73587500Y-81480000D01*
X70627500Y-82940000D02*
X70627500Y-81480000D01*
X73587500Y-82940000D02*
X70627500Y-82940000D01*
X73587500Y-81480000D02*
X73587500Y-82940000D01*
X78320000Y-136105000D02*
X78320000Y-134645000D01*
X78320000Y-134645000D02*
X81280000Y-134645000D01*
X81280000Y-134645000D02*
X81280000Y-136105000D01*
X81280000Y-136105000D02*
X78320000Y-136105000D01*
X55620000Y-144070000D02*
X58580000Y-144070000D01*
X55620000Y-145530000D02*
X55620000Y-144070000D01*
X58580000Y-145530000D02*
X55620000Y-145530000D01*
X58580000Y-144070000D02*
X58580000Y-145530000D01*
X169100000Y-172700000D02*
G75*
G03X169100000Y-172700000I-1000000J0D01*
G01*
X169400000Y-195700000D02*
G75*
G03X169400000Y-195700000I-1000000J0D01*
G01*
X213375000Y-140025000D02*
G75*
G03X213375000Y-140025000I-1000000J0D01*
G01*
X170540000Y-143940000D02*
G75*
G03X170540000Y-143940000I-1000000J0D01*
G01*
X180800000Y-146600000D02*
G75*
G03X180800000Y-146600000I-1000000J0D01*
G01*
X173200000Y-152300000D02*
G75*
G03X173200000Y-152300000I-1000000J0D01*
G01*
X183700000Y-149400000D02*
G75*
G03X183700000Y-149400000I-1000000J0D01*
G01*
X91500000Y-188000000D02*
G75*
G03X91500000Y-188000000I-1000000J0D01*
G01*
X131000000Y-176500000D02*
G75*
G03X131000000Y-176500000I-1000000J0D01*
G01*
X104250000Y-182500000D02*
G75*
G03X104250000Y-182500000I-1000000J0D01*
G01*
X77500000Y-181000000D02*
G75*
G03X77500000Y-181000000I-1000000J0D01*
G01*
X151250000Y-215500000D02*
G75*
G03X151250000Y-215500000I-1000000J0D01*
G01*
X140540000Y-170430000D02*
G75*
G03X140540000Y-170430000I-1000000J0D01*
G01*
X155000000Y-179500000D02*
G75*
G03X155000000Y-179500000I-1000000J0D01*
G01*
X214800000Y-95300000D02*
G75*
G03X214800000Y-95300000I-1000000J0D01*
G01*
X214800000Y-104600000D02*
G75*
G03X214800000Y-104600000I-1000000J0D01*
G01*
X57500000Y-102910000D02*
X62900000Y-102910000D01*
X57500000Y-95450000D02*
X62900000Y-95450000D01*
X57500000Y-102910000D02*
X57500000Y-95450000D01*
X62900000Y-102910000D02*
X62900000Y-95450000D01*
X90700000Y-134325000D02*
X81700000Y-134325000D01*
X90700000Y-143825000D02*
X81700000Y-143825000D01*
X90700000Y-134325000D02*
X90700000Y-143825000D01*
X81700000Y-134325000D02*
X81700000Y-143825000D01*
X55000000Y-134250000D02*
X55000000Y-143750000D01*
X64000000Y-134250000D02*
X64000000Y-143750000D01*
X64000000Y-143750000D02*
X55000000Y-143750000D01*
X64000000Y-134250000D02*
X55000000Y-134250000D01*
X89470000Y-97500000D02*
X96930000Y-97500000D01*
X89470000Y-92100000D02*
X96930000Y-92100000D01*
X96930000Y-92100000D02*
X96930000Y-97500000D01*
X89470000Y-92100000D02*
X89470000Y-97500000D01*
X71100000Y-76880000D02*
X67500000Y-76880000D01*
X67500000Y-76880000D02*
X67500000Y-81280000D01*
X67500000Y-81280000D02*
X71100000Y-81280000D01*
X71100000Y-81280000D02*
X71100000Y-76880000D01*
X99800000Y-131025000D02*
X93600000Y-131025000D01*
X93600000Y-131025000D02*
X93600000Y-146825000D01*
X93600000Y-146825000D02*
X99800000Y-146825000D01*
X99800000Y-146825000D02*
X99800000Y-131025000D01*
X73000000Y-146700000D02*
X73000000Y-130900000D01*
X66800000Y-146700000D02*
X73000000Y-146700000D01*
X66800000Y-130900000D02*
X66800000Y-146700000D01*
X73000000Y-130900000D02*
X66800000Y-130900000D01*
X130725000Y-60750000D02*
X130725000Y-58250000D01*
X130725000Y-58250000D02*
X129575000Y-58250000D01*
X129575000Y-58250000D02*
X129575000Y-56150000D01*
X129575000Y-56150000D02*
X130725000Y-56150000D01*
X130725000Y-56150000D02*
X130725000Y-53650000D01*
X136675000Y-53650000D02*
X130725000Y-53650000D01*
X136675000Y-60750000D02*
X130725000Y-60750000D01*
X137825000Y-54800000D02*
X136675000Y-53650000D01*
X137825000Y-59600000D02*
X136675000Y-60750000D01*
X137825000Y-59600000D02*
X137825000Y-58250000D01*
X137825000Y-56150000D02*
X137825000Y-54800000D01*
X137825000Y-58250000D02*
X138975000Y-58250000D01*
X138975000Y-58250000D02*
X138975000Y-56150000D01*
X138975000Y-56150000D02*
X137825000Y-56150000D01*
X147800000Y-53700000D02*
X147800000Y-56200000D01*
X147800000Y-56200000D02*
X148950000Y-56200000D01*
X148950000Y-56200000D02*
X148950000Y-58300000D01*
X148950000Y-58300000D02*
X147800000Y-58300000D01*
X147800000Y-58300000D02*
X147800000Y-60800000D01*
X141850000Y-60800000D02*
X147800000Y-60800000D01*
X141850000Y-53700000D02*
X147800000Y-53700000D01*
X140700000Y-59650000D02*
X141850000Y-60800000D01*
X140700000Y-54850000D02*
X141850000Y-53700000D01*
X140700000Y-54850000D02*
X140700000Y-56200000D01*
X140700000Y-58300000D02*
X140700000Y-59650000D01*
X140700000Y-56200000D02*
X139550000Y-56200000D01*
X139550000Y-56200000D02*
X139550000Y-58300000D01*
X139550000Y-58300000D02*
X140700000Y-58300000D01*
X139100000Y-63625000D02*
X137950000Y-63625000D01*
X139100000Y-65725000D02*
X139100000Y-63625000D01*
X137950000Y-65725000D02*
X139100000Y-65725000D01*
X137950000Y-63625000D02*
X137950000Y-62275000D01*
X137950000Y-67075000D02*
X137950000Y-65725000D01*
X137950000Y-67075000D02*
X136800000Y-68225000D01*
X137950000Y-62275000D02*
X136800000Y-61125000D01*
X136800000Y-68225000D02*
X130850000Y-68225000D01*
X136800000Y-61125000D02*
X130850000Y-61125000D01*
X130850000Y-63625000D02*
X130850000Y-61125000D01*
X129700000Y-63625000D02*
X130850000Y-63625000D01*
X129700000Y-65725000D02*
X129700000Y-63625000D01*
X130850000Y-65725000D02*
X129700000Y-65725000D01*
X130850000Y-68225000D02*
X130850000Y-65725000D01*
X74157500Y-145300000D02*
X77517500Y-145300000D01*
X74157500Y-147200000D02*
X74157500Y-145300000D01*
X77517500Y-147200000D02*
X74157500Y-147200000D01*
X77517500Y-145300000D02*
X77517500Y-147200000D01*
X203168000Y-73362000D02*
X201708000Y-73362000D01*
X201708000Y-73362000D02*
X201708000Y-70402000D01*
X201708000Y-70402000D02*
X203168000Y-70402000D01*
X203168000Y-70402000D02*
X203168000Y-73362000D01*
X198250000Y-165150000D02*
X195750000Y-165150000D01*
X195750000Y-165150000D02*
X195750000Y-166300000D01*
X195750000Y-166300000D02*
X193650000Y-166300000D01*
X193650000Y-166300000D02*
X193650000Y-165150000D01*
X193650000Y-165150000D02*
X191150000Y-165150000D01*
X191150000Y-159200000D02*
X191150000Y-165150000D01*
X198250000Y-159200000D02*
X198250000Y-165150000D01*
X192300000Y-158050000D02*
X191150000Y-159200000D01*
X197100000Y-158050000D02*
X198250000Y-159200000D01*
X197100000Y-158050000D02*
X195750000Y-158050000D01*
X193650000Y-158050000D02*
X192300000Y-158050000D01*
X195750000Y-158050000D02*
X195750000Y-156900000D01*
X195750000Y-156900000D02*
X193650000Y-156900000D01*
X193650000Y-156900000D02*
X193650000Y-158050000D01*
X100920000Y-145300000D02*
X104280000Y-145300000D01*
X100920000Y-147200000D02*
X100920000Y-145300000D01*
X104280000Y-147200000D02*
X100920000Y-147200000D01*
X104280000Y-145300000D02*
X104280000Y-147200000D01*
X186150000Y-156900000D02*
X186150000Y-158050000D01*
X188250000Y-156900000D02*
X186150000Y-156900000D01*
X188250000Y-158050000D02*
X188250000Y-156900000D01*
X186150000Y-158050000D02*
X184800000Y-158050000D01*
X189600000Y-158050000D02*
X188250000Y-158050000D01*
X189600000Y-158050000D02*
X190750000Y-159200000D01*
X184800000Y-158050000D02*
X183650000Y-159200000D01*
X190750000Y-159200000D02*
X190750000Y-165150000D01*
X183650000Y-159200000D02*
X183650000Y-165150000D01*
X186150000Y-165150000D02*
X183650000Y-165150000D01*
X186150000Y-166300000D02*
X186150000Y-165150000D01*
X188250000Y-166300000D02*
X186150000Y-166300000D01*
X188250000Y-165150000D02*
X188250000Y-166300000D01*
X190750000Y-165150000D02*
X188250000Y-165150000D01*
X92630000Y-145995000D02*
X92630000Y-148955000D01*
X91170000Y-145995000D02*
X92630000Y-145995000D01*
X91170000Y-148955000D02*
X91170000Y-145995000D01*
X92630000Y-148955000D02*
X91170000Y-148955000D01*
X65830000Y-148880000D02*
X64370000Y-148880000D01*
X64370000Y-148880000D02*
X64370000Y-145920000D01*
X64370000Y-145920000D02*
X65830000Y-145920000D01*
X65830000Y-145920000D02*
X65830000Y-148880000D01*
X92770000Y-155210000D02*
X91310000Y-155210000D01*
X91310000Y-155210000D02*
X91310000Y-152250000D01*
X91310000Y-152250000D02*
X92770000Y-152250000D01*
X92770000Y-152250000D02*
X92770000Y-155210000D01*
X66030000Y-152432500D02*
X66030000Y-155392500D01*
X64570000Y-152432500D02*
X66030000Y-152432500D01*
X64570000Y-155392500D02*
X64570000Y-152432500D01*
X66030000Y-155392500D02*
X64570000Y-155392500D01*
X124120000Y-133230000D02*
X124120000Y-131770000D01*
X124120000Y-131770000D02*
X127080000Y-131770000D01*
X127080000Y-131770000D02*
X127080000Y-133230000D01*
X127080000Y-133230000D02*
X124120000Y-133230000D01*
X113080000Y-133230000D02*
X110120000Y-133230000D01*
X113080000Y-131770000D02*
X113080000Y-133230000D01*
X110120000Y-131770000D02*
X113080000Y-131770000D01*
X110120000Y-133230000D02*
X110120000Y-131770000D01*
X126942500Y-142380000D02*
X123982500Y-142380000D01*
X126942500Y-140920000D02*
X126942500Y-142380000D01*
X123982500Y-140920000D02*
X126942500Y-140920000D01*
X123982500Y-142380000D02*
X123982500Y-140920000D01*
X141367500Y-142480000D02*
X138407500Y-142480000D01*
X141367500Y-141020000D02*
X141367500Y-142480000D01*
X138407500Y-141020000D02*
X141367500Y-141020000D01*
X138407500Y-142480000D02*
X138407500Y-141020000D01*
X122870000Y-135855000D02*
X122870000Y-134395000D01*
X122870000Y-134395000D02*
X125830000Y-134395000D01*
X125830000Y-134395000D02*
X125830000Y-135855000D01*
X125830000Y-135855000D02*
X122870000Y-135855000D01*
X136907500Y-135980000D02*
X136907500Y-134520000D01*
X136907500Y-134520000D02*
X139867500Y-134520000D01*
X139867500Y-134520000D02*
X139867500Y-135980000D01*
X139867500Y-135980000D02*
X136907500Y-135980000D01*
X118980000Y-145255000D02*
X117520000Y-145255000D01*
X117520000Y-145255000D02*
X117520000Y-142295000D01*
X117520000Y-142295000D02*
X118980000Y-142295000D01*
X118980000Y-142295000D02*
X118980000Y-145255000D01*
X134280000Y-142120000D02*
X134280000Y-145080000D01*
X132820000Y-142120000D02*
X134280000Y-142120000D01*
X132820000Y-145080000D02*
X132820000Y-142120000D01*
X134280000Y-145080000D02*
X132820000Y-145080000D01*
X132820000Y-149580000D02*
X132820000Y-146620000D01*
X134280000Y-149580000D02*
X132820000Y-149580000D01*
X134280000Y-146620000D02*
X134280000Y-149580000D01*
X132820000Y-146620000D02*
X134280000Y-146620000D01*
X119410000Y-157860000D02*
X120870000Y-157860000D01*
X120870000Y-157860000D02*
X120870000Y-160820000D01*
X120870000Y-160820000D02*
X119410000Y-160820000D01*
X119410000Y-160820000D02*
X119410000Y-157860000D01*
X136080000Y-160390000D02*
X136080000Y-157430000D01*
X137540000Y-160390000D02*
X136080000Y-160390000D01*
X137540000Y-157430000D02*
X137540000Y-160390000D01*
X136080000Y-157430000D02*
X137540000Y-157430000D01*
X117620000Y-149555000D02*
X117620000Y-146595000D01*
X119080000Y-149555000D02*
X117620000Y-149555000D01*
X119080000Y-146595000D02*
X119080000Y-149555000D01*
X117620000Y-146595000D02*
X119080000Y-146595000D01*
X125340000Y-157900000D02*
X126800000Y-157900000D01*
X126800000Y-157900000D02*
X126800000Y-160860000D01*
X126800000Y-160860000D02*
X125340000Y-160860000D01*
X125340000Y-160860000D02*
X125340000Y-157900000D01*
X142090000Y-157440000D02*
X143550000Y-157440000D01*
X143550000Y-157440000D02*
X143550000Y-160400000D01*
X143550000Y-160400000D02*
X142090000Y-160400000D01*
X142090000Y-160400000D02*
X142090000Y-157440000D01*
X120910000Y-161240000D02*
X120910000Y-164200000D01*
X119450000Y-161240000D02*
X120910000Y-161240000D01*
X119450000Y-164200000D02*
X119450000Y-161240000D01*
X120910000Y-164200000D02*
X119450000Y-164200000D01*
X137540000Y-163737500D02*
X136080000Y-163737500D01*
X136080000Y-163737500D02*
X136080000Y-160777500D01*
X136080000Y-160777500D02*
X137540000Y-160777500D01*
X137540000Y-160777500D02*
X137540000Y-163737500D01*
X126820000Y-164290000D02*
X125360000Y-164290000D01*
X125360000Y-164290000D02*
X125360000Y-161330000D01*
X125360000Y-161330000D02*
X126820000Y-161330000D01*
X126820000Y-161330000D02*
X126820000Y-164290000D01*
X143550000Y-160770000D02*
X143550000Y-163730000D01*
X142090000Y-160770000D02*
X143550000Y-160770000D01*
X142090000Y-163730000D02*
X142090000Y-160770000D01*
X143550000Y-163730000D02*
X142090000Y-163730000D01*
X71460000Y-81150000D02*
X71460000Y-79690000D01*
X71460000Y-79690000D02*
X74420000Y-79690000D01*
X74420000Y-79690000D02*
X74420000Y-81150000D01*
X74420000Y-81150000D02*
X71460000Y-81150000D01*
X72760000Y-76620000D02*
X69800000Y-76620000D01*
X72760000Y-75160000D02*
X72760000Y-76620000D01*
X69800000Y-75160000D02*
X72760000Y-75160000D01*
X69800000Y-76620000D02*
X69800000Y-75160000D01*
X60377500Y-95290000D02*
X57417500Y-95290000D01*
X60377500Y-93830000D02*
X60377500Y-95290000D01*
X57417500Y-93830000D02*
X60377500Y-93830000D01*
X57417500Y-95290000D02*
X57417500Y-93830000D01*
X73210000Y-92697500D02*
X74670000Y-92697500D01*
X74670000Y-92697500D02*
X74670000Y-95657500D01*
X74670000Y-95657500D02*
X73210000Y-95657500D01*
X73210000Y-95657500D02*
X73210000Y-92697500D01*
X180255000Y-66270000D02*
X180255000Y-67730000D01*
X180255000Y-67730000D02*
X177295000Y-67730000D01*
X177295000Y-67730000D02*
X177295000Y-66270000D01*
X177295000Y-66270000D02*
X180255000Y-66270000D01*
X177320000Y-64620000D02*
X180280000Y-64620000D01*
X177320000Y-66080000D02*
X177320000Y-64620000D01*
X180280000Y-66080000D02*
X177320000Y-66080000D01*
X180280000Y-64620000D02*
X180280000Y-66080000D01*
X85270000Y-133355000D02*
X85270000Y-130395000D01*
X86730000Y-133355000D02*
X85270000Y-133355000D01*
X86730000Y-130395000D02*
X86730000Y-133355000D01*
X85270000Y-130395000D02*
X86730000Y-130395000D01*
X86870000Y-130395000D02*
X88330000Y-130395000D01*
X88330000Y-130395000D02*
X88330000Y-133355000D01*
X88330000Y-133355000D02*
X86870000Y-133355000D01*
X86870000Y-133355000D02*
X86870000Y-130395000D01*
X58520000Y-130170000D02*
X59980000Y-130170000D01*
X59980000Y-130170000D02*
X59980000Y-133130000D01*
X59980000Y-133130000D02*
X58520000Y-133130000D01*
X58520000Y-133130000D02*
X58520000Y-130170000D01*
X60120000Y-133130000D02*
X60120000Y-130170000D01*
X61580000Y-133130000D02*
X60120000Y-133130000D01*
X61580000Y-130170000D02*
X61580000Y-133130000D01*
X60120000Y-130170000D02*
X61580000Y-130170000D01*
X90070000Y-133355000D02*
X90070000Y-130395000D01*
X91530000Y-133355000D02*
X90070000Y-133355000D01*
X91530000Y-130395000D02*
X91530000Y-133355000D01*
X90070000Y-130395000D02*
X91530000Y-130395000D01*
X63320000Y-133130000D02*
X63320000Y-130170000D01*
X64780000Y-133130000D02*
X63320000Y-133130000D01*
X64780000Y-130170000D02*
X64780000Y-133130000D01*
X63320000Y-130170000D02*
X64780000Y-130170000D01*
X81430000Y-143055000D02*
X79970000Y-143055000D01*
X79970000Y-143055000D02*
X79970000Y-140095000D01*
X79970000Y-140095000D02*
X81430000Y-140095000D01*
X81430000Y-140095000D02*
X81430000Y-143055000D01*
X88470000Y-133355000D02*
X88470000Y-130395000D01*
X89930000Y-133355000D02*
X88470000Y-133355000D01*
X89930000Y-130395000D02*
X89930000Y-133355000D01*
X88470000Y-130395000D02*
X89930000Y-130395000D01*
X69992500Y-94160000D02*
X69992500Y-92700000D01*
X69992500Y-92700000D02*
X72952500Y-92700000D01*
X72952500Y-92700000D02*
X72952500Y-94160000D01*
X72952500Y-94160000D02*
X69992500Y-94160000D01*
X61720000Y-130182500D02*
X63180000Y-130182500D01*
X63180000Y-130182500D02*
X63180000Y-133142500D01*
X63180000Y-133142500D02*
X61720000Y-133142500D01*
X61720000Y-133142500D02*
X61720000Y-130182500D01*
X97310000Y-154115000D02*
X93610000Y-154115000D01*
X93610000Y-154115000D02*
X93610000Y-158615000D01*
X93610000Y-158615000D02*
X97310000Y-158615000D01*
X97310000Y-158615000D02*
X97310000Y-154115000D01*
X70520000Y-158600000D02*
X70520000Y-154100000D01*
X66820000Y-158600000D02*
X70520000Y-158600000D01*
X66820000Y-154100000D02*
X66820000Y-158600000D01*
X70520000Y-154100000D02*
X66820000Y-154100000D01*
X130755000Y-154050000D02*
X135255000Y-154050000D01*
X130755000Y-150350000D02*
X130755000Y-154050000D01*
X135255000Y-150350000D02*
X130755000Y-150350000D01*
X135255000Y-154050000D02*
X135255000Y-150350000D01*
X119755000Y-154050000D02*
X119755000Y-150350000D01*
X119755000Y-150350000D02*
X115255000Y-150350000D01*
X115255000Y-150350000D02*
X115255000Y-154050000D01*
X115255000Y-154050000D02*
X119755000Y-154050000D01*
X124905000Y-125970000D02*
X124905000Y-127430000D01*
X124905000Y-127430000D02*
X121945000Y-127430000D01*
X121945000Y-127430000D02*
X121945000Y-125970000D01*
X121945000Y-125970000D02*
X124905000Y-125970000D01*
X152530000Y-207130000D02*
X152530000Y-209370000D01*
X152530000Y-209370000D02*
X147970000Y-209370000D01*
X147970000Y-209370000D02*
X147970000Y-207130000D01*
X147970000Y-207130000D02*
X152530000Y-207130000D01*
X147520000Y-201480000D02*
X147520000Y-198520000D01*
X148980000Y-201480000D02*
X147520000Y-201480000D01*
X148980000Y-198520000D02*
X148980000Y-201480000D01*
X147520000Y-198520000D02*
X148980000Y-198520000D01*
X113795000Y-110770000D02*
X115255000Y-110770000D01*
X115255000Y-110770000D02*
X115255000Y-113730000D01*
X115255000Y-113730000D02*
X113795000Y-113730000D01*
X113795000Y-113730000D02*
X113795000Y-110770000D01*
X112620000Y-122482500D02*
X114080000Y-122482500D01*
X114080000Y-122482500D02*
X114080000Y-125442500D01*
X114080000Y-125442500D02*
X112620000Y-125442500D01*
X112620000Y-125442500D02*
X112620000Y-122482500D01*
X191570000Y-72180000D02*
X191570000Y-69220000D01*
X193030000Y-72180000D02*
X191570000Y-72180000D01*
X193030000Y-69220000D02*
X193030000Y-72180000D01*
X191570000Y-69220000D02*
X193030000Y-69220000D01*
X118220000Y-92917500D02*
X118220000Y-89957500D01*
X119680000Y-92917500D02*
X118220000Y-92917500D01*
X119680000Y-89957500D02*
X119680000Y-92917500D01*
X118220000Y-89957500D02*
X119680000Y-89957500D01*
X189870000Y-69220000D02*
X191330000Y-69220000D01*
X191330000Y-69220000D02*
X191330000Y-72180000D01*
X191330000Y-72180000D02*
X189870000Y-72180000D01*
X189870000Y-72180000D02*
X189870000Y-69220000D01*
X113530000Y-110670000D02*
X113530000Y-112130000D01*
X113530000Y-112130000D02*
X110570000Y-112130000D01*
X110570000Y-112130000D02*
X110570000Y-110670000D01*
X110570000Y-110670000D02*
X113530000Y-110670000D01*
X202595000Y-90455000D02*
X202595000Y-87495000D01*
X204055000Y-90455000D02*
X202595000Y-90455000D01*
X204055000Y-87495000D02*
X204055000Y-90455000D01*
X202595000Y-87495000D02*
X204055000Y-87495000D01*
X157260000Y-159280000D02*
X158720000Y-159280000D01*
X158720000Y-159280000D02*
X158720000Y-162240000D01*
X158720000Y-162240000D02*
X157260000Y-162240000D01*
X157260000Y-162240000D02*
X157260000Y-159280000D01*
X209280000Y-67585000D02*
X210220000Y-67585000D01*
X210220000Y-67585000D02*
X210220000Y-69445000D01*
X210220000Y-69445000D02*
X209280000Y-69445000D01*
X209280000Y-69445000D02*
X209280000Y-67585000D01*
X208970000Y-67585000D02*
X208970000Y-69445000D01*
X208030000Y-67585000D02*
X208970000Y-67585000D01*
X208030000Y-69445000D02*
X208030000Y-67585000D01*
X208970000Y-69445000D02*
X208030000Y-69445000D01*
X205530000Y-67585000D02*
X206470000Y-67585000D01*
X206470000Y-67585000D02*
X206470000Y-69445000D01*
X206470000Y-69445000D02*
X205530000Y-69445000D01*
X205530000Y-69445000D02*
X205530000Y-67585000D01*
X207720000Y-69430000D02*
X206780000Y-69430000D01*
X206780000Y-69430000D02*
X206780000Y-67570000D01*
X206780000Y-67570000D02*
X207720000Y-67570000D01*
X207720000Y-67570000D02*
X207720000Y-69430000D01*
X204280000Y-69430000D02*
X204280000Y-67570000D01*
X205220000Y-69430000D02*
X204280000Y-69430000D01*
X205220000Y-67570000D02*
X205220000Y-69430000D01*
X204280000Y-67570000D02*
X205220000Y-67570000D01*
X203970000Y-67570000D02*
X203970000Y-69430000D01*
X203030000Y-67570000D02*
X203970000Y-67570000D01*
X203030000Y-69430000D02*
X203030000Y-67570000D01*
X203970000Y-69430000D02*
X203030000Y-69430000D01*
X121680000Y-166240000D02*
X121680000Y-164780000D01*
X121680000Y-164780000D02*
X124640000Y-164780000D01*
X124640000Y-164780000D02*
X124640000Y-166240000D01*
X124640000Y-166240000D02*
X121680000Y-166240000D01*
X141380000Y-165610000D02*
X138420000Y-165610000D01*
X141380000Y-164150000D02*
X141380000Y-165610000D01*
X138420000Y-164150000D02*
X141380000Y-164150000D01*
X138420000Y-165610000D02*
X138420000Y-164150000D01*
X76120000Y-79697500D02*
X76120000Y-82657500D01*
X74660000Y-79697500D02*
X76120000Y-79697500D01*
X74660000Y-82657500D02*
X74660000Y-79697500D01*
X76120000Y-82657500D02*
X74660000Y-82657500D01*
X145240000Y-161360000D02*
X147640000Y-161360000D01*
X147640000Y-161360000D02*
X147640000Y-157360000D01*
X147640000Y-157360000D02*
X145240000Y-157360000D01*
X145240000Y-157360000D02*
X145240000Y-161360000D01*
X122900000Y-140525000D02*
X126500000Y-140525000D01*
X126500000Y-140525000D02*
X126500000Y-136125000D01*
X126500000Y-136125000D02*
X122900000Y-136125000D01*
X122900000Y-136125000D02*
X122900000Y-140525000D01*
X136900000Y-136250000D02*
X136900000Y-140650000D01*
X140500000Y-136250000D02*
X136900000Y-136250000D01*
X140500000Y-140650000D02*
X140500000Y-136250000D01*
X136900000Y-140650000D02*
X140500000Y-140650000D01*
X218225000Y-131450000D02*
X214725000Y-131450000D01*
X214725000Y-131450000D02*
X214725000Y-141350000D01*
X214725000Y-141350000D02*
X218225000Y-141350000D01*
X218225000Y-141350000D02*
X218225000Y-131450000D01*
X147195000Y-207400000D02*
X147195000Y-196100000D01*
X147195000Y-196100000D02*
X130555000Y-196100000D01*
X130555000Y-196100000D02*
X130555000Y-207400000D01*
X130555000Y-207400000D02*
X147195000Y-207400000D01*
X185650000Y-66090000D02*
X180450000Y-66090000D01*
X180450000Y-66090000D02*
X180450000Y-71290000D01*
X180450000Y-71290000D02*
X185650000Y-71290000D01*
X185650000Y-71290000D02*
X185650000Y-66090000D01*
X149320000Y-159650000D02*
X149320000Y-165050000D01*
X156780000Y-159650000D02*
X156780000Y-165050000D01*
X149320000Y-159650000D02*
X156780000Y-159650000D01*
X149320000Y-165050000D02*
X156780000Y-165050000D01*
X208948000Y-77898000D02*
X208948000Y-70438000D01*
X203548000Y-77898000D02*
X203548000Y-70438000D01*
X203548000Y-70438000D02*
X208948000Y-70438000D01*
X203548000Y-77898000D02*
X208948000Y-77898000D01*
X110650000Y-116050000D02*
X51690000Y-116050000D01*
X51690000Y-116050000D02*
X51690000Y-106690000D01*
X51690000Y-106690000D02*
X110650000Y-106690000D01*
X110650000Y-106690000D02*
X110650000Y-116050000D01*
X110650000Y-117390000D02*
X110650000Y-126750000D01*
X51690000Y-117390000D02*
X110650000Y-117390000D01*
X51690000Y-126750000D02*
X51690000Y-117390000D01*
X110650000Y-126750000D02*
X51690000Y-126750000D01*
X196320000Y-134550000D02*
X172920000Y-134550000D01*
X172920000Y-134550000D02*
X172920000Y-125190000D01*
X172920000Y-125190000D02*
X196320000Y-125190000D01*
X196320000Y-125190000D02*
X196320000Y-134550000D01*
X191940000Y-96480000D02*
X192880000Y-96480000D01*
X192880000Y-96480000D02*
X192880000Y-98340000D01*
X192880000Y-98340000D02*
X191940000Y-98340000D01*
X191940000Y-98340000D02*
X191940000Y-96480000D01*
X163800000Y-101280001D02*
X164740000Y-101280001D01*
X164740000Y-101280001D02*
X164740000Y-103140001D01*
X164740000Y-103140001D02*
X163800000Y-103140001D01*
X163800000Y-103140001D02*
X163800000Y-101280001D01*
X165203000Y-103140001D02*
X165203000Y-101280001D01*
X166143000Y-103140001D02*
X165203000Y-103140001D01*
X166143000Y-101280001D02*
X166143000Y-103140001D01*
X165203000Y-101280001D02*
X166143000Y-101280001D01*
X184314997Y-103140001D02*
X184314997Y-101280001D01*
X185254997Y-103140001D02*
X184314997Y-103140001D01*
X185254997Y-101280001D02*
X185254997Y-103140001D01*
X184314997Y-101280001D02*
X185254997Y-101280001D01*
X182911997Y-101280001D02*
X183851997Y-101280001D01*
X183851997Y-101280001D02*
X183851997Y-103140001D01*
X183851997Y-103140001D02*
X182911997Y-103140001D01*
X182911997Y-103140001D02*
X182911997Y-101280001D01*
X178702997Y-103140001D02*
X178702997Y-101280001D01*
X179642997Y-103140001D02*
X178702997Y-103140001D01*
X179642997Y-101280001D02*
X179642997Y-103140001D01*
X178702997Y-101280001D02*
X179642997Y-101280001D01*
X177299997Y-103140001D02*
X177299997Y-101280001D01*
X178239997Y-103140001D02*
X177299997Y-103140001D01*
X178239997Y-101280001D02*
X178239997Y-103140001D01*
X177299997Y-101280001D02*
X178239997Y-101280001D01*
X180105997Y-101280001D02*
X181045997Y-101280001D01*
X181045997Y-101280001D02*
X181045997Y-103140001D01*
X181045997Y-103140001D02*
X180105997Y-103140001D01*
X180105997Y-103140001D02*
X180105997Y-101280001D01*
X172880999Y-103140001D02*
X172880999Y-101280001D01*
X173820999Y-103140001D02*
X172880999Y-103140001D01*
X173820999Y-101280001D02*
X173820999Y-103140001D01*
X172880999Y-101280001D02*
X173820999Y-101280001D01*
X191330000Y-103140001D02*
X191330000Y-101280001D01*
X192270000Y-103140001D02*
X191330000Y-103140001D01*
X192270000Y-101280001D02*
X192270000Y-103140001D01*
X191330000Y-101280001D02*
X192270000Y-101280001D01*
X188523997Y-101280001D02*
X189463997Y-101280001D01*
X189463997Y-101280001D02*
X189463997Y-103140001D01*
X189463997Y-103140001D02*
X188523997Y-103140001D01*
X188523997Y-103140001D02*
X188523997Y-101280001D01*
X189926997Y-103140001D02*
X189926997Y-101280001D01*
X190866997Y-103140001D02*
X189926997Y-103140001D01*
X190866997Y-101280001D02*
X190866997Y-103140001D01*
X189926997Y-101280001D02*
X190866997Y-101280001D01*
X187120997Y-101280001D02*
X188060997Y-101280001D01*
X188060997Y-101280001D02*
X188060997Y-103140001D01*
X188060997Y-103140001D02*
X187120997Y-103140001D01*
X187120997Y-103140001D02*
X187120997Y-101280001D01*
X181508997Y-103140001D02*
X181508997Y-101280001D01*
X182448997Y-103140001D02*
X181508997Y-103140001D01*
X182448997Y-101280001D02*
X182448997Y-103140001D01*
X181508997Y-101280001D02*
X182448997Y-101280001D01*
X185717997Y-103140001D02*
X185717997Y-101280001D01*
X186657997Y-103140001D02*
X185717997Y-103140001D01*
X186657997Y-101280001D02*
X186657997Y-103140001D01*
X185717997Y-101280001D02*
X186657997Y-101280001D01*
X168009000Y-101280001D02*
X168949000Y-101280001D01*
X168949000Y-101280001D02*
X168949000Y-103140001D01*
X168949000Y-103140001D02*
X168009000Y-103140001D01*
X168009000Y-103140001D02*
X168009000Y-101280001D01*
X166606000Y-103140001D02*
X166606000Y-101280001D01*
X167546000Y-103140001D02*
X166606000Y-103140001D01*
X167546000Y-101280001D02*
X167546000Y-103140001D01*
X166606000Y-101280001D02*
X167546000Y-101280001D01*
X170815000Y-101280001D02*
X171755000Y-101280001D01*
X171755000Y-101280001D02*
X171755000Y-103140001D01*
X171755000Y-103140001D02*
X170815000Y-103140001D01*
X170815000Y-103140001D02*
X170815000Y-101280001D01*
X169412000Y-103140001D02*
X169412000Y-101280001D01*
X170352000Y-103140001D02*
X169412000Y-103140001D01*
X170352000Y-101280001D02*
X170352000Y-103140001D01*
X169412000Y-101280001D02*
X170352000Y-101280001D01*
X174283999Y-103140001D02*
X174283999Y-101280001D01*
X175223999Y-103140001D02*
X174283999Y-103140001D01*
X175223999Y-101280001D02*
X175223999Y-103140001D01*
X174283999Y-101280001D02*
X175223999Y-101280001D01*
X188870000Y-93670000D02*
X188870000Y-92730000D01*
X188870000Y-92730000D02*
X190730000Y-92730000D01*
X190730000Y-92730000D02*
X190730000Y-93670000D01*
X190730000Y-93670000D02*
X188870000Y-93670000D01*
X183955000Y-93550000D02*
X183955000Y-94490000D01*
X183955000Y-94490000D02*
X182095000Y-94490000D01*
X182095000Y-94490000D02*
X182095000Y-93550000D01*
X182095000Y-93550000D02*
X183955000Y-93550000D01*
X179845000Y-93490000D02*
X179845000Y-94430000D01*
X179845000Y-94430000D02*
X177985000Y-94430000D01*
X177985000Y-94430000D02*
X177985000Y-93490000D01*
X177985000Y-93490000D02*
X179845000Y-93490000D01*
X174295000Y-93450000D02*
X176155000Y-93450000D01*
X174295000Y-94390000D02*
X174295000Y-93450000D01*
X176155000Y-94390000D02*
X174295000Y-94390000D01*
X176155000Y-93450000D02*
X176155000Y-94390000D01*
X130525000Y-70040000D02*
X130525000Y-70980000D01*
X130525000Y-70980000D02*
X128665000Y-70980000D01*
X128665000Y-70980000D02*
X128665000Y-70040000D01*
X128665000Y-70040000D02*
X130525000Y-70040000D01*
X119540000Y-76490000D02*
X119540000Y-75550000D01*
X119540000Y-75550000D02*
X121400000Y-75550000D01*
X121400000Y-75550000D02*
X121400000Y-76490000D01*
X121400000Y-76490000D02*
X119540000Y-76490000D01*
X125795000Y-70030000D02*
X127655000Y-70030000D01*
X125795000Y-70970000D02*
X125795000Y-70030000D01*
X127655000Y-70970000D02*
X125795000Y-70970000D01*
X127655000Y-70030000D02*
X127655000Y-70970000D01*
X122720000Y-103770000D02*
X122720000Y-102830000D01*
X122720000Y-102830000D02*
X124580000Y-102830000D01*
X124580000Y-102830000D02*
X124580000Y-103770000D01*
X124580000Y-103770000D02*
X122720000Y-103770000D01*
X124570000Y-104995000D02*
X122710000Y-104995000D01*
X124570000Y-104055000D02*
X124570000Y-104995000D01*
X122710000Y-104055000D02*
X124570000Y-104055000D01*
X122710000Y-104995000D02*
X122710000Y-104055000D01*
X122710000Y-106220000D02*
X122710000Y-105280000D01*
X122710000Y-105280000D02*
X124570000Y-105280000D01*
X124570000Y-105280000D02*
X124570000Y-106220000D01*
X124570000Y-106220000D02*
X122710000Y-106220000D01*
X124570000Y-107420000D02*
X122710000Y-107420000D01*
X124570000Y-106480000D02*
X124570000Y-107420000D01*
X122710000Y-106480000D02*
X124570000Y-106480000D01*
X122710000Y-107420000D02*
X122710000Y-106480000D01*
X124595000Y-108670000D02*
X122735000Y-108670000D01*
X124595000Y-107730000D02*
X124595000Y-108670000D01*
X122735000Y-107730000D02*
X124595000Y-107730000D01*
X122735000Y-108670000D02*
X122735000Y-107730000D01*
X122760000Y-109895000D02*
X122760000Y-108955000D01*
X122760000Y-108955000D02*
X124620000Y-108955000D01*
X124620000Y-108955000D02*
X124620000Y-109895000D01*
X124620000Y-109895000D02*
X122760000Y-109895000D01*
X103093785Y-102908000D02*
X104953785Y-102908000D01*
X103093785Y-103848000D02*
X103093785Y-102908000D01*
X104953785Y-103848000D02*
X103093785Y-103848000D01*
X104953785Y-102908000D02*
X104953785Y-103848000D01*
X57420000Y-84150000D02*
X57420000Y-85090000D01*
X57420000Y-85090000D02*
X55560000Y-85090000D01*
X55560000Y-85090000D02*
X55560000Y-84150000D01*
X55560000Y-84150000D02*
X57420000Y-84150000D01*
X55575000Y-85330000D02*
X57435000Y-85330000D01*
X55575000Y-86270000D02*
X55575000Y-85330000D01*
X57435000Y-86270000D02*
X55575000Y-86270000D01*
X57435000Y-85330000D02*
X57435000Y-86270000D01*
X57440000Y-86500000D02*
X57440000Y-87440000D01*
X57440000Y-87440000D02*
X55580000Y-87440000D01*
X55580000Y-87440000D02*
X55580000Y-86500000D01*
X55580000Y-86500000D02*
X57440000Y-86500000D01*
X55580000Y-87690000D02*
X57440000Y-87690000D01*
X55580000Y-88630000D02*
X55580000Y-87690000D01*
X57440000Y-88630000D02*
X55580000Y-88630000D01*
X57440000Y-87690000D02*
X57440000Y-88630000D01*
X55540000Y-88980000D02*
X57400000Y-88980000D01*
X55540000Y-89920000D02*
X55540000Y-88980000D01*
X57400000Y-89920000D02*
X55540000Y-89920000D01*
X57400000Y-88980000D02*
X57400000Y-89920000D01*
X57385000Y-90200000D02*
X57385000Y-91140000D01*
X57385000Y-91140000D02*
X55525000Y-91140000D01*
X55525000Y-91140000D02*
X55525000Y-90200000D01*
X55525000Y-90200000D02*
X57385000Y-90200000D01*
X57365000Y-91430000D02*
X57365000Y-92370000D01*
X57365000Y-92370000D02*
X55505000Y-92370000D01*
X55505000Y-92370000D02*
X55505000Y-91430000D01*
X55505000Y-91430000D02*
X57365000Y-91430000D01*
X55515000Y-92660000D02*
X57375000Y-92660000D01*
X55515000Y-93600000D02*
X55515000Y-92660000D01*
X57375000Y-93600000D02*
X55515000Y-93600000D01*
X57375000Y-92660000D02*
X57375000Y-93600000D01*
X122405000Y-102830000D02*
X122405000Y-103770000D01*
X122405000Y-103770000D02*
X120545000Y-103770000D01*
X120545000Y-103770000D02*
X120545000Y-102830000D01*
X120545000Y-102830000D02*
X122405000Y-102830000D01*
X120520000Y-104030000D02*
X122380000Y-104030000D01*
X120520000Y-104970000D02*
X120520000Y-104030000D01*
X122380000Y-104970000D02*
X120520000Y-104970000D01*
X122380000Y-104030000D02*
X122380000Y-104970000D01*
X122405000Y-105280000D02*
X122405000Y-106220000D01*
X122405000Y-106220000D02*
X120545000Y-106220000D01*
X120545000Y-106220000D02*
X120545000Y-105280000D01*
X120545000Y-105280000D02*
X122405000Y-105280000D01*
X120520000Y-106455000D02*
X122380000Y-106455000D01*
X120520000Y-107395000D02*
X120520000Y-106455000D01*
X122380000Y-107395000D02*
X120520000Y-107395000D01*
X122380000Y-106455000D02*
X122380000Y-107395000D01*
X122405000Y-107655000D02*
X122405000Y-108595000D01*
X122405000Y-108595000D02*
X120545000Y-108595000D01*
X120545000Y-108595000D02*
X120545000Y-107655000D01*
X120545000Y-107655000D02*
X122405000Y-107655000D01*
X120520000Y-108905000D02*
X122380000Y-108905000D01*
X120520000Y-109845000D02*
X120520000Y-108905000D01*
X122380000Y-109845000D02*
X120520000Y-109845000D01*
X122380000Y-108905000D02*
X122380000Y-109845000D01*
X105283785Y-103848000D02*
X105283785Y-102908000D01*
X105283785Y-102908000D02*
X107143785Y-102908000D01*
X107143785Y-102908000D02*
X107143785Y-103848000D01*
X107143785Y-103848000D02*
X105283785Y-103848000D01*
X107160000Y-102578000D02*
X105300000Y-102578000D01*
X107160000Y-101638000D02*
X107160000Y-102578000D01*
X105300000Y-101638000D02*
X107160000Y-101638000D01*
X105300000Y-102578000D02*
X105300000Y-101638000D01*
X107175000Y-101308000D02*
X105315000Y-101308000D01*
X107175000Y-100368000D02*
X107175000Y-101308000D01*
X105315000Y-100368000D02*
X107175000Y-100368000D01*
X105315000Y-101308000D02*
X105315000Y-100368000D01*
X105333785Y-100130771D02*
X105333785Y-99190771D01*
X105333785Y-99190771D02*
X107193785Y-99190771D01*
X107193785Y-99190771D02*
X107193785Y-100130771D01*
X107193785Y-100130771D02*
X105333785Y-100130771D01*
X106604999Y-97050000D02*
X104744999Y-97050000D01*
X106604999Y-96110000D02*
X106604999Y-97050000D01*
X104744999Y-96110000D02*
X106604999Y-96110000D01*
X104744999Y-97050000D02*
X104744999Y-96110000D01*
X106604999Y-95850000D02*
X104744999Y-95850000D01*
X106604999Y-94910000D02*
X106604999Y-95850000D01*
X104744999Y-94910000D02*
X106604999Y-94910000D01*
X104744999Y-95850000D02*
X104744999Y-94910000D01*
X104744999Y-94600000D02*
X104744999Y-93660000D01*
X104744999Y-93660000D02*
X106604999Y-93660000D01*
X106604999Y-93660000D02*
X106604999Y-94600000D01*
X106604999Y-94600000D02*
X104744999Y-94600000D01*
X104750000Y-93330000D02*
X104750000Y-92390000D01*
X104750000Y-92390000D02*
X106610000Y-92390000D01*
X106610000Y-92390000D02*
X106610000Y-93330000D01*
X106610000Y-93330000D02*
X104750000Y-93330000D01*
X55235000Y-85100000D02*
X53375000Y-85100000D01*
X55235000Y-84160000D02*
X55235000Y-85100000D01*
X53375000Y-84160000D02*
X55235000Y-84160000D01*
X53375000Y-85100000D02*
X53375000Y-84160000D01*
X53350000Y-86280000D02*
X53350000Y-85340000D01*
X53350000Y-85340000D02*
X55210000Y-85340000D01*
X55210000Y-85340000D02*
X55210000Y-86280000D01*
X55210000Y-86280000D02*
X53350000Y-86280000D01*
X55200000Y-87450000D02*
X53340000Y-87450000D01*
X55200000Y-86510000D02*
X55200000Y-87450000D01*
X53340000Y-86510000D02*
X55200000Y-86510000D01*
X53340000Y-87450000D02*
X53340000Y-86510000D01*
X53375000Y-88630000D02*
X53375000Y-87690000D01*
X53375000Y-87690000D02*
X55235000Y-87690000D01*
X55235000Y-87690000D02*
X55235000Y-88630000D01*
X55235000Y-88630000D02*
X53375000Y-88630000D01*
X55265000Y-89900000D02*
X53405000Y-89900000D01*
X55265000Y-88960000D02*
X55265000Y-89900000D01*
X53405000Y-88960000D02*
X55265000Y-88960000D01*
X53405000Y-89900000D02*
X53405000Y-88960000D01*
X53400000Y-91130000D02*
X53400000Y-90190000D01*
X53400000Y-90190000D02*
X55260000Y-90190000D01*
X55260000Y-90190000D02*
X55260000Y-91130000D01*
X55260000Y-91130000D02*
X53400000Y-91130000D01*
X53375000Y-92360000D02*
X53375000Y-91420000D01*
X53375000Y-91420000D02*
X55235000Y-91420000D01*
X55235000Y-91420000D02*
X55235000Y-92360000D01*
X55235000Y-92360000D02*
X53375000Y-92360000D01*
X55245000Y-93580000D02*
X53385000Y-93580000D01*
X55245000Y-92640000D02*
X55245000Y-93580000D01*
X53385000Y-92640000D02*
X55245000Y-92640000D01*
X53385000Y-93580000D02*
X53385000Y-92640000D01*
X169420000Y-113180000D02*
G75*
G03X169420000Y-113180000I-1000000J0D01*
G01*
X167780000Y-111840000D02*
G75*
G03X167780000Y-111840000I-1000000J0D01*
G01*
X165610000Y-112340000D02*
G75*
G03X165610000Y-112340000I-1000000J0D01*
G01*
X165280000Y-109950000D02*
G75*
G03X165280000Y-109950000I-1000000J0D01*
G01*
X163150000Y-110540000D02*
G75*
G03X163150000Y-110540000I-1000000J0D01*
G01*
X163020000Y-108110000D02*
G75*
G03X163020000Y-108110000I-1000000J0D01*
G01*
X77800000Y-138900000D02*
G75*
G03X77800000Y-138900000I-1000000J0D01*
G01*
X77925000Y-141075000D02*
G75*
G03X77925000Y-141075000I-1000000J0D01*
G01*
X136590000Y-132340000D02*
G75*
G03X136590000Y-132340000I-1000000J0D01*
G01*
X122750000Y-132175000D02*
G75*
G03X122750000Y-132175000I-1000000J0D01*
G01*
X185090000Y-107330000D02*
G75*
G03X185090000Y-107330000I-1000000J0D01*
G01*
X188270000Y-107250000D02*
G75*
G03X188270000Y-107250000I-1000000J0D01*
G01*
X181920000Y-107970000D02*
G75*
G03X181920000Y-107970000I-1000000J0D01*
G01*
X169230000Y-108130000D02*
G75*
G03X169230000Y-108130000I-1000000J0D01*
G01*
X177880000Y-108220000D02*
G75*
G03X177880000Y-108220000I-1000000J0D01*
G01*
X64325000Y-193400000D02*
G75*
G03X64325000Y-193400000I-1000000J0D01*
G01*
X143830000Y-164980000D02*
G75*
G03X143830000Y-164980000I-1000000J0D01*
G01*
X137940000Y-164940000D02*
G75*
G03X137940000Y-164940000I-1000000J0D01*
G01*
X126940000Y-165370000D02*
G75*
G03X126940000Y-165370000I-1000000J0D01*
G01*
X121160000Y-165300000D02*
G75*
G03X121160000Y-165300000I-1000000J0D01*
G01*
X89425000Y-174400000D02*
G75*
G03X89425000Y-174400000I-1000000J0D01*
G01*
X89400000Y-171375000D02*
G75*
G03X89400000Y-171375000I-1000000J0D01*
G01*
X78275000Y-168900000D02*
G75*
G03X78275000Y-168900000I-1000000J0D01*
G01*
X80525000Y-168925000D02*
G75*
G03X80525000Y-168925000I-1000000J0D01*
G01*
X68750000Y-168800000D02*
G75*
G03X68750000Y-168800000I-1000000J0D01*
G01*
X66600000Y-168800000D02*
G75*
G03X66600000Y-168800000I-1000000J0D01*
G01*
X59675000Y-169925000D02*
G75*
G03X59675000Y-169925000I-1000000J0D01*
G01*
X60550000Y-168125000D02*
G75*
G03X60550000Y-168125000I-1000000J0D01*
G01*
X199500000Y-130200000D02*
G75*
G03X199500000Y-130200000I-1000000J0D01*
G01*
X199300000Y-127900000D02*
G75*
G03X199300000Y-127900000I-1000000J0D01*
G01*
X199500000Y-132600000D02*
G75*
G03X199500000Y-132600000I-1000000J0D01*
G01*
X199500000Y-134900000D02*
G75*
G03X199500000Y-134900000I-1000000J0D01*
G01*
X204200000Y-85700000D02*
G75*
G03X204200000Y-85700000I-1000000J0D01*
G01*
X211710000Y-72810000D02*
G75*
G03X211710000Y-72810000I-1000000J0D01*
G01*
X168310000Y-118500000D02*
G75*
G03X168310000Y-118500000I-1000000J0D01*
G01*
X211900000Y-185500000D02*
G75*
G03X211900000Y-185500000I-1000000J0D01*
G01*
X194590000Y-135730000D02*
G75*
G03X194590000Y-135730000I-1000000J0D01*
G01*
X53300000Y-179900000D02*
G75*
G03X53300000Y-179900000I-1000000J0D01*
G01*
X83225000Y-130750000D02*
G75*
G03X83225000Y-130750000I-1000000J0D01*
G01*
X57075000Y-129800000D02*
G75*
G03X57075000Y-129800000I-1000000J0D01*
G01*
X129700000Y-132250000D02*
G75*
G03X129700000Y-132250000I-1000000J0D01*
G01*
X115350000Y-132250000D02*
G75*
G03X115350000Y-132250000I-1000000J0D01*
G01*
X163900000Y-92800000D02*
G75*
G03X163900000Y-92800000I-1000000J0D01*
G01*
X161700000Y-93320000D02*
G75*
G03X161700000Y-93320000I-1000000J0D01*
G01*
X181400000Y-111600000D02*
G75*
G03X181400000Y-111600000I-1000000J0D01*
G01*
X179100000Y-111600000D02*
G75*
G03X179100000Y-111600000I-1000000J0D01*
G01*
X183400000Y-111600000D02*
G75*
G03X183400000Y-111600000I-1000000J0D01*
G01*
X185600000Y-111700000D02*
G75*
G03X185600000Y-111700000I-1000000J0D01*
G01*
X187700000Y-111700000D02*
G75*
G03X187700000Y-111700000I-1000000J0D01*
G01*
X143500000Y-140200000D02*
G75*
G03X143500000Y-140200000I-1000000J0D01*
G01*
X143500000Y-137500000D02*
G75*
G03X143500000Y-137500000I-1000000J0D01*
G01*
X143600000Y-134700000D02*
G75*
G03X143600000Y-134700000I-1000000J0D01*
G01*
X93425000Y-128925000D02*
G75*
G03X93425000Y-128925000I-1000000J0D01*
G01*
X93660000Y-105680000D02*
G75*
G03X93660000Y-105680000I-1000000J0D01*
G01*
X62880000Y-127740000D02*
G75*
G03X62880000Y-127740000I-1000000J0D01*
G01*
X98720000Y-105670000D02*
G75*
G03X98720000Y-105670000I-1000000J0D01*
G01*
X70720000Y-105640000D02*
G75*
G03X70720000Y-105640000I-1000000J0D01*
G01*
X68220000Y-105610000D02*
G75*
G03X68220000Y-105610000I-1000000J0D01*
G01*
X68030000Y-127790000D02*
G75*
G03X68030000Y-127790000I-1000000J0D01*
G01*
X88360000Y-105680000D02*
G75*
G03X88360000Y-105680000I-1000000J0D01*
G01*
X88450000Y-128525000D02*
G75*
G03X88450000Y-128525000I-1000000J0D01*
G01*
X85875000Y-128550000D02*
G75*
G03X85875000Y-128550000I-1000000J0D01*
G01*
X81650000Y-128450000D02*
G75*
G03X81650000Y-128450000I-1000000J0D01*
G01*
X60570000Y-105690000D02*
G75*
G03X60570000Y-105690000I-1000000J0D01*
G01*
X90910000Y-105660000D02*
G75*
G03X90910000Y-105660000I-1000000J0D01*
G01*
X168325000Y-130275000D02*
G75*
G03X168325000Y-130275000I-1000000J0D01*
G01*
X173070000Y-128610000D02*
G75*
G03X173070000Y-128610000I-1000000J0D01*
G01*
X170280000Y-129260000D02*
G75*
G03X170280000Y-129260000I-1000000J0D01*
G01*
X171790000Y-130720000D02*
G75*
G03X171790000Y-130720000I-1000000J0D01*
G01*
X176180000Y-72020000D02*
G75*
G03X176180000Y-72020000I-1000000J0D01*
G01*
X180100000Y-70270000D02*
G75*
G03X180100000Y-70270000I-1000000J0D01*
G01*
X77100000Y-131125000D02*
G75*
G03X77100000Y-131125000I-1000000J0D01*
G01*
X151868800Y-153865300D02*
X151870000Y-152410000D01*
X158371200Y-153852600D02*
X158370000Y-152410000D01*
X158370000Y-153860000D02*
X151870000Y-153860000D01*
X155051517Y-128955366D02*
G75*
G02X158720000Y-151900000I68483J-11754634D01*
G01*
X155188483Y-128955366D02*
G75*
G03X151520000Y-151900000I-68483J-11754634D01*
G01*
X158731889Y-151893169D02*
G75*
G03X158370000Y-152410000I188111J-516831D01*
G01*
X151508111Y-151893169D02*
G75*
G02X151870000Y-152410000I-188111J-516831D01*
G01*
X145100000Y-161830000D02*
X148060000Y-161830000D01*
X145100000Y-163290000D02*
X145100000Y-161830000D01*
X148060000Y-163290000D02*
X145100000Y-163290000D01*
X148060000Y-161830000D02*
X148060000Y-163290000D01*
X148180000Y-155470000D02*
X148180000Y-156930000D01*
X148180000Y-156930000D02*
X145220000Y-156930000D01*
X145220000Y-156930000D02*
X145220000Y-155470000D01*
X145220000Y-155470000D02*
X148180000Y-155470000D01*
X158720000Y-159112500D02*
X157260000Y-159112500D01*
X157260000Y-159112500D02*
X157260000Y-156152500D01*
X157260000Y-156152500D02*
X158720000Y-156152500D01*
X158720000Y-156152500D02*
X158720000Y-159112500D01*
X64970000Y-79180000D02*
X64030000Y-79180000D01*
X64030000Y-79180000D02*
X64030000Y-77320000D01*
X64030000Y-77320000D02*
X64970000Y-77320000D01*
X64970000Y-77320000D02*
X64970000Y-79180000D01*
X63770000Y-77345000D02*
X63770000Y-79205000D01*
X62830000Y-77345000D02*
X63770000Y-77345000D01*
X62830000Y-79205000D02*
X62830000Y-77345000D01*
X63770000Y-79205000D02*
X62830000Y-79205000D01*
X61645000Y-79215000D02*
X60705000Y-79215000D01*
X60705000Y-79215000D02*
X60705000Y-77355000D01*
X60705000Y-77355000D02*
X61645000Y-77355000D01*
X61645000Y-77355000D02*
X61645000Y-79215000D01*
X60445000Y-77355000D02*
X60445000Y-79215000D01*
X59505000Y-77355000D02*
X60445000Y-77355000D01*
X59505000Y-79215000D02*
X59505000Y-77355000D01*
X60445000Y-79215000D02*
X59505000Y-79215000D01*
X208170000Y-89780000D02*
X208170000Y-88320000D01*
X208170000Y-88320000D02*
X211130000Y-88320000D01*
X211130000Y-88320000D02*
X211130000Y-89780000D01*
X211130000Y-89780000D02*
X208170000Y-89780000D01*
X216020000Y-92942500D02*
X216020000Y-89982500D01*
X217480000Y-92942500D02*
X216020000Y-92942500D01*
X217480000Y-89982500D02*
X217480000Y-92942500D01*
X216020000Y-89982500D02*
X217480000Y-89982500D01*
X100430000Y-204400000D02*
X102290000Y-204400000D01*
X100430000Y-205340000D02*
X100430000Y-204400000D01*
X102290000Y-205340000D02*
X100430000Y-205340000D01*
X102290000Y-204400000D02*
X102290000Y-205340000D01*
X64170000Y-206170000D02*
X64170000Y-205230000D01*
X64170000Y-205230000D02*
X66030000Y-205230000D01*
X66030000Y-205230000D02*
X66030000Y-206170000D01*
X66030000Y-206170000D02*
X64170000Y-206170000D01*
X103830000Y-81870000D02*
X101970000Y-81870000D01*
X103830000Y-80930000D02*
X103830000Y-81870000D01*
X101970000Y-80930000D02*
X103830000Y-80930000D01*
X101970000Y-81870000D02*
X101970000Y-80930000D01*
X101970000Y-83770000D02*
X101970000Y-82830000D01*
X101970000Y-82830000D02*
X103830000Y-82830000D01*
X103830000Y-82830000D02*
X103830000Y-83770000D01*
X103830000Y-83770000D02*
X101970000Y-83770000D01*
X103830000Y-85770000D02*
X101970000Y-85770000D01*
X103830000Y-84830000D02*
X103830000Y-85770000D01*
X101970000Y-84830000D02*
X103830000Y-84830000D01*
X101970000Y-85770000D02*
X101970000Y-84830000D01*
X104978785Y-101638000D02*
X104978785Y-102578000D01*
X104978785Y-102578000D02*
X103118785Y-102578000D01*
X103118785Y-102578000D02*
X103118785Y-101638000D01*
X103118785Y-101638000D02*
X104978785Y-101638000D01*
X103053785Y-100368000D02*
X104913785Y-100368000D01*
X103053785Y-101308000D02*
X103053785Y-100368000D01*
X104913785Y-101308000D02*
X103053785Y-101308000D01*
X104913785Y-100368000D02*
X104913785Y-101308000D01*
X104953785Y-99165771D02*
X104953785Y-100105771D01*
X104953785Y-100105771D02*
X103093785Y-100105771D01*
X103093785Y-100105771D02*
X103093785Y-99165771D01*
X103093785Y-99165771D02*
X104953785Y-99165771D01*
X102574999Y-96105000D02*
X104434999Y-96105000D01*
X102574999Y-97045000D02*
X102574999Y-96105000D01*
X104434999Y-97045000D02*
X102574999Y-97045000D01*
X104434999Y-96105000D02*
X104434999Y-97045000D01*
X104434999Y-94920000D02*
X104434999Y-95860000D01*
X104434999Y-95860000D02*
X102574999Y-95860000D01*
X102574999Y-95860000D02*
X102574999Y-94920000D01*
X102574999Y-94920000D02*
X104434999Y-94920000D01*
X102570000Y-93670000D02*
X104430000Y-93670000D01*
X102570000Y-94610000D02*
X102570000Y-93670000D01*
X104430000Y-94610000D02*
X102570000Y-94610000D01*
X104430000Y-93670000D02*
X104430000Y-94610000D01*
X104434999Y-92380000D02*
X104434999Y-93320000D01*
X104434999Y-93320000D02*
X102574999Y-93320000D01*
X102574999Y-93320000D02*
X102574999Y-92380000D01*
X102574999Y-92380000D02*
X104434999Y-92380000D01*
X188605000Y-73270000D02*
X186745000Y-73270000D01*
X188605000Y-72330000D02*
X188605000Y-73270000D01*
X186745000Y-72330000D02*
X188605000Y-72330000D01*
X186745000Y-73270000D02*
X186745000Y-72330000D01*
X189470000Y-69930000D02*
X188530000Y-69930000D01*
X188530000Y-69930000D02*
X188530000Y-68070000D01*
X188530000Y-68070000D02*
X189470000Y-68070000D01*
X189470000Y-68070000D02*
X189470000Y-69930000D01*
X151990000Y-156640000D02*
X156390000Y-156640000D01*
X156390000Y-156640000D02*
X156390000Y-158940000D01*
X156390000Y-158940000D02*
X151990000Y-158940000D01*
X151990000Y-156640000D02*
X151990000Y-158940000D01*
X204525000Y-90650000D02*
X204525000Y-87150000D01*
X207925000Y-90650000D02*
X204525000Y-90650000D01*
X207925000Y-87150000D02*
X207925000Y-90650000D01*
X204525000Y-87150000D02*
X207925000Y-87150000D01*
X214900000Y-90600000D02*
X214900000Y-94000000D01*
X214900000Y-94000000D02*
X211400000Y-94000000D01*
X211400000Y-94000000D02*
X211400000Y-90600000D01*
X211400000Y-90600000D02*
X214900000Y-90600000D01*
X208160000Y-91540000D02*
X208160000Y-90080000D01*
X208160000Y-90080000D02*
X211120000Y-90080000D01*
X211120000Y-90080000D02*
X211120000Y-91540000D01*
X211120000Y-91540000D02*
X208160000Y-91540000D01*
X205532500Y-85030000D02*
X208492500Y-85030000D01*
X205532500Y-86490000D02*
X205532500Y-85030000D01*
X208492500Y-86490000D02*
X205532500Y-86490000D01*
X208492500Y-85030000D02*
X208492500Y-86490000D01*
X198450000Y-178225000D02*
G75*
G03X198450000Y-178225000I-1000000J0D01*
G01*
X64625000Y-105500000D02*
G75*
G03X64625000Y-105500000I-1000000J0D01*
G01*
X56700000Y-176100000D02*
G75*
G03X56700000Y-176100000I-1000000J0D01*
G01*
X148150000Y-166900000D02*
G75*
G03X148150000Y-166900000I-1000000J0D01*
G01*
X170900000Y-59800000D02*
G75*
G03X170900000Y-59800000I-1000000J0D01*
G01*
X160970000Y-210010000D02*
G75*
G03X160970000Y-210010000I-1000000J0D01*
G01*
X201850000Y-124330000D02*
G75*
G03X201850000Y-124330000I-1000000J0D01*
G01*
X187530000Y-87230000D02*
X187530000Y-85370000D01*
X188470000Y-87230000D02*
X187530000Y-87230000D01*
X188470000Y-85370000D02*
X188470000Y-87230000D01*
X187530000Y-85370000D02*
X188470000Y-85370000D01*
X168280000Y-88730000D02*
X168280000Y-86870000D01*
X169220000Y-88730000D02*
X168280000Y-88730000D01*
X169220000Y-86870000D02*
X169220000Y-88730000D01*
X168280000Y-86870000D02*
X169220000Y-86870000D01*
X169930000Y-86870000D02*
X170870000Y-86870000D01*
X170870000Y-86870000D02*
X170870000Y-88730000D01*
X170870000Y-88730000D02*
X169930000Y-88730000D01*
X169930000Y-88730000D02*
X169930000Y-86870000D01*
X188730000Y-85355000D02*
X189670000Y-85355000D01*
X189670000Y-85355000D02*
X189670000Y-87215000D01*
X189670000Y-87215000D02*
X188730000Y-87215000D01*
X188730000Y-87215000D02*
X188730000Y-85355000D01*
X130540000Y-68780000D02*
X130540000Y-69720000D01*
X130540000Y-69720000D02*
X128680000Y-69720000D01*
X128680000Y-69720000D02*
X128680000Y-68780000D01*
X128680000Y-68780000D02*
X130540000Y-68780000D01*
X119560000Y-75145000D02*
X119560000Y-74205000D01*
X119560000Y-74205000D02*
X121420000Y-74205000D01*
X121420000Y-74205000D02*
X121420000Y-75145000D01*
X121420000Y-75145000D02*
X119560000Y-75145000D01*
X125815000Y-68780000D02*
X127675000Y-68780000D01*
X125815000Y-69720000D02*
X125815000Y-68780000D01*
X127675000Y-69720000D02*
X125815000Y-69720000D01*
X127675000Y-68780000D02*
X127675000Y-69720000D01*
X111330000Y-105830000D02*
X112270000Y-105830000D01*
X112270000Y-105830000D02*
X112270000Y-107690000D01*
X112270000Y-107690000D02*
X111330000Y-107690000D01*
X111330000Y-107690000D02*
X111330000Y-105830000D01*
X112545000Y-107690000D02*
X112545000Y-105830000D01*
X113485000Y-107690000D02*
X112545000Y-107690000D01*
X113485000Y-105830000D02*
X113485000Y-107690000D01*
X112545000Y-105830000D02*
X113485000Y-105830000D01*
X114700000Y-107690000D02*
X113760000Y-107690000D01*
X113760000Y-107690000D02*
X113760000Y-105830000D01*
X113760000Y-105830000D02*
X114700000Y-105830000D01*
X114700000Y-105830000D02*
X114700000Y-107690000D01*
X114975000Y-105830000D02*
X115915000Y-105830000D01*
X115915000Y-105830000D02*
X115915000Y-107690000D01*
X115915000Y-107690000D02*
X114975000Y-107690000D01*
X114975000Y-107690000D02*
X114975000Y-105830000D01*
X117130000Y-105830000D02*
X117130000Y-107690000D01*
X116190000Y-105830000D02*
X117130000Y-105830000D01*
X116190000Y-107690000D02*
X116190000Y-105830000D01*
X117130000Y-107690000D02*
X116190000Y-107690000D01*
X111010000Y-90595000D02*
X111010000Y-92455000D01*
X110070000Y-90595000D02*
X111010000Y-90595000D01*
X110070000Y-92455000D02*
X110070000Y-90595000D01*
X111010000Y-92455000D02*
X110070000Y-92455000D01*
X107765000Y-92230000D02*
X107765000Y-91290000D01*
X107765000Y-91290000D02*
X109625000Y-91290000D01*
X109625000Y-91290000D02*
X109625000Y-92230000D01*
X109625000Y-92230000D02*
X107765000Y-92230000D01*
X117405000Y-105830000D02*
X118345000Y-105830000D01*
X118345000Y-105830000D02*
X118345000Y-107690000D01*
X118345000Y-107690000D02*
X117405000Y-107690000D01*
X117405000Y-107690000D02*
X117405000Y-105830000D01*
X121400000Y-91905000D02*
X121400000Y-90045000D01*
X122340000Y-91905000D02*
X121400000Y-91905000D01*
X122340000Y-90045000D02*
X122340000Y-91905000D01*
X121400000Y-90045000D02*
X122340000Y-90045000D01*
X113735000Y-109605000D02*
X113735000Y-110545000D01*
X113735000Y-110545000D02*
X111875000Y-110545000D01*
X111875000Y-110545000D02*
X111875000Y-109605000D01*
X111875000Y-109605000D02*
X113735000Y-109605000D01*
X124680000Y-95950000D02*
X124680000Y-95010000D01*
X124680000Y-95010000D02*
X126540000Y-95010000D01*
X126540000Y-95010000D02*
X126540000Y-95950000D01*
X126540000Y-95950000D02*
X124680000Y-95950000D01*
X84820000Y-180280000D02*
X86680000Y-180280000D01*
X84820000Y-181220000D02*
X84820000Y-180280000D01*
X86680000Y-181220000D02*
X84820000Y-181220000D01*
X86680000Y-180280000D02*
X86680000Y-181220000D01*
X207820000Y-185070000D02*
X207820000Y-184130000D01*
X207820000Y-184130000D02*
X209680000Y-184130000D01*
X209680000Y-184130000D02*
X209680000Y-185070000D01*
X209680000Y-185070000D02*
X207820000Y-185070000D01*
X78920000Y-80830000D02*
X80780000Y-80830000D01*
X78920000Y-81770000D02*
X78920000Y-80830000D01*
X80780000Y-81770000D02*
X78920000Y-81770000D01*
X80780000Y-80830000D02*
X80780000Y-81770000D01*
X78620000Y-75770000D02*
X78620000Y-74830000D01*
X78620000Y-74830000D02*
X80480000Y-74830000D01*
X80480000Y-74830000D02*
X80480000Y-75770000D01*
X80480000Y-75770000D02*
X78620000Y-75770000D01*
X147850000Y-61100000D02*
X147850000Y-63600000D01*
X147850000Y-63600000D02*
X149000000Y-63600000D01*
X149000000Y-63600000D02*
X149000000Y-65700000D01*
X149000000Y-65700000D02*
X147850000Y-65700000D01*
X147850000Y-65700000D02*
X147850000Y-68200000D01*
X141900000Y-68200000D02*
X147850000Y-68200000D01*
X141900000Y-61100000D02*
X147850000Y-61100000D01*
X140750000Y-67050000D02*
X141900000Y-68200000D01*
X140750000Y-62250000D02*
X141900000Y-61100000D01*
X140750000Y-62250000D02*
X140750000Y-63600000D01*
X140750000Y-65700000D02*
X140750000Y-67050000D01*
X140750000Y-63600000D02*
X139600000Y-63600000D01*
X139600000Y-63600000D02*
X139600000Y-65700000D01*
X139600000Y-65700000D02*
X140750000Y-65700000D01*
X205450000Y-162975000D02*
X202950000Y-162975000D01*
X202950000Y-162975000D02*
X202950000Y-164125000D01*
X202950000Y-164125000D02*
X200850000Y-164125000D01*
X200850000Y-164125000D02*
X200850000Y-162975000D01*
X200850000Y-162975000D02*
X198350000Y-162975000D01*
X198350000Y-157025000D02*
X198350000Y-162975000D01*
X205450000Y-157025000D02*
X205450000Y-162975000D01*
X199500000Y-155875000D02*
X198350000Y-157025000D01*
X204300000Y-155875000D02*
X205450000Y-157025000D01*
X204300000Y-155875000D02*
X202950000Y-155875000D01*
X200850000Y-155875000D02*
X199500000Y-155875000D01*
X202950000Y-155875000D02*
X202950000Y-154725000D01*
X202950000Y-154725000D02*
X200850000Y-154725000D01*
X200850000Y-154725000D02*
X200850000Y-155875000D01*
X208175000Y-154750000D02*
X208175000Y-155900000D01*
X210275000Y-154750000D02*
X208175000Y-154750000D01*
X210275000Y-155900000D02*
X210275000Y-154750000D01*
X208175000Y-155900000D02*
X206825000Y-155900000D01*
X211625000Y-155900000D02*
X210275000Y-155900000D01*
X211625000Y-155900000D02*
X212775000Y-157050000D01*
X206825000Y-155900000D02*
X205675000Y-157050000D01*
X212775000Y-157050000D02*
X212775000Y-163000000D01*
X205675000Y-157050000D02*
X205675000Y-163000000D01*
X208175000Y-163000000D02*
X205675000Y-163000000D01*
X208175000Y-164150000D02*
X208175000Y-163000000D01*
X210275000Y-164150000D02*
X208175000Y-164150000D01*
X210275000Y-163000000D02*
X210275000Y-164150000D01*
X212775000Y-163000000D02*
X210275000Y-163000000D01*
X195030000Y-188755000D02*
X193570000Y-188755000D01*
X193570000Y-188755000D02*
X193570000Y-185795000D01*
X193570000Y-185795000D02*
X195030000Y-185795000D01*
X195030000Y-185795000D02*
X195030000Y-188755000D01*
X219230000Y-177520000D02*
X219230000Y-180480000D01*
X217770000Y-177520000D02*
X219230000Y-177520000D01*
X217770000Y-180480000D02*
X217770000Y-177520000D01*
X219230000Y-180480000D02*
X217770000Y-180480000D01*
X210520000Y-168980000D02*
X210520000Y-167520000D01*
X210520000Y-167520000D02*
X213480000Y-167520000D01*
X213480000Y-167520000D02*
X213480000Y-168980000D01*
X213480000Y-168980000D02*
X210520000Y-168980000D01*
X202270000Y-167730000D02*
X202270000Y-166270000D01*
X202270000Y-166270000D02*
X205230000Y-166270000D01*
X205230000Y-166270000D02*
X205230000Y-167730000D01*
X205230000Y-167730000D02*
X202270000Y-167730000D01*
X173670000Y-143380000D02*
X173670000Y-140420000D01*
X175130000Y-143380000D02*
X173670000Y-143380000D01*
X175130000Y-140420000D02*
X175130000Y-143380000D01*
X173670000Y-140420000D02*
X175130000Y-140420000D01*
X211730000Y-177855000D02*
X208770000Y-177855000D01*
X211730000Y-176395000D02*
X211730000Y-177855000D01*
X208770000Y-176395000D02*
X211730000Y-176395000D01*
X208770000Y-177855000D02*
X208770000Y-176395000D01*
X205750000Y-178200000D02*
X205750000Y-176740000D01*
X205750000Y-176740000D02*
X208710000Y-176740000D01*
X208710000Y-176740000D02*
X208710000Y-178200000D01*
X208710000Y-178200000D02*
X205750000Y-178200000D01*
X195530000Y-183570000D02*
X195530000Y-185030000D01*
X195530000Y-185030000D02*
X192570000Y-185030000D01*
X192570000Y-185030000D02*
X192570000Y-183570000D01*
X192570000Y-183570000D02*
X195530000Y-183570000D01*
X196680000Y-181130000D02*
X193720000Y-181130000D01*
X196680000Y-179670000D02*
X196680000Y-181130000D01*
X193720000Y-179670000D02*
X196680000Y-179670000D01*
X193720000Y-181130000D02*
X193720000Y-179670000D01*
X214745000Y-127070000D02*
X217705000Y-127070000D01*
X214745000Y-128530000D02*
X214745000Y-127070000D01*
X217705000Y-128530000D02*
X214745000Y-128530000D01*
X217705000Y-127070000D02*
X217705000Y-128530000D01*
X54995000Y-79420000D02*
X54055000Y-79420000D01*
X54055000Y-79420000D02*
X54055000Y-77560000D01*
X54055000Y-77560000D02*
X54995000Y-77560000D01*
X54995000Y-77560000D02*
X54995000Y-79420000D01*
X87155000Y-175955000D02*
X85695000Y-175955000D01*
X85695000Y-175955000D02*
X85695000Y-172995000D01*
X85695000Y-172995000D02*
X87155000Y-172995000D01*
X87155000Y-172995000D02*
X87155000Y-175955000D01*
X85695000Y-172805000D02*
X85695000Y-169845000D01*
X87155000Y-172805000D02*
X85695000Y-172805000D01*
X87155000Y-169845000D02*
X87155000Y-172805000D01*
X85695000Y-169845000D02*
X87155000Y-169845000D01*
X219305000Y-131095000D02*
X214745000Y-131095000D01*
X219305000Y-128855000D02*
X219305000Y-131095000D01*
X214745000Y-128855000D02*
X219305000Y-128855000D01*
X214745000Y-131095000D02*
X214745000Y-128855000D01*
X210495000Y-68420000D02*
X211955000Y-68420000D01*
X211955000Y-68420000D02*
X211955000Y-71380000D01*
X211955000Y-71380000D02*
X210495000Y-71380000D01*
X210495000Y-71380000D02*
X210495000Y-68420000D01*
X53855000Y-79455000D02*
X52395000Y-79455000D01*
X52395000Y-79455000D02*
X52395000Y-76495000D01*
X52395000Y-76495000D02*
X53855000Y-76495000D01*
X53855000Y-76495000D02*
X53855000Y-79455000D01*
X52180000Y-76495000D02*
X52180000Y-79455000D01*
X50720000Y-76495000D02*
X52180000Y-76495000D01*
X50720000Y-79455000D02*
X50720000Y-76495000D01*
X52180000Y-79455000D02*
X50720000Y-79455000D01*
X76942500Y-96078000D02*
X76942500Y-97978000D01*
X76942500Y-97978000D02*
X73582500Y-97978000D01*
X73582500Y-97978000D02*
X73582500Y-96078000D01*
X73582500Y-96078000D02*
X76942500Y-96078000D01*
X90880000Y-170192500D02*
X89420000Y-170192500D01*
X89420000Y-170192500D02*
X89420000Y-167232500D01*
X89420000Y-167232500D02*
X90880000Y-167232500D01*
X90880000Y-167232500D02*
X90880000Y-170192500D01*
X89180000Y-167220000D02*
X89180000Y-170180000D01*
X87720000Y-167220000D02*
X89180000Y-167220000D01*
X87720000Y-170180000D02*
X87720000Y-167220000D01*
X89180000Y-170180000D02*
X87720000Y-170180000D01*
X83805000Y-169355000D02*
X80845000Y-169355000D01*
X83805000Y-167895000D02*
X83805000Y-169355000D01*
X80845000Y-167895000D02*
X83805000Y-167895000D01*
X80845000Y-169355000D02*
X80845000Y-167895000D01*
X80845000Y-167755000D02*
X80845000Y-166295000D01*
X80845000Y-166295000D02*
X83805000Y-166295000D01*
X83805000Y-166295000D02*
X83805000Y-167755000D01*
X83805000Y-167755000D02*
X80845000Y-167755000D01*
X61482500Y-166470000D02*
X64442500Y-166470000D01*
X61482500Y-167930000D02*
X61482500Y-166470000D01*
X64442500Y-167930000D02*
X61482500Y-167930000D01*
X64442500Y-166470000D02*
X64442500Y-167930000D01*
X64442500Y-168120000D02*
X64442500Y-169580000D01*
X64442500Y-169580000D02*
X61482500Y-169580000D01*
X61482500Y-169580000D02*
X61482500Y-168120000D01*
X61482500Y-168120000D02*
X64442500Y-168120000D01*
X57480000Y-166520000D02*
X57480000Y-167980000D01*
X57480000Y-167980000D02*
X54520000Y-167980000D01*
X54520000Y-167980000D02*
X54520000Y-166520000D01*
X54520000Y-166520000D02*
X57480000Y-166520000D01*
X54495000Y-168195000D02*
X57455000Y-168195000D01*
X54495000Y-169655000D02*
X54495000Y-168195000D01*
X57455000Y-169655000D02*
X54495000Y-169655000D01*
X57455000Y-168195000D02*
X57455000Y-169655000D01*
X158532500Y-129355000D02*
X158532500Y-127895000D01*
X158532500Y-127895000D02*
X161492500Y-127895000D01*
X161492500Y-127895000D02*
X161492500Y-129355000D01*
X161492500Y-129355000D02*
X158532500Y-129355000D01*
X166510000Y-123385000D02*
X166510000Y-121525000D01*
X167450000Y-123385000D02*
X166510000Y-123385000D01*
X167450000Y-121525000D02*
X167450000Y-123385000D01*
X166510000Y-121525000D02*
X167450000Y-121525000D01*
X166500000Y-124420000D02*
X166500000Y-123480000D01*
X166500000Y-123480000D02*
X168360000Y-123480000D01*
X168360000Y-123480000D02*
X168360000Y-124420000D01*
X168360000Y-124420000D02*
X166500000Y-124420000D01*
X166505000Y-124520000D02*
X168365000Y-124520000D01*
X166505000Y-125460000D02*
X166505000Y-124520000D01*
X168365000Y-125460000D02*
X166505000Y-125460000D01*
X168365000Y-124520000D02*
X168365000Y-125460000D01*
X168370000Y-126510000D02*
X166510000Y-126510000D01*
X168370000Y-125570000D02*
X168370000Y-126510000D01*
X166510000Y-125570000D02*
X168370000Y-125570000D01*
X166510000Y-126510000D02*
X166510000Y-125570000D01*
X168375000Y-126610000D02*
X168375000Y-127550000D01*
X168375000Y-127550000D02*
X166515000Y-127550000D01*
X166515000Y-127550000D02*
X166515000Y-126610000D01*
X166515000Y-126610000D02*
X168375000Y-126610000D01*
X166510000Y-128650000D02*
X166510000Y-127710000D01*
X166510000Y-127710000D02*
X168370000Y-127710000D01*
X168370000Y-127710000D02*
X168370000Y-128650000D01*
X168370000Y-128650000D02*
X166510000Y-128650000D01*
X158570000Y-125395000D02*
X158570000Y-127255000D01*
X157630000Y-125395000D02*
X158570000Y-125395000D01*
X157630000Y-127255000D02*
X157630000Y-125395000D01*
X158570000Y-127255000D02*
X157630000Y-127255000D01*
X158595000Y-125080000D02*
X157655000Y-125080000D01*
X157655000Y-125080000D02*
X157655000Y-123220000D01*
X157655000Y-123220000D02*
X158595000Y-123220000D01*
X158595000Y-123220000D02*
X158595000Y-125080000D01*
X166205000Y-127850000D02*
X166205000Y-122450000D01*
X158745000Y-127850000D02*
X158745000Y-122450000D01*
X166205000Y-127850000D02*
X158745000Y-127850000D01*
X166205000Y-122450000D02*
X158745000Y-122450000D01*
D11*
X133975000Y-111635000D02*
X129325000Y-111635000D01*
X133975000Y-115360000D02*
X133975000Y-111635000D01*
X135025000Y-115910000D02*
X133975000Y-115360000D01*
X135025000Y-127760000D02*
X135025000Y-115910000D01*
X133975000Y-128410000D02*
X135025000Y-127760000D01*
X133975000Y-132310000D02*
X133975000Y-128410000D01*
X129325000Y-132310000D02*
X133975000Y-132310000D01*
X129325000Y-111635000D02*
X129325000Y-132310000D01*
X115675000Y-111675000D02*
X115675000Y-132350000D01*
X115675000Y-132350000D02*
X120325000Y-132350000D01*
X120325000Y-132350000D02*
X120325000Y-128450000D01*
X120325000Y-128450000D02*
X121375000Y-127800000D01*
X121375000Y-127800000D02*
X121375000Y-115950000D01*
X121375000Y-115950000D02*
X120325000Y-115400000D01*
X120325000Y-115400000D02*
X120325000Y-111675000D01*
X120325000Y-111675000D02*
X115675000Y-111675000D01*
D10*
X172860000Y-67630000D02*
X172860000Y-66170000D01*
X172860000Y-66170000D02*
X175820000Y-66170000D01*
X175820000Y-66170000D02*
X175820000Y-67630000D01*
X175820000Y-67630000D02*
X172860000Y-67630000D01*
X140905000Y-73405000D02*
X139445000Y-73405000D01*
X139445000Y-73405000D02*
X139445000Y-70445000D01*
X139445000Y-70445000D02*
X140905000Y-70445000D01*
X140905000Y-70445000D02*
X140905000Y-73405000D01*
X59405000Y-198470000D02*
X59405000Y-201430000D01*
X57945000Y-198470000D02*
X59405000Y-198470000D01*
X57945000Y-201430000D02*
X57945000Y-198470000D01*
X59405000Y-201430000D02*
X57945000Y-201430000D01*
X191550000Y-59600000D02*
G75*
G03X191550000Y-59600000I-1000000J0D01*
G01*
X61360000Y-198055000D02*
X57840000Y-198055000D01*
X61360000Y-198055000D02*
X61360000Y-194505000D01*
X57840000Y-194505000D02*
X57840000Y-198055000D01*
X57840000Y-194505000D02*
X61360000Y-194505000D01*
X79122000Y-101058000D02*
X77972000Y-101058000D01*
X79122000Y-103158000D02*
X79122000Y-101058000D01*
X77972000Y-103158000D02*
X79122000Y-103158000D01*
X77972000Y-101058000D02*
X77972000Y-99708000D01*
X77972000Y-104508000D02*
X77972000Y-103158000D01*
X77972000Y-104508000D02*
X76822000Y-105658000D01*
X77972000Y-99708000D02*
X76822000Y-98558000D01*
X76822000Y-105658000D02*
X70872000Y-105658000D01*
X76822000Y-98558000D02*
X70872000Y-98558000D01*
X70872000Y-101058000D02*
X70872000Y-98558000D01*
X69722000Y-101058000D02*
X70872000Y-101058000D01*
X69722000Y-103158000D02*
X69722000Y-101058000D01*
X70872000Y-103158000D02*
X69722000Y-103158000D01*
X70872000Y-105658000D02*
X70872000Y-103158000D01*
X77476000Y-97022000D02*
X77476000Y-94522000D01*
X77476000Y-94522000D02*
X76326000Y-94522000D01*
X76326000Y-94522000D02*
X76326000Y-92422000D01*
X76326000Y-92422000D02*
X77476000Y-92422000D01*
X77476000Y-92422000D02*
X77476000Y-89922000D01*
X83426000Y-89922000D02*
X77476000Y-89922000D01*
X83426000Y-97022000D02*
X77476000Y-97022000D01*
X84576000Y-91072000D02*
X83426000Y-89922000D01*
X84576000Y-95872000D02*
X83426000Y-97022000D01*
X84576000Y-95872000D02*
X84576000Y-94522000D01*
X84576000Y-92422000D02*
X84576000Y-91072000D01*
X84576000Y-94522000D02*
X85726000Y-94522000D01*
X85726000Y-94522000D02*
X85726000Y-92422000D01*
X85726000Y-92422000D02*
X84576000Y-92422000D01*
X81832000Y-104680000D02*
X84792000Y-104680000D01*
X81832000Y-106140000D02*
X81832000Y-104680000D01*
X84792000Y-106140000D02*
X81832000Y-106140000D01*
X84792000Y-104680000D02*
X84792000Y-106140000D01*
X97392000Y-104068000D02*
X79392000Y-104068000D01*
X79392000Y-97868000D02*
X97392000Y-97868000D01*
X97392000Y-104068000D02*
X97392000Y-97868000D01*
X79392000Y-104068000D02*
X79392000Y-97868000D01*
X124410000Y-96380000D02*
X124410000Y-92180000D01*
X121010000Y-96380000D02*
X124410000Y-96380000D01*
X121010000Y-92180000D02*
X121010000Y-96380000D01*
X124410000Y-92180000D02*
X121010000Y-92180000D01*
X201330000Y-137600000D02*
G75*
G03X201330000Y-137600000I-1000000J0D01*
G01*
X62540000Y-209780000D02*
X67040000Y-209780000D01*
X62540000Y-217080000D02*
X62540000Y-209780000D01*
X67040000Y-217080000D02*
X62540000Y-217080000D01*
X67040000Y-209780000D02*
X67040000Y-217080000D01*
X87660000Y-205450000D02*
X80360000Y-205450000D01*
X80360000Y-205450000D02*
X80360000Y-200950000D01*
X80360000Y-200950000D02*
X87660000Y-200950000D01*
X87660000Y-200950000D02*
X87660000Y-205450000D01*
X121630000Y-214570000D02*
X128930000Y-214570000D01*
X128930000Y-214570000D02*
X128930000Y-219070000D01*
X128930000Y-219070000D02*
X121630000Y-219070000D01*
X121630000Y-219070000D02*
X121630000Y-214570000D01*
X90190000Y-205530000D02*
X90190000Y-201030000D01*
X97490000Y-205530000D02*
X90190000Y-205530000D01*
X97490000Y-201030000D02*
X97490000Y-205530000D01*
X90190000Y-201030000D02*
X97490000Y-201030000D01*
M02*
