G04 #@! TF.GenerationSoftware,KiCad,Pcbnew,5.1.5+dfsg1-2build2*
G04 #@! TF.CreationDate,2021-02-17T11:04:06+00:00*
G04 #@! TF.ProjectId,HILTOP_Motherboard,48494c54-4f50-45f4-9d6f-74686572626f,Rev C*
G04 #@! TF.SameCoordinates,Original*
G04 #@! TF.FileFunction,Copper,L3,Inr*
G04 #@! TF.FilePolarity,Positive*
%FSLAX46Y46*%
G04 Gerber Fmt 4.6, Leading zero omitted, Abs format (unit mm)*
G04 Created by KiCad (PCBNEW 5.1.5+dfsg1-2build2) date 2021-02-17 11:04:06*
%MOMM*%
%LPD*%
G04 APERTURE LIST*
%ADD10C,8.600000*%
%ADD11R,2.800000X2.800000*%
%ADD12C,2.800000*%
%ADD13R,1.700000X1.700000*%
%ADD14O,1.700000X1.700000*%
%ADD15C,1.620000*%
%ADD16C,3.400000*%
%ADD17R,1.800000X1.300000*%
%ADD18O,1.800000X1.300000*%
%ADD19R,1.300000X1.800000*%
%ADD20O,1.300000X1.800000*%
%ADD21R,2.200000X1.740000*%
%ADD22O,2.200000X1.740000*%
%ADD23C,1.520000*%
%ADD24C,3.850000*%
%ADD25C,2.540000*%
%ADD26R,1.520000X1.520000*%
%ADD27C,2.000000*%
%ADD28R,1.740000X2.200000*%
%ADD29O,1.740000X2.200000*%
%ADD30C,2.700000*%
%ADD31R,0.800000X1.300000*%
%ADD32C,1.700000*%
%ADD33C,2.500000*%
%ADD34O,1.100000X1.300000*%
%ADD35C,0.100000*%
%ADD36O,3.300000X2.700000*%
%ADD37C,1.100000*%
%ADD38C,1.000000*%
%ADD39C,1.710000*%
%ADD40C,0.500000*%
%ADD41R,1.727200X1.727200*%
%ADD42O,1.727200X1.727200*%
%ADD43C,0.800000*%
%ADD44C,0.600000*%
%ADD45C,0.700000*%
%ADD46C,0.400000*%
%ADD47C,1.000000*%
%ADD48C,2.000000*%
%ADD49C,0.500000*%
%ADD50C,0.250000*%
%ADD51C,0.360000*%
G04 APERTURE END LIST*
D10*
X56350000Y-60160000D03*
X72000000Y-56000000D03*
X214000000Y-56000000D03*
X213830000Y-83020000D03*
X213830000Y-215100000D03*
X56350000Y-215100000D03*
D11*
X70800000Y-208900000D03*
D12*
X75000000Y-208900000D03*
X79200000Y-208900000D03*
X83400000Y-208900000D03*
X87600000Y-208900000D03*
X91800000Y-208900000D03*
X96000000Y-208900000D03*
X100200000Y-208900000D03*
X104400000Y-208900000D03*
X108600000Y-208900000D03*
X112800000Y-208900000D03*
X117000000Y-208900000D03*
X70800000Y-214400000D03*
X75000000Y-214400000D03*
X79200000Y-214400000D03*
X83400000Y-214400000D03*
X87600000Y-214400000D03*
X91800000Y-214400000D03*
X96000000Y-214400000D03*
X100200000Y-214400000D03*
X104400000Y-214400000D03*
X108600000Y-214400000D03*
X112800000Y-214400000D03*
X117000000Y-214400000D03*
D11*
X204400000Y-135375000D03*
D12*
X204400000Y-129875000D03*
D11*
X211325000Y-135375000D03*
D12*
X211325000Y-129875000D03*
D13*
X55000000Y-199450000D03*
D14*
X55000000Y-196910000D03*
D13*
X160000000Y-185750000D03*
D14*
X160000000Y-183210000D03*
D15*
X113750000Y-63850000D03*
X116250000Y-63850000D03*
X118250000Y-63850000D03*
X120750000Y-63850000D03*
D16*
X110700000Y-58150000D03*
X110700000Y-63850000D03*
D15*
X120750000Y-61000000D03*
X118250000Y-61000000D03*
X116250000Y-61000000D03*
D16*
X123800000Y-63850000D03*
D15*
X113750000Y-61000000D03*
D16*
X123800000Y-58150000D03*
D17*
X112225000Y-74475000D03*
D18*
X112225000Y-77015000D03*
X112225000Y-79555000D03*
X112225000Y-82095000D03*
X114765000Y-75745000D03*
X114765000Y-78285000D03*
X114765000Y-80825000D03*
X114765000Y-83365000D03*
D19*
X134610000Y-169280000D03*
D20*
X132070000Y-169280000D03*
X129530000Y-169280000D03*
X126990000Y-169280000D03*
X124450000Y-169280000D03*
X133340000Y-171820000D03*
X130800000Y-171820000D03*
X128260000Y-171820000D03*
X125720000Y-171820000D03*
X123180000Y-171820000D03*
D19*
X81992198Y-172950000D03*
D20*
X79452198Y-172950000D03*
X76912198Y-172950000D03*
X74372198Y-172950000D03*
X71832198Y-172950000D03*
X69292198Y-172950000D03*
X66752198Y-172950000D03*
X64212198Y-172950000D03*
X80722198Y-175490000D03*
X78182198Y-175490000D03*
X75642198Y-175490000D03*
X73102198Y-175490000D03*
X70562198Y-175490000D03*
X68022198Y-175490000D03*
X65482198Y-175490000D03*
X62942198Y-175490000D03*
D21*
X215646000Y-69088000D03*
D22*
X215646000Y-71628000D03*
X215646000Y-74168000D03*
D23*
X87100000Y-64710000D03*
X88370000Y-67250000D03*
D24*
X87090000Y-58360000D03*
X98530000Y-58360000D03*
D23*
X89640000Y-64710000D03*
X90910000Y-67250000D03*
X92180000Y-64710000D03*
X93450000Y-67250000D03*
X94720000Y-64710000D03*
X95990000Y-67250000D03*
X97260000Y-64710000D03*
D25*
X85060000Y-61410000D03*
X100560000Y-61410000D03*
D23*
X96900000Y-54300000D03*
X88720000Y-54300000D03*
X99440000Y-54300000D03*
X86180000Y-54300000D03*
D26*
X98530000Y-67250000D03*
D27*
X167480000Y-51940000D03*
X151780000Y-51940000D03*
X166880000Y-56890000D03*
X152380000Y-56890000D03*
D28*
X144950000Y-123300000D03*
D29*
X147490000Y-123300000D03*
X150030000Y-123300000D03*
X152570000Y-123300000D03*
X155110000Y-123300000D03*
D23*
X181540000Y-63300000D03*
X179000000Y-63300000D03*
X179000000Y-61300000D03*
X181540000Y-61300000D03*
D30*
X186270000Y-58600000D03*
X174270000Y-58600000D03*
D28*
X208750000Y-109050000D03*
D29*
X211290000Y-109050000D03*
X213830000Y-109050000D03*
X216370000Y-109050000D03*
D23*
X191140000Y-148700000D03*
D27*
X201300000Y-148700000D03*
X208920000Y-148700000D03*
D23*
X191140000Y-141080000D03*
D31*
X200200000Y-186600000D03*
D17*
X201500000Y-181400000D03*
X201500000Y-182700000D03*
X201500000Y-186600000D03*
X201500000Y-185300000D03*
X201500000Y-184000000D03*
D31*
X202800000Y-186600000D03*
X202800000Y-185300000D03*
X202800000Y-184000000D03*
X202800000Y-182700000D03*
X202800000Y-181400000D03*
X200200000Y-181400000D03*
X200200000Y-182700000D03*
X200200000Y-184000000D03*
X200200000Y-185300000D03*
D32*
X96000000Y-149075000D03*
D14*
X98540000Y-149075000D03*
X101080000Y-149075000D03*
D13*
X103620000Y-149075000D03*
D32*
X69200000Y-149000000D03*
D14*
X71740000Y-149000000D03*
X74280000Y-149000000D03*
D13*
X76820000Y-149000000D03*
D32*
X137150000Y-152100000D03*
D14*
X137150000Y-149560000D03*
X137150000Y-147020000D03*
D13*
X137150000Y-144480000D03*
D32*
X121750000Y-152075000D03*
D14*
X121750000Y-149535000D03*
X121750000Y-146995000D03*
D13*
X121750000Y-144455000D03*
D33*
X66790000Y-72740000D03*
D34*
X62850000Y-72240000D03*
D33*
X53830000Y-72740000D03*
D34*
X61580000Y-72240000D03*
X59040000Y-72240000D03*
X57770000Y-72240000D03*
X56500000Y-73240000D03*
X60310000Y-73240000D03*
X64120000Y-73240000D03*
G04 #@! TA.AperFunction,ViaPad*
D35*
G36*
X99674503Y-173676204D02*
G01*
X99698772Y-173679804D01*
X99722570Y-173685765D01*
X99745670Y-173694030D01*
X99767849Y-173704520D01*
X99788892Y-173717133D01*
X99808598Y-173731748D01*
X99826776Y-173748224D01*
X99843252Y-173766402D01*
X99857867Y-173786108D01*
X99870480Y-173807151D01*
X99880970Y-173829330D01*
X99889235Y-173852430D01*
X99895196Y-173876228D01*
X99898796Y-173900497D01*
X99900000Y-173925001D01*
X99900000Y-176124999D01*
X99898796Y-176149503D01*
X99895196Y-176173772D01*
X99889235Y-176197570D01*
X99880970Y-176220670D01*
X99870480Y-176242849D01*
X99857867Y-176263892D01*
X99843252Y-176283598D01*
X99826776Y-176301776D01*
X99808598Y-176318252D01*
X99788892Y-176332867D01*
X99767849Y-176345480D01*
X99745670Y-176355970D01*
X99722570Y-176364235D01*
X99698772Y-176370196D01*
X99674503Y-176373796D01*
X99649999Y-176375000D01*
X96850001Y-176375000D01*
X96825497Y-176373796D01*
X96801228Y-176370196D01*
X96777430Y-176364235D01*
X96754330Y-176355970D01*
X96732151Y-176345480D01*
X96711108Y-176332867D01*
X96691402Y-176318252D01*
X96673224Y-176301776D01*
X96656748Y-176283598D01*
X96642133Y-176263892D01*
X96629520Y-176242849D01*
X96619030Y-176220670D01*
X96610765Y-176197570D01*
X96604804Y-176173772D01*
X96601204Y-176149503D01*
X96600000Y-176124999D01*
X96600000Y-173925001D01*
X96601204Y-173900497D01*
X96604804Y-173876228D01*
X96610765Y-173852430D01*
X96619030Y-173829330D01*
X96629520Y-173807151D01*
X96642133Y-173786108D01*
X96656748Y-173766402D01*
X96673224Y-173748224D01*
X96691402Y-173731748D01*
X96711108Y-173717133D01*
X96732151Y-173704520D01*
X96754330Y-173694030D01*
X96777430Y-173685765D01*
X96801228Y-173679804D01*
X96825497Y-173676204D01*
X96850001Y-173675000D01*
X99649999Y-173675000D01*
X99674503Y-173676204D01*
G37*
G04 #@! TD.AperFunction*
D36*
X98250000Y-170825000D03*
X98250000Y-166625000D03*
X98250000Y-162425000D03*
X103750000Y-175025000D03*
X103750000Y-170825000D03*
X103750000Y-166625000D03*
X103750000Y-162425000D03*
G04 #@! TA.AperFunction,ViaPad*
D35*
G36*
X114324503Y-181951204D02*
G01*
X114348772Y-181954804D01*
X114372570Y-181960765D01*
X114395670Y-181969030D01*
X114417849Y-181979520D01*
X114438892Y-181992133D01*
X114458598Y-182006748D01*
X114476776Y-182023224D01*
X114493252Y-182041402D01*
X114507867Y-182061108D01*
X114520480Y-182082151D01*
X114530970Y-182104330D01*
X114539235Y-182127430D01*
X114545196Y-182151228D01*
X114548796Y-182175497D01*
X114550000Y-182200001D01*
X114550000Y-184399999D01*
X114548796Y-184424503D01*
X114545196Y-184448772D01*
X114539235Y-184472570D01*
X114530970Y-184495670D01*
X114520480Y-184517849D01*
X114507867Y-184538892D01*
X114493252Y-184558598D01*
X114476776Y-184576776D01*
X114458598Y-184593252D01*
X114438892Y-184607867D01*
X114417849Y-184620480D01*
X114395670Y-184630970D01*
X114372570Y-184639235D01*
X114348772Y-184645196D01*
X114324503Y-184648796D01*
X114299999Y-184650000D01*
X111500001Y-184650000D01*
X111475497Y-184648796D01*
X111451228Y-184645196D01*
X111427430Y-184639235D01*
X111404330Y-184630970D01*
X111382151Y-184620480D01*
X111361108Y-184607867D01*
X111341402Y-184593252D01*
X111323224Y-184576776D01*
X111306748Y-184558598D01*
X111292133Y-184538892D01*
X111279520Y-184517849D01*
X111269030Y-184495670D01*
X111260765Y-184472570D01*
X111254804Y-184448772D01*
X111251204Y-184424503D01*
X111250000Y-184399999D01*
X111250000Y-182200001D01*
X111251204Y-182175497D01*
X111254804Y-182151228D01*
X111260765Y-182127430D01*
X111269030Y-182104330D01*
X111279520Y-182082151D01*
X111292133Y-182061108D01*
X111306748Y-182041402D01*
X111323224Y-182023224D01*
X111341402Y-182006748D01*
X111361108Y-181992133D01*
X111382151Y-181979520D01*
X111404330Y-181969030D01*
X111427430Y-181960765D01*
X111451228Y-181954804D01*
X111475497Y-181951204D01*
X111500001Y-181950000D01*
X114299999Y-181950000D01*
X114324503Y-181951204D01*
G37*
G04 #@! TD.AperFunction*
D36*
X112900000Y-179100000D03*
X118400000Y-183300000D03*
X118400000Y-179100000D03*
G04 #@! TA.AperFunction,ViaPad*
D35*
G36*
X209394505Y-99001204D02*
G01*
X209418773Y-99004804D01*
X209442572Y-99010765D01*
X209465671Y-99019030D01*
X209487850Y-99029520D01*
X209508893Y-99042132D01*
X209528599Y-99056747D01*
X209546777Y-99073223D01*
X209563253Y-99091401D01*
X209577868Y-99111107D01*
X209590480Y-99132150D01*
X209600970Y-99154329D01*
X209609235Y-99177428D01*
X209615196Y-99201227D01*
X209618796Y-99225495D01*
X209620000Y-99249999D01*
X209620000Y-100950001D01*
X209618796Y-100974505D01*
X209615196Y-100998773D01*
X209609235Y-101022572D01*
X209600970Y-101045671D01*
X209590480Y-101067850D01*
X209577868Y-101088893D01*
X209563253Y-101108599D01*
X209546777Y-101126777D01*
X209528599Y-101143253D01*
X209508893Y-101157868D01*
X209487850Y-101170480D01*
X209465671Y-101180970D01*
X209442572Y-101189235D01*
X209418773Y-101195196D01*
X209394505Y-101198796D01*
X209370001Y-101200000D01*
X208129999Y-101200000D01*
X208105495Y-101198796D01*
X208081227Y-101195196D01*
X208057428Y-101189235D01*
X208034329Y-101180970D01*
X208012150Y-101170480D01*
X207991107Y-101157868D01*
X207971401Y-101143253D01*
X207953223Y-101126777D01*
X207936747Y-101108599D01*
X207922132Y-101088893D01*
X207909520Y-101067850D01*
X207899030Y-101045671D01*
X207890765Y-101022572D01*
X207884804Y-100998773D01*
X207881204Y-100974505D01*
X207880000Y-100950001D01*
X207880000Y-99249999D01*
X207881204Y-99225495D01*
X207884804Y-99201227D01*
X207890765Y-99177428D01*
X207899030Y-99154329D01*
X207909520Y-99132150D01*
X207922132Y-99111107D01*
X207936747Y-99091401D01*
X207953223Y-99073223D01*
X207971401Y-99056747D01*
X207991107Y-99042132D01*
X208012150Y-99029520D01*
X208034329Y-99019030D01*
X208057428Y-99010765D01*
X208081227Y-99004804D01*
X208105495Y-99001204D01*
X208129999Y-99000000D01*
X209370001Y-99000000D01*
X209394505Y-99001204D01*
G37*
G04 #@! TD.AperFunction*
D29*
X211290000Y-100100000D03*
X213830000Y-100100000D03*
X216370000Y-100100000D03*
D37*
X171300000Y-116660000D03*
X172300000Y-114660000D03*
X171300000Y-119140000D03*
X172300000Y-121140000D03*
X173300000Y-116660000D03*
X174300000Y-114660000D03*
X173300000Y-119140000D03*
X174300000Y-121140000D03*
X175300000Y-116660000D03*
X176300000Y-114660000D03*
X175300000Y-119140000D03*
X176300000Y-121140000D03*
X177300000Y-116660000D03*
X178300000Y-114660000D03*
X177300000Y-119140000D03*
X178300000Y-121140000D03*
X179300000Y-116660000D03*
X180300000Y-114660000D03*
X179300000Y-119140000D03*
X180300000Y-121140000D03*
X181300000Y-116660000D03*
X181300000Y-119140000D03*
X184300000Y-114660000D03*
X184300000Y-121140000D03*
X185300000Y-116660000D03*
X186300000Y-114660000D03*
X185300000Y-119140000D03*
X186300000Y-121140000D03*
X187300000Y-116660000D03*
X188300000Y-114660000D03*
X187300000Y-119140000D03*
X188300000Y-121140000D03*
X189300000Y-116660000D03*
X190300000Y-114660000D03*
X189300000Y-119140000D03*
X190300000Y-121140000D03*
X191300000Y-116660000D03*
X192300000Y-114660000D03*
X191300000Y-119140000D03*
X192300000Y-121140000D03*
X193300000Y-116660000D03*
X193300000Y-119140000D03*
X194300000Y-114660000D03*
X194300000Y-121140000D03*
X195300000Y-116660000D03*
X196300000Y-114660000D03*
X195300000Y-119140000D03*
X196300000Y-121140000D03*
X197300000Y-116660000D03*
X198300000Y-114660000D03*
X197300000Y-119140000D03*
X198300000Y-121140000D03*
X199300000Y-116660000D03*
X200300000Y-114660000D03*
X199300000Y-119140000D03*
X200300000Y-121140000D03*
X201300000Y-116660000D03*
X202300000Y-114660000D03*
X201300000Y-119140000D03*
X202300000Y-121140000D03*
X203300000Y-116660000D03*
X203300000Y-119140000D03*
X204300000Y-114660000D03*
X204300000Y-121140000D03*
D13*
X57610000Y-81590000D03*
D14*
X55070000Y-81590000D03*
X52530000Y-81590000D03*
D38*
X168100000Y-172700000D03*
X168400000Y-195700000D03*
X212375000Y-140025000D03*
X169540000Y-143940000D03*
X179800000Y-146600000D03*
X172200000Y-152300000D03*
X182700000Y-149400000D03*
X90500000Y-188000000D03*
X130000000Y-176500000D03*
X103250000Y-182500000D03*
X76500000Y-181000000D03*
X150250000Y-215500000D03*
X139540000Y-170430000D03*
X154000000Y-179500000D03*
X213800000Y-95300000D03*
X213800000Y-104600000D03*
D39*
X217075000Y-133850000D03*
X215875000Y-138950000D03*
D40*
X184100000Y-67640000D03*
X184100000Y-68690000D03*
X184100000Y-69740000D03*
X183050000Y-67640000D03*
X183050000Y-68690000D03*
X183050000Y-69740000D03*
X182000000Y-67640000D03*
X182000000Y-68690000D03*
X182000000Y-69740000D03*
D41*
X105300000Y-110100000D03*
D42*
X105300000Y-112640000D03*
X102760000Y-110100000D03*
X102760000Y-112640000D03*
X100220000Y-110100000D03*
X100220000Y-112640000D03*
X97680000Y-110100000D03*
X97680000Y-112640000D03*
X95140000Y-110100000D03*
X95140000Y-112640000D03*
X92600000Y-110100000D03*
X92600000Y-112640000D03*
X90060000Y-110100000D03*
X90060000Y-112640000D03*
X87520000Y-110100000D03*
X87520000Y-112640000D03*
X84980000Y-110100000D03*
X84980000Y-112640000D03*
X82440000Y-110100000D03*
X82440000Y-112640000D03*
X79900000Y-110100000D03*
X79900000Y-112640000D03*
X77360000Y-110100000D03*
X77360000Y-112640000D03*
X74820000Y-110100000D03*
X74820000Y-112640000D03*
X72280000Y-110100000D03*
X72280000Y-112640000D03*
X69740000Y-110100000D03*
X69740000Y-112640000D03*
X67200000Y-110100000D03*
X67200000Y-112640000D03*
X64660000Y-110100000D03*
X64660000Y-112640000D03*
X62120000Y-110100000D03*
X62120000Y-112640000D03*
X59580000Y-110100000D03*
X59580000Y-112640000D03*
X57040000Y-110100000D03*
X57040000Y-112640000D03*
X57040000Y-123340000D03*
X57040000Y-120800000D03*
X59580000Y-123340000D03*
X59580000Y-120800000D03*
X62120000Y-123340000D03*
X62120000Y-120800000D03*
X64660000Y-123340000D03*
X64660000Y-120800000D03*
X67200000Y-123340000D03*
X67200000Y-120800000D03*
X69740000Y-123340000D03*
X69740000Y-120800000D03*
X72280000Y-123340000D03*
X72280000Y-120800000D03*
X74820000Y-123340000D03*
X74820000Y-120800000D03*
X77360000Y-123340000D03*
X77360000Y-120800000D03*
X79900000Y-123340000D03*
X79900000Y-120800000D03*
X82440000Y-123340000D03*
X82440000Y-120800000D03*
X84980000Y-123340000D03*
X84980000Y-120800000D03*
X87520000Y-123340000D03*
X87520000Y-120800000D03*
X90060000Y-123340000D03*
X90060000Y-120800000D03*
X92600000Y-123340000D03*
X92600000Y-120800000D03*
X95140000Y-123340000D03*
X95140000Y-120800000D03*
X97680000Y-123340000D03*
X97680000Y-120800000D03*
X100220000Y-123340000D03*
X100220000Y-120800000D03*
X102760000Y-123340000D03*
X102760000Y-120800000D03*
X105300000Y-123340000D03*
D41*
X105300000Y-120800000D03*
X190970000Y-128600000D03*
D42*
X190970000Y-131140000D03*
X188430000Y-128600000D03*
X188430000Y-131140000D03*
X185890000Y-128600000D03*
X185890000Y-131140000D03*
X183350000Y-128600000D03*
X183350000Y-131140000D03*
X180810000Y-128600000D03*
X180810000Y-131140000D03*
X178270000Y-128600000D03*
X178270000Y-131140000D03*
D38*
X168420000Y-113180000D03*
X166780000Y-111840000D03*
X164610000Y-112340000D03*
X164280000Y-109950000D03*
X162150000Y-110540000D03*
X162020000Y-108110000D03*
X76800000Y-138900000D03*
X76925000Y-141075000D03*
X135590000Y-132340000D03*
X121750000Y-132175000D03*
X184090000Y-107330000D03*
X187270000Y-107250000D03*
X180920000Y-107970000D03*
X168230000Y-108130000D03*
X176880000Y-108220000D03*
X63325000Y-193400000D03*
X142830000Y-164980000D03*
X136940000Y-164940000D03*
X125940000Y-165370000D03*
X120160000Y-165300000D03*
X88425000Y-174400000D03*
X88400000Y-171375000D03*
X77275000Y-168900000D03*
X79525000Y-168925000D03*
X67750000Y-168800000D03*
X65600000Y-168800000D03*
X58675000Y-169925000D03*
X59550000Y-168125000D03*
X198500000Y-130200000D03*
X198300000Y-127900000D03*
X198500000Y-132600000D03*
X198500000Y-134900000D03*
X203200000Y-85700000D03*
X210710000Y-72810000D03*
X167310000Y-118500000D03*
X210900000Y-185500000D03*
X193590000Y-135730000D03*
X52300000Y-179900000D03*
X82225000Y-130750000D03*
X56075000Y-129800000D03*
X128700000Y-132250000D03*
X114350000Y-132250000D03*
X162900000Y-92800000D03*
X160700000Y-93320000D03*
X180400000Y-111600000D03*
X178100000Y-111600000D03*
X182400000Y-111600000D03*
X184600000Y-111700000D03*
X186700000Y-111700000D03*
X142500000Y-140200000D03*
X142500000Y-137500000D03*
X142600000Y-134700000D03*
X92425000Y-128925000D03*
X92660000Y-105680000D03*
X61880000Y-127740000D03*
X97720000Y-105670000D03*
X69720000Y-105640000D03*
X67220000Y-105610000D03*
X67030000Y-127790000D03*
X87360000Y-105680000D03*
X87450000Y-128525000D03*
X84875000Y-128550000D03*
X80650000Y-128450000D03*
X59570000Y-105690000D03*
X89910000Y-105660000D03*
X167325000Y-130275000D03*
X172070000Y-128610000D03*
X169280000Y-129260000D03*
X170790000Y-130720000D03*
X175180000Y-72020000D03*
X179100000Y-70270000D03*
X76100000Y-131125000D03*
X197450000Y-178225000D03*
X63625000Y-105500000D03*
X55700000Y-176100000D03*
X147150000Y-166900000D03*
X169900000Y-59800000D03*
X159970000Y-210010000D03*
X200850000Y-124330000D03*
X190550000Y-59600000D03*
D16*
X94942000Y-102268000D03*
D15*
X84892000Y-99568000D03*
X87392000Y-99568000D03*
X89392000Y-99568000D03*
X91892000Y-99568000D03*
D16*
X81842000Y-102268000D03*
D38*
X200330000Y-137600000D03*
D43*
X139540000Y-88300000D03*
X113500000Y-199500000D03*
X113200000Y-202700000D03*
X217000000Y-174200000D03*
X119300000Y-202900000D03*
D38*
X119100000Y-199600000D03*
D43*
X218500000Y-168500000D03*
D38*
X74080000Y-82180000D03*
D43*
X119380000Y-72150000D03*
X125330000Y-72170000D03*
X119005516Y-75909225D03*
D38*
X126840000Y-77760000D03*
D43*
X219200000Y-95600000D03*
X219100000Y-104600000D03*
D38*
X151400000Y-187100000D03*
X150040000Y-188460000D03*
X160350000Y-70340000D03*
X129970000Y-79150000D03*
D44*
X165690000Y-135020000D03*
D38*
X149030000Y-135020000D03*
X109910001Y-149430000D03*
X116130000Y-171750000D03*
X114850000Y-170470000D03*
X83640000Y-89620000D03*
X107860000Y-132130000D03*
X139200000Y-131950000D03*
X141800000Y-131950000D03*
X109810000Y-142750000D03*
X109910001Y-144590000D03*
D44*
X58440000Y-198015000D03*
X109413183Y-103438808D03*
X65650000Y-88500000D03*
X63800000Y-88550000D03*
X65650000Y-86600000D03*
X63800000Y-86600000D03*
D43*
X92500000Y-82100000D03*
X91000000Y-83700000D03*
X89600000Y-83600000D03*
X89600000Y-82100000D03*
X92500000Y-80700000D03*
X91000000Y-80700000D03*
D44*
X115310000Y-97100000D03*
X112500000Y-97080000D03*
X112560000Y-99690000D03*
D43*
X83750000Y-180750000D03*
D38*
X199588655Y-88210842D03*
D43*
X160100000Y-178000000D03*
X201000000Y-173500000D03*
X218500000Y-173500000D03*
X120300000Y-193600000D03*
D44*
X166304941Y-149449990D03*
D43*
X201034307Y-166165693D03*
D44*
X153900000Y-74000000D03*
X155600000Y-73800000D03*
X151600000Y-73900000D03*
X159300000Y-73900000D03*
X157400000Y-73900000D03*
X161100000Y-73900000D03*
X177000000Y-74000000D03*
X179300000Y-73800000D03*
X181000000Y-74000000D03*
X186100000Y-74000000D03*
X187900000Y-74000000D03*
X189800000Y-73900000D03*
X194000000Y-85400000D03*
X178700000Y-82200000D03*
X176900000Y-82200000D03*
X164300000Y-82200000D03*
X162700000Y-82200000D03*
X160700000Y-82100000D03*
X159000000Y-82100000D03*
X156800000Y-85400000D03*
X153600000Y-85400000D03*
X151800000Y-85300000D03*
D43*
X94599990Y-180708576D03*
X95100000Y-199500000D03*
X95700000Y-197000000D03*
X96500000Y-194000000D03*
X96600000Y-191500000D03*
X96800000Y-188900000D03*
X98000000Y-181400000D03*
X98200000Y-190200000D03*
X143740000Y-169130000D03*
X151500000Y-178800000D03*
X155700002Y-182700000D03*
X135000000Y-176000000D03*
X135000000Y-178500000D03*
X134000000Y-182000000D03*
X134000000Y-185000000D03*
D38*
X159863596Y-202886404D03*
X154000000Y-211000000D03*
X144000000Y-209000000D03*
D44*
X209600000Y-192800000D03*
X167420000Y-139500000D03*
D43*
X184000000Y-139100000D03*
X176300000Y-150400000D03*
X182000000Y-146000000D03*
X178100000Y-137100000D03*
X172600000Y-140800000D03*
D44*
X167750000Y-142090000D03*
X188600000Y-156200000D03*
X188500000Y-150700000D03*
X206800000Y-153800000D03*
D43*
X213800000Y-144700000D03*
X214500000Y-148400000D03*
X214500000Y-150900000D03*
X217500000Y-155600000D03*
X206600000Y-169900000D03*
X215000000Y-164000000D03*
X209500000Y-168500000D03*
X218000000Y-181500000D03*
D44*
X208000000Y-192500000D03*
D43*
X166380000Y-60610000D03*
D44*
X197590000Y-51814000D03*
X196900000Y-53684000D03*
X142700000Y-82175000D03*
X143025000Y-88900000D03*
X137625000Y-73800000D03*
D38*
X141375000Y-77800000D03*
D44*
X139175000Y-85175000D03*
X137350000Y-85150000D03*
X134975000Y-85150000D03*
D43*
X83200000Y-78400000D03*
X77850000Y-81050000D03*
X81550000Y-75400000D03*
X96600000Y-70650000D03*
X96900000Y-80400000D03*
X99700000Y-82000000D03*
X82600000Y-83900000D03*
X99700000Y-85000000D03*
X91800000Y-90500000D03*
X90400000Y-90500000D03*
X88600000Y-90400000D03*
X87000000Y-90300000D03*
X104800000Y-70900000D03*
X103200000Y-70900000D03*
X98600000Y-79600000D03*
X86198096Y-74674990D03*
X120250000Y-190250000D03*
D45*
X108750000Y-180750000D03*
D43*
X117250000Y-192000000D03*
X84500000Y-189000000D03*
X83000000Y-183500000D03*
X83000000Y-187500000D03*
X83000000Y-191250000D03*
X93500000Y-184500000D03*
X89250000Y-176250000D03*
X85000000Y-199500000D03*
X89000000Y-200750000D03*
D44*
X62500000Y-181500000D03*
X55750000Y-186000000D03*
D43*
X71900000Y-202500000D03*
X71000000Y-200700000D03*
X61800000Y-199400000D03*
X62500000Y-205800000D03*
D44*
X117000000Y-197500000D03*
X115500000Y-197500000D03*
X116500000Y-195000000D03*
X115500000Y-195000000D03*
X158299990Y-61031217D03*
X161900000Y-73100000D03*
X163100000Y-73600000D03*
X117500000Y-190000000D03*
X115000000Y-189000000D03*
X116000000Y-199500000D03*
X115500000Y-203000000D03*
X117000000Y-203000000D03*
X122500000Y-202000000D03*
X148250000Y-193250000D03*
X189200000Y-87700000D03*
X148300010Y-85300000D03*
X195225010Y-73900002D03*
X192696977Y-73903886D03*
D43*
X209550000Y-76962000D03*
D44*
X208500000Y-67100000D03*
X207250000Y-67090000D03*
X202450000Y-73890000D03*
X188489071Y-87684124D03*
X144740000Y-156220000D03*
X144670000Y-162530000D03*
X165960285Y-145885010D03*
D43*
X59630000Y-93030000D03*
D44*
X71720000Y-77940000D03*
X74130000Y-83880000D03*
X146600000Y-74000000D03*
X144900000Y-74000000D03*
X144400000Y-82100000D03*
X142774998Y-73700000D03*
X150025010Y-85300000D03*
D43*
X65100000Y-149450000D03*
X64975000Y-143525000D03*
X91875000Y-149650000D03*
X89050000Y-137150000D03*
X87575000Y-129850000D03*
X86000000Y-129850000D03*
X90750000Y-129850000D03*
X81675000Y-144900000D03*
X55050000Y-144850000D03*
X53775000Y-144900000D03*
X80450000Y-145025000D03*
D44*
X88925000Y-145625000D03*
X86025000Y-145600000D03*
X59250000Y-145550000D03*
X62125000Y-145550000D03*
D43*
X60820000Y-129750022D03*
X59190000Y-129750022D03*
X64025000Y-129750022D03*
X62410000Y-136910000D03*
X79400000Y-140800000D03*
X54000000Y-139500000D03*
X125050010Y-181500000D03*
X125050010Y-183500000D03*
X91750000Y-143500000D03*
X122600000Y-140500000D03*
X136700000Y-140700000D03*
X140600000Y-135600000D03*
X127600000Y-141700000D03*
X133600000Y-145700000D03*
X141900000Y-141700000D03*
X123600000Y-132500000D03*
X116330000Y-70990000D03*
X122250000Y-71070000D03*
D38*
X122040000Y-80370000D03*
D44*
X121850000Y-74710000D03*
X113900000Y-98500000D03*
X113520000Y-105030000D03*
X104320000Y-98160000D03*
D43*
X118815164Y-89605010D03*
X120000000Y-69170000D03*
D38*
X131680000Y-66480000D03*
X146980000Y-66200000D03*
D43*
X125350000Y-69240000D03*
X128150000Y-69840000D03*
D38*
X157700000Y-130400000D03*
X152800000Y-130500000D03*
D43*
X186300000Y-62000000D03*
X176760000Y-64880000D03*
D38*
X184770000Y-65330000D03*
D43*
X203390000Y-91030000D03*
X205310000Y-91180000D03*
X202900000Y-106300000D03*
D44*
X172078599Y-74105394D03*
X173625010Y-74000000D03*
X175425010Y-74026452D03*
X188390000Y-92780000D03*
X177490000Y-92800000D03*
X173350000Y-92230000D03*
X191150000Y-97030000D03*
X193240000Y-92900000D03*
X180250000Y-106610000D03*
X187441594Y-96968406D03*
X185440488Y-92756324D03*
X191235010Y-85436947D03*
X193330000Y-79200000D03*
X188681663Y-82098961D03*
X175280000Y-100400000D03*
X166480000Y-81940000D03*
X185508806Y-82297694D03*
X180580491Y-82202659D03*
X170051356Y-74082969D03*
X169965721Y-133885010D03*
X171054979Y-105382926D03*
X161605828Y-61160019D03*
X158700000Y-69300000D03*
X164800000Y-65200000D03*
X168261176Y-74130939D03*
X164800000Y-72900000D03*
X174300000Y-63300000D03*
X174300000Y-70200000D03*
X168700000Y-61900000D03*
X169600000Y-66100000D03*
D43*
X126400000Y-135424990D03*
D44*
X114160920Y-108375010D03*
X116665254Y-108375010D03*
X176876900Y-106188712D03*
D43*
X152350000Y-96425000D03*
X152350000Y-98175000D03*
X152325000Y-99950000D03*
D44*
X167200000Y-69749990D03*
X66160000Y-84470000D03*
X70720000Y-85630000D03*
X74550000Y-86020000D03*
X68690000Y-94620000D03*
X170365021Y-89407945D03*
X168734990Y-89386097D03*
X169470989Y-82230051D03*
X175179257Y-82197451D03*
X171461028Y-82409916D03*
X173229224Y-82013811D03*
X167664990Y-82080777D03*
X192990000Y-137230000D03*
D43*
X160323956Y-105774995D03*
D44*
X135280010Y-76975116D03*
D43*
X108750000Y-183399990D03*
X97224222Y-183349990D03*
X97883147Y-187170010D03*
X125030000Y-175779999D03*
X126140000Y-179220000D03*
X118406455Y-145461516D03*
X109291810Y-132723678D03*
D44*
X114790000Y-84790000D03*
D43*
X112826023Y-141926023D03*
D38*
X125192132Y-77675947D03*
D43*
X217829990Y-159473860D03*
D38*
X130987377Y-73233416D03*
D43*
X82558307Y-82601512D03*
D38*
X113600000Y-67200000D03*
D44*
X70828241Y-98078241D03*
X148410000Y-73620000D03*
X150370000Y-73410002D03*
D38*
X138329236Y-71251920D03*
D44*
X108200000Y-90890000D03*
X178618213Y-100462801D03*
X180786415Y-93057320D03*
X166293406Y-85306594D03*
X166060000Y-74000000D03*
X67750000Y-98875010D03*
D38*
X202400000Y-189400000D03*
X200500000Y-189400000D03*
X201600000Y-190900000D03*
X200400000Y-176700000D03*
X202400000Y-176700000D03*
X201600000Y-178300000D03*
D43*
X62300000Y-77100000D03*
D44*
X67400000Y-80300000D03*
D43*
X153200000Y-208300000D03*
D38*
X193400000Y-60300000D03*
X140000000Y-176300000D03*
X139900000Y-193500000D03*
D44*
X170407290Y-145919102D03*
X61895139Y-84833326D03*
D43*
X91197198Y-74699986D03*
D44*
X64125000Y-84638188D03*
D43*
X95150000Y-74600000D03*
X69350000Y-64250000D03*
X73450000Y-64250000D03*
X74100000Y-68050000D03*
X78250000Y-70550000D03*
X73700000Y-72000000D03*
X76150000Y-87700000D03*
X76200000Y-92150000D03*
X76830000Y-85970000D03*
X75050000Y-88650000D03*
X79850000Y-89350000D03*
X80550000Y-85800000D03*
X81400000Y-84550000D03*
X83300000Y-88100000D03*
X84400000Y-87150000D03*
X102100000Y-94750000D03*
X98000000Y-91900000D03*
X164800000Y-114750000D03*
X162450000Y-112350000D03*
X155300000Y-109450000D03*
X148150000Y-107000000D03*
X136150000Y-113500000D03*
X126850000Y-122600000D03*
X180600000Y-71000000D03*
X186300000Y-67800000D03*
X151150000Y-77900000D03*
X150550000Y-79050000D03*
X148270000Y-79050000D03*
X146570000Y-79040000D03*
X143950000Y-77510000D03*
X159850000Y-85960000D03*
X156050000Y-86570000D03*
X165460000Y-89510000D03*
X123250000Y-114170000D03*
X151890000Y-138760000D03*
X147540000Y-142950000D03*
X152550000Y-145910000D03*
X145040000Y-150900000D03*
X150030000Y-152900000D03*
X156860000Y-170810000D03*
X153690000Y-173530000D03*
X61090000Y-191780000D03*
X56510000Y-191080000D03*
X180820000Y-174990000D03*
X183820000Y-174990000D03*
X186820000Y-174990000D03*
X180820000Y-176990000D03*
X183820000Y-176990000D03*
X186820000Y-176990000D03*
X189820000Y-176990000D03*
X180820000Y-178990000D03*
X183820000Y-178990000D03*
X186820000Y-178990000D03*
X189820000Y-178990000D03*
X180820000Y-180990000D03*
X183820000Y-180990000D03*
X186820000Y-180990000D03*
X189820000Y-180990000D03*
X180820000Y-182990000D03*
X183820000Y-182990000D03*
X186820000Y-182990000D03*
X189820000Y-182990000D03*
X180820000Y-184990000D03*
X183820000Y-184990000D03*
X186820000Y-184990000D03*
X189820000Y-184990000D03*
X180820000Y-186990000D03*
X183820000Y-186990000D03*
X186820000Y-186990000D03*
X189820000Y-186990000D03*
X180820000Y-188990000D03*
X183820000Y-188990000D03*
X186820000Y-188990000D03*
X189820000Y-188990000D03*
X180820000Y-190990000D03*
X183820000Y-190990000D03*
X186820000Y-190990000D03*
X189820000Y-190990000D03*
X189030000Y-171520000D03*
X189030000Y-167520000D03*
X195030000Y-169520000D03*
X189030000Y-169520000D03*
X195030000Y-171520000D03*
X195030000Y-167520000D03*
X192030000Y-167520000D03*
X192030000Y-169520000D03*
X192030000Y-171520000D03*
X217170000Y-206120000D03*
X214170000Y-202120000D03*
X217170000Y-202120000D03*
X208170000Y-204120000D03*
X211170000Y-204120000D03*
X208170000Y-200120000D03*
X211170000Y-200120000D03*
X214170000Y-200120000D03*
X217170000Y-200120000D03*
X208170000Y-202120000D03*
X211170000Y-202120000D03*
X214170000Y-204120000D03*
X217170000Y-204120000D03*
X208170000Y-206120000D03*
X211170000Y-206120000D03*
X214170000Y-206120000D03*
X200370000Y-200480000D03*
X203370000Y-204480000D03*
X197370000Y-204480000D03*
X197370000Y-200480000D03*
X197370000Y-202480000D03*
X200370000Y-202480000D03*
X200370000Y-204480000D03*
X203370000Y-202480000D03*
X203370000Y-200480000D03*
X100980000Y-129470000D03*
X104140000Y-130190000D03*
X102540000Y-132440000D03*
X73910000Y-135680000D03*
X72960000Y-128230000D03*
X65730000Y-136960000D03*
X53940000Y-136390000D03*
X61960000Y-66790000D03*
X65640000Y-66690000D03*
X52830000Y-95210000D03*
X52310000Y-97660000D03*
X53540000Y-103270000D03*
X110236000Y-68072000D03*
X115570000Y-68326000D03*
X64090000Y-94760000D03*
X126360000Y-84740000D03*
X132170000Y-96940000D03*
X137350000Y-102800000D03*
X149830000Y-100750000D03*
X53390000Y-111300000D03*
D44*
X183080316Y-96884727D03*
X127240000Y-94870000D03*
D38*
X131620000Y-58680000D03*
D43*
X62100000Y-99720000D03*
D38*
X73375000Y-180825000D03*
X70800000Y-180800000D03*
X68200000Y-180775000D03*
X65675000Y-179700000D03*
X71975000Y-179025000D03*
X69575000Y-179125000D03*
D43*
X217000000Y-126550000D03*
D44*
X54525000Y-77125000D03*
D43*
X51000000Y-74350000D03*
D44*
X155380000Y-56225002D03*
X156880000Y-56250000D03*
X158380000Y-56274998D03*
X159880000Y-56300000D03*
X162880000Y-56400000D03*
D43*
X163550000Y-123375000D03*
X160900000Y-129750000D03*
D44*
X158075000Y-122925000D03*
D43*
X212050000Y-142450002D03*
X124880000Y-116190000D03*
X138250000Y-115050000D03*
X139610000Y-129860000D03*
D38*
X142307636Y-127541606D03*
D43*
X139450000Y-117100000D03*
X139450000Y-120700000D03*
X131750000Y-113800000D03*
X121650000Y-118000000D03*
X113100000Y-118300000D03*
X116150000Y-110550000D03*
D44*
X172559060Y-67239436D03*
D38*
X108950000Y-51800000D03*
X111950000Y-51800000D03*
X114950000Y-51800000D03*
X117950000Y-51800000D03*
X120950000Y-51800000D03*
X123950000Y-51800000D03*
X126950000Y-51800000D03*
X129950000Y-51800000D03*
X132950000Y-51800000D03*
X135950000Y-51800000D03*
X108950000Y-53800000D03*
X111950000Y-53800000D03*
X114950000Y-53800000D03*
X117950000Y-53800000D03*
X120950000Y-53800000D03*
X123950000Y-53800000D03*
X126950000Y-53800000D03*
X129950000Y-53800000D03*
X132950000Y-53800000D03*
X114950000Y-55800000D03*
X117950000Y-55800000D03*
X120950000Y-55800000D03*
X138950000Y-51800000D03*
X141950000Y-51800000D03*
X144950000Y-51800000D03*
X147950000Y-51800000D03*
X135950000Y-53800000D03*
X138950000Y-53800000D03*
X141950000Y-53800000D03*
X144950000Y-53800000D03*
X147950000Y-53800000D03*
X52350000Y-51800000D03*
X55350000Y-51800000D03*
X58350000Y-51800000D03*
X61350000Y-51800000D03*
X64350000Y-51800000D03*
X52350000Y-53800000D03*
X55350000Y-53800000D03*
X58350000Y-53800000D03*
X61350000Y-53800000D03*
X64350000Y-53800000D03*
X91000000Y-51800000D03*
X94000000Y-51800000D03*
X91000000Y-53800000D03*
X94000000Y-53800000D03*
X91000000Y-55800000D03*
X94000000Y-55800000D03*
X91000000Y-57800000D03*
X94000000Y-57800000D03*
X155000000Y-51800000D03*
X158000000Y-51800000D03*
X161000000Y-51800000D03*
X164000000Y-51800000D03*
X155000000Y-53800000D03*
X158000000Y-53800000D03*
X161000000Y-53800000D03*
X164000000Y-53800000D03*
X172250000Y-51800000D03*
X175250000Y-51800000D03*
X178250000Y-51800000D03*
X181250000Y-51800000D03*
X184250000Y-51800000D03*
X187250000Y-51800000D03*
X172250000Y-53800000D03*
X175250000Y-53800000D03*
X178250000Y-53800000D03*
X181250000Y-53800000D03*
X184250000Y-53800000D03*
X187250000Y-53800000D03*
X172250000Y-55800000D03*
X175250000Y-55800000D03*
X178250000Y-55800000D03*
X181250000Y-55800000D03*
X184250000Y-55800000D03*
X187250000Y-55800000D03*
X203000000Y-51900000D03*
X210300000Y-51350000D03*
X208000000Y-60200000D03*
D44*
X203650011Y-67186946D03*
X198097995Y-81213134D03*
X139600000Y-77225000D03*
X60300000Y-202525000D03*
X58675000Y-201800000D03*
X61850000Y-196050000D03*
D43*
X119328696Y-132455010D03*
X124450000Y-129224957D03*
D44*
X171100000Y-100500000D03*
X108458000Y-103378000D03*
D43*
X100787948Y-95532406D03*
X98453039Y-94461990D03*
D44*
X112350010Y-109375000D03*
D43*
X79248000Y-108605010D03*
X63940000Y-108605010D03*
D44*
X168757856Y-123724999D03*
X168774990Y-125888097D03*
X167540000Y-128980000D03*
X120100000Y-92380000D03*
X121960000Y-89560000D03*
X124530000Y-93250000D03*
X120650465Y-93977642D03*
D43*
X81980000Y-199160000D03*
D38*
X124000000Y-207210000D03*
X127710000Y-207250000D03*
X129850000Y-217890000D03*
D44*
X106030000Y-204530000D03*
D43*
X109003003Y-187109973D03*
X108730000Y-189610000D03*
X112430000Y-189610000D03*
D44*
X196898616Y-73932387D03*
D38*
X151250000Y-205000000D03*
D43*
X208900000Y-95200000D03*
D44*
X166300419Y-151901259D03*
D43*
X206200000Y-168700000D03*
X181100000Y-150600000D03*
D38*
X79500000Y-67500000D03*
X108000000Y-70000000D03*
D43*
X181800000Y-141200000D03*
D44*
X173900000Y-146199998D03*
D38*
X198638659Y-86710842D03*
D43*
X86752305Y-91347695D03*
X79600000Y-52900000D03*
X106000000Y-54300000D03*
X208900000Y-188400000D03*
D44*
X195675000Y-68650000D03*
X193975000Y-68700000D03*
X192275000Y-68675000D03*
X190600000Y-68700000D03*
X201422000Y-53594000D03*
D43*
X201168000Y-71120000D03*
D44*
X204750000Y-67339996D03*
X206000000Y-67409958D03*
X209750000Y-67100002D03*
X165990000Y-147740000D03*
X159470000Y-158560000D03*
D43*
X56680000Y-94560000D03*
D44*
X52850000Y-92490000D03*
X52840000Y-89980000D03*
X52820000Y-87580000D03*
X52840000Y-85260000D03*
D38*
X55610000Y-78650000D03*
D44*
X115950000Y-104325000D03*
X113225000Y-113025000D03*
D43*
X107060000Y-79970000D03*
D44*
X115650000Y-92960000D03*
X118870000Y-94080000D03*
X116640000Y-101910000D03*
X119570144Y-98299990D03*
D43*
X62775000Y-144850000D03*
X89475000Y-144875000D03*
X53200000Y-132075000D03*
X54275000Y-143900000D03*
X60500000Y-137000000D03*
X87000000Y-137250000D03*
X126500000Y-134400000D03*
X117200000Y-141800000D03*
X132500000Y-141700000D03*
D44*
X108122512Y-97798972D03*
X102160000Y-96000000D03*
X102180000Y-93500000D03*
X124900000Y-103880000D03*
X124870000Y-106320000D03*
X124850000Y-108810000D03*
D43*
X208800000Y-104500000D03*
D44*
X191420000Y-92850000D03*
X186800000Y-90690000D03*
X179460000Y-92840000D03*
X175510000Y-92870000D03*
X189260000Y-97010000D03*
X185170000Y-96910000D03*
X178040000Y-106360000D03*
X183291541Y-81404728D03*
X194580000Y-79280000D03*
X190770000Y-81220000D03*
X183188907Y-91830790D03*
X181065010Y-96897084D03*
X176790000Y-100480000D03*
X172580000Y-100470000D03*
X186945010Y-81364366D03*
X179255045Y-81551997D03*
X168610000Y-105250000D03*
X165800000Y-62200000D03*
X166800000Y-66600000D03*
X167600000Y-72900000D03*
X174300000Y-68900000D03*
X172200000Y-72900000D03*
X167700000Y-69000000D03*
X113050000Y-108375010D03*
X117900000Y-108375010D03*
X115689843Y-108375010D03*
X175311980Y-106400167D03*
X166807382Y-70950010D03*
D43*
X77752024Y-135249978D03*
D44*
X172589754Y-81206567D03*
X176095147Y-81481465D03*
X168088976Y-81207836D03*
D43*
X161273954Y-105780036D03*
D38*
X132010000Y-69170000D03*
D43*
X81100000Y-144020010D03*
X79264115Y-132825011D03*
D38*
X58975000Y-179725000D03*
X62300000Y-179650000D03*
X74750000Y-179025000D03*
D44*
X109540000Y-90740000D03*
X113146761Y-93014957D03*
X163311589Y-80758401D03*
D38*
X201700000Y-69800000D03*
X53200000Y-99600000D03*
D43*
X155194002Y-94488000D03*
D44*
X51475000Y-76050000D03*
X168925000Y-127575000D03*
D43*
X158250000Y-127950000D03*
X117950000Y-129050000D03*
X139560000Y-128080000D03*
D44*
X172380001Y-65150000D03*
D38*
X201350000Y-57200000D03*
D44*
X169400000Y-96400000D03*
D43*
X113794968Y-136025109D03*
D44*
X102804312Y-102785688D03*
D38*
X107921837Y-71451803D03*
D44*
X102630556Y-100309444D03*
D43*
X119825000Y-100800000D03*
X104800000Y-91925000D03*
D44*
X90290000Y-181260000D03*
D43*
X213800000Y-154100000D03*
D44*
X163600000Y-150400000D03*
D43*
X208900000Y-92200000D03*
D38*
X148450000Y-215500000D03*
X141650000Y-215500000D03*
X146340000Y-215500000D03*
D44*
X102300000Y-79000000D03*
X149475000Y-108450000D03*
X174625000Y-68075000D03*
X90525000Y-176275000D03*
X109400000Y-112150000D03*
X53150000Y-76050000D03*
X139450000Y-71675000D03*
X168450057Y-116194990D03*
X91200000Y-76400000D03*
X93500000Y-182000000D03*
D43*
X86750000Y-181750000D03*
D44*
X96000000Y-85400000D03*
X97900000Y-77500000D03*
X83400000Y-76700000D03*
X96000000Y-86400000D03*
X86100000Y-84000000D03*
X96000000Y-82000000D03*
X91800000Y-87100000D03*
D38*
X102320000Y-192180000D03*
X104120000Y-192800000D03*
X106270000Y-192800000D03*
X104400000Y-181350000D03*
X105550000Y-141700000D03*
X110950000Y-129275000D03*
D44*
X86020004Y-82620000D03*
X90720000Y-87060000D03*
D38*
X77470000Y-97028000D03*
X97789992Y-96266000D03*
D44*
X101619458Y-87650010D03*
X87158858Y-77500019D03*
X89000000Y-77300000D03*
X91860689Y-77292772D03*
X93738608Y-77158228D03*
D43*
X196750000Y-187675000D03*
X185624998Y-210275000D03*
X174500000Y-160600000D03*
X205675000Y-176200000D03*
X176930000Y-156150000D03*
X180380000Y-156170000D03*
X178620000Y-158560000D03*
X174250000Y-158520000D03*
X182840000Y-158070000D03*
X195020000Y-155930000D03*
X206080000Y-156080000D03*
X211870000Y-157600000D03*
X214500000Y-168500000D03*
D38*
X146670000Y-170400000D03*
X138678180Y-172108180D03*
D43*
X86800000Y-159600000D03*
X81400000Y-158100000D03*
X93400000Y-152900000D03*
X97800000Y-154900000D03*
X88600000Y-154800000D03*
X80325000Y-165075000D03*
X88050000Y-163600000D03*
D38*
X79275000Y-171175000D03*
D43*
X87550000Y-172900000D03*
D44*
X102950000Y-76725000D03*
X96000000Y-81100000D03*
X102100000Y-77300000D03*
D43*
X89225000Y-129850000D03*
X62425000Y-129750022D03*
D44*
X93324979Y-88089756D03*
D38*
X92010000Y-187990000D03*
D44*
X81870000Y-81620002D03*
D43*
X129760000Y-87820000D03*
X134650000Y-79970000D03*
D44*
X85989992Y-81593264D03*
D38*
X99102775Y-86774409D03*
D43*
X120424940Y-195925000D03*
X112125000Y-195925000D03*
X69300000Y-169200000D03*
X58200000Y-159700000D03*
X53200000Y-157900000D03*
X61750000Y-154750000D03*
X66500000Y-153000000D03*
X71250000Y-155000000D03*
X66625000Y-164075000D03*
X58950000Y-163775000D03*
X53650000Y-163325000D03*
D44*
X136900000Y-81400000D03*
X137050000Y-77050000D03*
D43*
X154350000Y-62910000D03*
X164300000Y-66900006D03*
X64500000Y-208800000D03*
X65200000Y-197900000D03*
D44*
X57525000Y-196300000D03*
D43*
X65799996Y-200820000D03*
D44*
X195450000Y-85420000D03*
D43*
X138130000Y-81960000D03*
X138676875Y-77271726D03*
X148450000Y-61490010D03*
D44*
X181500000Y-77200000D03*
X181514979Y-81534153D03*
D43*
X135180000Y-73900000D03*
X135660008Y-81942004D03*
D44*
X150310000Y-61580000D03*
X88638967Y-87094020D03*
X96134822Y-87349990D03*
D43*
X98199997Y-70799997D03*
X101500000Y-70800000D03*
D44*
X102200000Y-73000000D03*
D43*
X91500000Y-70900004D03*
X88400000Y-70900000D03*
D44*
X105700000Y-74400000D03*
D43*
X94500000Y-70900000D03*
X92500000Y-70900000D03*
X86800000Y-70900000D03*
X84900000Y-70900000D03*
D38*
X124285999Y-177540001D03*
X136943185Y-71473175D03*
X159275000Y-136275000D03*
D43*
X192775000Y-180775000D03*
X184925000Y-198850000D03*
D44*
X70878601Y-115380000D03*
X194900000Y-96800000D03*
X179486560Y-127495065D03*
X172079741Y-106775231D03*
X181179158Y-125555085D03*
X167780000Y-104140000D03*
X86366676Y-115986670D03*
X83807927Y-116329924D03*
X171860000Y-113080000D03*
X169425078Y-120174922D03*
X90685733Y-77282132D03*
X85500000Y-88600000D03*
X87400000Y-86900000D03*
D43*
X71100000Y-197000000D03*
D44*
X176000000Y-96300000D03*
X191500000Y-99500000D03*
X163464990Y-91894358D03*
X182357510Y-99352628D03*
X157800000Y-69700000D03*
X166404990Y-77025188D03*
X141960333Y-73877526D03*
X155200000Y-69400002D03*
X142279744Y-73012591D03*
X156470000Y-69330000D03*
X140910322Y-73895197D03*
X154300000Y-67900000D03*
D43*
X182024998Y-210300000D03*
X196000000Y-186875000D03*
X196875000Y-183050000D03*
X180500000Y-164225000D03*
D44*
X86500000Y-78550000D03*
X211144163Y-151130010D03*
X216000000Y-142400000D03*
X86250000Y-80200000D03*
D43*
X162271943Y-60631993D03*
D44*
X163999998Y-59500000D03*
X204730000Y-154070000D03*
X175954990Y-86352697D03*
X191700009Y-105800000D03*
X117600000Y-73400000D03*
X117880010Y-74110000D03*
X123701362Y-74106616D03*
X123370000Y-73490000D03*
X82887488Y-86747488D03*
X100020000Y-91580000D03*
X82392512Y-86252512D03*
X99320000Y-91580000D03*
D38*
X126190000Y-61760000D03*
X128600000Y-72020000D03*
D44*
X122220000Y-76100000D03*
D38*
X122150000Y-84600000D03*
X126520000Y-67370000D03*
X126520000Y-71810000D03*
X98000000Y-157520000D03*
X93110000Y-157510000D03*
D43*
X85705000Y-163200000D03*
D38*
X66100000Y-157500000D03*
D44*
X119500000Y-95700000D03*
X108222468Y-98542293D03*
X114425000Y-110150000D03*
X115450000Y-105050000D03*
D43*
X134060000Y-77170000D03*
D38*
X133611475Y-82005717D03*
D43*
X130100000Y-152000000D03*
X130700000Y-158100000D03*
X127800000Y-150100000D03*
D44*
X135580000Y-160630000D03*
X141410000Y-160580000D03*
X133050000Y-163910000D03*
D43*
X130700000Y-156900000D03*
D44*
X136250000Y-155550000D03*
D43*
X114600000Y-152200000D03*
X114100000Y-158500000D03*
D44*
X118950000Y-161140000D03*
X128060000Y-163890000D03*
D43*
X113010345Y-149761704D03*
D44*
X124886759Y-161143241D03*
D43*
X114100000Y-157300000D03*
D44*
X119975000Y-156000000D03*
X61640000Y-86950000D03*
X66080000Y-98620000D03*
X69710000Y-98700000D03*
X66910000Y-84410000D03*
X64048259Y-93151565D03*
X69440000Y-83630000D03*
X70760000Y-87540000D03*
X62540000Y-81820000D03*
X67709998Y-89520000D03*
X121549964Y-128149997D03*
X177170000Y-145530000D03*
X158830000Y-100360000D03*
X162800000Y-145500000D03*
D43*
X201100010Y-168826782D03*
X151700000Y-110450002D03*
D44*
X160900000Y-123625000D03*
X162625000Y-123100000D03*
X169078509Y-91618881D03*
X122750000Y-128425010D03*
X177243559Y-144618040D03*
X196010000Y-135180000D03*
X161025000Y-145550000D03*
D43*
X200775000Y-169725000D03*
D44*
X158974990Y-102122511D03*
D43*
X151723898Y-111573637D03*
D44*
X168495167Y-92090294D03*
X112350000Y-124200000D03*
X168070000Y-89770000D03*
X90576459Y-117304990D03*
X83200000Y-133800000D03*
D43*
X77436831Y-136599990D03*
D44*
X189700011Y-123630624D03*
X78525000Y-129650000D03*
X81200000Y-118278686D03*
X173201264Y-105248076D03*
X78675000Y-117025000D03*
X192549991Y-123181594D03*
X181175000Y-110425000D03*
X192584990Y-112305002D03*
X194145010Y-112932585D03*
X140824990Y-128240000D03*
X136198329Y-125682239D03*
X142710000Y-128530000D03*
X196740000Y-82299997D03*
X141224368Y-129108699D03*
X135549998Y-125220000D03*
X67200000Y-115175000D03*
X176592721Y-127495065D03*
X116000000Y-136100000D03*
X201600000Y-126175000D03*
X130418983Y-137379990D03*
X125375000Y-127200000D03*
X59520000Y-117700000D03*
X117600000Y-136100000D03*
X131700009Y-136900009D03*
X196657362Y-127070549D03*
X118799998Y-136100000D03*
X132900000Y-135999974D03*
X197331468Y-125798281D03*
X115162134Y-86730000D03*
X114670715Y-87228521D03*
X187119183Y-85278086D03*
X96800000Y-84000000D03*
X95905746Y-84499752D03*
X136502512Y-114792512D03*
X157720000Y-85860000D03*
X136997488Y-115287488D03*
X158420000Y-85860000D03*
X137202512Y-116922512D03*
X162912512Y-86322512D03*
X137697488Y-117417488D03*
X163407488Y-86817488D03*
X164920000Y-86430000D03*
D46*
X138013223Y-120153223D03*
D44*
X165620000Y-86430000D03*
D46*
X138366777Y-120506777D03*
D44*
X188660000Y-93710000D03*
X176040000Y-97360036D03*
X185969171Y-85381834D03*
X173457258Y-112044071D03*
X190410000Y-111500000D03*
X179400000Y-94900000D03*
X191763122Y-105051229D03*
X196969647Y-110166042D03*
X182915101Y-99974539D03*
X170850000Y-112270000D03*
X166925010Y-105530642D03*
X171425010Y-111180000D03*
X167647994Y-105730172D03*
X175949967Y-112017478D03*
X165152581Y-105595333D03*
X175146482Y-111198443D03*
X164853209Y-106283006D03*
X174607269Y-111837757D03*
X163703198Y-106027940D03*
X163130000Y-102200000D03*
X129670000Y-81390000D03*
X165320000Y-82100000D03*
X168550000Y-85930000D03*
X149670000Y-78260000D03*
D46*
X123690000Y-122770000D03*
D44*
X148970000Y-78260000D03*
D46*
X123690000Y-122270000D03*
D44*
X147830000Y-77580000D03*
X124257488Y-119337488D03*
X147030178Y-77556331D03*
X123762512Y-118842512D03*
X123547488Y-116097488D03*
X146100000Y-77550000D03*
X123052512Y-115602512D03*
X145400000Y-77550000D03*
X171168991Y-87437822D03*
X196119795Y-110980380D03*
X127230000Y-84390000D03*
X108300000Y-101110000D03*
X126840000Y-83040000D03*
X107890000Y-100430000D03*
X125640000Y-83060000D03*
X108181734Y-99739051D03*
X124340000Y-83080000D03*
X107550000Y-99100000D03*
X132500000Y-206750000D03*
X133750000Y-206750000D03*
X135000000Y-206750000D03*
X136250000Y-206750000D03*
X137500000Y-206750000D03*
X138750000Y-206750000D03*
D38*
X129200000Y-203400000D03*
X128000000Y-204600000D03*
X79040000Y-204800000D03*
D44*
X61970000Y-90410000D03*
X61650000Y-88960000D03*
X70700000Y-86670000D03*
X68758949Y-82785010D03*
X70230000Y-90520000D03*
X59950000Y-83630000D03*
X62940000Y-84519962D03*
X65320000Y-84470000D03*
X67470000Y-90500000D03*
X196373494Y-77435018D03*
X194275000Y-78250000D03*
X202946000Y-76708000D03*
X189413961Y-78870012D03*
X185775000Y-78025000D03*
X205486000Y-75438000D03*
X192040000Y-88400000D03*
X192829756Y-77080409D03*
X192510000Y-95810000D03*
X192080000Y-77100000D03*
X170471548Y-92455402D03*
X191103130Y-76985136D03*
X185030499Y-88514511D03*
X170774990Y-93141288D03*
X185050000Y-87550000D03*
X190425431Y-77971629D03*
X181140000Y-89110000D03*
X184830423Y-100750575D03*
X185075294Y-86713624D03*
X189282233Y-77607370D03*
X179390000Y-87760000D03*
X183670000Y-100440000D03*
X188640000Y-77220000D03*
X190231686Y-81742241D03*
X181709317Y-98721851D03*
X187470000Y-77100000D03*
X177788505Y-100668391D03*
X186544990Y-86188096D03*
X183302866Y-103539678D03*
X184980144Y-94029856D03*
X186799169Y-77435415D03*
X180375010Y-101213821D03*
X180380000Y-77260000D03*
X174851055Y-87899979D03*
X179330000Y-77320000D03*
X195970000Y-98080000D03*
X200620000Y-74920000D03*
X176650000Y-77050000D03*
X191690000Y-100850000D03*
X188920000Y-100770000D03*
X175035489Y-77916318D03*
X190258406Y-100911594D03*
X174541232Y-77192393D03*
X187510000Y-100740000D03*
X173813187Y-77012204D03*
X173038973Y-76964990D03*
X182880871Y-101021584D03*
X186130000Y-100700000D03*
X171675010Y-77611593D03*
X171437572Y-73716034D03*
X167920000Y-100640000D03*
X170928611Y-81877499D03*
X170700000Y-73580000D03*
X167146594Y-100456594D03*
X170203727Y-82070009D03*
X169860000Y-73280000D03*
X173048368Y-87827743D03*
X168809550Y-73619272D03*
X171346594Y-99083406D03*
X167690250Y-73644563D03*
X173698006Y-86769387D03*
X166980000Y-74040000D03*
X190940000Y-88500000D03*
X190990000Y-86350000D03*
X201880000Y-102000000D03*
X207340000Y-93180000D03*
X174004956Y-85983018D03*
X120820000Y-112330000D03*
X109050000Y-138824998D03*
X172828307Y-86041495D03*
X158000000Y-108310000D03*
X172192563Y-85571450D03*
X131425000Y-129324957D03*
X157190000Y-110210000D03*
X171484587Y-85323886D03*
X170778306Y-85576245D03*
X170058544Y-85365390D03*
X181570000Y-72605010D03*
X186621492Y-69501049D03*
X175680000Y-70050000D03*
X186330000Y-68810000D03*
D43*
X56450000Y-137625000D03*
X77806243Y-138600010D03*
D38*
X209175000Y-144325000D03*
D44*
X100190000Y-94130000D03*
X76940000Y-90130000D03*
X100890000Y-94130000D03*
X76940000Y-89430000D03*
X93300000Y-94800000D03*
X88800000Y-94700000D03*
X89300000Y-92350004D03*
X95413335Y-89955184D03*
X88400000Y-145000000D03*
X83550000Y-148550000D03*
X61500000Y-145075000D03*
X56750000Y-148500000D03*
D43*
X148900010Y-114308199D03*
X143250000Y-132867046D03*
X147950000Y-114300000D03*
D44*
X108921822Y-140000011D03*
X107825000Y-140075002D03*
X179000000Y-99650000D03*
X180980481Y-100771191D03*
X108005344Y-96303531D03*
X108063558Y-97051280D03*
X200250000Y-69750000D03*
X197075000Y-67600000D03*
X200044074Y-69028812D03*
X200251988Y-67878801D03*
X199921053Y-74364851D03*
X198330000Y-72900000D03*
X200675000Y-73800000D03*
X201450000Y-67075000D03*
X198478672Y-68731328D03*
X198180000Y-71980000D03*
X199121104Y-74725023D03*
X198891444Y-67949990D03*
X204978000Y-58928000D03*
X197265110Y-71825110D03*
X198600010Y-75352429D03*
X205497851Y-57534928D03*
X198641433Y-67099610D03*
X196515277Y-72608753D03*
X189140000Y-72830000D03*
X189000000Y-67500000D03*
X180900000Y-66550000D03*
X63125000Y-197175000D03*
X166350000Y-99350000D03*
X166450000Y-107050000D03*
D38*
X116400000Y-76400000D03*
X85775000Y-92175000D03*
D44*
X117213494Y-100350000D03*
X109098341Y-105677993D03*
X117213494Y-99650000D03*
X109098341Y-104977993D03*
X112225000Y-102050000D03*
X113125000Y-102000000D03*
X176250000Y-67850000D03*
D47*
X101080000Y-146920000D02*
X101080000Y-149075000D01*
X91090000Y-144950000D02*
X99110000Y-144950000D01*
X88620000Y-142480000D02*
X91090000Y-144950000D01*
X79400000Y-142480000D02*
X88620000Y-142480000D01*
X74280000Y-149000000D02*
X74280000Y-147600000D01*
X99110000Y-144950000D02*
X101080000Y-146920000D01*
X74280000Y-147600000D02*
X79400000Y-142480000D01*
D48*
X139200000Y-131950000D02*
X141800000Y-131950000D01*
X113730000Y-138830000D02*
X109810000Y-142750000D01*
X132320000Y-138830000D02*
X113730000Y-138830000D01*
X139200000Y-131950000D02*
X132320000Y-138830000D01*
X109810000Y-142750000D02*
X109810000Y-144489999D01*
X109810000Y-144489999D02*
X109910001Y-144590000D01*
D47*
X212834000Y-69800000D02*
X201700000Y-69800000D01*
X201168000Y-70332000D02*
X201168000Y-71120000D01*
X215646000Y-69088000D02*
X213546000Y-69088000D01*
X213546000Y-69088000D02*
X212834000Y-69800000D01*
X201700000Y-69800000D02*
X201168000Y-70332000D01*
D49*
X109540000Y-90740000D02*
X108950000Y-90150000D01*
X108950000Y-90150000D02*
X107050000Y-90150000D01*
X105275000Y-91925000D02*
X104800000Y-91925000D01*
X107050000Y-90150000D02*
X105275000Y-91925000D01*
D50*
X174200736Y-68075000D02*
X174010735Y-68265001D01*
X174010735Y-68265001D02*
X172743999Y-68265001D01*
X172553998Y-68075000D02*
X161497998Y-68075000D01*
X174625000Y-68075000D02*
X174200736Y-68075000D01*
X161497998Y-68075000D02*
X159247998Y-70325000D01*
X172743999Y-68265001D02*
X172553998Y-68075000D01*
X139450000Y-70400000D02*
X139525000Y-70325000D01*
X139450000Y-71675000D02*
X139450000Y-70400000D01*
X159247998Y-70325000D02*
X139525000Y-70325000D01*
X104100000Y-80800000D02*
X102599999Y-79299999D01*
X112700000Y-80800000D02*
X104100000Y-80800000D01*
X115700000Y-82175000D02*
X114075000Y-82175000D01*
X139525000Y-70325000D02*
X135352002Y-70325000D01*
X125575000Y-81200000D02*
X116675000Y-81200000D01*
X135352002Y-70325000D02*
X128704999Y-76972003D01*
X128704999Y-76972003D02*
X128704999Y-78070001D01*
X102599999Y-79299999D02*
X102300000Y-79000000D01*
X114075000Y-82175000D02*
X112700000Y-80800000D01*
X128704999Y-78070001D02*
X125575000Y-81200000D01*
X116675000Y-81200000D02*
X115700000Y-82175000D01*
X149475000Y-108450000D02*
X156655700Y-108450000D01*
X156655700Y-108450000D02*
X164400690Y-116194990D01*
X164400690Y-116194990D02*
X168450057Y-116194990D01*
D49*
X77470000Y-97028000D02*
X78232000Y-96266000D01*
X78232000Y-96266000D02*
X97082886Y-96266000D01*
X97082886Y-96266000D02*
X97789992Y-96266000D01*
X96525592Y-85874408D02*
X99843856Y-85874408D01*
X101319459Y-87350011D02*
X101619458Y-87650010D01*
X99843856Y-85874408D02*
X101319459Y-87350011D01*
X96000000Y-86400000D02*
X96525592Y-85874408D01*
X100550000Y-79225000D02*
X100550000Y-78850000D01*
X96000000Y-81100000D02*
X96424264Y-81100000D01*
X96424264Y-81100000D02*
X96724264Y-81400000D01*
X96724264Y-81400000D02*
X98375000Y-81400000D01*
X98375000Y-81400000D02*
X100550000Y-79225000D01*
X100550000Y-78850000D02*
X102100000Y-77300000D01*
D47*
X157675000Y-137875000D02*
X159275000Y-136275000D01*
X157675000Y-166000000D02*
X157675000Y-137875000D01*
X149400000Y-174275000D02*
X157675000Y-166000000D01*
X132932106Y-174275000D02*
X149400000Y-174275000D01*
X130000000Y-176500000D02*
X130707106Y-176500000D01*
X130707106Y-176500000D02*
X132932106Y-174275000D01*
D50*
X71178600Y-115679999D02*
X70878601Y-115380000D01*
X83830000Y-114630000D02*
X82780001Y-115679999D01*
X121004300Y-114630000D02*
X83830000Y-114630000D01*
X163720000Y-116770000D02*
X159340000Y-112390000D01*
X169380000Y-116770000D02*
X163720000Y-116770000D01*
X123244300Y-112390000D02*
X121004300Y-114630000D01*
X82780001Y-115679999D02*
X71178600Y-115679999D01*
X159340000Y-112390000D02*
X123244300Y-112390000D01*
X169380000Y-116770000D02*
X169380000Y-116750000D01*
X171470000Y-114660000D02*
X172300000Y-114660000D01*
X169380000Y-116750000D02*
X171470000Y-114660000D01*
X179486560Y-129706560D02*
X179486560Y-127919329D01*
X179520000Y-129740000D02*
X179486560Y-129706560D01*
X179486560Y-127919329D02*
X179486560Y-127495065D01*
X179400000Y-129860000D02*
X172061002Y-129860000D01*
X92094334Y-125678634D02*
X73219334Y-125678634D01*
X109334947Y-126594247D02*
X108865689Y-126124989D01*
X168158310Y-126950012D02*
X167808340Y-126600042D01*
X138502049Y-126657251D02*
X135669230Y-126657251D01*
X92540689Y-126124989D02*
X92094334Y-125678634D01*
X138834311Y-126324989D02*
X138502049Y-126657251D01*
X167808340Y-126600042D02*
X160040742Y-126600042D01*
X135606226Y-126594247D02*
X109334947Y-126594247D01*
X169151014Y-126950012D02*
X168158310Y-126950012D01*
X63300000Y-124700000D02*
X63300000Y-122160000D01*
X63874989Y-125274989D02*
X63300000Y-124700000D01*
X179520000Y-129740000D02*
X179400000Y-129860000D01*
X172061002Y-129860000D02*
X169151014Y-126950012D01*
X63796401Y-121663599D02*
X64660000Y-120800000D01*
X63300000Y-122160000D02*
X63796401Y-121663599D01*
X160040742Y-126600042D02*
X159990689Y-126549989D01*
X143615689Y-126549989D02*
X143390689Y-126324989D01*
X73219334Y-125678634D02*
X72815689Y-125274989D01*
X143390689Y-126324989D02*
X138834311Y-126324989D01*
X159990689Y-126549989D02*
X143615689Y-126549989D01*
X135669230Y-126657251D02*
X135606226Y-126594247D01*
X72815689Y-125274989D02*
X63874989Y-125274989D01*
X108865689Y-126124989D02*
X92540689Y-126124989D01*
X179660000Y-129880000D02*
X179520000Y-129740000D01*
X181440000Y-129880000D02*
X179660000Y-129880000D01*
X182010000Y-129310000D02*
X181440000Y-129880000D01*
X182010000Y-128010000D02*
X182010000Y-129310000D01*
X182792002Y-127227998D02*
X182010000Y-128010000D01*
X194900000Y-96800000D02*
X194900000Y-100450000D01*
X194900000Y-100450000D02*
X200300000Y-105850000D01*
X200300000Y-105850000D02*
X200300000Y-113050000D01*
X199330000Y-121550002D02*
X198300000Y-122580002D01*
X198300000Y-122580002D02*
X198300000Y-123361409D01*
X201270000Y-115070000D02*
X202350000Y-116150000D01*
X200310000Y-118840000D02*
X200310000Y-119810000D01*
X194433411Y-127227998D02*
X182792002Y-127227998D01*
X200300000Y-113050000D02*
X201270000Y-114020000D01*
X199330000Y-120790000D02*
X199330000Y-121550002D01*
X201270000Y-114020000D02*
X201270000Y-115070000D01*
X202350000Y-116150000D02*
X202350000Y-116800000D01*
X202350000Y-116800000D02*
X200310000Y-118840000D01*
X198300000Y-123361409D02*
X194433411Y-127227998D01*
X200310000Y-119810000D02*
X199330000Y-120790000D01*
X93418620Y-118849980D02*
X106812981Y-118849980D01*
X140273234Y-122741822D02*
X141490068Y-121524988D01*
X141490068Y-121524988D02*
X162698990Y-121524988D01*
X164149001Y-122974999D02*
X167979953Y-122974999D01*
X136399243Y-121665045D02*
X137476020Y-122741822D01*
X162698990Y-121524988D02*
X164149001Y-122974999D01*
X93188567Y-119080033D02*
X93418620Y-118849980D01*
X109628046Y-121665045D02*
X136399243Y-121665045D01*
X87520000Y-120800000D02*
X89239967Y-119080033D01*
X106812981Y-118849980D02*
X109628046Y-121665045D01*
X168154943Y-123149989D02*
X169150991Y-123149989D01*
X89239967Y-119080033D02*
X93188567Y-119080033D01*
X167979953Y-122974999D02*
X168154943Y-123149989D01*
X169150991Y-123149989D02*
X171556087Y-125555085D01*
X137476020Y-122741822D02*
X140273234Y-122741822D01*
X171556087Y-125555085D02*
X181179158Y-125555085D01*
X179522183Y-121140000D02*
X180300000Y-121140000D01*
X176524977Y-111024977D02*
X176524977Y-112303379D01*
X172575230Y-107075230D02*
X176524977Y-111024977D01*
X177240000Y-115190000D02*
X178290000Y-116240000D01*
X177240000Y-113018402D02*
X177240000Y-115190000D01*
X176524977Y-112303379D02*
X177240000Y-113018402D01*
X172379740Y-107075230D02*
X172575230Y-107075230D01*
X178290000Y-116240000D02*
X178290000Y-119907817D01*
X172079741Y-106775231D02*
X172379740Y-107075230D01*
X178290000Y-119907817D02*
X179522183Y-121140000D01*
X86923324Y-115430022D02*
X86366676Y-115986670D01*
X123655580Y-117067478D02*
X122018124Y-115430022D01*
X181300000Y-119140000D02*
X181300000Y-121361002D01*
X181300000Y-121361002D02*
X180571002Y-122090000D01*
X122018124Y-115430022D02*
X86923324Y-115430022D01*
X170411825Y-119599921D02*
X166638423Y-119599921D01*
X166638423Y-119599921D02*
X165108448Y-118069946D01*
X125538048Y-118069946D02*
X124535580Y-117067478D01*
X173790000Y-122090000D02*
X173340000Y-121640000D01*
X171001904Y-120190000D02*
X170411825Y-119599921D01*
X173340000Y-121640000D02*
X173340000Y-120710000D01*
X165108448Y-118069946D02*
X125538048Y-118069946D01*
X180571002Y-122090000D02*
X173790000Y-122090000D01*
X173340000Y-120710000D02*
X172820000Y-120190000D01*
X172820000Y-120190000D02*
X171001904Y-120190000D01*
X124535580Y-117067478D02*
X123655580Y-117067478D01*
X180390000Y-116210000D02*
X180390000Y-118230000D01*
X179385695Y-115205695D02*
X180390000Y-116210000D01*
X178645691Y-112979991D02*
X179385695Y-113719995D01*
X176924988Y-112137690D02*
X177767289Y-112979991D01*
X176924988Y-110800688D02*
X176924988Y-112137690D01*
X171869989Y-105745689D02*
X176924988Y-110800688D01*
X177767289Y-112979991D02*
X178645691Y-112979991D01*
X170804300Y-104140000D02*
X171869989Y-105205689D01*
X167780000Y-104140000D02*
X170804300Y-104140000D01*
X180390000Y-118230000D02*
X181300000Y-119140000D01*
X179385695Y-113719995D02*
X179385695Y-115205695D01*
X171869989Y-105205689D02*
X171869989Y-105745689D01*
X182859991Y-122580009D02*
X184300000Y-121140000D01*
X83807927Y-116329924D02*
X84232191Y-116329924D01*
X84232191Y-116329924D02*
X84507110Y-116604843D01*
X89294200Y-116604843D02*
X90069010Y-115830033D01*
X123489891Y-117467489D02*
X124369891Y-117467489D01*
X84507110Y-116604843D02*
X89294200Y-116604843D01*
X90069010Y-115830033D02*
X121852435Y-115830033D01*
X121852435Y-115830033D02*
X123489891Y-117467489D01*
X124369891Y-117467489D02*
X125372359Y-118469957D01*
X125372359Y-118469957D02*
X164942759Y-118469957D01*
X164942759Y-118469957D02*
X166647724Y-120174922D01*
X166647724Y-120174922D02*
X170135824Y-120174922D01*
X170135824Y-120174922D02*
X172540911Y-122580009D01*
X172540911Y-122580009D02*
X182859991Y-122580009D01*
X100667067Y-108750033D02*
X101917100Y-107500000D01*
X97680000Y-110100000D02*
X99029967Y-108750033D01*
X127600000Y-107500000D02*
X143205642Y-91894358D01*
X143205642Y-91894358D02*
X163040726Y-91894358D01*
X163040726Y-91894358D02*
X163464990Y-91894358D01*
X101917100Y-107500000D02*
X127600000Y-107500000D01*
X99029967Y-108750033D02*
X100667067Y-108750033D01*
X204730000Y-154070000D02*
X204730000Y-160780000D01*
X204730000Y-160780000D02*
X211450000Y-167500000D01*
X211450000Y-184950000D02*
X210900000Y-185500000D01*
X211450000Y-167500000D02*
X211450000Y-184950000D01*
X188081375Y-102605630D02*
X191275745Y-105800000D01*
X181256483Y-100196189D02*
X181555483Y-100495189D01*
X183029930Y-102605630D02*
X188081375Y-102605630D01*
X176275020Y-86672727D02*
X176275020Y-94854018D01*
X181214548Y-100196189D02*
X181256483Y-100196189D01*
X179419989Y-97998987D02*
X179419989Y-98401630D01*
X191275745Y-105800000D02*
X191700009Y-105800000D01*
X181555483Y-101131183D02*
X183029930Y-102605630D01*
X181555483Y-100495189D02*
X181555483Y-101131183D01*
X179419989Y-98401630D02*
X181214548Y-100196189D01*
X175954990Y-86352697D02*
X176275020Y-86672727D01*
X176275020Y-94854018D02*
X179419989Y-97998987D01*
X201100010Y-168600010D02*
X201100010Y-168826782D01*
X199020000Y-136130000D02*
X199020000Y-166520000D01*
X199360000Y-135790000D02*
X199020000Y-136130000D01*
X199360000Y-134260000D02*
X199360000Y-135790000D01*
X199170000Y-134070000D02*
X199360000Y-134260000D01*
X199020000Y-166520000D02*
X201100010Y-168600010D01*
X199170000Y-133270000D02*
X199170000Y-134070000D01*
X198500000Y-132600000D02*
X199170000Y-133270000D01*
X198500000Y-167450000D02*
X200775000Y-169725000D01*
X198500000Y-134900000D02*
X198500000Y-167450000D01*
X131030000Y-80352702D02*
X131174999Y-80207703D01*
X96400000Y-109741400D02*
X97791378Y-108350022D01*
X101751411Y-107099989D02*
X117740011Y-107099989D01*
X96400000Y-111360000D02*
X96400000Y-109741400D01*
X97791378Y-108350022D02*
X100501378Y-108350022D01*
X131030000Y-93810000D02*
X131030000Y-80352702D01*
X117740011Y-107099989D02*
X131030000Y-93810000D01*
X131174999Y-78954063D02*
X137479050Y-72650012D01*
X137479050Y-72650012D02*
X139891690Y-72650012D01*
X176574999Y-72795001D02*
X178600001Y-70769999D01*
X139891690Y-72650012D02*
X140301702Y-72240000D01*
X178600001Y-70769999D02*
X179100000Y-70270000D01*
X173280000Y-72240000D02*
X173835001Y-72795001D01*
X173835001Y-72795001D02*
X176574999Y-72795001D01*
X140301702Y-72240000D02*
X173280000Y-72240000D01*
X97680000Y-112640000D02*
X96400000Y-111360000D01*
X100501378Y-108350022D02*
X101751411Y-107099989D01*
X131174999Y-80207703D02*
X131174999Y-78954063D01*
X137315186Y-72248176D02*
X133994526Y-72248176D01*
X139726001Y-72250001D02*
X137317011Y-72250001D01*
X94276401Y-111776401D02*
X95140000Y-112640000D01*
X137317011Y-72250001D02*
X137315186Y-72248176D01*
X100335689Y-107950011D02*
X95675689Y-107950011D01*
X133994526Y-72248176D02*
X130774988Y-75467714D01*
X130530000Y-80107002D02*
X130530000Y-93550000D01*
X93800000Y-109825700D02*
X93800000Y-111300000D01*
X130530000Y-93550000D02*
X117380022Y-106699978D01*
X160377299Y-71520001D02*
X140456001Y-71520001D01*
X93800000Y-111300000D02*
X94276401Y-111776401D01*
X117380022Y-106699978D02*
X101585722Y-106699978D01*
X174472894Y-72020000D02*
X173977905Y-71525011D01*
X101585722Y-106699978D02*
X100335689Y-107950011D01*
X95675689Y-107950011D02*
X93800000Y-109825700D01*
X140456001Y-71520001D02*
X139726001Y-72250001D01*
X175180000Y-72020000D02*
X174472894Y-72020000D01*
X173977905Y-71525011D02*
X160382309Y-71525011D01*
X130774988Y-75467714D02*
X130774988Y-79862014D01*
X130774988Y-79862014D02*
X130530000Y-80107002D01*
X160382309Y-71525011D02*
X160377299Y-71520001D01*
X112350000Y-124200000D02*
X111031601Y-124200000D01*
X111031601Y-124200000D02*
X106493000Y-119661399D01*
X93463599Y-119936401D02*
X92600000Y-120800000D01*
X93738601Y-119661399D02*
X93463599Y-119936401D01*
X106493000Y-119661399D02*
X93738601Y-119661399D01*
X137342392Y-124899988D02*
X136257380Y-123814976D01*
X198522183Y-116660000D02*
X196474999Y-118707184D01*
X196474999Y-118707184D02*
X196474999Y-119535001D01*
X180737467Y-126530098D02*
X180727413Y-126520044D01*
X112649999Y-123900001D02*
X112350000Y-124200000D01*
X112735024Y-123814976D02*
X112649999Y-123900001D01*
X136257380Y-123814976D02*
X112735024Y-123814976D01*
X182370850Y-126120033D02*
X181960785Y-126530098D01*
X195900000Y-122210000D02*
X195900000Y-124355969D01*
X194135936Y-126120033D02*
X182370850Y-126120033D01*
X181960785Y-126530098D02*
X180737467Y-126530098D01*
X195900000Y-124355969D02*
X194135936Y-126120033D01*
X169266690Y-124899988D02*
X137342392Y-124899988D01*
X195250000Y-120760000D02*
X195250000Y-121560000D01*
X195250000Y-121560000D02*
X195900000Y-122210000D01*
X170886746Y-126520044D02*
X169266690Y-124899988D01*
X196474999Y-119535001D02*
X195250000Y-120760000D01*
X199300000Y-116660000D02*
X198522183Y-116660000D01*
X180727413Y-126520044D02*
X170886746Y-126520044D01*
X200129500Y-117050500D02*
X200260000Y-116920000D01*
X198270000Y-118905501D02*
X200125001Y-117050500D01*
X197275000Y-120951702D02*
X198270000Y-119956702D01*
X197275000Y-123820709D02*
X197275000Y-120951702D01*
X194575665Y-126520044D02*
X197275000Y-123820709D01*
X182126474Y-126930109D02*
X182536539Y-126520044D01*
X92600000Y-123340000D02*
X93784945Y-124524945D01*
X200260000Y-116920000D02*
X200260000Y-116040000D01*
X200125001Y-117050500D02*
X200129500Y-117050500D01*
X182536539Y-126520044D02*
X194575665Y-126520044D01*
X93784945Y-124524945D02*
X109978445Y-124524945D01*
X109978445Y-124524945D02*
X110228501Y-124775001D01*
X198880000Y-114660000D02*
X198300000Y-114660000D01*
X169076001Y-125299999D02*
X170696057Y-126920055D01*
X128279936Y-124220064D02*
X135153232Y-124220064D01*
X180561724Y-126920055D02*
X180571778Y-126930109D01*
X127724999Y-124775001D02*
X128279936Y-124220064D01*
X180571778Y-126930109D02*
X182126474Y-126930109D01*
X135153232Y-124220064D02*
X135158309Y-124214987D01*
X198270000Y-119956702D02*
X198270000Y-118905501D01*
X135158309Y-124214987D02*
X136091691Y-124214987D01*
X136091691Y-124214987D02*
X137176703Y-125299999D01*
X110228501Y-124775001D02*
X127724999Y-124775001D01*
X170696057Y-126920055D02*
X180561724Y-126920055D01*
X200260000Y-116040000D02*
X198880000Y-114660000D01*
X137176703Y-125299999D02*
X169076001Y-125299999D01*
X91000723Y-117304990D02*
X91075650Y-117230063D01*
X166150657Y-121374955D02*
X168642709Y-121374955D01*
X91075650Y-117230063D02*
X107455864Y-117230063D01*
X107455864Y-117230063D02*
X110290802Y-120065001D01*
X186882141Y-123780042D02*
X187492192Y-123169991D01*
X110290802Y-120065001D02*
X124380977Y-120065001D01*
X164453924Y-119678222D02*
X166150657Y-121374955D01*
X168817699Y-121549945D02*
X169813747Y-121549945D01*
X169813747Y-121549945D02*
X172043844Y-123780042D01*
X124767756Y-119678222D02*
X164453924Y-119678222D01*
X90576459Y-117304990D02*
X91000723Y-117304990D01*
X124380977Y-120065001D02*
X124767756Y-119678222D01*
X172043844Y-123780042D02*
X186882141Y-123780042D01*
X168642709Y-121374955D02*
X168817699Y-121549945D01*
X187492192Y-121947808D02*
X188300000Y-121140000D01*
X187492192Y-123169991D02*
X187492192Y-121947808D01*
X188078998Y-121140000D02*
X188300000Y-121140000D01*
X186240000Y-116200000D02*
X186240000Y-119301002D01*
X187270000Y-114160000D02*
X187270000Y-115170000D01*
X186220000Y-113110000D02*
X187270000Y-114160000D01*
X184340000Y-113110000D02*
X186220000Y-113110000D01*
X183520000Y-112290000D02*
X184340000Y-113110000D01*
X168070000Y-89770000D02*
X168070000Y-90194264D01*
X187270000Y-115170000D02*
X186240000Y-116200000D01*
X168070000Y-90194264D02*
X167920166Y-90344098D01*
X186240000Y-119301002D02*
X188078998Y-121140000D01*
X167920166Y-90344098D02*
X167920166Y-92366295D01*
X173810000Y-101510000D02*
X177451901Y-105151901D01*
X167920166Y-92366295D02*
X168690000Y-93136129D01*
X168690000Y-93136129D02*
X168690000Y-98990000D01*
X177451901Y-106586201D02*
X180425700Y-109560000D01*
X171210000Y-101510000D02*
X173810000Y-101510000D01*
X168690000Y-98990000D02*
X171210000Y-101510000D01*
X177451901Y-105151901D02*
X177451901Y-106586201D01*
X180425700Y-109560000D02*
X181910000Y-109560000D01*
X181910000Y-109560000D02*
X183520000Y-111170000D01*
X183520000Y-111170000D02*
X183520000Y-112290000D01*
X162864679Y-121124977D02*
X141324379Y-121124977D01*
X188350560Y-124980075D02*
X171546777Y-124980075D01*
X85319978Y-118680022D02*
X84063599Y-119936401D01*
X84063599Y-119936401D02*
X83303599Y-119936401D01*
X83303599Y-119936401D02*
X82440000Y-120800000D01*
X164314690Y-122574988D02*
X162864679Y-121124977D01*
X168145642Y-122574988D02*
X164314690Y-122574988D01*
X106978670Y-118449969D02*
X93252931Y-118449969D01*
X137641709Y-122341811D02*
X136564932Y-121265034D01*
X169316680Y-122749978D02*
X168320632Y-122749978D01*
X109793735Y-121265034D02*
X106978670Y-118449969D01*
X168320632Y-122749978D02*
X168145642Y-122574988D01*
X171546777Y-124980075D02*
X169316680Y-122749978D01*
X189700011Y-123630624D02*
X188350560Y-124980075D01*
X93252931Y-118449969D02*
X93022878Y-118680022D01*
X93022878Y-118680022D02*
X85319978Y-118680022D01*
X141324379Y-121124977D02*
X140107545Y-122341811D01*
X136564932Y-121265034D02*
X109793735Y-121265034D01*
X140107545Y-122341811D02*
X137641709Y-122341811D01*
X168477020Y-121774966D02*
X168652010Y-121949956D01*
X171878155Y-124180053D02*
X187489947Y-124180053D01*
X81200000Y-118278686D02*
X83691314Y-118278686D01*
X168652010Y-121949956D02*
X169648058Y-121949956D01*
X187489947Y-124180053D02*
X189290000Y-122380000D01*
X83691314Y-118278686D02*
X84090000Y-117880000D01*
X84090000Y-117880000D02*
X92691500Y-117880000D01*
X110125113Y-120465012D02*
X136896310Y-120465012D01*
X189750001Y-115515701D02*
X189750001Y-115209999D01*
X92691500Y-117880000D02*
X92921553Y-117649947D01*
X92921553Y-117649947D02*
X107310048Y-117649947D01*
X190250000Y-116015700D02*
X189750001Y-115515701D01*
X190250000Y-119710000D02*
X190250000Y-116015700D01*
X189290000Y-120670000D02*
X190250000Y-119710000D01*
X163196057Y-120324955D02*
X164646068Y-121774966D01*
X189750001Y-115209999D02*
X190300000Y-114660000D01*
X140993001Y-120324955D02*
X163196057Y-120324955D01*
X164646068Y-121774966D02*
X168477020Y-121774966D01*
X169648058Y-121949956D02*
X171878155Y-124180053D01*
X139776167Y-121541789D02*
X140993001Y-120324955D01*
X137973087Y-121541789D02*
X139776167Y-121541789D01*
X136896310Y-120465012D02*
X137973087Y-121541789D01*
X107310048Y-117649947D02*
X110125113Y-120465012D01*
X189290000Y-122380000D02*
X189290000Y-120670000D01*
X185270000Y-119170000D02*
X185300000Y-119140000D01*
X185270000Y-122430000D02*
X185270000Y-119170000D01*
X184719980Y-122980020D02*
X185270000Y-122430000D01*
X172375222Y-122980020D02*
X184719980Y-122980020D01*
X83828622Y-117009978D02*
X89454767Y-117009978D01*
X89454767Y-117009978D02*
X90234701Y-116230044D01*
X170145125Y-120749923D02*
X172375222Y-122980020D01*
X90234701Y-116230044D02*
X121686746Y-116230044D01*
X121686746Y-116230044D02*
X123324202Y-117867500D01*
X78675000Y-117025000D02*
X83813600Y-117025000D01*
X123324202Y-117867500D02*
X124204202Y-117867500D01*
X168974087Y-120574933D02*
X169149077Y-120749923D01*
X124204202Y-117867500D02*
X125206670Y-118869968D01*
X125206670Y-118869968D02*
X164777069Y-118869969D01*
X83813600Y-117025000D02*
X83828622Y-117009978D01*
X164777069Y-118869969D02*
X166482035Y-120574933D01*
X166482035Y-120574933D02*
X168974087Y-120574933D01*
X169149077Y-120749923D02*
X170145125Y-120749923D01*
X180388998Y-112970000D02*
X184540000Y-117121002D01*
X180020000Y-112970000D02*
X180388998Y-112970000D01*
X178011811Y-109761811D02*
X179230000Y-110980000D01*
X184540000Y-118380000D02*
X185300000Y-119140000D01*
X177324999Y-109761811D02*
X178011811Y-109761811D01*
X176104999Y-108541811D02*
X177324999Y-109761811D01*
X184540000Y-117121002D02*
X184540000Y-118380000D01*
X179230000Y-112180000D02*
X180020000Y-112970000D01*
X176104999Y-108151811D02*
X176104999Y-108541811D01*
X179230000Y-110980000D02*
X179230000Y-112180000D01*
X173201264Y-105248076D02*
X176104999Y-108151811D01*
X143859999Y-121924999D02*
X160051001Y-121924999D01*
X78498601Y-119661399D02*
X80709327Y-119661399D01*
X88783609Y-120431544D02*
X89735109Y-119480044D01*
X93354256Y-119480044D02*
X93584309Y-119249991D01*
X180893102Y-126120033D02*
X180903156Y-126130087D01*
X77360000Y-120800000D02*
X78498601Y-119661399D01*
X160051001Y-121924999D02*
X162326003Y-124200001D01*
X110812266Y-123414965D02*
X142370033Y-123414965D01*
X182205161Y-125720022D02*
X190011563Y-125720022D01*
X80709327Y-119661399D02*
X81301399Y-120253471D01*
X81301399Y-120253471D02*
X81301399Y-121346529D01*
X81301399Y-121346529D02*
X81893471Y-121938601D01*
X190011563Y-125720022D02*
X192549991Y-123181594D01*
X142370033Y-123414965D02*
X143859999Y-121924999D01*
X168481855Y-124300000D02*
X169520000Y-124300000D01*
X168381856Y-124200001D02*
X168481855Y-124300000D01*
X181795096Y-126130087D02*
X182205161Y-125720022D01*
X106647292Y-119249991D02*
X110812266Y-123414965D01*
X93584309Y-119249991D02*
X106647292Y-119249991D01*
X180903156Y-126130087D02*
X181795096Y-126130087D01*
X89735109Y-119480044D02*
X93354256Y-119480044D01*
X88783609Y-121221521D02*
X88783609Y-120431544D01*
X171340033Y-126120033D02*
X180893102Y-126120033D01*
X81893471Y-121938601D02*
X88066529Y-121938601D01*
X162326003Y-124200001D02*
X168381856Y-124200001D01*
X169520000Y-124300000D02*
X171340033Y-126120033D01*
X88066529Y-121938601D02*
X88783609Y-121221521D01*
X171875000Y-102150000D02*
X164425000Y-102150000D01*
X78223599Y-113503599D02*
X77360000Y-112640000D01*
X181175000Y-110425000D02*
X180300000Y-110425000D01*
X175775000Y-106050000D02*
X171875000Y-102150000D01*
X180300000Y-110425000D02*
X175925000Y-106050000D01*
X175925000Y-106050000D02*
X175775000Y-106050000D01*
X164425000Y-102150000D02*
X163750000Y-101475000D01*
X82614312Y-115279988D02*
X79999988Y-115279988D01*
X163750000Y-101475000D02*
X161100000Y-101475000D01*
X147625000Y-102825000D02*
X138460011Y-111989989D01*
X79999988Y-115279988D02*
X78223599Y-113503599D01*
X83674311Y-114219989D02*
X82614312Y-115279988D01*
X120848611Y-114219989D02*
X83674311Y-114219989D01*
X138460011Y-111989989D02*
X123078611Y-111989989D01*
X161100000Y-101475000D02*
X159750000Y-102825000D01*
X159750000Y-102825000D02*
X147625000Y-102825000D01*
X123078611Y-111989989D02*
X120848611Y-114219989D01*
X76000000Y-122160000D02*
X76000000Y-120474870D01*
X168311331Y-122174977D02*
X168486321Y-122349967D01*
X163030368Y-120724966D02*
X164480379Y-122174977D01*
X139941856Y-121941800D02*
X141158690Y-120724966D01*
X141158690Y-120724966D02*
X163030368Y-120724966D01*
X107144359Y-118049958D02*
X109959424Y-120865023D01*
X74820000Y-123340000D02*
X76000000Y-122160000D01*
X136730621Y-120865023D02*
X137807398Y-121941800D01*
X77874870Y-118600000D02*
X80670312Y-118600000D01*
X84580613Y-118853687D02*
X85154289Y-118280011D01*
X93087242Y-118049958D02*
X107144359Y-118049958D01*
X92857189Y-118280011D02*
X93087242Y-118049958D01*
X137807398Y-121941800D02*
X139941856Y-121941800D01*
X187931336Y-124580064D02*
X189791389Y-122720011D01*
X85154289Y-118280011D02*
X92857189Y-118280011D01*
X76000000Y-120474870D02*
X77874870Y-118600000D01*
X171712466Y-124580064D02*
X187931336Y-124580064D01*
X80670312Y-118600000D02*
X80923999Y-118853687D01*
X109959424Y-120865023D02*
X136730621Y-120865023D01*
X168486321Y-122349967D02*
X169482369Y-122349967D01*
X164480379Y-122174977D02*
X168311331Y-122174977D01*
X169482369Y-122349967D02*
X171712466Y-124580064D01*
X80923999Y-118853687D02*
X84580613Y-118853687D01*
X189791389Y-122720011D02*
X190219989Y-122720011D01*
X190219989Y-122720011D02*
X191200000Y-121740000D01*
X191200000Y-121740000D02*
X191200000Y-120850000D01*
X192125001Y-117834999D02*
X193300000Y-116660000D01*
X192125001Y-119924999D02*
X192125001Y-117834999D01*
X191200000Y-120850000D02*
X192125001Y-119924999D01*
X193300000Y-116660000D02*
X193300000Y-113777595D01*
X193300000Y-113777595D02*
X194145010Y-112932585D01*
X92591401Y-124478601D02*
X93037756Y-124924956D01*
X73600000Y-123787200D02*
X74291401Y-124478601D01*
X134763984Y-125175012D02*
X135323998Y-124614998D01*
X109812756Y-124924956D02*
X110062812Y-125175012D01*
X72280000Y-120800000D02*
X73600000Y-122120000D01*
X135876002Y-124614998D02*
X136198329Y-124937325D01*
X136198329Y-125257975D02*
X136198329Y-125682239D01*
X93037756Y-124924956D02*
X109812756Y-124924956D01*
X74291401Y-124478601D02*
X92591401Y-124478601D01*
X110062812Y-125175012D02*
X134763984Y-125175012D01*
X136198329Y-124937325D02*
X136198329Y-125257975D01*
X135323998Y-124614998D02*
X135876002Y-124614998D01*
X73600000Y-122120000D02*
X73600000Y-123787200D01*
X197325000Y-114856002D02*
X196190000Y-115991002D01*
X194720000Y-93010000D02*
X193420000Y-94310000D01*
X196740000Y-82299997D02*
X194720000Y-84319997D01*
X198200000Y-110545391D02*
X198200000Y-113025000D01*
X197245649Y-109591040D02*
X198200000Y-110545391D01*
X196190000Y-115991002D02*
X196190000Y-118250000D01*
X194720000Y-84319997D02*
X194720000Y-93010000D01*
X193420000Y-109130000D02*
X193881040Y-109591040D01*
X196190000Y-118250000D02*
X195300000Y-119140000D01*
X193420000Y-94310000D02*
X193420000Y-109130000D01*
X198200000Y-113025000D02*
X197325000Y-113900000D01*
X197325000Y-113900000D02*
X197325000Y-114856002D01*
X193881040Y-109591040D02*
X197245649Y-109591040D01*
X109647067Y-125324967D02*
X109912099Y-125589999D01*
X135179999Y-125589999D02*
X135249999Y-125519999D01*
X92872067Y-125324967D02*
X109647067Y-125324967D01*
X109912099Y-125589999D02*
X135179999Y-125589999D01*
X72280000Y-123340000D02*
X73143599Y-124203599D01*
X92425712Y-124878612D02*
X92872067Y-125324967D01*
X74125712Y-124878612D02*
X92425712Y-124878612D01*
X73450699Y-124203599D02*
X74125712Y-124878612D01*
X73143599Y-124203599D02*
X73450699Y-124203599D01*
X135249999Y-125519999D02*
X135549998Y-125220000D01*
X173200000Y-116660000D02*
X173300000Y-116660000D01*
X172260000Y-117600000D02*
X173200000Y-116660000D01*
X169400000Y-117200000D02*
X169800000Y-117600000D01*
X163584300Y-117200000D02*
X169400000Y-117200000D01*
X159189299Y-112804999D02*
X163584300Y-117200000D01*
X121169989Y-115030011D02*
X123395001Y-112804999D01*
X169800000Y-117600000D02*
X172260000Y-117600000D01*
X123395001Y-112804999D02*
X159189299Y-112804999D01*
X83995689Y-115030011D02*
X121169989Y-115030011D01*
X82895689Y-116130011D02*
X83995689Y-115030011D01*
X68155011Y-116130011D02*
X82895689Y-116130011D01*
X67200000Y-115175000D02*
X68155011Y-116130011D01*
X176168457Y-127495065D02*
X176592721Y-127495065D01*
X92706378Y-125724978D02*
X109481378Y-125724978D01*
X92260023Y-125278623D02*
X92706378Y-125724978D01*
X169316703Y-126550001D02*
X170261767Y-127495065D01*
X73960023Y-125278623D02*
X92260023Y-125278623D01*
X138336360Y-126257240D02*
X138693620Y-125899980D01*
X135859324Y-126194236D02*
X135922328Y-126257240D01*
X73556378Y-124874978D02*
X73960023Y-125278623D01*
X109950636Y-126194236D02*
X135859324Y-126194236D01*
X168168234Y-126194236D02*
X168523999Y-126550001D01*
X160200636Y-126194236D02*
X168168234Y-126194236D01*
X159906380Y-125899980D02*
X160200636Y-126194236D01*
X170261767Y-127495065D02*
X176168457Y-127495065D01*
X168523999Y-126550001D02*
X169316703Y-126550001D01*
X138693620Y-125899980D02*
X159906380Y-125899980D01*
X109481378Y-125724978D02*
X109950636Y-126194236D01*
X68734978Y-124874978D02*
X73556378Y-124874978D01*
X135922328Y-126257240D02*
X138336360Y-126257240D01*
X67200000Y-123340000D02*
X68734978Y-124874978D01*
X56925033Y-126925033D02*
X54300000Y-124300000D01*
X112350998Y-136100000D02*
X77935843Y-136100000D01*
X62377933Y-127000033D02*
X62302933Y-126925033D01*
X60520000Y-119200000D02*
X61256401Y-119936401D01*
X114974999Y-137125001D02*
X113375999Y-137125001D01*
X67977933Y-127000033D02*
X62377933Y-127000033D01*
X56200000Y-119200000D02*
X60520000Y-119200000D01*
X116000000Y-136100000D02*
X114974999Y-137125001D01*
X113375999Y-137125001D02*
X112350998Y-136100000D01*
X54300000Y-121100000D02*
X56200000Y-119200000D01*
X61256401Y-119936401D02*
X62120000Y-120800000D01*
X77760832Y-135924989D02*
X76902889Y-135924989D01*
X77935843Y-136100000D02*
X77760832Y-135924989D01*
X76902889Y-135924989D02*
X67977933Y-127000033D01*
X54300000Y-124300000D02*
X54300000Y-121100000D01*
X62302933Y-126925033D02*
X56925033Y-126925033D01*
X149621377Y-133078623D02*
X176111523Y-133078623D01*
X201175736Y-126175000D02*
X201600000Y-126175000D01*
X176111523Y-133078623D02*
X176992933Y-133960033D01*
X197408257Y-126966743D02*
X198200000Y-126175000D01*
X176992933Y-133960033D02*
X192627067Y-133960033D01*
X198200000Y-126175000D02*
X201175736Y-126175000D01*
X142500000Y-140200000D02*
X149621377Y-133078623D01*
X192627067Y-133960033D02*
X197408257Y-129178843D01*
X197408257Y-129178843D02*
X197408257Y-126966743D01*
X62120000Y-124561314D02*
X62120000Y-123340000D01*
X72775000Y-125800000D02*
X63358686Y-125800000D01*
X63358686Y-125800000D02*
X62120000Y-124561314D01*
X73053645Y-126078645D02*
X72775000Y-125800000D01*
X91928645Y-126078645D02*
X73053645Y-126078645D01*
X125375000Y-127200000D02*
X109375000Y-127200000D01*
X95450000Y-126525000D02*
X95325000Y-126650000D01*
X109375000Y-127200000D02*
X108700000Y-126525000D01*
X108700000Y-126525000D02*
X95450000Y-126525000D01*
X95325000Y-126650000D02*
X92500000Y-126650000D01*
X92500000Y-126650000D02*
X91928645Y-126078645D01*
X200730000Y-122390000D02*
X201300000Y-121820000D01*
X201300000Y-121820000D02*
X201300000Y-119140000D01*
X192070000Y-132760000D02*
X195682350Y-129147650D01*
X125375000Y-127200000D02*
X138525000Y-127200000D01*
X139000000Y-126725000D02*
X143225000Y-126725000D01*
X143225000Y-126725000D02*
X143450000Y-126950000D01*
X159825000Y-126950000D02*
X164725000Y-131850000D01*
X164725000Y-131850000D02*
X176580000Y-131850000D01*
X176580000Y-131850000D02*
X177490000Y-132760000D01*
X195682350Y-129147650D02*
X195682350Y-126556021D01*
X138525000Y-127200000D02*
X139000000Y-126725000D01*
X143450000Y-126950000D02*
X159825000Y-126950000D01*
X199848371Y-122390000D02*
X200730000Y-122390000D01*
X195682350Y-126556021D02*
X199848371Y-122390000D01*
X177490000Y-132760000D02*
X192070000Y-132760000D01*
X186300000Y-122770000D02*
X186300000Y-121140000D01*
X185689969Y-123380031D02*
X186300000Y-122770000D01*
X172209533Y-123380031D02*
X185689969Y-123380031D01*
X169979436Y-121149934D02*
X172209533Y-123380031D01*
X59520000Y-117700000D02*
X83704300Y-117700000D01*
X83704300Y-117700000D02*
X83994311Y-117409989D01*
X83994311Y-117409989D02*
X89620456Y-117409989D01*
X89620456Y-117409989D02*
X90400390Y-116630055D01*
X90400390Y-116630055D02*
X121521057Y-116630055D01*
X121521057Y-116630055D02*
X123158513Y-118267511D01*
X166316346Y-120974944D02*
X168808398Y-120974944D01*
X168983388Y-121149934D02*
X169979436Y-121149934D01*
X123158513Y-118267511D02*
X124038513Y-118267511D01*
X124038513Y-118267511D02*
X125049213Y-119278211D01*
X125049213Y-119278211D02*
X164619612Y-119278211D01*
X164619612Y-119278211D02*
X166316346Y-120974944D01*
X168808398Y-120974944D02*
X168983388Y-121149934D01*
X68843620Y-127300020D02*
X68143622Y-126600022D01*
X90518622Y-128000022D02*
X89818620Y-127300020D01*
X89818620Y-127300020D02*
X68843620Y-127300020D01*
X62543622Y-126600022D02*
X62468622Y-126525022D01*
X117600000Y-133201061D02*
X112398961Y-128000022D01*
X117600000Y-136100000D02*
X117600000Y-133201061D01*
X55200000Y-123100000D02*
X56200000Y-122100000D01*
X62468622Y-126525022D02*
X57225022Y-126525022D01*
X68143622Y-126600022D02*
X62543622Y-126600022D01*
X57225022Y-126525022D02*
X55200000Y-124500000D01*
X58716401Y-122476401D02*
X59580000Y-123340000D01*
X56200000Y-122100000D02*
X58340000Y-122100000D01*
X112398961Y-128000022D02*
X90518622Y-128000022D01*
X58340000Y-122100000D02*
X58716401Y-122476401D01*
X55200000Y-124500000D02*
X55200000Y-123100000D01*
X196657362Y-129364038D02*
X196657362Y-127070549D01*
X176277212Y-132678612D02*
X177158622Y-133560022D01*
X177158622Y-133560022D02*
X192461378Y-133560022D01*
X147321388Y-132678612D02*
X176277212Y-132678612D01*
X142500000Y-137500000D02*
X147321388Y-132678612D01*
X192461378Y-133560022D02*
X196657362Y-129364038D01*
X62634311Y-126125012D02*
X62709311Y-126200012D01*
X59825011Y-126125011D02*
X62634311Y-126125012D01*
X68309311Y-126200012D02*
X69009308Y-126900010D01*
X69009308Y-126900010D02*
X89984309Y-126900010D01*
X112564650Y-127600012D02*
X118799998Y-133835360D01*
X118799998Y-133835360D02*
X118799998Y-135675736D01*
X62709311Y-126200012D02*
X68309311Y-126200012D01*
X57040000Y-123340000D02*
X59825011Y-126125011D01*
X89984309Y-126900010D02*
X90684310Y-127600012D01*
X118799998Y-135675736D02*
X118799998Y-136100000D01*
X90684310Y-127600012D02*
X112564650Y-127600012D01*
X176442901Y-132278601D02*
X177324311Y-133160011D01*
X197019537Y-125798281D02*
X197331468Y-125798281D01*
X196082361Y-129373339D02*
X196082361Y-126735457D01*
X196082361Y-126735457D02*
X197019537Y-125798281D01*
X142600000Y-134700000D02*
X145021399Y-132278601D01*
X177324311Y-133160011D02*
X192295689Y-133160011D01*
X145021399Y-132278601D02*
X176442901Y-132278601D01*
X192295689Y-133160011D02*
X196082361Y-129373339D01*
D51*
X54150001Y-196060001D02*
X55000000Y-196910000D01*
X93250000Y-107300000D02*
X52830000Y-107300000D01*
X104044998Y-90025002D02*
X104044998Y-96505002D01*
X52830000Y-107300000D02*
X51210000Y-108920000D01*
X51210000Y-108920000D02*
X51210000Y-193120000D01*
X111975000Y-82095000D02*
X104044998Y-90025002D01*
X104044998Y-96505002D02*
X93250000Y-107300000D01*
X112225000Y-82095000D02*
X111975000Y-82095000D01*
X51210000Y-193120000D02*
X54150001Y-196060001D01*
D50*
X210710000Y-72810000D02*
X199711002Y-72810000D01*
X195835000Y-72810000D02*
X191808998Y-72810000D01*
X196326542Y-73301542D02*
X195835000Y-72810000D01*
X198606001Y-73915001D02*
X197873936Y-73915001D01*
X187419182Y-84978087D02*
X187119183Y-85278086D01*
X197873936Y-73915001D02*
X197260477Y-73301542D01*
X188045002Y-84352267D02*
X187419182Y-84978087D01*
X197260477Y-73301542D02*
X196326542Y-73301542D01*
X191808998Y-72810000D02*
X188045002Y-76573996D01*
X199711002Y-72810000D02*
X198606001Y-73915001D01*
X188045002Y-76573996D02*
X188045002Y-84352267D01*
X196395797Y-110405378D02*
X196694797Y-110704378D01*
X196694797Y-110704378D02*
X196694797Y-111230203D01*
X188660000Y-93710000D02*
X192880000Y-97930000D01*
X188390000Y-115861312D02*
X188390000Y-118230000D01*
X192880000Y-109280000D02*
X194005378Y-110405378D01*
X196194999Y-111730001D02*
X191549999Y-111730001D01*
X189300000Y-113980000D02*
X189300000Y-114951312D01*
X188390000Y-118230000D02*
X189300000Y-119140000D01*
X189300000Y-114951312D02*
X188390000Y-115861312D01*
X191549999Y-111730001D02*
X189300000Y-113980000D01*
X194005378Y-110405378D02*
X196395797Y-110405378D01*
X196694797Y-111230203D02*
X196194999Y-111730001D01*
X192880000Y-97930000D02*
X192880000Y-109280000D01*
X167360000Y-118450000D02*
X167310000Y-118500000D01*
X169360000Y-118450000D02*
X167360000Y-118450000D01*
X169730000Y-118080000D02*
X169360000Y-118450000D01*
X174240000Y-118080000D02*
X169730000Y-118080000D01*
X175300000Y-119140000D02*
X174240000Y-118080000D01*
X175400000Y-115250000D02*
X176220000Y-116070000D01*
X176220000Y-118220000D02*
X175300000Y-119140000D01*
X176220000Y-116070000D02*
X176220000Y-118220000D01*
X175400000Y-114018583D02*
X175400000Y-115250000D01*
X173457258Y-112075841D02*
X175400000Y-114018583D01*
X173457258Y-112044071D02*
X173457258Y-112075841D01*
X188631893Y-101920000D02*
X191463123Y-104751230D01*
X179400000Y-94900000D02*
X179820000Y-95320000D01*
X182943414Y-101920000D02*
X188631893Y-101920000D01*
X181955494Y-100932080D02*
X182943414Y-101920000D01*
X181380237Y-99796178D02*
X181422172Y-99796178D01*
X179820000Y-95320000D02*
X179820000Y-98235941D01*
X191463123Y-104751230D02*
X191763122Y-105051229D01*
X181955494Y-100329500D02*
X181955494Y-100932080D01*
X181422172Y-99796178D02*
X181955494Y-100329500D01*
X179820000Y-98235941D02*
X181380237Y-99796178D01*
X195474999Y-113053527D02*
X197269646Y-111258880D01*
X194450000Y-119767817D02*
X194450000Y-116081000D01*
X195474999Y-115056001D02*
X195474999Y-113053527D01*
X197269646Y-111258880D02*
X197269646Y-110466041D01*
X192300000Y-121140000D02*
X193077817Y-121140000D01*
X194450000Y-116081000D02*
X195474999Y-115056001D01*
X193077817Y-121140000D02*
X194450000Y-119767817D01*
X197269646Y-110466041D02*
X196969647Y-110166042D01*
X169330000Y-112270000D02*
X170850000Y-112270000D01*
X168420000Y-113180000D02*
X169330000Y-112270000D01*
X171950000Y-112270000D02*
X170850000Y-112270000D01*
X173300000Y-113620000D02*
X171950000Y-112270000D01*
X173300000Y-114881002D02*
X173300000Y-113620000D01*
X175078998Y-116660000D02*
X173300000Y-114881002D01*
X175300000Y-116660000D02*
X175078998Y-116660000D01*
X167440000Y-111180000D02*
X171425010Y-111180000D01*
X166780000Y-111840000D02*
X167440000Y-111180000D01*
X175930000Y-114290000D02*
X176300000Y-114660000D01*
X175930000Y-113982883D02*
X175930000Y-114290000D01*
X174032259Y-111768070D02*
X174032259Y-112085142D01*
X173444189Y-111180000D02*
X174032259Y-111768070D01*
X174032259Y-112085142D02*
X175930000Y-113982883D01*
X171425010Y-111180000D02*
X173444189Y-111180000D01*
X165574693Y-107094693D02*
X165574693Y-106017445D01*
X174522262Y-109730000D02*
X168210000Y-109730000D01*
X175949967Y-112017478D02*
X175949967Y-111157705D01*
X168210000Y-109730000D02*
X165574693Y-107094693D01*
X165574693Y-106017445D02*
X165452580Y-105895332D01*
X175949967Y-111157705D02*
X174522262Y-109730000D01*
X165452580Y-105895332D02*
X165152581Y-105595333D01*
X164853209Y-106938909D02*
X164853209Y-106707270D01*
X168044311Y-110130011D02*
X164853209Y-106938909D01*
X164853209Y-106707270D02*
X164853209Y-106283006D01*
X174078050Y-110130011D02*
X168044311Y-110130011D01*
X175146482Y-111198443D02*
X174078050Y-110130011D01*
X174607269Y-111837757D02*
X174607269Y-111413493D01*
X173723798Y-110530022D02*
X167781016Y-110530022D01*
X167781016Y-110530022D02*
X163703198Y-106452204D01*
X174607269Y-111413493D02*
X173723798Y-110530022D01*
X163703198Y-106452204D02*
X163703198Y-106027940D01*
X179785703Y-114145703D02*
X180300000Y-114660000D01*
X179785703Y-113554305D02*
X179785703Y-114145703D01*
X178811380Y-112579980D02*
X179785703Y-113554305D01*
X177324999Y-111972001D02*
X177932978Y-112579980D01*
X175704988Y-109014988D02*
X177324999Y-110634999D01*
X177324999Y-110634999D02*
X177324999Y-111972001D01*
X172270000Y-104800000D02*
X172270000Y-105130000D01*
X172270000Y-105130000D02*
X175704988Y-108564988D01*
X170650000Y-103180000D02*
X172270000Y-104800000D01*
X177932978Y-112579980D02*
X178811380Y-112579980D01*
X164110000Y-103180000D02*
X170650000Y-103180000D01*
X175704988Y-108564988D02*
X175704988Y-109014988D01*
X163130000Y-102200000D02*
X164110000Y-103180000D01*
D51*
X115380000Y-88190000D02*
X121880001Y-81689999D01*
X93546264Y-107875000D02*
X104950011Y-96471253D01*
X104950011Y-96309989D02*
X113070000Y-88190000D01*
X129370001Y-81689999D02*
X129670000Y-81390000D01*
X121880001Y-81689999D02*
X129370001Y-81689999D01*
X53885000Y-107875000D02*
X93546264Y-107875000D01*
X52300000Y-109460000D02*
X53885000Y-107875000D01*
X113070000Y-88190000D02*
X115380000Y-88190000D01*
X104950011Y-96471253D02*
X104950011Y-96309989D01*
X52300000Y-179900000D02*
X52300000Y-109460000D01*
D50*
X171000000Y-99850000D02*
X173225000Y-99850000D01*
X171350000Y-92777183D02*
X171350000Y-97900000D01*
X195660178Y-110839999D02*
X195960177Y-111139998D01*
X171168991Y-92596174D02*
X171350000Y-92777183D01*
X171350000Y-97900000D02*
X170600000Y-98650000D01*
X173225000Y-99850000D02*
X178575000Y-105200000D01*
X170600000Y-98650000D02*
X170600000Y-99450000D01*
X180675000Y-105200000D02*
X186314999Y-110839999D01*
X186314999Y-110839999D02*
X195660178Y-110839999D01*
X178575000Y-105200000D02*
X180675000Y-105200000D01*
X171168991Y-87437822D02*
X171168991Y-92596174D01*
X170600000Y-99450000D02*
X171000000Y-99850000D01*
X195960177Y-111139998D02*
X196119795Y-110980380D01*
X111110000Y-99690000D02*
X111110000Y-96100000D01*
X108300000Y-101110000D02*
X109690000Y-101110000D01*
X111110000Y-96100000D02*
X116473788Y-90736212D01*
X116473788Y-90736212D02*
X121634790Y-90736212D01*
X121634790Y-90736212D02*
X127230000Y-85141002D01*
X109690000Y-101110000D02*
X111110000Y-99690000D01*
X127230000Y-85141002D02*
X127230000Y-84814264D01*
X127230000Y-84814264D02*
X127230000Y-84390000D01*
X116454882Y-88930000D02*
X115939849Y-89445033D01*
X109610000Y-100430000D02*
X108314264Y-100430000D01*
X126840000Y-83040000D02*
X120950000Y-88930000D01*
X108314264Y-100430000D02*
X107890000Y-100430000D01*
X115939849Y-89445033D02*
X115694967Y-89445033D01*
X110570000Y-99470000D02*
X109610000Y-100430000D01*
X120950000Y-88930000D02*
X116454882Y-88930000D01*
X115694967Y-89445033D02*
X110570000Y-94570000D01*
X110570000Y-94570000D02*
X110570000Y-99470000D01*
X108605998Y-99739051D02*
X108181734Y-99739051D01*
X125640000Y-83060000D02*
X120610000Y-88090000D01*
X115284978Y-89045022D02*
X109960000Y-94370000D01*
X109960000Y-98385049D02*
X108605998Y-99739051D01*
X116729182Y-88090000D02*
X115774160Y-89045022D01*
X109960000Y-94370000D02*
X109960000Y-98385049D01*
X120610000Y-88090000D02*
X116729182Y-88090000D01*
X115774160Y-89045022D02*
X115284978Y-89045022D01*
X124340000Y-83080000D02*
X121173482Y-83080000D01*
X121173482Y-83080000D02*
X115608471Y-88645011D01*
X115608471Y-88645011D02*
X114874989Y-88645011D01*
X114874989Y-88645011D02*
X109360000Y-94160000D01*
X109360000Y-98261785D02*
X108457736Y-99164049D01*
X109360000Y-94160000D02*
X109360000Y-98261785D01*
X107974264Y-99100000D02*
X107550000Y-99100000D01*
X108038313Y-99164049D02*
X107974264Y-99100000D01*
X108457736Y-99164049D02*
X108038313Y-99164049D01*
X70230000Y-90095736D02*
X70230000Y-90520000D01*
X70125000Y-89990736D02*
X70230000Y-90095736D01*
X70700000Y-86670000D02*
X70125000Y-87245000D01*
X70125000Y-87245000D02*
X70125000Y-89990736D01*
X192754999Y-87685001D02*
X192754999Y-77579430D01*
X192754999Y-77579430D02*
X192829756Y-77504673D01*
X192829756Y-77504673D02*
X192829756Y-77080409D01*
X192040000Y-88400000D02*
X192754999Y-87685001D01*
X191103130Y-76985136D02*
X191403129Y-77285135D01*
X191403129Y-77285135D02*
X191403129Y-83378271D01*
X191403129Y-83378271D02*
X186266889Y-88514511D01*
X185454763Y-88514511D02*
X185030499Y-88514511D01*
X186266889Y-88514511D02*
X185454763Y-88514511D01*
X186665700Y-87550000D02*
X189656684Y-84559016D01*
X185050000Y-87550000D02*
X186665700Y-87550000D01*
X190425431Y-78395893D02*
X190425431Y-77971629D01*
X189656684Y-79663316D02*
X190425431Y-78894569D01*
X190425431Y-78894569D02*
X190425431Y-78395893D01*
X189656684Y-84559016D02*
X189656684Y-79663316D01*
X182040022Y-97223320D02*
X184830423Y-100013721D01*
X181714338Y-92300808D02*
X182040022Y-92626492D01*
X182040022Y-92626492D02*
X182040022Y-97223320D01*
X184830423Y-100326311D02*
X184830423Y-100750575D01*
X181714338Y-89684338D02*
X181714338Y-92300808D01*
X181140000Y-89110000D02*
X181714338Y-89684338D01*
X184830423Y-100013721D02*
X184830423Y-100326311D01*
X185075294Y-86713624D02*
X185375293Y-87013623D01*
X189256673Y-79543726D02*
X188750231Y-79037284D01*
X188750231Y-79037284D02*
X188750231Y-78139372D01*
X186636377Y-87013623D02*
X189256673Y-84393327D01*
X188750231Y-78139372D02*
X188982234Y-77907369D01*
X188982234Y-77907369D02*
X189282233Y-77607370D01*
X189256673Y-84393327D02*
X189256673Y-79543726D01*
X185375293Y-87013623D02*
X186636377Y-87013623D01*
X181640011Y-97389009D02*
X183670000Y-99418998D01*
X181314327Y-92493181D02*
X181640011Y-92818865D01*
X183670000Y-99418998D02*
X183670000Y-100015736D01*
X181314327Y-90135331D02*
X181314327Y-92493181D01*
X179390000Y-87760000D02*
X179390000Y-88211004D01*
X181640011Y-92818865D02*
X181640011Y-97389009D01*
X179390000Y-88211004D02*
X181314327Y-90135331D01*
X183670000Y-100015736D02*
X183670000Y-100440000D01*
X191000433Y-80058565D02*
X190164999Y-80893999D01*
X190164999Y-80893999D02*
X190164999Y-81675554D01*
X191000433Y-77695627D02*
X191000433Y-80058565D01*
X190224807Y-76920001D02*
X191000433Y-77695627D01*
X190164999Y-81675554D02*
X190231686Y-81742241D01*
X188939999Y-76920001D02*
X190224807Y-76920001D01*
X188640000Y-77220000D02*
X188939999Y-76920001D01*
X186180000Y-80940000D02*
X186180000Y-81450000D01*
X186544990Y-85763832D02*
X186544990Y-86188096D01*
X186180000Y-81450000D02*
X186660000Y-81930000D01*
X186660000Y-84886265D02*
X186544181Y-85002084D01*
X187470000Y-77100000D02*
X187470000Y-79650000D01*
X186544181Y-85002084D02*
X186544181Y-85763023D01*
X187470000Y-79650000D02*
X186180000Y-80940000D01*
X186544181Y-85763023D02*
X186544990Y-85763832D01*
X186660000Y-81930000D02*
X186660000Y-84886265D01*
X182878602Y-103539678D02*
X183302866Y-103539678D01*
X177788505Y-100668391D02*
X180659792Y-103539678D01*
X180659792Y-103539678D02*
X182878602Y-103539678D01*
X186799169Y-79665131D02*
X186799169Y-77859679D01*
X186799169Y-77859679D02*
X186799169Y-77435415D01*
X186170000Y-90467200D02*
X184260000Y-88557200D01*
X186259989Y-82235689D02*
X185779989Y-81755689D01*
X184980144Y-94029856D02*
X186170000Y-92840000D01*
X185779989Y-81755689D02*
X185779989Y-80684311D01*
X185779989Y-80684311D02*
X186799169Y-79665131D01*
X186259989Y-84192811D02*
X186259989Y-82235689D01*
X184260000Y-86192800D02*
X186259989Y-84192811D01*
X184260000Y-88557200D02*
X184260000Y-86192800D01*
X186170000Y-92840000D02*
X186170000Y-90467200D01*
X195970000Y-98080000D02*
X196890000Y-97160000D01*
X196890000Y-97160000D02*
X196890000Y-86310000D01*
X196890000Y-86310000D02*
X200890000Y-82310000D01*
X200890000Y-82310000D02*
X200890000Y-75190000D01*
X200890000Y-75190000D02*
X200620000Y-74920000D01*
X185090033Y-94952933D02*
X184404998Y-94267898D01*
X191690000Y-100850000D02*
X190820000Y-99980000D01*
X184404998Y-93763998D02*
X184865487Y-93303509D01*
X189640000Y-99980000D02*
X185090033Y-95430033D01*
X184790000Y-80730000D02*
X182519978Y-78459978D01*
X183859989Y-86027111D02*
X184790000Y-85097100D01*
X185090033Y-95430033D02*
X185090033Y-94952933D01*
X184404998Y-94267898D02*
X184404998Y-93763998D01*
X190820000Y-99980000D02*
X189640000Y-99980000D01*
X184790000Y-85097100D02*
X184790000Y-80730000D01*
X184865487Y-93303509D02*
X184865487Y-89728387D01*
X184865487Y-89728387D02*
X183859989Y-88722889D01*
X176949999Y-77349999D02*
X176650000Y-77050000D01*
X183859989Y-88722889D02*
X183859989Y-86027111D01*
X178059978Y-78459978D02*
X176949999Y-77349999D01*
X182519978Y-78459978D02*
X178059978Y-78459978D01*
X183604976Y-94599276D02*
X183604976Y-93432620D01*
X184290011Y-95284311D02*
X183604976Y-94599276D01*
X184065465Y-90059765D02*
X183029969Y-89024269D01*
X183950000Y-84805700D02*
X183950000Y-81250000D01*
X184065465Y-92972131D02*
X184065465Y-90059765D01*
X185644311Y-97494311D02*
X184910011Y-97494311D01*
X183029969Y-85725731D02*
X183950000Y-84805700D01*
X175335488Y-78216317D02*
X175035489Y-77916318D01*
X188920000Y-100770000D02*
X185644311Y-97494311D01*
X183604976Y-93432620D02*
X184065465Y-92972131D01*
X183950000Y-81250000D02*
X181960000Y-79260000D01*
X183029969Y-89024269D02*
X183029969Y-85725731D01*
X184290011Y-96874311D02*
X184290011Y-95284311D01*
X184910011Y-97494311D02*
X184290011Y-96874311D01*
X176379171Y-79260000D02*
X175335488Y-78216317D01*
X181960000Y-79260000D02*
X176379171Y-79260000D01*
X184004987Y-93598309D02*
X184465476Y-93137820D01*
X184465476Y-93137820D02*
X184465476Y-89894076D01*
X184004987Y-94433587D02*
X184004987Y-93598309D01*
X184350011Y-80990011D02*
X182219989Y-78859989D01*
X184350011Y-84971389D02*
X184350011Y-80990011D01*
X190258406Y-100911594D02*
X189958407Y-100611595D01*
X175362393Y-77192393D02*
X174965496Y-77192393D01*
X183429980Y-85891420D02*
X184350011Y-84971389D01*
X174965496Y-77192393D02*
X174541232Y-77192393D01*
X177029989Y-78859989D02*
X175362393Y-77192393D01*
X183429980Y-88858580D02*
X183429980Y-85891420D01*
X184465476Y-89894076D02*
X183429980Y-88858580D01*
X182219989Y-78859989D02*
X177029989Y-78859989D01*
X189958407Y-100611595D02*
X189697277Y-100611595D01*
X189697277Y-100611595D02*
X184690022Y-95604340D01*
X184690022Y-95604340D02*
X184690022Y-95118622D01*
X184690022Y-95118622D02*
X184004987Y-94433587D01*
X187510000Y-100740000D02*
X183890000Y-97120000D01*
X173813187Y-77436468D02*
X173813187Y-77012204D01*
X183890000Y-95600000D02*
X182840044Y-94550044D01*
X176142959Y-79840000D02*
X173813187Y-77510228D01*
X182250000Y-84810000D02*
X182490000Y-84570000D01*
X182250000Y-88990000D02*
X182250000Y-84810000D01*
X182514360Y-91615640D02*
X182910002Y-91219998D01*
X182910002Y-91219998D02*
X182910002Y-89650002D01*
X173813187Y-77510228D02*
X173813187Y-77436468D01*
X182910002Y-89650002D02*
X182250000Y-88990000D01*
X183890000Y-97120000D02*
X183890000Y-95600000D01*
X181440000Y-79840000D02*
X176142959Y-79840000D01*
X182490000Y-80890000D02*
X181440000Y-79840000D01*
X182490000Y-84570000D02*
X182490000Y-80890000D01*
X182514360Y-91969430D02*
X182514360Y-91615640D01*
X182840044Y-92295114D02*
X182514360Y-91969430D01*
X182840044Y-94550044D02*
X182840044Y-92295114D01*
X171495010Y-76964990D02*
X171060000Y-77400000D01*
X173038973Y-76964990D02*
X171495010Y-76964990D01*
X180211414Y-93333321D02*
X180490000Y-93611907D01*
X174359788Y-80559294D02*
X178200000Y-84399506D01*
X171060000Y-78700000D02*
X172621289Y-78700000D01*
X180490000Y-93611907D02*
X180490000Y-98340241D01*
X181587861Y-99396167D02*
X182355505Y-100163811D01*
X182355505Y-100496217D02*
X182880871Y-101021584D01*
X180490000Y-98340241D02*
X181545926Y-99396167D01*
X182355505Y-100163811D02*
X182355505Y-100496217D01*
X181545926Y-99396167D02*
X181587861Y-99396167D01*
X172621289Y-78700000D02*
X174359788Y-80438499D01*
X171060000Y-77400000D02*
X171060000Y-78700000D01*
X178200000Y-84399506D02*
X178200000Y-88550000D01*
X174359788Y-80438499D02*
X174359788Y-80559294D01*
X178200000Y-88550000D02*
X180211414Y-90561414D01*
X180211414Y-90561414D02*
X180211414Y-93333321D01*
X172099274Y-77611593D02*
X171675010Y-77611593D01*
X173285893Y-77611593D02*
X172099274Y-77611593D01*
X181849989Y-86175689D02*
X173285893Y-77611593D01*
X182114349Y-91449951D02*
X182509991Y-91054309D01*
X185830001Y-100400001D02*
X185782403Y-100400001D01*
X182509991Y-91054309D02*
X182509991Y-89815691D01*
X182440033Y-92460803D02*
X182114349Y-92135119D01*
X185782403Y-100400001D02*
X182440033Y-97057631D01*
X186130000Y-100700000D02*
X185830001Y-100400001D01*
X182440033Y-97057631D02*
X182440033Y-92460803D01*
X181849989Y-89155689D02*
X181849989Y-86175689D01*
X182509991Y-89815691D02*
X181849989Y-89155689D01*
X182114349Y-92135119D02*
X182114349Y-91449951D01*
X170886027Y-81920083D02*
X170928611Y-81877499D01*
X167920000Y-92931829D02*
X167494998Y-92506827D01*
X170886027Y-82603973D02*
X170886027Y-81920083D01*
X167920000Y-100640000D02*
X167920000Y-92931829D01*
X167494998Y-92506827D02*
X167494998Y-89493998D01*
X167920000Y-89068996D02*
X167920000Y-85570000D01*
X167494998Y-89493998D02*
X167920000Y-89068996D01*
X167920000Y-85570000D02*
X170886027Y-82603973D01*
X166846595Y-98995593D02*
X166846595Y-89576701D01*
X167146594Y-89276702D02*
X167146594Y-85711556D01*
X170203727Y-82654423D02*
X170203727Y-82494273D01*
X166846595Y-89576701D02*
X167146594Y-89276702D01*
X167146594Y-85711556D02*
X170203727Y-82654423D01*
X167146594Y-99295592D02*
X166846595Y-98995593D01*
X170203727Y-82494273D02*
X170203727Y-82070009D01*
X167146594Y-100456594D02*
X167146594Y-99295592D01*
X169860000Y-73280000D02*
X169470009Y-73669991D01*
X175379988Y-84374288D02*
X175379988Y-86770295D01*
X169470009Y-77676690D02*
X171473288Y-79679969D01*
X173035558Y-79679969D02*
X173959777Y-80604188D01*
X175379988Y-86770295D02*
X174825305Y-87324978D01*
X174825305Y-87324978D02*
X174575054Y-87324978D01*
X174575054Y-87324978D02*
X174072289Y-87827743D01*
X171473288Y-79679969D02*
X173035558Y-79679969D01*
X169470009Y-73669991D02*
X169470009Y-77676690D01*
X173472632Y-87827743D02*
X173048368Y-87827743D01*
X174604247Y-83598547D02*
X175379988Y-84374288D01*
X174072289Y-87827743D02*
X173472632Y-87827743D01*
X173959777Y-80604188D02*
X173959777Y-80761962D01*
X174604247Y-81406432D02*
X174604247Y-83598547D01*
X173959777Y-80761962D02*
X174604247Y-81406432D01*
X171646593Y-98783407D02*
X171346594Y-99083406D01*
X172823246Y-87207973D02*
X171750011Y-88281208D01*
X173317826Y-87207973D02*
X172823246Y-87207973D01*
X173454250Y-87344397D02*
X173317826Y-87207973D01*
X171750011Y-88281208D02*
X171750011Y-98679989D01*
X171098620Y-80079980D02*
X172869869Y-80079980D01*
X174204236Y-81572121D02*
X174204236Y-84759256D01*
X168836177Y-74406940D02*
X168807304Y-74435813D01*
X168807304Y-77788664D02*
X171098620Y-80079980D01*
X168807304Y-74435813D02*
X168807304Y-77788664D01*
X172869869Y-80079980D02*
X173559766Y-80769877D01*
X174979977Y-86604606D02*
X174659616Y-86924967D01*
X168809550Y-73619272D02*
X168836177Y-73645899D01*
X168836177Y-73645899D02*
X168836177Y-74406940D01*
X171750011Y-98679989D02*
X171646593Y-98783407D01*
X173559766Y-80769877D02*
X173559766Y-80927651D01*
X173559766Y-80927651D02*
X174204236Y-81572121D01*
X174659616Y-86924967D02*
X174409365Y-86924967D01*
X173989935Y-87344397D02*
X173454250Y-87344397D01*
X174979977Y-85534997D02*
X174979977Y-86604606D01*
X174204236Y-84759256D02*
X174979977Y-85534997D01*
X174409365Y-86924967D02*
X173989935Y-87344397D01*
X173159755Y-80935566D02*
X173159755Y-81093340D01*
X174243676Y-86524956D02*
X173999245Y-86769387D01*
X173999245Y-86769387D02*
X173698006Y-86769387D01*
X173804225Y-84965214D02*
X174579966Y-85740955D01*
X174493927Y-86524956D02*
X174243676Y-86524956D01*
X174579966Y-86438917D02*
X174493927Y-86524956D01*
X173804225Y-81737810D02*
X173804225Y-84965214D01*
X173159755Y-81093340D02*
X173804225Y-81737810D01*
X167657293Y-77702993D02*
X170434291Y-80479991D01*
X172704180Y-80479991D02*
X173159755Y-80935566D01*
X167690250Y-73644563D02*
X167657293Y-73677520D01*
X170434291Y-80479991D02*
X172704180Y-80479991D01*
X174579966Y-85740955D02*
X174579966Y-86438917D01*
X167657293Y-73677520D02*
X167657293Y-77702993D01*
X213300001Y-104100001D02*
X213800000Y-104600000D01*
X211499999Y-102299999D02*
X213300001Y-104100001D01*
X202179999Y-102299999D02*
X211499999Y-102299999D01*
X201880000Y-102000000D02*
X202179999Y-102299999D01*
D51*
X213800000Y-95300000D02*
X211800000Y-93300000D01*
D50*
X207460000Y-93300000D02*
X207340000Y-93180000D01*
X211800000Y-93300000D02*
X207460000Y-93300000D01*
X121119999Y-112030001D02*
X120820000Y-112330000D01*
X123530000Y-109620000D02*
X121119999Y-112030001D01*
X136800000Y-109620000D02*
X123530000Y-109620000D01*
X151200000Y-95220000D02*
X136800000Y-109620000D01*
X169230000Y-80880000D02*
X168360000Y-81750000D01*
X162387002Y-94460000D02*
X156440000Y-94460000D01*
X171450000Y-80880000D02*
X169230000Y-80880000D01*
X164040000Y-92807002D02*
X162387002Y-94460000D01*
X172609999Y-82039999D02*
X171450000Y-80880000D01*
X172609999Y-84588061D02*
X172609999Y-82039999D01*
X174004956Y-85983018D02*
X172609999Y-84588061D01*
X168360000Y-82400000D02*
X167230000Y-83530000D01*
X168360000Y-81750000D02*
X168360000Y-82400000D01*
X167230000Y-83530000D02*
X162690000Y-83530000D01*
X162690000Y-83530000D02*
X161020000Y-85200000D01*
X161020000Y-88190000D02*
X164040000Y-91210000D01*
X161020000Y-85200000D02*
X161020000Y-88190000D01*
X164040000Y-91210000D02*
X164040000Y-92807002D01*
X156440000Y-94460000D02*
X155680000Y-95220000D01*
X155680000Y-95220000D02*
X151200000Y-95220000D01*
X172828307Y-85617231D02*
X172828307Y-86041495D01*
X172089989Y-84645689D02*
X172828307Y-85384007D01*
X171163425Y-81299125D02*
X172089989Y-82225689D01*
X169586575Y-81299125D02*
X171163425Y-81299125D01*
X162840000Y-84100000D02*
X167585700Y-84100000D01*
X161430000Y-85510000D02*
X162840000Y-84100000D01*
X164440011Y-91044311D02*
X161430000Y-88034300D01*
X164440011Y-93175689D02*
X164440011Y-91044311D01*
X162605700Y-95010000D02*
X164440011Y-93175689D01*
X161430000Y-88034300D02*
X161430000Y-85510000D01*
X155805689Y-95730011D02*
X156525700Y-95010000D01*
X172089989Y-82225689D02*
X172089989Y-84645689D01*
X167585700Y-84100000D02*
X168880011Y-82805689D01*
X152025689Y-95730011D02*
X155805689Y-95730011D01*
X137665700Y-110090000D02*
X152025689Y-95730011D01*
X57450000Y-115530000D02*
X63960000Y-115530000D01*
X63960000Y-115530000D02*
X65930000Y-113560000D01*
X53460000Y-127185000D02*
X53460000Y-119520000D01*
X168880011Y-82805689D02*
X168880011Y-82005689D01*
X83508622Y-113819978D02*
X120680022Y-113819978D01*
X65930000Y-111990000D02*
X66530000Y-111390000D01*
X172828307Y-85384007D02*
X172828307Y-85617231D01*
X53460000Y-119520000D02*
X57450000Y-115530000D01*
X66530000Y-111390000D02*
X80530000Y-111390000D01*
X156525700Y-95010000D02*
X162605700Y-95010000D01*
X80530000Y-111390000D02*
X81230000Y-112090000D01*
X81230000Y-114591004D02*
X81518974Y-114879978D01*
X168880011Y-82005689D02*
X169586575Y-81299125D01*
X81230000Y-112090000D02*
X81230000Y-114591004D01*
X81518974Y-114879978D02*
X82448622Y-114879978D01*
X65930000Y-113560000D02*
X65930000Y-111990000D01*
X82448622Y-114879978D02*
X83508622Y-113819978D01*
X124410000Y-110090000D02*
X137665700Y-110090000D01*
X56075000Y-129800000D02*
X53460000Y-127185000D01*
X120680022Y-113819978D02*
X124410000Y-110090000D01*
X180680482Y-100471192D02*
X180980481Y-100771191D01*
X179859290Y-99650000D02*
X180680482Y-100471192D01*
X179000000Y-99650000D02*
X179859290Y-99650000D01*
M02*
